<svg width="208" height="423" viewBox="0 0 208 423" fill="none" xmlns="http://www.w3.org/2000/svg">
<path d="M4.04616 21.6782L0.351562 8.58731H2.90199L5.26065 18.2073H5.3821L7.90057 8.58731H10.2209L12.7457 18.2137H12.8608L15.2195 8.58731H17.7699L14.0753 21.6782H11.7358L9.11506 12.4929H9.01278L6.38565 21.6782H4.04616ZM22.4766 21.87C21.4922 21.87 20.6421 21.6654 19.9262 21.2563C19.2145 20.843 18.6669 20.2592 18.2834 19.5049C17.8999 18.7464 17.7081 17.8536 17.7081 16.8267C17.7081 15.8167 17.8999 14.9304 18.2834 14.1676C18.6712 13.4005 19.2124 12.8039 19.907 12.3778C20.6016 11.9474 21.4177 11.7322 22.3552 11.7322C22.9603 11.7322 23.5313 11.8302 24.0682 12.0262C24.6094 12.218 25.0867 12.5163 25.5 12.9211C25.9177 13.3259 26.2458 13.8416 26.4844 14.468C26.7231 15.0902 26.8424 15.8316 26.8424 16.6924V17.4019H18.7948V15.8423H24.6243C24.6201 15.3991 24.5242 15.0049 24.3367 14.6598C24.1492 14.3103 23.8871 14.0355 23.5505 13.8352C23.2181 13.6349 22.8303 13.5348 22.3871 13.5348C21.9141 13.5348 21.4986 13.6498 21.1407 13.8799C20.7827 14.1058 20.5036 14.4041 20.3033 14.7748C20.1073 15.1413 20.0071 15.544 20.0029 15.9829V17.3444C20.0029 17.9154 20.1073 18.4055 20.3161 18.8146C20.5249 19.2194 20.8168 19.5305 21.1918 19.7478C21.5668 19.9609 22.0057 20.0674 22.5086 20.0674C22.8452 20.0674 23.1499 20.0206 23.4226 19.9268C23.6954 19.8288 23.9319 19.686 24.1321 19.4985C24.3324 19.311 24.4837 19.0788 24.586 18.8018L26.7465 19.0447C26.6101 19.6157 26.3502 20.1143 25.9667 20.5404C25.5874 20.9623 25.1016 21.2904 24.5093 21.5248C23.9169 21.7549 23.2394 21.87 22.4766 21.87ZM35.7301 21.8764C35.1079 21.8764 34.5475 21.7656 34.049 21.544C33.5546 21.3181 33.1626 20.9858 32.8728 20.5468C32.5873 20.1079 32.4446 19.5667 32.4446 18.9233C32.4446 18.3693 32.5468 17.9112 32.7514 17.549C32.9559 17.1867 33.235 16.897 33.5887 16.6796C33.9424 16.4623 34.3409 16.2983 34.784 16.1875C35.2315 16.0724 35.6938 15.9893 36.1711 15.9382C36.7464 15.8785 37.213 15.8252 37.571 15.7784C37.9289 15.7272 38.1889 15.6505 38.3508 15.5483C38.517 15.4417 38.6001 15.2777 38.6001 15.0561V15.0177C38.6001 14.5362 38.4573 14.1633 38.1718 13.8991C37.8863 13.6349 37.4751 13.5028 36.9382 13.5028C36.3714 13.5028 35.9218 13.6264 35.5894 13.8735C35.2613 14.1207 35.0397 14.4126 34.9247 14.7492L32.7642 14.4424C32.9346 13.8458 33.2159 13.3473 33.6079 12.9467C33.9999 12.5419 34.4794 12.2393 35.0461 12.039C35.6129 11.8345 36.2393 11.7322 36.9254 11.7322C37.3984 11.7322 37.8693 11.7876 38.338 11.8984C38.8068 12.0092 39.235 12.1924 39.6228 12.4481C40.0106 12.6995 40.3217 13.0426 40.5561 13.4772C40.7947 13.9119 40.914 14.4552 40.914 15.1072V21.6782H38.6896V20.3295H38.6129C38.4723 20.6022 38.2741 20.8579 38.0184 21.0965C37.767 21.3309 37.4495 21.5206 37.066 21.6654C36.6867 21.8061 36.2414 21.8764 35.7301 21.8764ZM36.3309 20.1761C36.7954 20.1761 37.1981 20.0845 37.539 19.9012C37.8799 19.7137 38.142 19.4666 38.3252 19.1598C38.5127 18.8529 38.6065 18.5184 38.6065 18.1562V16.9992C38.534 17.0589 38.4105 17.1143 38.2357 17.1654C38.0653 17.2166 37.8735 17.2613 37.6605 17.2997C37.4474 17.338 37.2365 17.3721 37.0276 17.4019C36.8188 17.4318 36.6377 17.4573 36.4843 17.4786C36.1392 17.5255 35.8302 17.6022 35.5575 17.7088C35.2848 17.8153 35.0696 17.9644 34.9119 18.1562C34.7542 18.3437 34.6754 18.5866 34.6754 18.8849C34.6754 19.311 34.8309 19.6328 35.142 19.8501C35.4531 20.0674 35.8494 20.1761 36.3309 20.1761ZM43.0607 21.6782V11.86H45.3043V13.4964H45.4066C45.5856 12.9296 45.8924 12.4929 46.3271 12.186C46.766 11.875 47.2667 11.7194 47.8292 11.7194C47.957 11.7194 48.0998 11.7258 48.2574 11.7386C48.4194 11.7471 48.5536 11.762 48.6601 11.7833V13.9119C48.5621 13.8778 48.4066 13.848 48.1935 13.8224C47.9847 13.7926 47.7823 13.7777 47.5863 13.7777C47.1644 13.7777 46.7851 13.8693 46.4485 14.0525C46.1161 14.2315 45.854 14.4808 45.6623 14.8004C45.4705 15.12 45.3746 15.4886 45.3746 15.9062V21.6782H43.0607ZM53.9597 21.87C52.9754 21.87 52.1252 21.6654 51.4093 21.2563C50.6977 20.843 50.1501 20.2592 49.7665 19.5049C49.383 18.7464 49.1913 17.8536 49.1913 16.8267C49.1913 15.8167 49.383 14.9304 49.7665 14.1676C50.1543 13.4005 50.6955 12.8039 51.3901 12.3778C52.0847 11.9474 52.9008 11.7322 53.8383 11.7322C54.4434 11.7322 55.0144 11.8302 55.5513 12.0262C56.0925 12.218 56.5698 12.5163 56.9832 12.9211C57.4008 13.3259 57.7289 13.8416 57.9675 14.468C58.2062 15.0902 58.3255 15.8316 58.3255 16.6924V17.4019H50.2779V15.8423H56.1075C56.1032 15.3991 56.0073 15.0049 55.8198 14.6598C55.6323 14.3103 55.3702 14.0355 55.0336 13.8352C54.7012 13.6349 54.3134 13.5348 53.8702 13.5348C53.3972 13.5348 52.9817 13.6498 52.6238 13.8799C52.2658 14.1058 51.9867 14.4041 51.7864 14.7748C51.5904 15.1413 51.4903 15.544 51.486 15.9829V17.3444C51.486 17.9154 51.5904 18.4055 51.7992 18.8146C52.008 19.2194 52.2999 19.5305 52.6749 19.7478C53.0499 19.9609 53.4888 20.0674 53.9917 20.0674C54.3283 20.0674 54.633 20.0206 54.9058 19.9268C55.1785 19.8288 55.415 19.686 55.6153 19.4985C55.8156 19.311 55.9668 19.0788 56.0691 18.8018L58.2296 19.0447C58.0933 19.6157 57.8333 20.1143 57.4498 20.5404C57.0705 20.9623 56.5847 21.2904 55.9924 21.5248C55.4001 21.7549 54.7225 21.87 53.9597 21.87ZM64.4902 21.6782V8.58731H66.8041V13.4836H66.9C67.0193 13.245 67.1876 12.9914 67.405 12.723C67.6223 12.4502 67.9163 12.218 68.2871 12.0262C68.6578 11.8302 69.1308 11.7322 69.7061 11.7322C70.4646 11.7322 71.1486 11.9261 71.7579 12.3139C72.3716 12.6974 72.8574 13.2663 73.2153 14.0206C73.5775 14.7706 73.7586 15.691 73.7586 16.7819C73.7586 17.86 73.5818 18.7762 73.2281 19.5305C72.8744 20.2848 72.3929 20.86 71.7835 21.2563C71.1741 21.6527 70.4838 21.8508 69.7125 21.8508C69.15 21.8508 68.6834 21.7571 68.3126 21.5696C67.9419 21.3821 67.6436 21.1562 67.4177 20.892C67.1961 20.6235 67.0236 20.37 66.9 20.1313H66.7657V21.6782H64.4902ZM66.7594 16.7691C66.7594 17.4041 66.8488 17.9602 67.0278 18.4375C67.2111 18.9147 67.4731 19.2876 67.814 19.5561C68.1592 19.8203 68.5768 19.9524 69.0669 19.9524C69.5782 19.9524 70.0065 19.816 70.3517 19.5433C70.6969 19.2663 70.9568 18.8892 71.1315 18.4119C71.3105 17.9304 71.4 17.3828 71.4 16.7691C71.4 16.1598 71.3126 15.6186 71.1379 15.1456C70.9632 14.6725 70.7032 14.3018 70.3581 14.0333C70.0129 13.7649 69.5825 13.6306 69.0669 13.6306C68.5726 13.6306 68.1528 13.7606 67.8077 14.0206C67.4625 14.2805 67.2004 14.6448 67.0214 15.1136C66.8467 15.5823 66.7594 16.1342 66.7594 16.7691ZM79.8924 21.87C78.908 21.87 78.0579 21.6654 77.342 21.2563C76.6303 20.843 76.0827 20.2592 75.6992 19.5049C75.3157 18.7464 75.1239 17.8536 75.1239 16.8267C75.1239 15.8167 75.3157 14.9304 75.6992 14.1676C76.087 13.4005 76.6282 12.8039 77.3228 12.3778C78.0174 11.9474 78.8334 11.7322 79.7709 11.7322C80.376 11.7322 80.9471 11.8302 81.484 12.0262C82.0252 12.218 82.5025 12.5163 82.9158 12.9211C83.3334 13.3259 83.6616 13.8416 83.9002 14.468C84.1388 15.0902 84.2582 15.8316 84.2582 16.6924V17.4019H76.2106V15.8423H82.0401C82.0359 15.3991 81.94 15.0049 81.7525 14.6598C81.565 14.3103 81.3029 14.0355 80.9662 13.8352C80.6339 13.6349 80.2461 13.5348 79.8029 13.5348C79.3299 13.5348 78.9144 13.6498 78.5564 13.8799C78.1985 14.1058 77.9194 14.4041 77.7191 14.7748C77.5231 15.1413 77.4229 15.544 77.4187 15.9829V17.3444C77.4187 17.9154 77.5231 18.4055 77.7319 18.8146C77.9407 19.2194 78.2326 19.5305 78.6076 19.7478C78.9826 19.9609 79.4215 20.0674 79.9243 20.0674C80.261 20.0674 80.5657 20.0206 80.8384 19.9268C81.1111 19.8288 81.3476 19.686 81.5479 19.4985C81.7482 19.311 81.8995 19.0788 82.0018 18.8018L84.1623 19.0447C84.0259 19.6157 83.766 20.1143 83.3824 20.5404C83.0032 20.9623 82.5174 21.2904 81.9251 21.5248C81.3327 21.7549 80.6552 21.87 79.8924 21.87ZM86.0357 21.6782V11.86H88.3496V21.6782H86.0357ZM87.1991 10.4666C86.8326 10.4666 86.5172 10.3451 86.253 10.1022C85.9888 9.85507 85.8567 9.5589 85.8567 9.21373C85.8567 8.8643 85.9888 8.56814 86.253 8.32524C86.5172 8.07808 86.8326 7.9545 87.1991 7.9545C87.5698 7.9545 87.8851 8.07808 88.1451 8.32524C88.4093 8.56814 88.5414 8.8643 88.5414 9.21373C88.5414 9.5589 88.4093 9.85507 88.1451 10.1022C87.8851 10.3451 87.5698 10.4666 87.1991 10.4666ZM92.863 15.9254V21.6782H90.5491V11.86H92.7607V13.5284H92.8758C93.1016 12.9786 93.4617 12.5419 93.956 12.218C94.4546 11.8941 95.0704 11.7322 95.8033 11.7322C96.4809 11.7322 97.0711 11.8771 97.5739 12.1669C98.081 12.4566 98.4731 12.8764 98.7501 13.4261C99.0313 13.9758 99.1698 14.6427 99.1656 15.4268V21.6782H96.8516V15.7848C96.8516 15.1285 96.6812 14.615 96.3403 14.2443C96.0036 13.8735 95.537 13.6882 94.9404 13.6882C94.5356 13.6882 94.1755 13.7777 93.8602 13.9566C93.5491 14.1313 93.304 14.3849 93.1251 14.7173C92.9504 15.0497 92.863 15.4524 92.863 15.9254ZM105.608 25.5646C104.777 25.5646 104.063 25.4517 103.466 25.2258C102.87 25.0042 102.39 24.7059 102.028 24.3309C101.666 23.9559 101.415 23.5404 101.274 23.0845L103.358 22.5795C103.451 22.7713 103.588 22.9609 103.767 23.1484C103.946 23.3402 104.187 23.4978 104.489 23.6214C104.796 23.7492 105.182 23.8132 105.646 23.8132C106.302 23.8132 106.846 23.6534 107.276 23.3338C107.706 23.0184 107.922 22.4985 107.922 21.7741V19.914H107.807C107.687 20.1527 107.513 20.3977 107.282 20.6491C107.057 20.9005 106.756 21.1115 106.381 21.2819C106.01 21.4524 105.544 21.5376 104.981 21.5376C104.227 21.5376 103.543 21.3608 102.929 21.0071C102.32 20.6491 101.834 20.1164 101.472 19.409C101.114 18.6974 100.935 17.8068 100.935 16.7372C100.935 15.659 101.114 14.7492 101.472 14.0078C101.834 13.262 102.322 12.6974 102.936 12.3139C103.549 11.9261 104.233 11.7322 104.988 11.7322C105.563 11.7322 106.036 11.8302 106.407 12.0262C106.782 12.218 107.08 12.4502 107.302 12.723C107.523 12.9914 107.692 13.245 107.807 13.4836H107.934V11.86H110.216V21.838C110.216 22.6775 110.016 23.3721 109.616 23.9218C109.215 24.4715 108.667 24.8828 107.973 25.1555C107.278 25.4282 106.49 25.5646 105.608 25.5646ZM105.627 19.7223C106.117 19.7223 106.535 19.6029 106.88 19.3643C107.225 19.1257 107.487 18.7826 107.666 18.3352C107.845 17.8877 107.934 17.3508 107.934 16.7244C107.934 16.1065 107.845 15.5653 107.666 15.1008C107.491 14.6363 107.231 14.2762 106.886 14.0206C106.545 13.7606 106.125 13.6306 105.627 13.6306C105.111 13.6306 104.681 13.7649 104.336 14.0333C103.991 14.3018 103.731 14.6704 103.556 15.1392C103.381 15.6036 103.294 16.1321 103.294 16.7244C103.294 17.3252 103.381 17.8515 103.556 18.3032C103.735 18.7507 103.997 19.1001 104.342 19.3515C104.692 19.5987 105.12 19.7223 105.627 19.7223ZM118.719 21.6782L115.945 11.86H118.303L120.029 18.7634H120.119L121.883 11.86H124.216L125.98 18.7251H126.076L127.776 11.86H130.142L127.361 21.6782H124.951L123.11 15.0433H122.976L121.135 21.6782H118.719ZM134.402 21.8764C133.78 21.8764 133.22 21.7656 132.721 21.544C132.227 21.3181 131.835 20.9858 131.545 20.5468C131.26 20.1079 131.117 19.5667 131.117 18.9233C131.117 18.3693 131.219 17.9112 131.424 17.549C131.628 17.1867 131.907 16.897 132.261 16.6796C132.615 16.4623 133.013 16.2983 133.456 16.1875C133.904 16.0724 134.366 15.9893 134.843 15.9382C135.419 15.8785 135.885 15.8252 136.243 15.7784C136.601 15.7272 136.861 15.6505 137.023 15.5483C137.189 15.4417 137.272 15.2777 137.272 15.0561V15.0177C137.272 14.5362 137.13 14.1633 136.844 13.8991C136.559 13.6349 136.147 13.5028 135.611 13.5028C135.044 13.5028 134.594 13.6264 134.262 13.8735C133.934 14.1207 133.712 14.4126 133.597 14.7492L131.436 14.4424C131.607 13.8458 131.888 13.3473 132.28 12.9467C132.672 12.5419 133.152 12.2393 133.718 12.039C134.285 11.8345 134.912 11.7322 135.598 11.7322C136.071 11.7322 136.542 11.7876 137.01 11.8984C137.479 12.0092 137.907 12.1924 138.295 12.4481C138.683 12.6995 138.994 13.0426 139.228 13.4772C139.467 13.9119 139.586 14.4552 139.586 15.1072V21.6782H137.362V20.3295H137.285C137.145 20.6022 136.946 20.8579 136.691 21.0965C136.439 21.3309 136.122 21.5206 135.738 21.6654C135.359 21.8061 134.914 21.8764 134.402 21.8764ZM135.003 20.1761C135.468 20.1761 135.87 20.0845 136.211 19.9012C136.552 19.7137 136.814 19.4666 136.998 19.1598C137.185 18.8529 137.279 18.5184 137.279 18.1562V16.9992C137.206 17.0589 137.083 17.1143 136.908 17.1654C136.738 17.2166 136.546 17.2613 136.333 17.2997C136.12 17.338 135.909 17.3721 135.7 17.4019C135.491 17.4318 135.31 17.4573 135.157 17.4786C134.811 17.5255 134.503 17.6022 134.23 17.7088C133.957 17.8153 133.742 17.9644 133.584 18.1562C133.427 18.3437 133.348 18.5866 133.348 18.8849C133.348 19.311 133.503 19.6328 133.814 19.8501C134.125 20.0674 134.522 20.1761 135.003 20.1761ZM146.636 11.86V13.6498H140.992V11.86H146.636ZM142.385 9.50777H144.699V18.7251C144.699 19.0362 144.746 19.2748 144.84 19.441C144.938 19.6029 145.065 19.7137 145.223 19.7734C145.381 19.8331 145.556 19.8629 145.747 19.8629C145.892 19.8629 146.024 19.8522 146.144 19.8309C146.267 19.8096 146.361 19.7904 146.425 19.7734L146.815 21.5823C146.691 21.625 146.514 21.6718 146.284 21.723C146.058 21.7741 145.781 21.8039 145.453 21.8125C144.874 21.8295 144.352 21.7421 143.887 21.5504C143.423 21.3544 143.054 21.0518 142.781 20.6427C142.513 20.2336 142.381 19.7223 142.385 19.1086V9.50777ZM152.568 21.87C151.588 21.87 150.746 21.6548 150.043 21.2244C149.344 20.794 148.805 20.1995 148.426 19.441C148.051 18.6782 147.864 17.8004 147.864 16.8075C147.864 15.8103 148.055 14.9304 148.439 14.1676C148.822 13.4005 149.364 12.8039 150.062 12.3778C150.766 11.9474 151.597 11.7322 152.555 11.7322C153.352 11.7322 154.057 11.8792 154.671 12.1733C155.289 12.463 155.781 12.8742 156.148 13.4069C156.514 13.9353 156.723 14.5532 156.774 15.2606H154.562C154.473 14.7876 154.26 14.3934 153.923 14.0781C153.591 13.7585 153.146 13.5987 152.587 13.5987C152.114 13.5987 151.699 13.7265 151.341 13.9822C150.983 14.2336 150.704 14.5958 150.504 15.0688C150.307 15.5419 150.209 16.1086 150.209 16.7691C150.209 17.4382 150.307 18.0134 150.504 18.495C150.7 18.9723 150.974 19.3409 151.328 19.6008C151.686 19.8565 152.106 19.9843 152.587 19.9843C152.928 19.9843 153.233 19.9204 153.501 19.7926C153.774 19.6605 154.002 19.4708 154.185 19.2237C154.369 18.9765 154.494 18.6761 154.562 18.3224H156.774C156.719 19.017 156.514 19.6328 156.16 20.1697C155.807 20.7024 155.325 21.12 154.716 21.4225C154.107 21.7208 153.391 21.87 152.568 21.87ZM160.808 15.9254V21.6782H158.494V8.58731H160.757V13.5284H160.872C161.102 12.9744 161.458 12.5376 161.939 12.218C162.425 11.8941 163.043 11.7322 163.793 11.7322C164.475 11.7322 165.069 11.875 165.577 12.1605C166.084 12.446 166.476 12.8636 166.753 13.4133C167.034 13.963 167.175 14.6342 167.175 15.4268V21.6782H164.861V15.7848C164.861 15.1242 164.69 14.6108 164.349 14.2443C164.013 13.8735 163.54 13.6882 162.93 13.6882C162.521 13.6882 162.155 13.7777 161.831 13.9566C161.511 14.1313 161.26 14.3849 161.077 14.7173C160.898 15.0497 160.808 15.4524 160.808 15.9254ZM173.7 21.87C172.715 21.87 171.865 21.6654 171.149 21.2563C170.438 20.843 169.89 20.2592 169.507 19.5049C169.123 18.7464 168.931 17.8536 168.931 16.8267C168.931 15.8167 169.123 14.9304 169.507 14.1676C169.894 13.4005 170.436 12.8039 171.13 12.3778C171.825 11.9474 172.641 11.7322 173.578 11.7322C174.183 11.7322 174.754 11.8302 175.291 12.0262C175.833 12.218 176.31 12.5163 176.723 12.9211C177.141 13.3259 177.469 13.8416 177.708 14.468C177.946 15.0902 178.066 15.8316 178.066 16.6924V17.4019H170.018V15.8423H175.848C175.843 15.3991 175.747 15.0049 175.56 14.6598C175.372 14.3103 175.11 14.0355 174.774 13.8352C174.441 13.6349 174.053 13.5348 173.61 13.5348C173.137 13.5348 172.722 13.6498 172.364 13.8799C172.006 14.1058 171.727 14.4041 171.527 14.7748C171.33 15.1413 171.23 15.544 171.226 15.9829V17.3444C171.226 17.9154 171.33 18.4055 171.539 18.8146C171.748 19.2194 172.04 19.5305 172.415 19.7478C172.79 19.9609 173.229 20.0674 173.732 20.0674C174.068 20.0674 174.373 20.0206 174.646 19.9268C174.919 19.8288 175.155 19.686 175.355 19.4985C175.556 19.311 175.707 19.0788 175.809 18.8018L177.97 19.0447C177.833 19.6157 177.573 20.1143 177.19 20.5404C176.811 20.9623 176.325 21.2904 175.732 21.5248C175.14 21.7549 174.463 21.87 173.7 21.87ZM183.487 21.8508C182.715 21.8508 182.025 21.6527 181.416 21.2563C180.806 20.86 180.325 20.2848 179.971 19.5305C179.617 18.7762 179.44 17.86 179.44 16.7819C179.44 15.691 179.619 14.7706 179.977 14.0206C180.34 13.2663 180.828 12.6974 181.441 12.3139C182.055 11.9261 182.739 11.7322 183.493 11.7322C184.068 11.7322 184.541 11.8302 184.912 12.0262C185.283 12.218 185.577 12.4502 185.794 12.723C186.011 12.9914 186.18 13.245 186.299 13.4836H186.395V8.58731H188.715V21.6782H186.44V20.1313H186.299C186.18 20.37 186.007 20.6235 185.781 20.892C185.555 21.1562 185.257 21.3821 184.886 21.5696C184.516 21.7571 184.049 21.8508 183.487 21.8508ZM184.132 19.9524C184.622 19.9524 185.04 19.8203 185.385 19.5561C185.73 19.2876 185.992 18.9147 186.171 18.4375C186.35 17.9602 186.44 17.4041 186.44 16.7691C186.44 16.1342 186.35 15.5823 186.171 15.1136C185.997 14.6448 185.737 14.2805 185.391 14.0206C185.051 13.7606 184.631 13.6306 184.132 13.6306C183.617 13.6306 183.186 13.7649 182.841 14.0333C182.496 14.3018 182.236 14.6725 182.061 15.1456C181.886 15.6186 181.799 16.1598 181.799 16.7691C181.799 17.3828 181.886 17.9304 182.061 18.4119C182.24 18.8892 182.502 19.2663 182.847 19.5433C183.197 19.816 183.625 19.9524 184.132 19.9524ZM192.426 21.8188C192.039 21.8188 191.706 21.6825 191.429 21.4098C191.152 21.137 191.016 20.8046 191.02 20.4126C191.016 20.0291 191.152 19.7009 191.429 19.4282C191.706 19.1555 192.039 19.0191 192.426 19.0191C192.801 19.0191 193.127 19.1555 193.404 19.4282C193.686 19.7009 193.828 20.0291 193.833 20.4126C193.828 20.6725 193.76 20.909 193.628 21.1221C193.5 21.3352 193.33 21.5056 193.117 21.6335C192.908 21.7571 192.678 21.8188 192.426 21.8188ZM192.426 14.8132C192.039 14.8132 191.706 14.6768 191.429 14.4041C191.152 14.1271 191.016 13.7947 191.02 13.4069C191.016 13.0234 191.152 12.6953 191.429 12.4225C191.706 12.1456 192.039 12.0071 192.426 12.0071C192.801 12.0071 193.127 12.1456 193.404 12.4225C193.686 12.6953 193.828 13.0234 193.833 13.4069C193.828 13.6626 193.76 13.897 193.628 14.11C193.5 14.3231 193.33 14.4936 193.117 14.6214C192.908 14.7492 192.678 14.8132 192.426 14.8132Z" fill="#1E222E"/>
<path d="M6.0992 61.8373C5.3189 61.8373 4.62193 61.7028 4.00829 61.4339C3.39845 61.165 2.91549 60.7919 2.55943 60.3146C2.20716 59.8335 2.01776 59.2767 1.99125 58.6441H3.77534C3.79807 58.9888 3.9136 59.2881 4.12193 59.5419C4.33405 59.7919 4.61057 59.985 4.95148 60.1214C5.29239 60.2578 5.67117 60.3259 6.08784 60.3259C6.54617 60.3259 6.95148 60.2464 7.30375 60.0873C7.65981 59.9282 7.93822 59.7066 8.13898 59.4225C8.33973 59.1347 8.44011 58.8032 8.44011 58.4282C8.44011 58.0381 8.33973 57.6953 8.13898 57.3998C7.94201 57.1006 7.65223 56.8657 7.26966 56.6953C6.89087 56.5248 6.43254 56.4396 5.89466 56.4396H4.9117V55.0078H5.89466C6.32648 55.0078 6.70526 54.9301 7.03102 54.7748C7.36057 54.6195 7.61814 54.4036 7.80375 54.1271C7.98936 53.8468 8.08216 53.5191 8.08216 53.1441C8.08216 52.7843 8.00072 52.4718 7.83784 52.2066C7.67875 51.9377 7.45148 51.7275 7.15602 51.5759C6.86436 51.4244 6.51966 51.3487 6.12193 51.3487C5.74314 51.3487 5.38898 51.4188 5.05943 51.5589C4.73367 51.6953 4.46852 51.8922 4.26398 52.1498C4.05943 52.4036 3.94958 52.7085 3.93443 53.0646H2.23557C2.25451 52.4358 2.44011 51.8828 2.79239 51.4055C3.14845 50.9282 3.61814 50.5551 4.20148 50.2862C4.78481 50.0172 5.43254 49.8828 6.14466 49.8828C6.89087 49.8828 7.53481 50.0286 8.07648 50.3203C8.62193 50.6081 9.04239 50.9926 9.33784 51.4737C9.63708 51.9547 9.78481 52.4813 9.78102 53.0532C9.78481 53.7047 9.60299 54.2578 9.23557 54.7123C8.87193 55.1669 8.38708 55.4718 7.78102 55.6271V55.718C8.55375 55.8354 9.15223 56.1422 9.57648 56.6384C10.0045 57.1347 10.2166 57.7502 10.2128 58.485C10.2166 59.1252 10.0386 59.6991 9.67875 60.2066C9.32269 60.7142 8.83595 61.1138 8.21852 61.4055C7.6011 61.6934 6.89466 61.8373 6.0992 61.8373ZM11.6362 59.4055V57.985L16.6647 50.0419H17.784V52.1328H17.0737L13.4772 57.8259V57.9169H20.3692V59.4055H11.6362ZM17.1533 61.6782V58.9737L17.1647 58.3259V50.0419H18.8294V61.6782H17.1533ZM27.9432 59.4964V58.8828C27.9432 58.4434 28.0341 58.0419 28.2159 57.6782C28.4015 57.3108 28.6705 57.0172 29.0227 56.7975C29.3788 56.5741 29.8087 56.4623 30.3125 56.4623C30.8277 56.4623 31.2595 56.5722 31.608 56.7919C31.9564 57.0116 32.2197 57.3051 32.3977 57.6725C32.5795 58.04 32.6705 58.4434 32.6705 58.8828V59.4964C32.6705 59.9358 32.5795 60.3392 32.3977 60.7066C32.2159 61.0703 31.9489 61.3638 31.5966 61.5873C31.2481 61.807 30.8201 61.9169 30.3125 61.9169C29.8011 61.9169 29.3693 61.807 29.017 61.5873C28.6648 61.3638 28.3977 61.0703 28.2159 60.7066C28.0341 60.3392 27.9432 59.9358 27.9432 59.4964ZM29.267 58.8828V59.4964C29.267 59.8222 29.3447 60.1176 29.5 60.3828C29.6553 60.6479 29.9261 60.7805 30.3125 60.7805C30.6951 60.7805 30.9621 60.6479 31.1136 60.3828C31.2652 60.1176 31.3409 59.8222 31.3409 59.4964V58.8828C31.3409 58.557 31.267 58.2616 31.1193 57.9964C30.9754 57.7313 30.7064 57.5987 30.3125 57.5987C29.9337 57.5987 29.6648 57.7313 29.5057 57.9964C29.3466 58.2616 29.267 58.557 29.267 58.8828ZM22.0909 52.8373V52.2237C22.0909 51.7843 22.1818 51.3809 22.3636 51.0134C22.5492 50.646 22.8182 50.3525 23.1705 50.1328C23.5265 49.9131 23.9564 49.8032 24.4602 49.8032C24.9754 49.8032 25.4072 49.9131 25.7557 50.1328C26.1042 50.3525 26.3674 50.646 26.5455 51.0134C26.7235 51.3809 26.8125 51.7843 26.8125 52.2237V52.8373C26.8125 53.2767 26.7216 53.6801 26.5398 54.0475C26.3617 54.4112 26.0966 54.7047 25.7443 54.9282C25.3958 55.1479 24.9678 55.2578 24.4602 55.2578C23.9451 55.2578 23.5114 55.1479 23.1591 54.9282C22.8106 54.7047 22.5455 54.4112 22.3636 54.0475C22.1818 53.6801 22.0909 53.2767 22.0909 52.8373ZM23.4205 52.2237V52.8373C23.4205 53.1631 23.4962 53.4585 23.6477 53.7237C23.803 53.9888 24.0739 54.1214 24.4602 54.1214C24.839 54.1214 25.1042 53.9888 25.2557 53.7237C25.411 53.4585 25.4886 53.1631 25.4886 52.8373V52.2237C25.4886 51.8979 25.4148 51.6025 25.267 51.3373C25.1193 51.0722 24.8504 50.9396 24.4602 50.9396C24.0814 50.9396 23.8125 51.0722 23.6534 51.3373C23.4981 51.6025 23.4205 51.8979 23.4205 52.2237ZM22.6307 61.6782L30.6307 50.0419H31.9886L23.9886 61.6782H22.6307Z" fill="#1E222E"/>
<path d="M47.8011 50.0419H49.5511V58.2919C49.5511 59.0381 49.4034 59.6763 49.108 60.2066C48.8163 60.7369 48.4053 61.1422 47.875 61.4225C47.3447 61.6991 46.7235 61.8373 46.0114 61.8373C45.3561 61.8373 44.767 61.718 44.2443 61.4794C43.7254 61.2407 43.3144 60.8941 43.0114 60.4396C42.7121 59.9813 42.5625 59.4244 42.5625 58.7691H44.3068C44.3068 59.0911 44.3807 59.3695 44.5284 59.6044C44.6799 59.8392 44.8864 60.0229 45.1477 60.1555C45.4129 60.2843 45.7159 60.3487 46.0568 60.3487C46.428 60.3487 46.7424 60.271 47 60.1157C47.2614 59.9566 47.4602 59.7237 47.5966 59.4169C47.733 59.11 47.8011 58.735 47.8011 58.2919V50.0419ZM58.1331 53.0987C58.0725 52.5608 57.8225 52.1441 57.3831 51.8487C56.9437 51.5494 56.3907 51.3998 55.724 51.3998C55.2468 51.3998 54.8339 51.4756 54.4854 51.6271C54.1369 51.7748 53.8661 51.9794 53.6729 52.2407C53.4835 52.4983 53.3888 52.7919 53.3888 53.1214C53.3888 53.3979 53.4532 53.6366 53.582 53.8373C53.7146 54.0381 53.8869 54.2066 54.099 54.343C54.3149 54.4756 54.546 54.5873 54.7922 54.6782C55.0384 54.7653 55.2752 54.8373 55.5024 54.8941L56.6388 55.1896C57.01 55.2805 57.3907 55.4036 57.7809 55.5589C58.171 55.7142 58.5327 55.9188 58.8661 56.1725C59.1994 56.4263 59.4684 56.7407 59.6729 57.1157C59.8812 57.4907 59.9854 57.9396 59.9854 58.4623C59.9854 59.1214 59.8149 59.7066 59.474 60.218C59.1369 60.7294 58.6464 61.1328 58.0024 61.4282C57.3623 61.7237 56.5877 61.8714 55.6786 61.8714C54.8074 61.8714 54.0536 61.7331 53.4172 61.4566C52.7809 61.1801 52.2827 60.7881 51.9229 60.2805C51.563 59.7691 51.3642 59.1631 51.3263 58.4623H53.0877C53.1218 58.8828 53.2581 59.2331 53.4968 59.5134C53.7392 59.79 54.0479 59.9964 54.4229 60.1328C54.8017 60.2653 55.2165 60.3316 55.6672 60.3316C56.1634 60.3316 56.6047 60.254 56.9911 60.0987C57.3812 59.9396 57.688 59.7199 57.9115 59.4396C58.135 59.1555 58.2468 58.8241 58.2468 58.4453C58.2468 58.1006 58.1483 57.8184 57.9513 57.5987C57.7581 57.379 57.4949 57.1972 57.1615 57.0532C56.832 56.9093 56.4589 56.7824 56.0422 56.6725L54.6672 56.2975C53.7354 56.0438 52.9968 55.6706 52.4513 55.1782C51.9096 54.6858 51.6388 54.0343 51.6388 53.2237C51.6388 52.5532 51.8206 51.968 52.1843 51.468C52.5479 50.968 53.0403 50.5797 53.6615 50.3032C54.2827 50.0229 54.9835 49.8828 55.7638 49.8828C56.5517 49.8828 57.2468 50.021 57.849 50.2975C58.4551 50.5741 58.9324 50.9547 59.2809 51.4396C59.6293 51.9206 59.8112 52.4737 59.8263 53.0987H58.1331ZM69.9732 49.4964L66.2232 63.4282H64.7062L68.4562 49.4964H69.9732ZM74.5733 51.5532V50.0419H83.579V51.5532H79.9483V61.6782H78.1983V51.5532H74.5733ZM85.1865 64.951C84.9327 64.951 84.7017 64.9301 84.4934 64.8884C84.285 64.8506 84.1297 64.8089 84.0274 64.7634L84.4365 63.3714C84.7471 63.4547 85.0237 63.4907 85.2661 63.4794C85.5085 63.468 85.7225 63.3771 85.9081 63.2066C86.0975 63.0362 86.2642 62.7578 86.4081 62.3714L86.6184 61.7919L83.4252 52.9509H85.2434L87.4536 59.7237H87.5445L89.7547 52.9509H91.5786L87.982 62.843C87.8153 63.2975 87.6032 63.682 87.3456 63.9964C87.0881 64.3146 86.7812 64.5532 86.4252 64.7123C86.0691 64.8714 85.6562 64.951 85.1865 64.951ZM92.8552 64.951V52.9509H94.5143V54.3657H94.6563C94.7548 54.1839 94.8968 53.9737 95.0824 53.735C95.268 53.4964 95.5256 53.2881 95.8552 53.11C96.1847 52.9282 96.6203 52.8373 97.162 52.8373C97.8665 52.8373 98.4953 53.0153 99.0484 53.3714C99.6014 53.7275 100.035 54.2407 100.349 54.9112C100.668 55.5816 100.827 56.3884 100.827 57.3316C100.827 58.2748 100.67 59.0835 100.355 59.7578C100.041 60.4282 99.609 60.9453 99.0597 61.3089C98.5105 61.6688 97.8836 61.8487 97.179 61.8487C96.6487 61.8487 96.215 61.7597 95.8779 61.5816C95.5446 61.4036 95.2832 61.1953 95.0938 60.9566C94.9044 60.718 94.7586 60.5059 94.6563 60.3203H94.554V64.951H92.8552ZM94.5199 57.3146C94.5199 57.9282 94.609 58.4661 94.787 58.9282C94.965 59.3903 95.2226 59.7521 95.5597 60.0134C95.8968 60.271 96.3097 60.3998 96.7984 60.3998C97.3059 60.3998 97.7302 60.2653 98.0711 59.9964C98.412 59.7237 98.6696 59.3544 98.8438 58.8884C99.0218 58.4225 99.1109 57.8979 99.1109 57.3146C99.1109 56.7388 99.0237 56.2218 98.8495 55.7634C98.679 55.3051 98.4215 54.9434 98.0768 54.6782C97.7359 54.4131 97.3097 54.2805 96.7984 54.2805C96.3059 54.2805 95.8893 54.4074 95.5484 54.6612C95.2112 54.915 94.9555 55.2691 94.7813 55.7237C94.6071 56.1782 94.5199 56.7085 94.5199 57.3146ZM106.172 61.8544C105.312 61.8544 104.571 61.6706 103.95 61.3032C103.333 60.932 102.855 60.4112 102.518 59.7407C102.185 59.0665 102.018 58.2767 102.018 57.3714C102.018 56.4775 102.185 55.6896 102.518 55.0078C102.855 54.3259 103.325 53.7938 103.927 53.4112C104.533 53.0286 105.242 52.8373 106.052 52.8373C106.545 52.8373 107.022 52.9188 107.484 53.0816C107.946 53.2445 108.361 53.5002 108.728 53.8487C109.096 54.1972 109.386 54.6498 109.598 55.2066C109.81 55.7597 109.916 56.432 109.916 57.2237V57.8259H102.978V56.5532H108.251C108.251 56.1063 108.16 55.7104 107.978 55.3657C107.797 55.0172 107.541 54.7426 107.211 54.5419C106.886 54.3411 106.503 54.2407 106.064 54.2407C105.586 54.2407 105.17 54.3581 104.814 54.593C104.461 54.8241 104.189 55.1271 103.995 55.5021C103.806 55.8733 103.711 56.2767 103.711 56.7123V57.7066C103.711 58.29 103.814 58.7862 104.018 59.1953C104.226 59.6044 104.516 59.9169 104.887 60.1328C105.259 60.3449 105.692 60.4509 106.189 60.4509C106.511 60.4509 106.804 60.4055 107.069 60.3146C107.334 60.2199 107.564 60.0797 107.757 59.8941C107.95 59.7085 108.098 59.4794 108.2 59.2066L109.808 59.4964C109.679 59.9699 109.448 60.3847 109.115 60.7407C108.785 61.093 108.37 61.3676 107.87 61.5646C107.374 61.7578 106.808 61.8544 106.172 61.8544ZM118.021 55.0816L116.481 55.3544C116.416 55.1574 116.314 54.9699 116.174 54.7919C116.038 54.6138 115.852 54.468 115.617 54.3544C115.382 54.2407 115.089 54.1839 114.736 54.1839C114.255 54.1839 113.854 54.2919 113.532 54.5078C113.21 54.7199 113.049 54.9945 113.049 55.3316C113.049 55.6233 113.157 55.8581 113.373 56.0362C113.589 56.2142 113.937 56.36 114.418 56.4737L115.805 56.7919C116.608 56.9775 117.206 57.2634 117.6 57.6498C117.994 58.0362 118.191 58.5381 118.191 59.1555C118.191 59.6782 118.04 60.1441 117.736 60.5532C117.437 60.9585 117.019 61.2767 116.481 61.5078C115.947 61.7388 115.327 61.8544 114.623 61.8544C113.646 61.8544 112.848 61.646 112.231 61.2294C111.613 60.8089 111.235 60.2123 111.094 59.4396L112.736 59.1896C112.839 59.6176 113.049 59.9415 113.367 60.1612C113.685 60.3771 114.1 60.485 114.611 60.485C115.168 60.485 115.613 60.3695 115.947 60.1384C116.28 59.9036 116.447 59.6176 116.447 59.2805C116.447 59.0078 116.344 58.7786 116.14 58.593C115.939 58.4074 115.63 58.2672 115.214 58.1725L113.736 57.8487C112.922 57.6631 112.32 57.3676 111.93 56.9623C111.543 56.557 111.35 56.0438 111.35 55.4225C111.35 54.9074 111.494 54.4566 111.782 54.0703C112.07 53.6839 112.468 53.3828 112.975 53.1669C113.483 52.9472 114.064 52.8373 114.719 52.8373C115.663 52.8373 116.405 53.0419 116.947 53.4509C117.488 53.8563 117.846 54.3998 118.021 55.0816ZM123.415 61.8544C122.57 61.8544 121.843 61.6631 121.233 61.2805C120.627 60.8941 120.161 60.3619 119.836 59.6839C119.51 59.0059 119.347 58.2294 119.347 57.3544C119.347 56.468 119.514 55.6858 119.847 55.0078C120.18 54.3259 120.65 53.7938 121.256 53.4112C121.862 53.0286 122.576 52.8373 123.398 52.8373C124.061 52.8373 124.652 52.9604 125.171 53.2066C125.69 53.4491 126.108 53.79 126.426 54.2294C126.748 54.6688 126.94 55.182 127 55.7691H125.347C125.256 55.36 125.048 55.0078 124.722 54.7123C124.4 54.4169 123.968 54.2691 123.426 54.2691C122.953 54.2691 122.538 54.3941 122.182 54.6441C121.83 54.8903 121.555 55.2426 121.358 55.7009C121.161 56.1555 121.063 56.6934 121.063 57.3146C121.063 57.9509 121.159 58.5002 121.353 58.9623C121.546 59.4244 121.818 59.7824 122.171 60.0362C122.527 60.29 122.945 60.4169 123.426 60.4169C123.748 60.4169 124.04 60.3581 124.301 60.2407C124.567 60.1195 124.788 59.9472 124.966 59.7237C125.148 59.5002 125.275 59.2313 125.347 58.9169H127C126.94 59.4813 126.756 59.985 126.449 60.4282C126.142 60.8714 125.731 61.2199 125.216 61.4737C124.705 61.7275 124.104 61.8544 123.415 61.8544ZM128.497 61.6782V52.9509H130.139V54.3373H130.23C130.389 53.8676 130.669 53.4983 131.071 53.2294C131.476 52.9566 131.935 52.8203 132.446 52.8203C132.552 52.8203 132.677 52.8241 132.821 52.8316C132.969 52.8392 133.084 52.8487 133.168 52.86V54.485C133.099 54.4661 132.978 54.4453 132.804 54.4225C132.63 54.396 132.455 54.3828 132.281 54.3828C131.88 54.3828 131.522 54.468 131.207 54.6384C130.897 54.8051 130.65 55.0381 130.469 55.3373C130.287 55.6328 130.196 55.9699 130.196 56.3487V61.6782H128.497ZM134.318 61.6782V52.9509H136.017V61.6782H134.318ZM135.176 51.6044C134.88 51.6044 134.626 51.5059 134.414 51.3089C134.206 51.1081 134.102 50.8695 134.102 50.593C134.102 50.3127 134.206 50.0741 134.414 49.8771C134.626 49.6763 134.88 49.5759 135.176 49.5759C135.471 49.5759 135.723 49.6763 135.931 49.8771C136.143 50.0741 136.249 50.3127 136.249 50.593C136.249 50.8695 136.143 51.1081 135.931 51.3089C135.723 51.5059 135.471 51.6044 135.176 51.6044ZM137.982 64.951V52.9509H139.641V54.3657H139.783C139.882 54.1839 140.024 53.9737 140.209 53.735C140.395 53.4964 140.652 53.2881 140.982 53.11C141.312 52.9282 141.747 52.8373 142.289 52.8373C142.993 52.8373 143.622 53.0153 144.175 53.3714C144.728 53.7275 145.162 54.2407 145.476 54.9112C145.795 55.5816 145.954 56.3884 145.954 57.3316C145.954 58.2748 145.796 59.0835 145.482 59.7578C145.168 60.4282 144.736 60.9453 144.187 61.3089C143.637 61.6688 143.01 61.8487 142.306 61.8487C141.776 61.8487 141.342 61.7597 141.005 61.5816C140.671 61.4036 140.41 61.1953 140.221 60.9566C140.031 60.718 139.885 60.5059 139.783 60.3203H139.681V64.951H137.982ZM139.647 57.3146C139.647 57.9282 139.736 58.4661 139.914 58.9282C140.092 59.3903 140.349 59.7521 140.687 60.0134C141.024 60.271 141.437 60.3998 141.925 60.3998C142.433 60.3998 142.857 60.2653 143.198 59.9964C143.539 59.7237 143.796 59.3544 143.971 58.8884C144.149 58.4225 144.238 57.8979 144.238 57.3146C144.238 56.7388 144.151 56.2218 143.976 55.7634C143.806 55.3051 143.548 54.9434 143.204 54.6782C142.863 54.4131 142.437 54.2805 141.925 54.2805C141.433 54.2805 141.016 54.4074 140.675 54.6612C140.338 54.915 140.082 55.2691 139.908 55.7237C139.734 56.1782 139.647 56.7085 139.647 57.3146ZM151.611 52.9509V54.3146H146.844V52.9509H151.611ZM148.122 50.86H149.821V59.1157C149.821 59.4453 149.87 59.6934 149.969 59.86C150.067 60.0229 150.194 60.1347 150.35 60.1953C150.509 60.2521 150.681 60.2805 150.867 60.2805C151.003 60.2805 151.122 60.271 151.225 60.2521C151.327 60.2331 151.406 60.218 151.463 60.2066L151.77 61.61C151.672 61.6479 151.531 61.6858 151.35 61.7237C151.168 61.7653 150.94 61.7881 150.668 61.7919C150.221 61.7994 149.804 61.7199 149.418 61.5532C149.031 61.3866 148.719 61.129 148.48 60.7805C148.242 60.432 148.122 59.9945 148.122 59.468V50.86ZM161.516 49.4964L157.766 63.4282H156.249L159.999 49.4964H161.516ZM52.6705 72.0419V83.6782H51.0568L45.142 75.1441H45.0341V83.6782H43.2784V72.0419H44.9034L50.8239 80.5873H50.9318V72.0419H52.6705ZM58.4513 83.8544C57.6331 83.8544 56.9191 83.6669 56.3093 83.2919C55.6994 82.9169 55.2259 82.3922 54.8888 81.718C54.5517 81.0438 54.3831 80.2559 54.3831 79.3544C54.3831 78.4491 54.5517 77.6574 54.8888 76.9794C55.2259 76.3013 55.6994 75.7748 56.3093 75.3998C56.9191 75.0248 57.6331 74.8373 58.4513 74.8373C59.2695 74.8373 59.9835 75.0248 60.5934 75.3998C61.2032 75.7748 61.6767 76.3013 62.0138 76.9794C62.3509 77.6574 62.5195 78.4491 62.5195 79.3544C62.5195 80.2559 62.3509 81.0438 62.0138 81.718C61.6767 82.3922 61.2032 82.9169 60.5934 83.2919C59.9835 83.6669 59.2695 83.8544 58.4513 83.8544ZM58.457 82.4282C58.9873 82.4282 59.4267 82.2881 59.7752 82.0078C60.1237 81.7275 60.3812 81.3544 60.5479 80.8884C60.7184 80.4225 60.8036 79.9093 60.8036 79.3487C60.8036 78.7919 60.7184 78.2805 60.5479 77.8146C60.3812 77.3449 60.1237 76.968 59.7752 76.6839C59.4267 76.3998 58.9873 76.2578 58.457 76.2578C57.9229 76.2578 57.4797 76.3998 57.1274 76.6839C56.779 76.968 56.5195 77.3449 56.349 77.8146C56.1824 78.2805 56.099 78.7919 56.099 79.3487C56.099 79.9093 56.1824 80.4225 56.349 80.8884C56.5195 81.3544 56.779 81.7275 57.1274 82.0078C57.4797 82.2881 57.9229 82.4282 58.457 82.4282ZM67.3628 83.8487C66.6583 83.8487 66.0295 83.6688 65.4765 83.3089C64.9272 82.9453 64.4954 82.4282 64.181 81.7578C63.8704 81.0835 63.7151 80.2748 63.7151 79.3316C63.7151 78.3884 63.8723 77.5816 64.1867 76.9112C64.5049 76.2407 64.9405 75.7275 65.4935 75.3714C66.0466 75.0153 66.6734 74.8373 67.3742 74.8373C67.9159 74.8373 68.3515 74.9282 68.681 75.11C69.0144 75.2881 69.2719 75.4964 69.4538 75.735C69.6394 75.9737 69.7833 76.1839 69.8856 76.3657H69.9878V72.0419H71.6867V83.6782H70.0276V82.3203H69.8856C69.7833 82.5059 69.6356 82.718 69.4424 82.9566C69.253 83.1953 68.9916 83.4036 68.6583 83.5816C68.325 83.7597 67.8931 83.8487 67.3628 83.8487ZM67.7378 82.3998C68.2265 82.3998 68.6394 82.271 68.9765 82.0134C69.3174 81.7521 69.575 81.3903 69.7492 80.9282C69.9272 80.4661 70.0163 79.9282 70.0163 79.3146C70.0163 78.7085 69.9291 78.1782 69.7549 77.7237C69.5806 77.2691 69.325 76.915 68.9878 76.6612C68.6507 76.4074 68.2341 76.2805 67.7378 76.2805C67.2265 76.2805 66.8003 76.4131 66.4594 76.6782C66.1185 76.9434 65.8609 77.3051 65.6867 77.7634C65.5163 78.2218 65.431 78.7388 65.431 79.3146C65.431 79.8979 65.5181 80.4225 65.6924 80.8884C65.8666 81.3544 66.1242 81.7237 66.4651 81.9964C66.8098 82.2653 67.2341 82.3998 67.7378 82.3998ZM77.5528 83.8544C76.6929 83.8544 75.9524 83.6706 75.3312 83.3032C74.7138 82.932 74.2365 82.4112 73.8994 81.7407C73.566 81.0665 73.3994 80.2767 73.3994 79.3714C73.3994 78.4775 73.566 77.6896 73.8994 77.0078C74.2365 76.3259 74.7062 75.7938 75.3085 75.4112C75.9145 75.0286 76.6229 74.8373 77.4335 74.8373C77.9259 74.8373 78.4032 74.9188 78.8653 75.0816C79.3274 75.2445 79.7422 75.5002 80.1096 75.8487C80.477 76.1972 80.7668 76.6498 80.9789 77.2066C81.191 77.7597 81.2971 78.432 81.2971 79.2237V79.8259H74.3596V78.5532H79.6323C79.6323 78.1063 79.5414 77.7104 79.3596 77.3657C79.1778 77.0172 78.9221 76.7426 78.5926 76.5419C78.2668 76.3411 77.8842 76.2407 77.4448 76.2407C76.9676 76.2407 76.5509 76.3581 76.1948 76.593C75.8426 76.8241 75.5698 77.1271 75.3766 77.5021C75.1873 77.8733 75.0926 78.2767 75.0926 78.7123V79.7066C75.0926 80.29 75.1948 80.7862 75.3994 81.1953C75.6077 81.6044 75.8975 81.9169 76.2687 82.1328C76.6399 82.3449 77.0736 82.4509 77.5698 82.4509C77.8918 82.4509 78.1854 82.4055 78.4505 82.3146C78.7157 82.2199 78.9448 82.0797 79.138 81.8941C79.3312 81.7085 79.4789 81.4794 79.5812 81.2066L81.1891 81.4964C81.0604 81.9699 80.8293 82.3847 80.496 82.7407C80.1664 83.093 79.7516 83.3676 79.2516 83.5646C78.7554 83.7578 78.1891 83.8544 77.5528 83.8544ZM83.9814 83.7862C83.6708 83.7862 83.4037 83.6763 83.1802 83.4566C82.9567 83.2331 82.845 82.9642 82.845 82.6498C82.845 82.3392 82.9567 82.0741 83.1802 81.8544C83.4037 81.6309 83.6708 81.5191 83.9814 81.5191C84.292 81.5191 84.559 81.6309 84.7825 81.8544C85.006 82.0741 85.1177 82.3392 85.1177 82.6498C85.1177 82.8581 85.0647 83.0494 84.9586 83.2237C84.8564 83.3941 84.72 83.5305 84.5495 83.6328C84.3791 83.735 84.1897 83.7862 83.9814 83.7862ZM87.0733 74.9509H88.7722V84.2464C88.7722 84.8297 88.6661 85.3222 88.454 85.7237C88.2456 86.1252 87.935 86.4301 87.5222 86.6384C87.1131 86.8468 86.6074 86.951 86.0051 86.951C85.9445 86.951 85.8877 86.951 85.8347 86.951C85.7778 86.951 85.7191 86.9491 85.6585 86.9453V85.485C85.7116 85.485 85.7589 85.485 85.8006 85.485C85.8384 85.485 85.882 85.485 85.9313 85.485C86.3328 85.485 86.6225 85.3771 86.8006 85.1612C86.9824 84.9491 87.0733 84.6403 87.0733 84.235V74.9509ZM87.9142 73.6044C87.6188 73.6044 87.365 73.5059 87.1528 73.3089C86.9445 73.1081 86.8403 72.8695 86.8403 72.593C86.8403 72.3127 86.9445 72.0741 87.1528 71.8771C87.365 71.6763 87.6188 71.5759 87.9142 71.5759C88.2097 71.5759 88.4616 71.6763 88.6699 71.8771C88.882 72.0741 88.9881 72.3127 88.9881 72.593C88.9881 72.8695 88.882 73.1081 88.6699 73.3089C88.4616 73.5059 88.2097 73.6044 87.9142 73.6044ZM97.2774 77.0816L95.7377 77.3544C95.6733 77.1574 95.571 76.9699 95.4309 76.7919C95.2945 76.6138 95.1089 76.468 94.874 76.3544C94.6392 76.2407 94.3456 76.1839 93.9934 76.1839C93.5123 76.1839 93.1108 76.2919 92.7888 76.5078C92.4668 76.7199 92.3059 76.9945 92.3059 77.3316C92.3059 77.6233 92.4138 77.8581 92.6297 78.0362C92.8456 78.2142 93.1941 78.36 93.6752 78.4737L95.0615 78.7919C95.8646 78.9775 96.4631 79.2634 96.857 79.6498C97.2509 80.0362 97.4479 80.5381 97.4479 81.1555C97.4479 81.6782 97.2964 82.1441 96.9934 82.5532C96.6941 82.9585 96.2756 83.2767 95.7377 83.5078C95.2036 83.7388 94.5843 83.8544 93.8797 83.8544C92.9024 83.8544 92.1051 83.646 91.4877 83.2294C90.8702 82.8089 90.4915 82.2123 90.3513 81.4396L91.9934 81.1896C92.0956 81.6176 92.3059 81.9415 92.624 82.1612C92.9422 82.3771 93.357 82.485 93.8684 82.485C94.4252 82.485 94.8702 82.3695 95.2036 82.1384C95.5369 81.9036 95.7036 81.6176 95.7036 81.2805C95.7036 81.0078 95.6013 80.7786 95.3968 80.593C95.196 80.4074 94.8873 80.2672 94.4706 80.1725L92.9934 79.8487C92.179 79.6631 91.5767 79.3676 91.1865 78.9623C90.8002 78.557 90.607 78.0438 90.607 77.4225C90.607 76.9074 90.7509 76.4566 91.0388 76.0703C91.3267 75.6839 91.7244 75.3828 92.232 75.1669C92.7396 74.9472 93.321 74.8373 93.9763 74.8373C94.9195 74.8373 95.6619 75.0419 96.2036 75.4509C96.7452 75.8563 97.1032 76.3998 97.2774 77.0816Z" fill="#1E222E"/>
<rect x="42" y="96.6782" width="111" height="6" rx="3" fill="#397CE8"/>
<path d="M1.94437 133.405V131.985L6.97278 124.042H8.0921V126.133H7.38187L3.78528 131.826V131.917H10.6773V133.405H1.94437ZM7.46142 135.678V132.974L7.47278 132.326V124.042H9.13756V135.678H7.46142ZM16.2399 135.837C15.721 135.83 15.2096 135.735 14.7059 135.553C14.2059 135.371 13.7513 135.068 13.3422 134.644C12.9331 134.22 12.6055 133.65 12.3593 132.934C12.1168 132.218 11.9956 131.324 11.9956 130.252C11.9956 129.237 12.096 128.335 12.2968 127.548C12.5013 126.76 12.7949 126.095 13.1774 125.553C13.56 125.008 14.0221 124.593 14.5638 124.309C15.1055 124.025 15.7134 123.883 16.3877 123.883C17.0809 123.883 17.6964 124.019 18.2343 124.292C18.7721 124.565 19.2077 124.941 19.5411 125.423C19.8782 125.904 20.0922 126.451 20.1831 127.065H18.4502C18.3327 126.58 18.0998 126.184 17.7513 125.877C17.4028 125.57 16.9483 125.417 16.3877 125.417C15.5354 125.417 14.8706 125.788 14.3934 126.53C13.9199 127.273 13.6812 128.305 13.6774 129.627H13.7627C13.9634 129.298 14.2096 129.017 14.5013 128.786C14.7968 128.551 15.1263 128.371 15.4899 128.246C15.8574 128.118 16.2437 128.053 16.649 128.053C17.3233 128.053 17.9331 128.218 18.4786 128.548C19.0278 128.873 19.4653 129.324 19.7911 129.9C20.1168 130.476 20.2797 131.135 20.2797 131.877C20.2797 132.62 20.1112 133.292 19.774 133.894C19.4407 134.496 18.971 134.974 18.3649 135.326C17.7589 135.674 17.0505 135.845 16.2399 135.837ZM16.2343 134.36C16.6812 134.36 17.0809 134.25 17.4331 134.03C17.7854 133.811 18.0638 133.515 18.2684 133.144C18.4729 132.773 18.5752 132.358 18.5752 131.9C18.5752 131.453 18.4748 131.046 18.274 130.678C18.0771 130.311 17.8043 130.019 17.4559 129.803C17.1112 129.587 16.7172 129.479 16.274 129.479C15.9369 129.479 15.6244 129.544 15.3365 129.673C15.0524 129.801 14.8024 129.979 14.5865 130.207C14.3706 130.434 14.2002 130.695 14.0752 130.991C13.954 131.282 13.8934 131.591 13.8934 131.917C13.8934 132.352 13.9937 132.756 14.1945 133.127C14.399 133.498 14.6774 133.798 15.0297 134.025C15.3858 134.248 15.7873 134.36 16.2343 134.36ZM27.9432 133.496V132.883C27.9432 132.443 28.0341 132.042 28.2159 131.678C28.4015 131.311 28.6705 131.017 29.0227 130.798C29.3788 130.574 29.8087 130.462 30.3125 130.462C30.8277 130.462 31.2595 130.572 31.608 130.792C31.9564 131.012 32.2197 131.305 32.3977 131.673C32.5795 132.04 32.6705 132.443 32.6705 132.883V133.496C32.6705 133.936 32.5795 134.339 32.3977 134.707C32.2159 135.07 31.9489 135.364 31.5966 135.587C31.2481 135.807 30.8201 135.917 30.3125 135.917C29.8011 135.917 29.3693 135.807 29.017 135.587C28.6648 135.364 28.3977 135.07 28.2159 134.707C28.0341 134.339 27.9432 133.936 27.9432 133.496ZM29.267 132.883V133.496C29.267 133.822 29.3447 134.118 29.5 134.383C29.6553 134.648 29.9261 134.78 30.3125 134.78C30.6951 134.78 30.9621 134.648 31.1136 134.383C31.2652 134.118 31.3409 133.822 31.3409 133.496V132.883C31.3409 132.557 31.267 132.262 31.1193 131.996C30.9754 131.731 30.7064 131.599 30.3125 131.599C29.9337 131.599 29.6648 131.731 29.5057 131.996C29.3466 132.262 29.267 132.557 29.267 132.883ZM22.0909 126.837V126.224C22.0909 125.784 22.1818 125.381 22.3636 125.013C22.5492 124.646 22.8182 124.352 23.1705 124.133C23.5265 123.913 23.9564 123.803 24.4602 123.803C24.9754 123.803 25.4072 123.913 25.7557 124.133C26.1042 124.352 26.3674 124.646 26.5455 125.013C26.7235 125.381 26.8125 125.784 26.8125 126.224V126.837C26.8125 127.277 26.7216 127.68 26.5398 128.048C26.3617 128.411 26.0966 128.705 25.7443 128.928C25.3958 129.148 24.9678 129.258 24.4602 129.258C23.9451 129.258 23.5114 129.148 23.1591 128.928C22.8106 128.705 22.5455 128.411 22.3636 128.048C22.1818 127.68 22.0909 127.277 22.0909 126.837ZM23.4205 126.224V126.837C23.4205 127.163 23.4962 127.459 23.6477 127.724C23.803 127.989 24.0739 128.121 24.4602 128.121C24.839 128.121 25.1042 127.989 25.2557 127.724C25.411 127.459 25.4886 127.163 25.4886 126.837V126.224C25.4886 125.898 25.4148 125.602 25.267 125.337C25.1193 125.072 24.8504 124.94 24.4602 124.94C24.0814 124.94 23.8125 125.072 23.6534 125.337C23.4981 125.602 23.4205 125.898 23.4205 126.224ZM22.6307 135.678L30.6307 124.042H31.9886L23.9886 135.678H22.6307Z" fill="#1E222E"/>
<path d="M43.2784 135.678V124.042H47.4261C48.3314 124.042 49.0814 124.207 49.6761 124.536C50.2708 124.866 50.7159 125.316 51.0114 125.888C51.3068 126.457 51.4545 127.097 51.4545 127.809C51.4545 128.525 51.3049 129.169 51.0057 129.741C50.7102 130.309 50.2633 130.76 49.6648 131.093C49.0701 131.423 48.322 131.587 47.4205 131.587H44.5682V130.099H47.2614C47.8333 130.099 48.2973 130 48.6534 129.803C49.0095 129.602 49.2708 129.33 49.4375 128.985C49.6042 128.64 49.6875 128.248 49.6875 127.809C49.6875 127.37 49.6042 126.979 49.4375 126.638C49.2708 126.298 49.0076 126.03 48.6477 125.837C48.2917 125.644 47.822 125.548 47.2386 125.548H45.0341V135.678H43.2784ZM54.1303 138.951C53.8765 138.951 53.6454 138.93 53.4371 138.888C53.2288 138.851 53.0735 138.809 52.9712 138.763L53.3803 137.371C53.6909 137.455 53.9674 137.491 54.2098 137.479C54.4523 137.468 54.6663 137.377 54.8519 137.207C55.0413 137.036 55.2079 136.758 55.3519 136.371L55.5621 135.792L52.3689 126.951H54.1871L56.3973 133.724H56.4882L58.6985 126.951H60.5223L56.9257 136.843C56.7591 137.298 56.547 137.682 56.2894 137.996C56.0318 138.315 55.725 138.553 55.3689 138.712C55.0129 138.871 54.6 138.951 54.1303 138.951ZM65.8728 126.951V128.315H61.1057V126.951H65.8728ZM62.3841 124.86H64.083V133.116C64.083 133.445 64.1323 133.693 64.2307 133.86C64.3292 134.023 64.4561 134.135 64.6114 134.195C64.7705 134.252 64.9429 134.28 65.1285 134.28C65.2648 134.28 65.3841 134.271 65.4864 134.252C65.5887 134.233 65.6682 134.218 65.7251 134.207L66.0319 135.61C65.9334 135.648 65.7932 135.686 65.6114 135.724C65.4296 135.765 65.2023 135.788 64.9296 135.792C64.4826 135.799 64.066 135.72 63.6796 135.553C63.2932 135.387 62.9807 135.129 62.7421 134.78C62.5035 134.432 62.3841 133.995 62.3841 133.468V124.86ZM69.3184 130.496V135.678H67.6195V124.042H69.2957V128.371H69.4036C69.6082 127.902 69.9207 127.529 70.3411 127.252C70.7616 126.976 71.3108 126.837 71.9889 126.837C72.5873 126.837 73.1101 126.96 73.557 127.207C74.0078 127.453 74.3563 127.82 74.6025 128.309C74.8525 128.794 74.9775 129.4 74.9775 130.127V135.678H73.2786V130.332C73.2786 129.691 73.1139 129.195 72.7843 128.843C72.4548 128.487 71.9964 128.309 71.4093 128.309C71.0078 128.309 70.648 128.394 70.3298 128.565C70.0154 128.735 69.7673 128.985 69.5855 129.315C69.4074 129.64 69.3184 130.034 69.3184 130.496ZM80.6007 135.854C79.7825 135.854 79.0685 135.667 78.4586 135.292C77.8488 134.917 77.3753 134.392 77.0382 133.718C76.7011 133.044 76.5325 132.256 76.5325 131.354C76.5325 130.449 76.7011 129.657 77.0382 128.979C77.3753 128.301 77.8488 127.775 78.4586 127.4C79.0685 127.025 79.7825 126.837 80.6007 126.837C81.4189 126.837 82.1329 127.025 82.7427 127.4C83.3526 127.775 83.8261 128.301 84.1632 128.979C84.5003 129.657 84.6689 130.449 84.6689 131.354C84.6689 132.256 84.5003 133.044 84.1632 133.718C83.8261 134.392 83.3526 134.917 82.7427 135.292C82.1329 135.667 81.4189 135.854 80.6007 135.854ZM80.6064 134.428C81.1367 134.428 81.5761 134.288 81.9245 134.008C82.273 133.727 82.5306 133.354 82.6973 132.888C82.8677 132.423 82.953 131.909 82.953 131.349C82.953 130.792 82.8677 130.28 82.6973 129.815C82.5306 129.345 82.273 128.968 81.9245 128.684C81.5761 128.4 81.1367 128.258 80.6064 128.258C80.0723 128.258 79.6291 128.4 79.2768 128.684C78.9283 128.968 78.6689 129.345 78.4984 129.815C78.3317 130.28 78.2484 130.792 78.2484 131.349C78.2484 131.909 78.3317 132.423 78.4984 132.888C78.6689 133.354 78.9283 133.727 79.2768 134.008C79.6291 134.288 80.0723 134.428 80.6064 134.428ZM87.944 130.496V135.678H86.2452V126.951H87.8759V128.371H87.9838C88.1846 127.909 88.499 127.538 88.927 127.258C89.3588 126.977 89.9024 126.837 90.5577 126.837C91.1524 126.837 91.6732 126.962 92.1202 127.212C92.5671 127.459 92.9137 127.826 93.1599 128.315C93.4062 128.803 93.5293 129.407 93.5293 130.127V135.678H91.8304V130.332C91.8304 129.699 91.6656 129.205 91.3361 128.849C91.0065 128.489 90.5539 128.309 89.9781 128.309C89.5842 128.309 89.2338 128.394 88.927 128.565C88.624 128.735 88.3834 128.985 88.2054 129.315C88.0312 129.64 87.944 130.034 87.944 130.496Z" fill="#1E222E"/>
<rect x="42" y="148.678" width="150" height="6" rx="3" fill="#397CE8"/>
<path d="M12.1191 176.042V187.678H10.3577V177.803H10.2895L7.50545 179.621V177.94L10.4089 176.042H12.1191ZM19.2016 176.042V187.678H17.4402V177.803H17.372L14.588 179.621V177.94L17.4914 176.042H19.2016ZM27.9432 185.496V184.883C27.9432 184.443 28.0341 184.042 28.2159 183.678C28.4015 183.311 28.6705 183.017 29.0227 182.798C29.3788 182.574 29.8087 182.462 30.3125 182.462C30.8277 182.462 31.2595 182.572 31.608 182.792C31.9564 183.012 32.2197 183.305 32.3977 183.673C32.5795 184.04 32.6705 184.443 32.6705 184.883V185.496C32.6705 185.936 32.5795 186.339 32.3977 186.707C32.2159 187.07 31.9489 187.364 31.5966 187.587C31.2481 187.807 30.8201 187.917 30.3125 187.917C29.8011 187.917 29.3693 187.807 29.017 187.587C28.6648 187.364 28.3977 187.07 28.2159 186.707C28.0341 186.339 27.9432 185.936 27.9432 185.496ZM29.267 184.883V185.496C29.267 185.822 29.3447 186.118 29.5 186.383C29.6553 186.648 29.9261 186.78 30.3125 186.78C30.6951 186.78 30.9621 186.648 31.1136 186.383C31.2652 186.118 31.3409 185.822 31.3409 185.496V184.883C31.3409 184.557 31.267 184.262 31.1193 183.996C30.9754 183.731 30.7064 183.599 30.3125 183.599C29.9337 183.599 29.6648 183.731 29.5057 183.996C29.3466 184.262 29.267 184.557 29.267 184.883ZM22.0909 178.837V178.224C22.0909 177.784 22.1818 177.381 22.3636 177.013C22.5492 176.646 22.8182 176.352 23.1705 176.133C23.5265 175.913 23.9564 175.803 24.4602 175.803C24.9754 175.803 25.4072 175.913 25.7557 176.133C26.1042 176.352 26.3674 176.646 26.5455 177.013C26.7235 177.381 26.8125 177.784 26.8125 178.224V178.837C26.8125 179.277 26.7216 179.68 26.5398 180.048C26.3617 180.411 26.0966 180.705 25.7443 180.928C25.3958 181.148 24.9678 181.258 24.4602 181.258C23.9451 181.258 23.5114 181.148 23.1591 180.928C22.8106 180.705 22.5455 180.411 22.3636 180.048C22.1818 179.68 22.0909 179.277 22.0909 178.837ZM23.4205 178.224V178.837C23.4205 179.163 23.4962 179.459 23.6477 179.724C23.803 179.989 24.0739 180.121 24.4602 180.121C24.839 180.121 25.1042 179.989 25.2557 179.724C25.411 179.459 25.4886 179.163 25.4886 178.837V178.224C25.4886 177.898 25.4148 177.602 25.267 177.337C25.1193 177.072 24.8504 176.94 24.4602 176.94C24.0814 176.94 23.8125 177.072 23.6534 177.337C23.4981 177.602 23.4205 177.898 23.4205 178.224ZM22.6307 187.678L30.6307 176.042H31.9886L23.9886 187.678H22.6307Z" fill="#1E222E"/>
<path d="M47.8011 176.042H49.5511V184.292C49.5511 185.038 49.4034 185.676 49.108 186.207C48.8163 186.737 48.4053 187.142 47.875 187.423C47.3447 187.699 46.7235 187.837 46.0114 187.837C45.3561 187.837 44.767 187.718 44.2443 187.479C43.7254 187.241 43.3144 186.894 43.0114 186.44C42.7121 185.981 42.5625 185.424 42.5625 184.769H44.3068C44.3068 185.091 44.3807 185.37 44.5284 185.604C44.6799 185.839 44.8864 186.023 45.1477 186.155C45.4129 186.284 45.7159 186.349 46.0568 186.349C46.428 186.349 46.7424 186.271 47 186.116C47.2614 185.957 47.4602 185.724 47.5966 185.417C47.733 185.11 47.8011 184.735 47.8011 184.292V176.042ZM54.1899 187.871C53.6369 187.871 53.1369 187.769 52.6899 187.565C52.243 187.356 51.8888 187.055 51.6274 186.661C51.3699 186.267 51.2411 185.784 51.2411 185.212C51.2411 184.72 51.3358 184.315 51.5252 183.996C51.7146 183.678 51.9702 183.426 52.2922 183.241C52.6142 183.055 52.974 182.915 53.3718 182.82C53.7695 182.726 54.1748 182.654 54.5877 182.604C55.1104 182.544 55.5346 182.495 55.8604 182.457C56.1862 182.415 56.4229 182.349 56.5706 182.258C56.7184 182.167 56.7922 182.019 56.7922 181.815V181.775C56.7922 181.279 56.6521 180.894 56.3718 180.621C56.0952 180.349 55.6824 180.212 55.1331 180.212C54.5612 180.212 54.1104 180.339 53.7809 180.593C53.4551 180.843 53.2297 181.121 53.1047 181.428L51.5081 181.065C51.6975 180.534 51.974 180.106 52.3377 179.78C52.7051 179.451 53.1274 179.212 53.6047 179.065C54.082 178.913 54.5839 178.837 55.1104 178.837C55.4589 178.837 55.8282 178.879 56.2184 178.962C56.6123 179.042 56.9797 179.19 57.3206 179.405C57.6653 179.621 57.9475 179.93 58.1672 180.332C58.3869 180.729 58.4968 181.246 58.4968 181.883V187.678H56.8377V186.485H56.7695C56.6596 186.705 56.4949 186.921 56.2752 187.133C56.0555 187.345 55.7733 187.521 55.4286 187.661C55.0839 187.801 54.671 187.871 54.1899 187.871ZM54.5593 186.508C55.029 186.508 55.4305 186.415 55.7638 186.229C56.1009 186.044 56.3566 185.801 56.5309 185.502C56.7089 185.199 56.7979 184.875 56.7979 184.53V183.405C56.7373 183.466 56.6199 183.523 56.4456 183.576C56.2752 183.625 56.0801 183.669 55.8604 183.707C55.6407 183.741 55.4267 183.773 55.2184 183.803C55.01 183.83 54.8358 183.852 54.6956 183.871C54.3661 183.913 54.0649 183.983 53.7922 184.082C53.5233 184.18 53.3074 184.322 53.1445 184.508C52.9854 184.69 52.9059 184.932 52.9059 185.235C52.9059 185.655 53.0612 185.974 53.3718 186.19C53.6824 186.402 54.0782 186.508 54.5593 186.508ZM67.593 178.951L64.4282 187.678H62.61L59.4395 178.951H61.2634L63.4736 185.667H63.5645L65.7691 178.951H67.593ZM71.1593 187.871C70.6063 187.871 70.1063 187.769 69.6593 187.565C69.2123 187.356 68.8582 187.055 68.5968 186.661C68.3392 186.267 68.2105 185.784 68.2105 185.212C68.2105 184.72 68.3052 184.315 68.4945 183.996C68.6839 183.678 68.9396 183.426 69.2616 183.241C69.5836 183.055 69.9434 182.915 70.3411 182.82C70.7389 182.726 71.1442 182.654 71.557 182.604C72.0798 182.544 72.504 182.495 72.8298 182.457C73.1555 182.415 73.3923 182.349 73.54 182.258C73.6877 182.167 73.7616 182.019 73.7616 181.815V181.775C73.7616 181.279 73.6214 180.894 73.3411 180.621C73.0646 180.349 72.6517 180.212 72.1025 180.212C71.5305 180.212 71.0798 180.339 70.7502 180.593C70.4245 180.843 70.1991 181.121 70.0741 181.428L68.4775 181.065C68.6669 180.534 68.9434 180.106 69.307 179.78C69.6745 179.451 70.0968 179.212 70.5741 179.065C71.0514 178.913 71.5533 178.837 72.0798 178.837C72.4283 178.837 72.7976 178.879 73.1877 178.962C73.5817 179.042 73.9491 179.19 74.29 179.405C74.6347 179.621 74.9169 179.93 75.1366 180.332C75.3563 180.729 75.4661 181.246 75.4661 181.883V187.678H73.807V186.485H73.7389C73.629 186.705 73.4642 186.921 73.2445 187.133C73.0248 187.345 72.7427 187.521 72.398 187.661C72.0533 187.801 71.6404 187.871 71.1593 187.871ZM71.5286 186.508C71.9983 186.508 72.3998 186.415 72.7332 186.229C73.0703 186.044 73.326 185.801 73.5002 185.502C73.6783 185.199 73.7673 184.875 73.7673 184.53V183.405C73.7067 183.466 73.5892 183.523 73.415 183.576C73.2445 183.625 73.0495 183.669 72.8298 183.707C72.6101 183.741 72.3961 183.773 72.1877 183.803C71.9794 183.83 71.8052 183.852 71.665 183.871C71.3355 183.913 71.0343 183.983 70.7616 184.082C70.4927 184.18 70.2767 184.322 70.1139 184.508C69.9548 184.69 69.8752 184.932 69.8752 185.235C69.8752 185.655 70.0305 185.974 70.3411 186.19C70.6517 186.402 71.0476 186.508 71.5286 186.508ZM85.7551 175.496L82.0051 189.428H80.4881L84.2381 175.496H85.7551ZM97.2756 179.099C97.215 178.561 96.965 178.144 96.5256 177.849C96.0862 177.549 95.5332 177.4 94.8665 177.4C94.3893 177.4 93.9764 177.476 93.6279 177.627C93.2794 177.775 93.0086 177.979 92.8154 178.241C92.626 178.498 92.5313 178.792 92.5313 179.121C92.5313 179.398 92.5957 179.637 92.7245 179.837C92.8571 180.038 93.0294 180.207 93.2415 180.343C93.4574 180.476 93.6885 180.587 93.9347 180.678C94.1809 180.765 94.4177 180.837 94.6449 180.894L95.7813 181.19C96.1525 181.28 96.5332 181.404 96.9234 181.559C97.3135 181.714 97.6752 181.919 98.0086 182.173C98.3419 182.426 98.6109 182.741 98.8154 183.116C99.0237 183.491 99.1279 183.94 99.1279 184.462C99.1279 185.121 98.9574 185.707 98.6165 186.218C98.2794 186.729 97.7889 187.133 97.1449 187.428C96.5048 187.724 95.7302 187.871 94.8211 187.871C93.9499 187.871 93.1961 187.733 92.5597 187.457C91.9234 187.18 91.4252 186.788 91.0654 186.28C90.7055 185.769 90.5067 185.163 90.4688 184.462H92.2302C92.2643 184.883 92.4006 185.233 92.6393 185.513C92.8817 185.79 93.1904 185.996 93.5654 186.133C93.9442 186.265 94.359 186.332 94.8097 186.332C95.3059 186.332 95.7472 186.254 96.1336 186.099C96.5237 185.94 96.8305 185.72 97.054 185.44C97.2775 185.155 97.3893 184.824 97.3893 184.445C97.3893 184.101 97.2908 183.818 97.0938 183.599C96.9006 183.379 96.6374 183.197 96.304 183.053C95.9745 182.909 95.6014 182.782 95.1847 182.673L93.8097 182.298C92.8779 182.044 92.1393 181.671 91.5938 181.178C91.0521 180.686 90.7813 180.034 90.7813 179.224C90.7813 178.553 90.9631 177.968 91.3268 177.468C91.6904 176.968 92.1828 176.58 92.804 176.303C93.4252 176.023 94.126 175.883 94.9063 175.883C95.6942 175.883 96.3893 176.021 96.9915 176.298C97.5976 176.574 98.0749 176.955 98.4234 177.44C98.7718 177.921 98.9537 178.474 98.9688 179.099H97.2756ZM104.446 187.854C103.601 187.854 102.874 187.663 102.264 187.28C101.658 186.894 101.192 186.362 100.866 185.684C100.54 185.006 100.377 184.229 100.377 183.354C100.377 182.468 100.544 181.686 100.877 181.008C101.211 180.326 101.681 179.794 102.287 179.411C102.893 179.029 103.607 178.837 104.429 178.837C105.092 178.837 105.682 178.96 106.201 179.207C106.72 179.449 107.139 179.79 107.457 180.229C107.779 180.669 107.97 181.182 108.031 181.769H106.377C106.287 181.36 106.078 181.008 105.752 180.712C105.431 180.417 104.999 180.269 104.457 180.269C103.984 180.269 103.569 180.394 103.213 180.644C102.86 180.89 102.586 181.243 102.389 181.701C102.192 182.155 102.093 182.693 102.093 183.315C102.093 183.951 102.19 184.5 102.383 184.962C102.576 185.424 102.849 185.782 103.201 186.036C103.557 186.29 103.976 186.417 104.457 186.417C104.779 186.417 105.071 186.358 105.332 186.241C105.597 186.12 105.819 185.947 105.997 185.724C106.179 185.5 106.306 185.231 106.377 184.917H108.031C107.97 185.481 107.787 185.985 107.48 186.428C107.173 186.871 106.762 187.22 106.247 187.474C105.735 187.727 105.135 187.854 104.446 187.854ZM112.067 187.871C111.514 187.871 111.014 187.769 110.567 187.565C110.12 187.356 109.766 187.055 109.505 186.661C109.247 186.267 109.119 185.784 109.119 185.212C109.119 184.72 109.213 184.315 109.403 183.996C109.592 183.678 109.848 183.426 110.17 183.241C110.492 183.055 110.852 182.915 111.249 182.82C111.647 182.726 112.052 182.654 112.465 182.604C112.988 182.544 113.412 182.495 113.738 182.457C114.064 182.415 114.3 182.349 114.448 182.258C114.596 182.167 114.67 182.019 114.67 181.815V181.775C114.67 181.279 114.53 180.894 114.249 180.621C113.973 180.349 113.56 180.212 113.011 180.212C112.439 180.212 111.988 180.339 111.658 180.593C111.333 180.843 111.107 181.121 110.982 181.428L109.386 181.065C109.575 180.534 109.852 180.106 110.215 179.78C110.583 179.451 111.005 179.212 111.482 179.065C111.959 178.913 112.461 178.837 112.988 178.837C113.336 178.837 113.706 178.879 114.096 178.962C114.49 179.042 114.857 179.19 115.198 179.405C115.543 179.621 115.825 179.93 116.045 180.332C116.264 180.729 116.374 181.246 116.374 181.883V187.678H114.715V186.485H114.647C114.537 186.705 114.372 186.921 114.153 187.133C113.933 187.345 113.651 187.521 113.306 187.661C112.961 187.801 112.549 187.871 112.067 187.871ZM112.437 186.508C112.906 186.508 113.308 186.415 113.641 186.229C113.978 186.044 114.234 185.801 114.408 185.502C114.586 185.199 114.675 184.875 114.675 184.53V183.405C114.615 183.466 114.497 183.523 114.323 183.576C114.153 183.625 113.958 183.669 113.738 183.707C113.518 183.741 113.304 183.773 113.096 183.803C112.888 183.83 112.713 183.852 112.573 183.871C112.244 183.913 111.942 183.983 111.67 184.082C111.401 184.18 111.185 184.322 111.022 184.508C110.863 184.69 110.783 184.932 110.783 185.235C110.783 185.655 110.939 185.974 111.249 186.19C111.56 186.402 111.956 186.508 112.437 186.508ZM120.016 176.042V187.678H118.317V176.042H120.016ZM124.521 187.871C123.968 187.871 123.468 187.769 123.021 187.565C122.574 187.356 122.22 187.055 121.959 186.661C121.701 186.267 121.572 185.784 121.572 185.212C121.572 184.72 121.667 184.315 121.856 183.996C122.046 183.678 122.301 183.426 122.623 183.241C122.945 183.055 123.305 182.915 123.703 182.82C124.101 182.726 124.506 182.654 124.919 182.604C125.442 182.544 125.866 182.495 126.192 182.457C126.517 182.415 126.754 182.349 126.902 182.258C127.05 182.167 127.123 182.019 127.123 181.815V181.775C127.123 181.279 126.983 180.894 126.703 180.621C126.426 180.349 126.014 180.212 125.464 180.212C124.892 180.212 124.442 180.339 124.112 180.593C123.786 180.843 123.561 181.121 123.436 181.428L121.839 181.065C122.029 180.534 122.305 180.106 122.669 179.78C123.036 179.451 123.459 179.212 123.936 179.065C124.413 178.913 124.915 178.837 125.442 178.837C125.79 178.837 126.159 178.879 126.55 178.962C126.944 179.042 127.311 179.19 127.652 179.405C127.997 179.621 128.279 179.93 128.498 180.332C128.718 180.729 128.828 181.246 128.828 181.883V187.678H127.169V186.485H127.101C126.991 186.705 126.826 186.921 126.606 187.133C126.387 187.345 126.105 187.521 125.76 187.661C125.415 187.801 125.002 187.871 124.521 187.871ZM124.891 186.508C125.36 186.508 125.762 186.415 126.095 186.229C126.432 186.044 126.688 185.801 126.862 185.502C127.04 185.199 127.129 184.875 127.129 184.53V183.405C127.069 183.466 126.951 183.523 126.777 183.576C126.606 183.625 126.411 183.669 126.192 183.707C125.972 183.741 125.758 183.773 125.55 183.803C125.341 183.83 125.167 183.852 125.027 183.871C124.697 183.913 124.396 183.983 124.123 184.082C123.855 184.18 123.639 184.322 123.476 184.508C123.317 184.69 123.237 184.932 123.237 185.235C123.237 185.655 123.392 185.974 123.703 186.19C124.014 186.402 124.409 186.508 124.891 186.508ZM139.117 175.496L135.367 189.428H133.85L137.6 175.496H139.117ZM144.291 187.678V176.042H146.047V181.599H146.189L151.069 176.042H153.28L148.586 181.28L153.297 187.678H151.183L147.422 182.479L146.047 184.059V187.678H144.291ZM157.495 187.854C156.677 187.854 155.963 187.667 155.353 187.292C154.743 186.917 154.27 186.392 153.933 185.718C153.595 185.044 153.427 184.256 153.427 183.354C153.427 182.449 153.595 181.657 153.933 180.979C154.27 180.301 154.743 179.775 155.353 179.4C155.963 179.025 156.677 178.837 157.495 178.837C158.313 178.837 159.027 179.025 159.637 179.4C160.247 179.775 160.72 180.301 161.058 180.979C161.395 181.657 161.563 182.449 161.563 183.354C161.563 184.256 161.395 185.044 161.058 185.718C160.72 186.392 160.247 186.917 159.637 187.292C159.027 187.667 158.313 187.854 157.495 187.854ZM157.501 186.428C158.031 186.428 158.47 186.288 158.819 186.008C159.167 185.727 159.425 185.354 159.592 184.888C159.762 184.423 159.847 183.909 159.847 183.349C159.847 182.792 159.762 182.28 159.592 181.815C159.425 181.345 159.167 180.968 158.819 180.684C158.47 180.4 158.031 180.258 157.501 180.258C156.967 180.258 156.523 180.4 156.171 180.684C155.823 180.968 155.563 181.345 155.393 181.815C155.226 182.28 155.143 182.792 155.143 183.349C155.143 183.909 155.226 184.423 155.393 184.888C155.563 185.354 155.823 185.727 156.171 186.008C156.523 186.288 156.967 186.428 157.501 186.428ZM167.213 178.951V180.315H162.446V178.951H167.213ZM163.725 176.86H165.424V185.116C165.424 185.445 165.473 185.693 165.571 185.86C165.67 186.023 165.797 186.135 165.952 186.195C166.111 186.252 166.283 186.28 166.469 186.28C166.605 186.28 166.725 186.271 166.827 186.252C166.929 186.233 167.009 186.218 167.066 186.207L167.372 187.61C167.274 187.648 167.134 187.686 166.952 187.724C166.77 187.765 166.543 187.788 166.27 187.792C165.823 187.799 165.407 187.72 165.02 187.553C164.634 187.387 164.321 187.129 164.083 186.78C163.844 186.432 163.725 185.995 163.725 185.468V176.86ZM170.659 176.042V187.678H168.96V176.042H170.659ZM172.625 187.678V178.951H174.323V187.678H172.625ZM173.482 177.604C173.187 177.604 172.933 177.506 172.721 177.309C172.513 177.108 172.409 176.87 172.409 176.593C172.409 176.313 172.513 176.074 172.721 175.877C172.933 175.676 173.187 175.576 173.482 175.576C173.778 175.576 174.03 175.676 174.238 175.877C174.45 176.074 174.556 176.313 174.556 176.593C174.556 176.87 174.45 177.108 174.238 177.309C174.03 177.506 173.778 177.604 173.482 177.604ZM177.988 182.496V187.678H176.289V178.951H177.92V180.371H178.028C178.228 179.909 178.543 179.538 178.971 179.258C179.403 178.977 179.946 178.837 180.601 178.837C181.196 178.837 181.717 178.962 182.164 179.212C182.611 179.459 182.957 179.826 183.204 180.315C183.45 180.803 183.573 181.407 183.573 182.127V187.678H181.874V182.332C181.874 181.699 181.709 181.205 181.38 180.849C181.05 180.489 180.598 180.309 180.022 180.309C179.628 180.309 179.278 180.394 178.971 180.565C178.668 180.735 178.427 180.985 178.249 181.315C178.075 181.64 177.988 182.034 177.988 182.496Z" fill="#1E222E"/>
<rect x="42" y="200.678" width="39" height="6" rx="3" fill="#397CE8"/>
<path d="M11.6362 237.405V235.985L16.6647 228.042H17.784V230.133H17.0737L13.4772 235.826V235.917H20.3692V237.405H11.6362ZM17.1533 239.678V236.974L17.1647 236.326V228.042H18.8294V239.678H17.1533ZM27.9432 237.496V236.883C27.9432 236.443 28.0341 236.042 28.2159 235.678C28.4015 235.311 28.6705 235.017 29.0227 234.798C29.3788 234.574 29.8087 234.462 30.3125 234.462C30.8277 234.462 31.2595 234.572 31.608 234.792C31.9564 235.012 32.2197 235.305 32.3977 235.673C32.5795 236.04 32.6705 236.443 32.6705 236.883V237.496C32.6705 237.936 32.5795 238.339 32.3977 238.707C32.2159 239.07 31.9489 239.364 31.5966 239.587C31.2481 239.807 30.8201 239.917 30.3125 239.917C29.8011 239.917 29.3693 239.807 29.017 239.587C28.6648 239.364 28.3977 239.07 28.2159 238.707C28.0341 238.339 27.9432 237.936 27.9432 237.496ZM29.267 236.883V237.496C29.267 237.822 29.3447 238.118 29.5 238.383C29.6553 238.648 29.9261 238.78 30.3125 238.78C30.6951 238.78 30.9621 238.648 31.1136 238.383C31.2652 238.118 31.3409 237.822 31.3409 237.496V236.883C31.3409 236.557 31.267 236.262 31.1193 235.996C30.9754 235.731 30.7064 235.599 30.3125 235.599C29.9337 235.599 29.6648 235.731 29.5057 235.996C29.3466 236.262 29.267 236.557 29.267 236.883ZM22.0909 230.837V230.224C22.0909 229.784 22.1818 229.381 22.3636 229.013C22.5492 228.646 22.8182 228.352 23.1705 228.133C23.5265 227.913 23.9564 227.803 24.4602 227.803C24.9754 227.803 25.4072 227.913 25.7557 228.133C26.1042 228.352 26.3674 228.646 26.5455 229.013C26.7235 229.381 26.8125 229.784 26.8125 230.224V230.837C26.8125 231.277 26.7216 231.68 26.5398 232.048C26.3617 232.411 26.0966 232.705 25.7443 232.928C25.3958 233.148 24.9678 233.258 24.4602 233.258C23.9451 233.258 23.5114 233.148 23.1591 232.928C22.8106 232.705 22.5455 232.411 22.3636 232.048C22.1818 231.68 22.0909 231.277 22.0909 230.837ZM23.4205 230.224V230.837C23.4205 231.163 23.4962 231.459 23.6477 231.724C23.803 231.989 24.0739 232.121 24.4602 232.121C24.839 232.121 25.1042 231.989 25.2557 231.724C25.411 231.459 25.4886 231.163 25.4886 230.837V230.224C25.4886 229.898 25.4148 229.602 25.267 229.337C25.1193 229.072 24.8504 228.94 24.4602 228.94C24.0814 228.94 23.8125 229.072 23.6534 229.337C23.4981 229.602 23.4205 229.898 23.4205 230.224ZM22.6307 239.678L30.6307 228.042H31.9886L23.9886 239.678H22.6307Z" fill="#1E222E"/>
<path d="M51.1534 231.718C51.0436 231.373 50.8958 231.065 50.7102 230.792C50.5284 230.515 50.3106 230.28 50.0568 230.087C49.803 229.89 49.5133 229.741 49.1875 229.638C48.8655 229.536 48.5114 229.485 48.125 229.485C47.4697 229.485 46.8788 229.654 46.3523 229.991C45.8258 230.328 45.4091 230.822 45.1023 231.474C44.7992 232.121 44.6477 232.915 44.6477 233.854C44.6477 234.798 44.8011 235.595 45.108 236.246C45.4148 236.898 45.8352 237.392 46.3693 237.729C46.9034 238.066 47.5114 238.235 48.1932 238.235C48.8258 238.235 49.3769 238.106 49.8466 237.849C50.3201 237.591 50.6856 237.227 50.9432 236.758C51.2045 236.284 51.3352 235.727 51.3352 235.087L51.7898 235.173H48.4602V233.724H53.0341V235.048C53.0341 236.025 52.8258 236.873 52.4091 237.593C51.9962 238.309 51.4242 238.862 50.6932 239.252C49.9659 239.642 49.1326 239.837 48.1932 239.837C47.1402 239.837 46.2159 239.595 45.4205 239.11C44.6288 238.625 44.0114 237.938 43.5682 237.048C43.125 236.154 42.9034 235.093 42.9034 233.866C42.9034 232.938 43.0322 232.104 43.2898 231.366C43.5473 230.627 43.9091 230 44.375 229.485C44.8447 228.966 45.3958 228.57 46.0284 228.298C46.6648 228.021 47.3598 227.883 48.1136 227.883C48.7424 227.883 49.3277 227.976 49.8693 228.161C50.4148 228.347 50.8996 228.61 51.3239 228.951C51.7519 229.292 52.1061 229.697 52.3864 230.167C52.6667 230.633 52.8561 231.15 52.9545 231.718H51.1534ZM58.4826 239.854C57.6644 239.854 56.9504 239.667 56.3405 239.292C55.7307 238.917 55.2572 238.392 54.9201 237.718C54.5829 237.044 54.4144 236.256 54.4144 235.354C54.4144 234.449 54.5829 233.657 54.9201 232.979C55.2572 232.301 55.7307 231.775 56.3405 231.4C56.9504 231.025 57.6644 230.837 58.4826 230.837C59.3007 230.837 60.0148 231.025 60.6246 231.4C61.2345 231.775 61.7079 232.301 62.0451 232.979C62.3822 233.657 62.5507 234.449 62.5507 235.354C62.5507 236.256 62.3822 237.044 62.0451 237.718C61.7079 238.392 61.2345 238.917 60.6246 239.292C60.0148 239.667 59.3007 239.854 58.4826 239.854ZM58.4882 238.428C59.0185 238.428 59.4579 238.288 59.8064 238.008C60.1549 237.727 60.4125 237.354 60.5791 236.888C60.7496 236.423 60.8348 235.909 60.8348 235.349C60.8348 234.792 60.7496 234.28 60.5791 233.815C60.4125 233.345 60.1549 232.968 59.8064 232.684C59.4579 232.4 59.0185 232.258 58.4882 232.258C57.9541 232.258 57.511 232.4 57.1587 232.684C56.8102 232.968 56.5507 233.345 56.3803 233.815C56.2136 234.28 56.1303 234.792 56.1303 235.349C56.1303 235.909 56.2136 236.423 56.3803 236.888C56.5507 237.354 56.8102 237.727 57.1587 238.008C57.511 238.288 57.9541 238.428 58.4882 238.428Z" fill="#1E222E"/>
<rect x="42" y="252.678" width="18" height="6" rx="3" fill="#397CE8"/>
<path d="M16.0468 279.883C16.5657 279.887 17.0771 279.981 17.5809 280.167C18.0846 280.352 18.5392 280.655 18.9445 281.076C19.3536 281.496 19.6793 282.065 19.9218 282.78C20.168 283.493 20.293 284.379 20.2968 285.44C20.2968 286.459 20.1945 287.366 19.9899 288.161C19.7854 288.953 19.4918 289.621 19.1093 290.167C18.7305 290.712 18.2702 291.127 17.7286 291.411C17.1869 291.695 16.5771 291.837 15.899 291.837C15.2059 291.837 14.5903 291.701 14.0524 291.428C13.5146 291.155 13.0771 290.779 12.7399 290.298C12.4028 289.813 12.1926 289.256 12.1093 288.627H13.8422C13.9559 289.127 14.1869 289.532 14.5354 289.843C14.8877 290.15 15.3422 290.303 15.899 290.303C16.7513 290.303 17.4161 289.932 17.8934 289.19C18.3706 288.443 18.6112 287.402 18.6149 286.065H18.524C18.3271 286.39 18.0809 286.671 17.7854 286.905C17.4937 287.14 17.1661 287.322 16.8024 287.451C16.4388 287.58 16.0505 287.644 15.6377 287.644C14.9672 287.644 14.3574 287.479 13.8081 287.15C13.2589 286.82 12.8214 286.368 12.4956 285.792C12.1699 285.216 12.007 284.559 12.007 283.82C12.007 283.085 12.1737 282.419 12.507 281.82C12.8441 281.222 13.3138 280.748 13.9161 280.4C14.5221 280.048 15.2324 279.875 16.0468 279.883ZM16.0524 281.36C15.6093 281.36 15.2096 281.47 14.8536 281.69C14.5013 281.905 14.2229 282.199 14.0184 282.57C13.8138 282.938 13.7115 283.347 13.7115 283.798C13.7115 284.248 13.81 284.657 14.007 285.025C14.2077 285.388 14.4805 285.678 14.8252 285.894C15.1737 286.106 15.5714 286.212 16.0184 286.212C16.3517 286.212 16.6623 286.148 16.9502 286.019C17.238 285.89 17.4899 285.712 17.7059 285.485C17.9218 285.254 18.0903 284.993 18.2115 284.701C18.3327 284.409 18.3934 284.102 18.3934 283.78C18.3934 283.352 18.2911 282.955 18.0865 282.587C17.8858 282.22 17.6093 281.924 17.257 281.701C16.9047 281.474 16.5032 281.36 16.0524 281.36ZM27.9432 289.496V288.883C27.9432 288.443 28.0341 288.042 28.2159 287.678C28.4015 287.311 28.6705 287.017 29.0227 286.798C29.3788 286.574 29.8087 286.462 30.3125 286.462C30.8277 286.462 31.2595 286.572 31.608 286.792C31.9564 287.012 32.2197 287.305 32.3977 287.673C32.5795 288.04 32.6705 288.443 32.6705 288.883V289.496C32.6705 289.936 32.5795 290.339 32.3977 290.707C32.2159 291.07 31.9489 291.364 31.5966 291.587C31.2481 291.807 30.8201 291.917 30.3125 291.917C29.8011 291.917 29.3693 291.807 29.017 291.587C28.6648 291.364 28.3977 291.07 28.2159 290.707C28.0341 290.339 27.9432 289.936 27.9432 289.496ZM29.267 288.883V289.496C29.267 289.822 29.3447 290.118 29.5 290.383C29.6553 290.648 29.9261 290.78 30.3125 290.78C30.6951 290.78 30.9621 290.648 31.1136 290.383C31.2652 290.118 31.3409 289.822 31.3409 289.496V288.883C31.3409 288.557 31.267 288.262 31.1193 287.996C30.9754 287.731 30.7064 287.599 30.3125 287.599C29.9337 287.599 29.6648 287.731 29.5057 287.996C29.3466 288.262 29.267 288.557 29.267 288.883ZM22.0909 282.837V282.224C22.0909 281.784 22.1818 281.381 22.3636 281.013C22.5492 280.646 22.8182 280.352 23.1705 280.133C23.5265 279.913 23.9564 279.803 24.4602 279.803C24.9754 279.803 25.4072 279.913 25.7557 280.133C26.1042 280.352 26.3674 280.646 26.5455 281.013C26.7235 281.381 26.8125 281.784 26.8125 282.224V282.837C26.8125 283.277 26.7216 283.68 26.5398 284.048C26.3617 284.411 26.0966 284.705 25.7443 284.928C25.3958 285.148 24.9678 285.258 24.4602 285.258C23.9451 285.258 23.5114 285.148 23.1591 284.928C22.8106 284.705 22.5455 284.411 22.3636 284.048C22.1818 283.68 22.0909 283.277 22.0909 282.837ZM23.4205 282.224V282.837C23.4205 283.163 23.4962 283.459 23.6477 283.724C23.803 283.989 24.0739 284.121 24.4602 284.121C24.839 284.121 25.1042 283.989 25.2557 283.724C25.411 283.459 25.4886 283.163 25.4886 282.837V282.224C25.4886 281.898 25.4148 281.602 25.267 281.337C25.1193 281.072 24.8504 280.94 24.4602 280.94C24.0814 280.94 23.8125 281.072 23.6534 281.337C23.4981 281.602 23.4205 281.898 23.4205 282.224ZM22.6307 291.678L30.6307 280.042H31.9886L23.9886 291.678H22.6307Z" fill="#1E222E"/>
<path d="M52.9432 283.826H51.1705C51.1023 283.447 50.9754 283.114 50.7898 282.826C50.6042 282.538 50.3769 282.294 50.108 282.093C49.839 281.892 49.5379 281.741 49.2045 281.638C48.875 281.536 48.5246 281.485 48.1534 281.485C47.483 281.485 46.8826 281.654 46.3523 281.991C45.8258 282.328 45.4091 282.822 45.1023 283.474C44.7992 284.125 44.6477 284.921 44.6477 285.86C44.6477 286.807 44.7992 287.606 45.1023 288.258C45.4091 288.909 45.8277 289.402 46.358 289.735C46.8883 290.068 47.4848 290.235 48.1477 290.235C48.5152 290.235 48.8636 290.186 49.1932 290.087C49.5265 289.985 49.8277 289.835 50.0966 289.638C50.3655 289.441 50.5928 289.201 50.7784 288.917C50.9678 288.629 51.0985 288.299 51.1705 287.928L52.9432 287.934C52.8485 288.506 52.6648 289.032 52.392 289.513C52.1231 289.991 51.7765 290.404 51.3523 290.752C50.9318 291.097 50.4508 291.364 49.9091 291.553C49.3674 291.743 48.7765 291.837 48.1364 291.837C47.1288 291.837 46.2311 291.599 45.4432 291.121C44.6553 290.64 44.0341 289.953 43.5795 289.059C43.1288 288.165 42.9034 287.099 42.9034 285.86C42.9034 284.618 43.1307 283.551 43.5852 282.661C44.0398 281.767 44.661 281.082 45.4489 280.604C46.2367 280.123 47.1326 279.883 48.1364 279.883C48.7538 279.883 49.3295 279.972 49.8636 280.15C50.4015 280.324 50.8845 280.582 51.3125 280.923C51.7405 281.26 52.0947 281.673 52.375 282.161C52.6553 282.646 52.8447 283.201 52.9432 283.826ZM58.0081 289.724V282.042H59.5365V289.724H58.0081ZM54.9343 286.644V285.121H62.6161V286.644H54.9343ZM68.3444 289.724V282.042H69.8728V289.724H68.3444ZM65.2705 286.644V285.121H72.9523V286.644H65.2705ZM83.6064 279.496L79.8564 293.428H78.3393L82.0893 279.496H83.6064ZM88.7803 291.678V280.042H92.928C93.8295 280.042 94.5776 280.197 95.1723 280.508C95.7708 280.818 96.2178 281.248 96.5132 281.798C96.8087 282.343 96.9564 282.974 96.9564 283.69C96.9564 284.402 96.8068 285.029 96.5076 285.57C96.2121 286.108 95.7651 286.527 95.1666 286.826C94.572 287.125 93.8238 287.275 92.9223 287.275H89.7803V285.763H92.7632C93.3314 285.763 93.7935 285.682 94.1496 285.519C94.5095 285.356 94.7727 285.12 94.9394 284.809C95.106 284.498 95.1894 284.125 95.1894 283.69C95.1894 283.25 95.1041 282.87 94.9337 282.548C94.767 282.226 94.5038 281.979 94.1439 281.809C93.7879 281.635 93.3201 281.548 92.7405 281.548H90.536V291.678H88.7803ZM94.5246 286.428L97.3996 291.678H95.3996L92.5814 286.428H94.5246ZM104.165 288.059V282.951H105.869V291.678H104.199V290.167H104.108C103.907 290.633 103.585 291.021 103.142 291.332C102.703 291.638 102.155 291.792 101.5 291.792C100.939 291.792 100.443 291.669 100.011 291.423C99.5834 291.173 99.2463 290.803 99.0001 290.315C98.7576 289.826 98.6364 289.222 98.6364 288.502V282.951H100.335V288.298C100.335 288.892 100.5 289.366 100.83 289.718C101.159 290.07 101.587 290.246 102.114 290.246C102.432 290.246 102.748 290.167 103.063 290.008C103.381 289.849 103.644 289.608 103.852 289.286C104.064 288.964 104.169 288.555 104.165 288.059ZM114.372 285.082L112.832 285.354C112.768 285.157 112.665 284.97 112.525 284.792C112.389 284.614 112.203 284.468 111.968 284.354C111.734 284.241 111.44 284.184 111.088 284.184C110.607 284.184 110.205 284.292 109.883 284.508C109.561 284.72 109.4 284.995 109.4 285.332C109.4 285.623 109.508 285.858 109.724 286.036C109.94 286.214 110.288 286.36 110.77 286.474L112.156 286.792C112.959 286.977 113.557 287.263 113.951 287.65C114.345 288.036 114.542 288.538 114.542 289.155C114.542 289.678 114.391 290.144 114.088 290.553C113.788 290.959 113.37 291.277 112.832 291.508C112.298 291.739 111.679 291.854 110.974 291.854C109.997 291.854 109.199 291.646 108.582 291.229C107.965 290.809 107.586 290.212 107.446 289.44L109.088 289.19C109.19 289.618 109.4 289.941 109.718 290.161C110.037 290.377 110.451 290.485 110.963 290.485C111.52 290.485 111.965 290.37 112.298 290.138C112.631 289.904 112.798 289.618 112.798 289.28C112.798 289.008 112.696 288.779 112.491 288.593C112.29 288.407 111.982 288.267 111.565 288.173L110.088 287.849C109.273 287.663 108.671 287.368 108.281 286.962C107.895 286.557 107.701 286.044 107.701 285.423C107.701 284.907 107.845 284.457 108.133 284.07C108.421 283.684 108.819 283.383 109.326 283.167C109.834 282.947 110.415 282.837 111.071 282.837C112.014 282.837 112.756 283.042 113.298 283.451C113.84 283.856 114.198 284.4 114.372 285.082ZM120.164 282.951V284.315H115.397V282.951H120.164ZM116.675 280.86H118.374V289.116C118.374 289.445 118.424 289.693 118.522 289.86C118.62 290.023 118.747 290.135 118.903 290.195C119.062 290.252 119.234 290.28 119.42 290.28C119.556 290.28 119.675 290.271 119.778 290.252C119.88 290.233 119.959 290.218 120.016 290.207L120.323 291.61C120.225 291.648 120.084 291.686 119.903 291.724C119.721 291.765 119.494 291.788 119.221 291.792C118.774 291.799 118.357 291.72 117.971 291.553C117.584 291.387 117.272 291.129 117.033 290.78C116.795 290.432 116.675 289.995 116.675 289.468V280.86Z" fill="#1E222E"/>
<rect x="42" y="304.678" width="32" height="6" rx="3" fill="#397CE8"/>
<path d="M9.35347 332.042V343.678H7.5921V333.803H7.52392L4.73983 335.621V333.94L7.64324 332.042H9.35347ZM16.0723 343.871C15.1746 343.868 14.4076 343.631 13.7712 343.161C13.1348 342.691 12.6481 342.008 12.311 341.11C11.9738 340.212 11.8053 339.131 11.8053 337.866C11.8053 336.604 11.9738 335.527 12.311 334.633C12.6519 333.739 13.1405 333.057 13.7769 332.587C14.417 332.118 15.1822 331.883 16.0723 331.883C16.9625 331.883 17.7257 332.12 18.3621 332.593C18.9985 333.063 19.4852 333.745 19.8223 334.638C20.1632 335.529 20.3337 336.604 20.3337 337.866C20.3337 339.135 20.1651 340.218 19.828 341.116C19.4909 342.01 19.0041 342.693 18.3678 343.167C17.7314 343.637 16.9663 343.871 16.0723 343.871ZM16.0723 342.354C16.8602 342.354 17.4757 341.97 17.9189 341.201C18.3659 340.432 18.5894 339.32 18.5894 337.866C18.5894 336.9 18.4871 336.084 18.2826 335.417C18.0818 334.746 17.792 334.239 17.4132 333.894C17.0382 333.546 16.5913 333.371 16.0723 333.371C15.2882 333.371 14.6727 333.758 14.2257 334.53C13.7788 335.303 13.5534 336.415 13.5496 337.866C13.5496 338.835 13.65 339.655 13.8507 340.326C14.0553 340.993 14.3451 341.498 14.7201 341.843C15.0951 342.184 15.5458 342.354 16.0723 342.354ZM27.9432 341.496V340.883C27.9432 340.443 28.0341 340.042 28.2159 339.678C28.4015 339.311 28.6705 339.017 29.0227 338.798C29.3788 338.574 29.8087 338.462 30.3125 338.462C30.8277 338.462 31.2595 338.572 31.608 338.792C31.9564 339.012 32.2197 339.305 32.3977 339.673C32.5795 340.04 32.6705 340.443 32.6705 340.883V341.496C32.6705 341.936 32.5795 342.339 32.3977 342.707C32.2159 343.07 31.9489 343.364 31.5966 343.587C31.2481 343.807 30.8201 343.917 30.3125 343.917C29.8011 343.917 29.3693 343.807 29.017 343.587C28.6648 343.364 28.3977 343.07 28.2159 342.707C28.0341 342.339 27.9432 341.936 27.9432 341.496ZM29.267 340.883V341.496C29.267 341.822 29.3447 342.118 29.5 342.383C29.6553 342.648 29.9261 342.78 30.3125 342.78C30.6951 342.78 30.9621 342.648 31.1136 342.383C31.2652 342.118 31.3409 341.822 31.3409 341.496V340.883C31.3409 340.557 31.267 340.262 31.1193 339.996C30.9754 339.731 30.7064 339.599 30.3125 339.599C29.9337 339.599 29.6648 339.731 29.5057 339.996C29.3466 340.262 29.267 340.557 29.267 340.883ZM22.0909 334.837V334.224C22.0909 333.784 22.1818 333.381 22.3636 333.013C22.5492 332.646 22.8182 332.352 23.1705 332.133C23.5265 331.913 23.9564 331.803 24.4602 331.803C24.9754 331.803 25.4072 331.913 25.7557 332.133C26.1042 332.352 26.3674 332.646 26.5455 333.013C26.7235 333.381 26.8125 333.784 26.8125 334.224V334.837C26.8125 335.277 26.7216 335.68 26.5398 336.048C26.3617 336.411 26.0966 336.705 25.7443 336.928C25.3958 337.148 24.9678 337.258 24.4602 337.258C23.9451 337.258 23.5114 337.148 23.1591 336.928C22.8106 336.705 22.5455 336.411 22.3636 336.048C22.1818 335.68 22.0909 335.277 22.0909 334.837ZM23.4205 334.224V334.837C23.4205 335.163 23.4962 335.459 23.6477 335.724C23.803 335.989 24.0739 336.121 24.4602 336.121C24.839 336.121 25.1042 335.989 25.2557 335.724C25.411 335.459 25.4886 335.163 25.4886 334.837V334.224C25.4886 333.898 25.4148 333.602 25.267 333.337C25.1193 333.072 24.8504 332.94 24.4602 332.94C24.0814 332.94 23.8125 333.072 23.6534 333.337C23.4981 333.602 23.4205 333.898 23.4205 334.224ZM22.6307 343.678L30.6307 332.042H31.9886L23.9886 343.678H22.6307Z" fill="#1E222E"/>
<path d="M49.625 335.099C49.5644 334.561 49.3144 334.144 48.875 333.849C48.4356 333.549 47.8826 333.4 47.2159 333.4C46.7386 333.4 46.3258 333.476 45.9773 333.627C45.6288 333.775 45.358 333.979 45.1648 334.241C44.9754 334.498 44.8807 334.792 44.8807 335.121C44.8807 335.398 44.9451 335.637 45.0739 335.837C45.2064 336.038 45.3788 336.207 45.5909 336.343C45.8068 336.476 46.0379 336.587 46.2841 336.678C46.5303 336.765 46.767 336.837 46.9943 336.894L48.1307 337.19C48.5019 337.28 48.8826 337.404 49.2727 337.559C49.6629 337.714 50.0246 337.919 50.358 338.173C50.6913 338.426 50.9602 338.741 51.1648 339.116C51.3731 339.491 51.4773 339.94 51.4773 340.462C51.4773 341.121 51.3068 341.707 50.9659 342.218C50.6288 342.729 50.1383 343.133 49.4943 343.428C48.8542 343.724 48.0795 343.871 47.1705 343.871C46.2992 343.871 45.5455 343.733 44.9091 343.457C44.2727 343.18 43.7746 342.788 43.4148 342.28C43.0549 341.769 42.8561 341.163 42.8182 340.462H44.5795C44.6136 340.883 44.75 341.233 44.9886 341.513C45.2311 341.79 45.5398 341.996 45.9148 342.133C46.2936 342.265 46.7083 342.332 47.1591 342.332C47.6553 342.332 48.0966 342.254 48.483 342.099C48.8731 341.94 49.1799 341.72 49.4034 341.44C49.6269 341.155 49.7386 340.824 49.7386 340.445C49.7386 340.101 49.6402 339.818 49.4432 339.599C49.25 339.379 48.9867 339.197 48.6534 339.053C48.3239 338.909 47.9508 338.782 47.5341 338.673L46.1591 338.298C45.2273 338.044 44.4886 337.671 43.9432 337.178C43.4015 336.686 43.1307 336.034 43.1307 335.224C43.1307 334.553 43.3125 333.968 43.6761 333.468C44.0398 332.968 44.5322 332.58 45.1534 332.303C45.7746 332.023 46.4754 331.883 47.2557 331.883C48.0436 331.883 48.7386 332.021 49.3409 332.298C49.947 332.574 50.4242 332.955 50.7727 333.44C51.1212 333.921 51.303 334.474 51.3182 335.099H49.625ZM56.7951 343.854C55.9769 343.854 55.2629 343.667 54.653 343.292C54.0432 342.917 53.5697 342.392 53.2326 341.718C52.8954 341.044 52.7269 340.256 52.7269 339.354C52.7269 338.449 52.8954 337.657 53.2326 336.979C53.5697 336.301 54.0432 335.775 54.653 335.4C55.2629 335.025 55.9769 334.837 56.7951 334.837C57.6132 334.837 58.3273 335.025 58.9371 335.4C59.547 335.775 60.0204 336.301 60.3576 336.979C60.6947 337.657 60.8632 338.449 60.8632 339.354C60.8632 340.256 60.6947 341.044 60.3576 341.718C60.0204 342.392 59.547 342.917 58.9371 343.292C58.3273 343.667 57.6132 343.854 56.7951 343.854ZM56.8007 342.428C57.331 342.428 57.7704 342.288 58.1189 342.008C58.4674 341.727 58.725 341.354 58.8916 340.888C59.0621 340.423 59.1473 339.909 59.1473 339.349C59.1473 338.792 59.0621 338.28 58.8916 337.815C58.725 337.345 58.4674 336.968 58.1189 336.684C57.7704 336.4 57.331 336.258 56.8007 336.258C56.2666 336.258 55.8235 336.4 55.4712 336.684C55.1227 336.968 54.8632 337.345 54.6928 337.815C54.5261 338.28 54.4428 338.792 54.4428 339.349C54.4428 339.909 54.5261 340.423 54.6928 340.888C54.8632 341.354 55.1227 341.727 55.4712 342.008C55.8235 342.288 56.2666 342.428 56.8007 342.428ZM64.1384 332.042V343.678H62.4395V332.042H64.1384ZM66.1039 343.678V334.951H67.8028V343.678H66.1039ZM66.9619 333.604C66.6664 333.604 66.4126 333.506 66.2005 333.309C65.9922 333.108 65.888 332.87 65.888 332.593C65.888 332.313 65.9922 332.074 66.2005 331.877C66.4126 331.676 66.6664 331.576 66.9619 331.576C67.2573 331.576 67.5092 331.676 67.7176 331.877C67.9297 332.074 68.0357 332.313 68.0357 332.593C68.0357 332.87 67.9297 333.108 67.7176 333.309C67.5092 333.506 67.2573 333.604 66.9619 333.604ZM73.0353 343.849C72.3308 343.849 71.702 343.669 71.149 343.309C70.5997 342.945 70.1679 342.428 69.8535 341.758C69.5429 341.084 69.3876 340.275 69.3876 339.332C69.3876 338.388 69.5448 337.582 69.8592 336.911C70.1774 336.241 70.613 335.727 71.166 335.371C71.7191 335.015 72.3459 334.837 73.0467 334.837C73.5884 334.837 74.024 334.928 74.3535 335.11C74.6869 335.288 74.9444 335.496 75.1262 335.735C75.3119 335.974 75.4558 336.184 75.5581 336.366H75.6603V332.042H77.3592V343.678H75.7001V342.32H75.5581C75.4558 342.506 75.3081 342.718 75.1149 342.957C74.9255 343.195 74.6641 343.404 74.3308 343.582C73.9975 343.76 73.5656 343.849 73.0353 343.849ZM73.4103 342.4C73.899 342.4 74.3119 342.271 74.649 342.013C74.9899 341.752 75.2475 341.39 75.4217 340.928C75.5997 340.466 75.6887 339.928 75.6887 339.315C75.6887 338.709 75.6016 338.178 75.4274 337.724C75.2531 337.269 74.9975 336.915 74.6603 336.661C74.3232 336.407 73.9066 336.28 73.4103 336.28C72.899 336.28 72.4728 336.413 72.1319 336.678C71.791 336.943 71.5334 337.305 71.3592 337.763C71.1887 338.222 71.1035 338.739 71.1035 339.315C71.1035 339.898 71.1906 340.423 71.3649 340.888C71.5391 341.354 71.7967 341.724 72.1376 341.996C72.4823 342.265 72.9066 342.4 73.4103 342.4ZM79.4639 343.678V334.951H81.1628V343.678H79.4639ZM80.3219 333.604C80.0264 333.604 79.7726 333.506 79.5605 333.309C79.3522 333.108 79.248 332.87 79.248 332.593C79.248 332.313 79.3522 332.074 79.5605 331.877C79.7726 331.676 80.0264 331.576 80.3219 331.576C80.6173 331.576 80.8692 331.676 81.0776 331.877C81.2897 332.074 81.3957 332.313 81.3957 332.593C81.3957 332.87 81.2897 333.108 81.0776 333.309C80.8692 333.506 80.6173 333.604 80.3219 333.604ZM87.2022 334.951V336.315H82.4351V334.951H87.2022ZM83.7135 332.86H85.4124V341.116C85.4124 341.445 85.4616 341.693 85.5601 341.86C85.6586 342.023 85.7855 342.135 85.9408 342.195C86.0999 342.252 86.2722 342.28 86.4578 342.28C86.5942 342.28 86.7135 342.271 86.8158 342.252C86.9181 342.233 86.9976 342.218 87.0544 342.207L87.3613 343.61C87.2628 343.648 87.1226 343.686 86.9408 343.724C86.759 343.765 86.5317 343.788 86.259 343.792C85.812 343.799 85.3953 343.72 85.009 343.553C84.6226 343.387 84.3101 343.129 84.0715 342.78C83.8328 342.432 83.7135 341.995 83.7135 341.468V332.86ZM89.8353 346.951C89.5815 346.951 89.3504 346.93 89.1421 346.888C88.9338 346.851 88.7785 346.809 88.6762 346.763L89.0853 345.371C89.3959 345.455 89.6724 345.491 89.9148 345.479C90.1573 345.468 90.3713 345.377 90.5569 345.207C90.7463 345.036 90.9129 344.758 91.0569 344.371L91.2671 343.792L88.0739 334.951H89.8921L92.1023 341.724H92.1932L94.4035 334.951H96.2273L92.6307 344.843C92.4641 345.298 92.2519 345.682 91.9944 345.996C91.7368 346.315 91.43 346.553 91.0739 346.712C90.7179 346.871 90.305 346.951 89.8353 346.951Z" fill="#1E222E"/>
<rect x="42" y="356.678" width="35" height="6" rx="3" fill="#397CE8"/>
<path d="M2.70432 395.678V394.405L6.64182 390.326C7.06227 389.883 7.40886 389.495 7.68159 389.161C7.95811 388.824 8.16454 388.504 8.30091 388.201C8.43727 387.898 8.50545 387.576 8.50545 387.235C8.50545 386.849 8.41454 386.515 8.23273 386.235C8.05091 385.951 7.8028 385.733 7.48841 385.582C7.17401 385.426 6.81985 385.349 6.42591 385.349C6.00924 385.349 5.64561 385.434 5.335 385.604C5.02439 385.775 4.78576 386.015 4.61909 386.326C4.45242 386.637 4.36909 387 4.36909 387.417H2.69295C2.69295 386.709 2.85583 386.089 3.18159 385.559C3.50735 385.029 3.95432 384.618 4.5225 384.326C5.09068 384.03 5.73651 383.883 6.46 383.883C7.19106 383.883 7.835 384.029 8.39182 384.32C8.95242 384.608 9.38992 385.002 9.70432 385.502C10.0187 385.998 10.1759 386.559 10.1759 387.184C10.1759 387.616 10.0945 388.038 9.93159 388.451C9.7725 388.864 9.49409 389.324 9.09636 389.832C8.69864 390.335 8.14561 390.947 7.43727 391.667L5.12477 394.087V394.173H10.3634V395.678H2.70432ZM16.088 395.837C15.3077 395.837 14.6107 395.703 13.997 395.434C13.3872 395.165 12.9042 394.792 12.5482 394.315C12.1959 393.834 12.0065 393.277 11.98 392.644H13.7641C13.7868 392.989 13.9023 393.288 14.1107 393.542C14.3228 393.792 14.5993 393.985 14.9402 394.121C15.2811 394.258 15.6599 394.326 16.0766 394.326C16.5349 394.326 16.9402 394.246 17.2925 394.087C17.6486 393.928 17.927 393.707 18.1277 393.423C18.3285 393.135 18.4289 392.803 18.4289 392.428C18.4289 392.038 18.3285 391.695 18.1277 391.4C17.9308 391.101 17.641 390.866 17.2584 390.695C16.8796 390.525 16.4213 390.44 15.8834 390.44H14.9005V389.008H15.8834C16.3152 389.008 16.694 388.93 17.0198 388.775C17.3493 388.62 17.6069 388.404 17.7925 388.127C17.9781 387.847 18.0709 387.519 18.0709 387.144C18.0709 386.784 17.9895 386.472 17.8266 386.207C17.6675 385.938 17.4402 385.727 17.1448 385.576C16.8531 385.424 16.5084 385.349 16.1107 385.349C15.7319 385.349 15.3777 385.419 15.0482 385.559C14.7224 385.695 14.4573 385.892 14.2527 386.15C14.0482 386.404 13.9383 386.709 13.9232 387.065H12.2243C12.2433 386.436 12.4289 385.883 12.7811 385.405C13.1372 384.928 13.6069 384.555 14.1902 384.286C14.7736 384.017 15.4213 383.883 16.1334 383.883C16.8796 383.883 17.5236 384.029 18.0652 384.32C18.6107 384.608 19.0311 384.993 19.3266 385.474C19.6258 385.955 19.7736 386.481 19.7698 387.053C19.7736 387.705 19.5917 388.258 19.2243 388.712C18.8607 389.167 18.3758 389.472 17.7698 389.627V389.718C18.5425 389.835 19.141 390.142 19.5652 390.638C19.9933 391.135 20.2054 391.75 20.2016 392.485C20.2054 393.125 20.0273 393.699 19.6675 394.207C19.3114 394.714 18.8247 395.114 18.2073 395.405C17.5898 395.693 16.8834 395.837 16.088 395.837ZM27.9432 393.496V392.883C27.9432 392.443 28.0341 392.042 28.2159 391.678C28.4015 391.311 28.6705 391.017 29.0227 390.798C29.3788 390.574 29.8087 390.462 30.3125 390.462C30.8277 390.462 31.2595 390.572 31.608 390.792C31.9564 391.012 32.2197 391.305 32.3977 391.673C32.5795 392.04 32.6705 392.443 32.6705 392.883V393.496C32.6705 393.936 32.5795 394.339 32.3977 394.707C32.2159 395.07 31.9489 395.364 31.5966 395.587C31.2481 395.807 30.8201 395.917 30.3125 395.917C29.8011 395.917 29.3693 395.807 29.017 395.587C28.6648 395.364 28.3977 395.07 28.2159 394.707C28.0341 394.339 27.9432 393.936 27.9432 393.496ZM29.267 392.883V393.496C29.267 393.822 29.3447 394.118 29.5 394.383C29.6553 394.648 29.9261 394.78 30.3125 394.78C30.6951 394.78 30.9621 394.648 31.1136 394.383C31.2652 394.118 31.3409 393.822 31.3409 393.496V392.883C31.3409 392.557 31.267 392.262 31.1193 391.996C30.9754 391.731 30.7064 391.599 30.3125 391.599C29.9337 391.599 29.6648 391.731 29.5057 391.996C29.3466 392.262 29.267 392.557 29.267 392.883ZM22.0909 386.837V386.224C22.0909 385.784 22.1818 385.381 22.3636 385.013C22.5492 384.646 22.8182 384.352 23.1705 384.133C23.5265 383.913 23.9564 383.803 24.4602 383.803C24.9754 383.803 25.4072 383.913 25.7557 384.133C26.1042 384.352 26.3674 384.646 26.5455 385.013C26.7235 385.381 26.8125 385.784 26.8125 386.224V386.837C26.8125 387.277 26.7216 387.68 26.5398 388.048C26.3617 388.411 26.0966 388.705 25.7443 388.928C25.3958 389.148 24.9678 389.258 24.4602 389.258C23.9451 389.258 23.5114 389.148 23.1591 388.928C22.8106 388.705 22.5455 388.411 22.3636 388.048C22.1818 387.68 22.0909 387.277 22.0909 386.837ZM23.4205 386.224V386.837C23.4205 387.163 23.4962 387.459 23.6477 387.724C23.803 387.989 24.0739 388.121 24.4602 388.121C24.839 388.121 25.1042 387.989 25.2557 387.724C25.411 387.459 25.4886 387.163 25.4886 386.837V386.224C25.4886 385.898 25.4148 385.602 25.267 385.337C25.1193 385.072 24.8504 384.94 24.4602 384.94C24.0814 384.94 23.8125 385.072 23.6534 385.337C23.4981 385.602 23.4205 385.898 23.4205 386.224ZM22.6307 395.678L30.6307 384.042H31.9886L23.9886 395.678H22.6307Z" fill="#1E222E"/>
<path d="M53.3864 389.86C53.3864 391.102 53.1591 392.171 52.7045 393.065C52.25 393.955 51.6269 394.64 50.8352 395.121C50.0473 395.599 49.1515 395.837 48.1477 395.837C47.1402 395.837 46.2405 395.599 45.4489 395.121C44.661 394.64 44.0398 393.953 43.5852 393.059C43.1307 392.165 42.9034 391.099 42.9034 389.86C42.9034 388.618 43.1307 387.551 43.5852 386.661C44.0398 385.767 44.661 385.082 45.4489 384.604C46.2405 384.123 47.1402 383.883 48.1477 383.883C49.1515 383.883 50.0473 384.123 50.8352 384.604C51.6269 385.082 52.25 385.767 52.7045 386.661C53.1591 387.551 53.3864 388.618 53.3864 389.86ZM51.6477 389.86C51.6477 388.913 51.4943 388.116 51.1875 387.468C50.8845 386.816 50.4678 386.324 49.9375 385.991C49.411 385.654 48.8144 385.485 48.1477 385.485C47.4773 385.485 46.8788 385.654 46.3523 385.991C45.8258 386.324 45.4091 386.816 45.1023 387.468C44.7992 388.116 44.6477 388.913 44.6477 389.86C44.6477 390.807 44.7992 391.606 45.1023 392.258C45.4091 392.905 45.8258 393.398 46.3523 393.735C46.8788 394.068 47.4773 394.235 48.1477 394.235C48.8144 394.235 49.411 394.068 49.9375 393.735C50.4678 393.398 50.8845 392.905 51.1875 392.258C51.4943 391.606 51.6477 390.807 51.6477 389.86ZM59.1928 386.951V388.315H54.4257V386.951H59.1928ZM55.7041 384.86H57.403V393.116C57.403 393.445 57.4523 393.693 57.5507 393.86C57.6492 394.023 57.7761 394.135 57.9314 394.195C58.0905 394.252 58.2629 394.28 58.4485 394.28C58.5848 394.28 58.7041 394.271 58.8064 394.252C58.9087 394.233 58.9882 394.218 59.0451 394.207L59.3519 395.61C59.2534 395.648 59.1132 395.686 58.9314 395.724C58.7496 395.765 58.5223 395.788 58.2496 395.792C57.8026 395.799 57.386 395.72 56.9996 395.553C56.6132 395.387 56.3007 395.129 56.0621 394.78C55.8235 394.432 55.7041 393.995 55.7041 393.468V384.86ZM62.6384 390.496V395.678H60.9395V384.042H62.6157V388.371H62.7236C62.9282 387.902 63.2407 387.529 63.6611 387.252C64.0816 386.976 64.6308 386.837 65.3089 386.837C65.9073 386.837 66.4301 386.96 66.877 387.207C67.3278 387.453 67.6763 387.82 67.9225 388.309C68.1725 388.794 68.2975 389.4 68.2975 390.127V395.678H66.5986V390.332C66.5986 389.691 66.4339 389.195 66.1043 388.843C65.7748 388.487 65.3164 388.309 64.7293 388.309C64.3278 388.309 63.968 388.394 63.6498 388.565C63.3354 388.735 63.0873 388.985 62.9055 389.315C62.7274 389.64 62.6384 390.034 62.6384 390.496ZM74.0059 395.854C73.1461 395.854 72.4055 395.671 71.7843 395.303C71.1669 394.932 70.6896 394.411 70.3525 393.741C70.0192 393.066 69.8525 392.277 69.8525 391.371C69.8525 390.477 70.0192 389.69 70.3525 389.008C70.6896 388.326 71.1593 387.794 71.7616 387.411C72.3677 387.029 73.076 386.837 73.8866 386.837C74.379 386.837 74.8563 386.919 75.3184 387.082C75.7805 387.245 76.1953 387.5 76.5627 387.849C76.9302 388.197 77.2199 388.65 77.432 389.207C77.6442 389.76 77.7502 390.432 77.7502 391.224V391.826H70.8127V390.553H76.0855C76.0855 390.106 75.9945 389.71 75.8127 389.366C75.6309 389.017 75.3752 388.743 75.0457 388.542C74.7199 388.341 74.3373 388.241 73.898 388.241C73.4207 388.241 73.004 388.358 72.648 388.593C72.2957 388.824 72.023 389.127 71.8298 389.502C71.6404 389.873 71.5457 390.277 71.5457 390.712V391.707C71.5457 392.29 71.648 392.786 71.8525 393.195C72.0608 393.604 72.3506 393.917 72.7218 394.133C73.093 394.345 73.5267 394.451 74.023 394.451C74.3449 394.451 74.6385 394.405 74.9036 394.315C75.1688 394.22 75.398 394.08 75.5911 393.894C75.7843 393.709 75.932 393.479 76.0343 393.207L77.6423 393.496C77.5135 393.97 77.2824 394.385 76.9491 394.741C76.6195 395.093 76.2048 395.368 75.7048 395.565C75.2086 395.758 74.6423 395.854 74.0059 395.854ZM79.3152 395.678V386.951H80.9572V388.337H81.0481C81.2072 387.868 81.4875 387.498 81.889 387.229C82.2943 386.957 82.7527 386.82 83.264 386.82C83.3701 386.82 83.4951 386.824 83.639 386.832C83.7868 386.839 83.9023 386.849 83.9856 386.86V388.485C83.9174 388.466 83.7962 388.445 83.622 388.423C83.4477 388.396 83.2735 388.383 83.0993 388.383C82.6977 388.383 82.3398 388.468 82.0254 388.638C81.7148 388.805 81.4686 389.038 81.2868 389.337C81.1049 389.633 81.014 389.97 81.014 390.349V395.678H79.3152Z" fill="#1E222E"/>
<rect x="42" y="408.678" width="85" height="6" rx="3" fill="#397CE8"/>
</svg>
