<svg width="208" height="414" viewBox="0 0 208 414" fill="none" xmlns="http://www.w3.org/2000/svg">
<path d="M4.04616 21L0.351562 7.90909H2.90199L5.26065 17.5291H5.3821L7.90057 7.90909H10.2209L12.7457 17.5355H12.8608L15.2195 7.90909H17.7699L14.0753 21H11.7358L9.11506 11.8146H9.01278L6.38565 21H4.04616ZM22.4766 21.1918C21.4922 21.1918 20.6421 20.9872 19.9262 20.5781C19.2145 20.1648 18.6669 19.581 18.2834 18.8267C17.8999 18.0682 17.7081 17.1754 17.7081 16.1484C17.7081 15.1385 17.8999 14.2521 18.2834 13.4893C18.6712 12.7223 19.2124 12.1257 19.907 11.6996C20.6016 11.2692 21.4177 11.054 22.3552 11.054C22.9603 11.054 23.5313 11.152 24.0682 11.348C24.6094 11.5398 25.0867 11.8381 25.5 12.2429C25.9177 12.6477 26.2458 13.1634 26.4844 13.7898C26.7231 14.4119 26.8424 15.1534 26.8424 16.0142V16.7237H18.7948V15.1641H24.6243C24.6201 14.7209 24.5242 14.3267 24.3367 13.9815C24.1492 13.6321 23.8871 13.3572 23.5505 13.157C23.2181 12.9567 22.8303 12.8565 22.3871 12.8565C21.9141 12.8565 21.4986 12.9716 21.1407 13.2017C20.7827 13.4276 20.5036 13.7259 20.3033 14.0966C20.1073 14.4631 20.0071 14.8658 20.0029 15.3047V16.6662C20.0029 17.2372 20.1073 17.7273 20.3161 18.1364C20.5249 18.5412 20.8168 18.8523 21.1918 19.0696C21.5668 19.2827 22.0057 19.3892 22.5086 19.3892C22.8452 19.3892 23.1499 19.3423 23.4226 19.2486C23.6954 19.1506 23.9319 19.0078 24.1321 18.8203C24.3324 18.6328 24.4837 18.4006 24.586 18.1236L26.7465 18.3665C26.6101 18.9375 26.3502 19.4361 25.9667 19.8622C25.5874 20.2841 25.1016 20.6122 24.5093 20.8466C23.9169 21.0767 23.2394 21.1918 22.4766 21.1918ZM35.7301 21.1982C35.1079 21.1982 34.5475 21.0874 34.049 20.8658C33.5546 20.6399 33.1626 20.3075 32.8728 19.8686C32.5873 19.4297 32.4446 18.8885 32.4446 18.245C32.4446 17.6911 32.5468 17.233 32.7514 16.8707C32.9559 16.5085 33.235 16.2188 33.5887 16.0014C33.9424 15.7841 34.3409 15.62 34.784 15.5092C35.2315 15.3942 35.6938 15.3111 36.1711 15.2599C36.7464 15.2003 37.213 15.147 37.571 15.1001C37.9289 15.049 38.1889 14.9723 38.3508 14.87C38.517 14.7635 38.6001 14.5994 38.6001 14.3778V14.3395C38.6001 13.858 38.4573 13.4851 38.1718 13.2209C37.8863 12.9567 37.4751 12.8246 36.9382 12.8246C36.3714 12.8246 35.9218 12.9482 35.5894 13.1953C35.2613 13.4425 35.0397 13.7344 34.9247 14.071L32.7642 13.7642C32.9346 13.1676 33.2159 12.669 33.6079 12.2685C33.9999 11.8636 34.4794 11.5611 35.0461 11.3608C35.6129 11.1562 36.2393 11.054 36.9254 11.054C37.3984 11.054 37.8693 11.1094 38.338 11.2202C38.8068 11.331 39.235 11.5142 39.6228 11.7699C40.0106 12.0213 40.3217 12.3643 40.5561 12.799C40.7947 13.2337 40.914 13.777 40.914 14.429V21H38.6896V19.6513H38.6129C38.4723 19.924 38.2741 20.1797 38.0184 20.4183C37.767 20.6527 37.4495 20.8423 37.066 20.9872C36.6867 21.1278 36.2414 21.1982 35.7301 21.1982ZM36.3309 19.4979C36.7954 19.4979 37.1981 19.4062 37.539 19.223C37.8799 19.0355 38.142 18.7884 38.3252 18.4815C38.5127 18.1747 38.6065 17.8402 38.6065 17.478V16.321C38.534 16.3807 38.4105 16.4361 38.2357 16.4872C38.0653 16.5384 37.8735 16.5831 37.6605 16.6214C37.4474 16.6598 37.2365 16.6939 37.0276 16.7237C36.8188 16.7536 36.6377 16.7791 36.4843 16.8004C36.1392 16.8473 35.8302 16.924 35.5575 17.0305C35.2848 17.1371 35.0696 17.2862 34.9119 17.478C34.7542 17.6655 34.6754 17.9084 34.6754 18.2067C34.6754 18.6328 34.8309 18.9545 35.142 19.1719C35.4531 19.3892 35.8494 19.4979 36.3309 19.4979ZM43.0607 21V11.1818H45.3043V12.8182H45.4066C45.5856 12.2514 45.8924 11.8146 46.3271 11.5078C46.766 11.1967 47.2667 11.0412 47.8292 11.0412C47.957 11.0412 48.0998 11.0476 48.2574 11.0604C48.4194 11.0689 48.5536 11.0838 48.6601 11.1051V13.2337C48.5621 13.1996 48.4066 13.1697 48.1935 13.1442C47.9847 13.1143 47.7823 13.0994 47.5863 13.0994C47.1644 13.0994 46.7851 13.1911 46.4485 13.3743C46.1161 13.5533 45.854 13.8026 45.6623 14.1222C45.4705 14.4418 45.3746 14.8104 45.3746 15.228V21H43.0607ZM53.9597 21.1918C52.9754 21.1918 52.1252 20.9872 51.4093 20.5781C50.6977 20.1648 50.1501 19.581 49.7665 18.8267C49.383 18.0682 49.1913 17.1754 49.1913 16.1484C49.1913 15.1385 49.383 14.2521 49.7665 13.4893C50.1543 12.7223 50.6955 12.1257 51.3901 11.6996C52.0847 11.2692 52.9008 11.054 53.8383 11.054C54.4434 11.054 55.0144 11.152 55.5513 11.348C56.0925 11.5398 56.5698 11.8381 56.9832 12.2429C57.4008 12.6477 57.7289 13.1634 57.9675 13.7898C58.2062 14.4119 58.3255 15.1534 58.3255 16.0142V16.7237H50.2779V15.1641H56.1075C56.1032 14.7209 56.0073 14.3267 55.8198 13.9815C55.6323 13.6321 55.3702 13.3572 55.0336 13.157C54.7012 12.9567 54.3134 12.8565 53.8702 12.8565C53.3972 12.8565 52.9817 12.9716 52.6238 13.2017C52.2658 13.4276 51.9867 13.7259 51.7864 14.0966C51.5904 14.4631 51.4903 14.8658 51.486 15.3047V16.6662C51.486 17.2372 51.5904 17.7273 51.7992 18.1364C52.008 18.5412 52.2999 18.8523 52.6749 19.0696C53.0499 19.2827 53.4888 19.3892 53.9917 19.3892C54.3283 19.3892 54.633 19.3423 54.9058 19.2486C55.1785 19.1506 55.415 19.0078 55.6153 18.8203C55.8156 18.6328 55.9668 18.4006 56.0691 18.1236L58.2296 18.3665C58.0933 18.9375 57.8333 19.4361 57.4498 19.8622C57.0705 20.2841 56.5847 20.6122 55.9924 20.8466C55.4001 21.0767 54.7225 21.1918 53.9597 21.1918ZM64.4902 21V7.90909H66.8041V12.8054H66.9C67.0193 12.5668 67.1876 12.3132 67.405 12.0447C67.6223 11.772 67.9163 11.5398 68.2871 11.348C68.6578 11.152 69.1308 11.054 69.7061 11.054C70.4646 11.054 71.1486 11.2479 71.7579 11.6357C72.3716 12.0192 72.8574 12.5881 73.2153 13.3423C73.5775 14.0923 73.7586 15.0128 73.7586 16.1037C73.7586 17.1818 73.5818 18.098 73.2281 18.8523C72.8744 19.6065 72.3929 20.1818 71.7835 20.5781C71.1741 20.9744 70.4838 21.1726 69.7125 21.1726C69.15 21.1726 68.6834 21.0788 68.3126 20.8913C67.9419 20.7038 67.6436 20.478 67.4177 20.2138C67.1961 19.9453 67.0236 19.6918 66.9 19.4531H66.7657V21H64.4902ZM66.7594 16.0909C66.7594 16.7259 66.8488 17.282 67.0278 17.7592C67.2111 18.2365 67.4731 18.6094 67.814 18.8778C68.1592 19.142 68.5768 19.2741 69.0669 19.2741C69.5782 19.2741 70.0065 19.1378 70.3517 18.8651C70.6969 18.5881 70.9568 18.2109 71.1315 17.7337C71.3105 17.2521 71.4 16.7045 71.4 16.0909C71.4 15.4815 71.3126 14.9403 71.1379 14.4673C70.9632 13.9943 70.7032 13.6236 70.3581 13.3551C70.0129 13.0866 69.5825 12.9524 69.0669 12.9524C68.5726 12.9524 68.1528 13.0824 67.8077 13.3423C67.4625 13.6023 67.2004 13.9666 67.0214 14.4354C66.8467 14.9041 66.7594 15.456 66.7594 16.0909ZM79.8924 21.1918C78.908 21.1918 78.0579 20.9872 77.342 20.5781C76.6303 20.1648 76.0827 19.581 75.6992 18.8267C75.3157 18.0682 75.1239 17.1754 75.1239 16.1484C75.1239 15.1385 75.3157 14.2521 75.6992 13.4893C76.087 12.7223 76.6282 12.1257 77.3228 11.6996C78.0174 11.2692 78.8334 11.054 79.7709 11.054C80.376 11.054 80.9471 11.152 81.484 11.348C82.0252 11.5398 82.5025 11.8381 82.9158 12.2429C83.3334 12.6477 83.6616 13.1634 83.9002 13.7898C84.1388 14.4119 84.2582 15.1534 84.2582 16.0142V16.7237H76.2106V15.1641H82.0401C82.0359 14.7209 81.94 14.3267 81.7525 13.9815C81.565 13.6321 81.3029 13.3572 80.9662 13.157C80.6339 12.9567 80.2461 12.8565 79.8029 12.8565C79.3299 12.8565 78.9144 12.9716 78.5564 13.2017C78.1985 13.4276 77.9194 13.7259 77.7191 14.0966C77.5231 14.4631 77.4229 14.8658 77.4187 15.3047V16.6662C77.4187 17.2372 77.5231 17.7273 77.7319 18.1364C77.9407 18.5412 78.2326 18.8523 78.6076 19.0696C78.9826 19.2827 79.4215 19.3892 79.9243 19.3892C80.261 19.3892 80.5657 19.3423 80.8384 19.2486C81.1111 19.1506 81.3476 19.0078 81.5479 18.8203C81.7482 18.6328 81.8995 18.4006 82.0018 18.1236L84.1623 18.3665C84.0259 18.9375 83.766 19.4361 83.3824 19.8622C83.0032 20.2841 82.5174 20.6122 81.9251 20.8466C81.3327 21.0767 80.6552 21.1918 79.8924 21.1918ZM86.0357 21V11.1818H88.3496V21H86.0357ZM87.1991 9.78835C86.8326 9.78835 86.5172 9.6669 86.253 9.42401C85.9888 9.17685 85.8567 8.88068 85.8567 8.53551C85.8567 8.18608 85.9888 7.88991 86.253 7.64702C86.5172 7.39986 86.8326 7.27628 87.1991 7.27628C87.5698 7.27628 87.8851 7.39986 88.1451 7.64702C88.4093 7.88991 88.5414 8.18608 88.5414 8.53551C88.5414 8.88068 88.4093 9.17685 88.1451 9.42401C87.8851 9.6669 87.5698 9.78835 87.1991 9.78835ZM92.863 15.2472V21H90.5491V11.1818H92.7607V12.8501H92.8758C93.1016 12.3004 93.4617 11.8636 93.956 11.5398C94.4546 11.2159 95.0704 11.054 95.8033 11.054C96.4809 11.054 97.0711 11.1989 97.5739 11.4886C98.081 11.7784 98.4731 12.1982 98.7501 12.7479C99.0313 13.2976 99.1698 13.9645 99.1656 14.7486V21H96.8516V15.1065C96.8516 14.4503 96.6812 13.9368 96.3403 13.5661C96.0036 13.1953 95.537 13.0099 94.9404 13.0099C94.5356 13.0099 94.1755 13.0994 93.8602 13.2784C93.5491 13.4531 93.304 13.7067 93.1251 14.0391C92.9504 14.3714 92.863 14.7741 92.863 15.2472ZM105.608 24.8864C104.777 24.8864 104.063 24.7734 103.466 24.5476C102.87 24.326 102.39 24.0277 102.028 23.6527C101.666 23.2777 101.415 22.8622 101.274 22.4062L103.358 21.9013C103.451 22.093 103.588 22.2827 103.767 22.4702C103.946 22.6619 104.187 22.8196 104.489 22.9432C104.796 23.071 105.182 23.1349 105.646 23.1349C106.302 23.1349 106.846 22.9751 107.276 22.6555C107.706 22.3402 107.922 21.8203 107.922 21.0959V19.2358H107.807C107.687 19.4744 107.513 19.7195 107.282 19.9709C107.057 20.2223 106.756 20.4332 106.381 20.6037C106.01 20.7741 105.544 20.8594 104.981 20.8594C104.227 20.8594 103.543 20.6825 102.929 20.3288C102.32 19.9709 101.834 19.4382 101.472 18.7308C101.114 18.0192 100.935 17.1286 100.935 16.0589C100.935 14.9808 101.114 14.071 101.472 13.3295C101.834 12.5838 102.322 12.0192 102.936 11.6357C103.549 11.2479 104.233 11.054 104.988 11.054C105.563 11.054 106.036 11.152 106.407 11.348C106.782 11.5398 107.08 11.772 107.302 12.0447C107.523 12.3132 107.692 12.5668 107.807 12.8054H107.934V11.1818H110.216V21.1598C110.216 21.9993 110.016 22.6939 109.616 23.2436C109.215 23.7933 108.667 24.2045 107.973 24.4773C107.278 24.75 106.49 24.8864 105.608 24.8864ZM105.627 19.044C106.117 19.044 106.535 18.9247 106.88 18.6861C107.225 18.4474 107.487 18.1044 107.666 17.657C107.845 17.2095 107.934 16.6726 107.934 16.0462C107.934 15.4283 107.845 14.8871 107.666 14.4226C107.491 13.9581 107.231 13.598 106.886 13.3423C106.545 13.0824 106.125 12.9524 105.627 12.9524C105.111 12.9524 104.681 13.0866 104.336 13.3551C103.991 13.6236 103.731 13.9922 103.556 14.4609C103.381 14.9254 103.294 15.4538 103.294 16.0462C103.294 16.647 103.381 17.1733 103.556 17.625C103.735 18.0724 103.997 18.4219 104.342 18.6733C104.692 18.9205 105.12 19.044 105.627 19.044ZM118.719 21L115.945 11.1818H118.303L120.029 18.0852H120.119L121.883 11.1818H124.216L125.98 18.0469H126.076L127.776 11.1818H130.142L127.361 21H124.951L123.11 14.3651H122.976L121.135 21H118.719ZM134.402 21.1982C133.78 21.1982 133.22 21.0874 132.721 20.8658C132.227 20.6399 131.835 20.3075 131.545 19.8686C131.26 19.4297 131.117 18.8885 131.117 18.245C131.117 17.6911 131.219 17.233 131.424 16.8707C131.628 16.5085 131.907 16.2188 132.261 16.0014C132.615 15.7841 133.013 15.62 133.456 15.5092C133.904 15.3942 134.366 15.3111 134.843 15.2599C135.419 15.2003 135.885 15.147 136.243 15.1001C136.601 15.049 136.861 14.9723 137.023 14.87C137.189 14.7635 137.272 14.5994 137.272 14.3778V14.3395C137.272 13.858 137.13 13.4851 136.844 13.2209C136.559 12.9567 136.147 12.8246 135.611 12.8246C135.044 12.8246 134.594 12.9482 134.262 13.1953C133.934 13.4425 133.712 13.7344 133.597 14.071L131.436 13.7642C131.607 13.1676 131.888 12.669 132.28 12.2685C132.672 11.8636 133.152 11.5611 133.718 11.3608C134.285 11.1562 134.912 11.054 135.598 11.054C136.071 11.054 136.542 11.1094 137.01 11.2202C137.479 11.331 137.907 11.5142 138.295 11.7699C138.683 12.0213 138.994 12.3643 139.228 12.799C139.467 13.2337 139.586 13.777 139.586 14.429V21H137.362V19.6513H137.285C137.145 19.924 136.946 20.1797 136.691 20.4183C136.439 20.6527 136.122 20.8423 135.738 20.9872C135.359 21.1278 134.914 21.1982 134.402 21.1982ZM135.003 19.4979C135.468 19.4979 135.87 19.4062 136.211 19.223C136.552 19.0355 136.814 18.7884 136.998 18.4815C137.185 18.1747 137.279 17.8402 137.279 17.478V16.321C137.206 16.3807 137.083 16.4361 136.908 16.4872C136.738 16.5384 136.546 16.5831 136.333 16.6214C136.12 16.6598 135.909 16.6939 135.7 16.7237C135.491 16.7536 135.31 16.7791 135.157 16.8004C134.811 16.8473 134.503 16.924 134.23 17.0305C133.957 17.1371 133.742 17.2862 133.584 17.478C133.427 17.6655 133.348 17.9084 133.348 18.2067C133.348 18.6328 133.503 18.9545 133.814 19.1719C134.125 19.3892 134.522 19.4979 135.003 19.4979ZM146.636 11.1818V12.9716H140.992V11.1818H146.636ZM142.385 8.82955H144.699V18.0469C144.699 18.358 144.746 18.5966 144.84 18.7628C144.938 18.9247 145.065 19.0355 145.223 19.0952C145.381 19.1548 145.556 19.1847 145.747 19.1847C145.892 19.1847 146.024 19.174 146.144 19.1527C146.267 19.1314 146.361 19.1122 146.425 19.0952L146.815 20.9041C146.691 20.9467 146.514 20.9936 146.284 21.0447C146.058 21.0959 145.781 21.1257 145.453 21.1342C144.874 21.1513 144.352 21.0639 143.887 20.8722C143.423 20.6761 143.054 20.3736 142.781 19.9645C142.513 19.5554 142.381 19.044 142.385 18.4304V8.82955ZM152.568 21.1918C151.588 21.1918 150.746 20.9766 150.043 20.5462C149.344 20.1158 148.805 19.5213 148.426 18.7628C148.051 18 147.864 17.1222 147.864 16.1293C147.864 15.1321 148.055 14.2521 148.439 13.4893C148.822 12.7223 149.364 12.1257 150.062 11.6996C150.766 11.2692 151.597 11.054 152.555 11.054C153.352 11.054 154.057 11.201 154.671 11.495C155.289 11.7848 155.781 12.196 156.148 12.7287C156.514 13.2571 156.723 13.875 156.774 14.5824H154.562C154.473 14.1094 154.26 13.7152 153.923 13.3999C153.591 13.0803 153.146 12.9205 152.587 12.9205C152.114 12.9205 151.699 13.0483 151.341 13.304C150.983 13.5554 150.704 13.9176 150.504 14.3906C150.307 14.8636 150.209 15.4304 150.209 16.0909C150.209 16.7599 150.307 17.3352 150.504 17.8168C150.7 18.294 150.974 18.6626 151.328 18.9226C151.686 19.1783 152.106 19.3061 152.587 19.3061C152.928 19.3061 153.233 19.2422 153.501 19.1143C153.774 18.9822 154.002 18.7926 154.185 18.5455C154.369 18.2983 154.494 17.9979 154.562 17.6442H156.774C156.719 18.3388 156.514 18.9545 156.16 19.4915C155.807 20.0241 155.325 20.4418 154.716 20.7443C154.107 21.0426 153.391 21.1918 152.568 21.1918ZM160.808 15.2472V21H158.494V7.90909H160.757V12.8501H160.872C161.102 12.2962 161.458 11.8594 161.939 11.5398C162.425 11.2159 163.043 11.054 163.793 11.054C164.475 11.054 165.069 11.1967 165.577 11.4822C166.084 11.7678 166.476 12.1854 166.753 12.7351C167.034 13.2848 167.175 13.956 167.175 14.7486V21H164.861V15.1065C164.861 14.446 164.69 13.9325 164.349 13.5661C164.013 13.1953 163.54 13.0099 162.93 13.0099C162.521 13.0099 162.155 13.0994 161.831 13.2784C161.511 13.4531 161.26 13.7067 161.077 14.0391C160.898 14.3714 160.808 14.7741 160.808 15.2472ZM173.7 21.1918C172.715 21.1918 171.865 20.9872 171.149 20.5781C170.438 20.1648 169.89 19.581 169.507 18.8267C169.123 18.0682 168.931 17.1754 168.931 16.1484C168.931 15.1385 169.123 14.2521 169.507 13.4893C169.894 12.7223 170.436 12.1257 171.13 11.6996C171.825 11.2692 172.641 11.054 173.578 11.054C174.183 11.054 174.754 11.152 175.291 11.348C175.833 11.5398 176.31 11.8381 176.723 12.2429C177.141 12.6477 177.469 13.1634 177.708 13.7898C177.946 14.4119 178.066 15.1534 178.066 16.0142V16.7237H170.018V15.1641H175.848C175.843 14.7209 175.747 14.3267 175.56 13.9815C175.372 13.6321 175.11 13.3572 174.774 13.157C174.441 12.9567 174.053 12.8565 173.61 12.8565C173.137 12.8565 172.722 12.9716 172.364 13.2017C172.006 13.4276 171.727 13.7259 171.527 14.0966C171.33 14.4631 171.23 14.8658 171.226 15.3047V16.6662C171.226 17.2372 171.33 17.7273 171.539 18.1364C171.748 18.5412 172.04 18.8523 172.415 19.0696C172.79 19.2827 173.229 19.3892 173.732 19.3892C174.068 19.3892 174.373 19.3423 174.646 19.2486C174.919 19.1506 175.155 19.0078 175.355 18.8203C175.556 18.6328 175.707 18.4006 175.809 18.1236L177.97 18.3665C177.833 18.9375 177.573 19.4361 177.19 19.8622C176.811 20.2841 176.325 20.6122 175.732 20.8466C175.14 21.0767 174.463 21.1918 173.7 21.1918ZM183.487 21.1726C182.715 21.1726 182.025 20.9744 181.416 20.5781C180.806 20.1818 180.325 19.6065 179.971 18.8523C179.617 18.098 179.44 17.1818 179.44 16.1037C179.44 15.0128 179.619 14.0923 179.977 13.3423C180.34 12.5881 180.828 12.0192 181.441 11.6357C182.055 11.2479 182.739 11.054 183.493 11.054C184.068 11.054 184.541 11.152 184.912 11.348C185.283 11.5398 185.577 11.772 185.794 12.0447C186.011 12.3132 186.18 12.5668 186.299 12.8054H186.395V7.90909H188.715V21H186.44V19.4531H186.299C186.18 19.6918 186.007 19.9453 185.781 20.2138C185.555 20.478 185.257 20.7038 184.886 20.8913C184.516 21.0788 184.049 21.1726 183.487 21.1726ZM184.132 19.2741C184.622 19.2741 185.04 19.142 185.385 18.8778C185.73 18.6094 185.992 18.2365 186.171 17.7592C186.35 17.282 186.44 16.7259 186.44 16.0909C186.44 15.456 186.35 14.9041 186.171 14.4354C185.997 13.9666 185.737 13.6023 185.391 13.3423C185.051 13.0824 184.631 12.9524 184.132 12.9524C183.617 12.9524 183.186 13.0866 182.841 13.3551C182.496 13.6236 182.236 13.9943 182.061 14.4673C181.886 14.9403 181.799 15.4815 181.799 16.0909C181.799 16.7045 181.886 17.2521 182.061 17.7337C182.24 18.2109 182.502 18.5881 182.847 18.8651C183.197 19.1378 183.625 19.2741 184.132 19.2741ZM192.426 21.1406C192.039 21.1406 191.706 21.0043 191.429 20.7315C191.152 20.4588 191.016 20.1264 191.02 19.7344C191.016 19.3509 191.152 19.0227 191.429 18.75C191.706 18.4773 192.039 18.3409 192.426 18.3409C192.801 18.3409 193.127 18.4773 193.404 18.75C193.686 19.0227 193.828 19.3509 193.833 19.7344C193.828 19.9943 193.76 20.2308 193.628 20.4439C193.5 20.657 193.33 20.8274 193.117 20.9553C192.908 21.0788 192.678 21.1406 192.426 21.1406ZM192.426 14.1349C192.039 14.1349 191.706 13.9986 191.429 13.7259C191.152 13.4489 191.016 13.1165 191.02 12.7287C191.016 12.3452 191.152 12.017 191.429 11.7443C191.706 11.4673 192.039 11.3288 192.426 11.3288C192.801 11.3288 193.127 11.4673 193.404 11.7443C193.686 12.017 193.828 12.3452 193.833 12.7287C193.828 12.9844 193.76 13.2187 193.628 13.4318C193.5 13.6449 193.33 13.8153 193.117 13.9432C192.908 14.071 192.678 14.1349 192.426 14.1349Z" fill="#1E222E"/>
<path d="M6.0992 61.1591C5.3189 61.1591 4.62193 61.0246 4.00829 60.7557C3.39845 60.4867 2.91549 60.1136 2.55943 59.6364C2.20716 59.1553 2.01776 58.5985 1.99125 57.9659H3.77534C3.79807 58.3106 3.9136 58.6098 4.12193 58.8636C4.33405 59.1136 4.61057 59.3068 4.95148 59.4432C5.29239 59.5795 5.67117 59.6477 6.08784 59.6477C6.54617 59.6477 6.95148 59.5682 7.30375 59.4091C7.65981 59.25 7.93822 59.0284 8.13898 58.7443C8.33973 58.4564 8.44011 58.125 8.44011 57.75C8.44011 57.3598 8.33973 57.017 8.13898 56.7216C7.94201 56.4223 7.65223 56.1875 7.26966 56.017C6.89087 55.8466 6.43254 55.7614 5.89466 55.7614H4.9117V54.3295H5.89466C6.32648 54.3295 6.70526 54.2519 7.03102 54.0966C7.36057 53.9413 7.61814 53.7254 7.80375 53.4489C7.98936 53.1686 8.08216 52.8409 8.08216 52.4659C8.08216 52.1061 8.00072 51.7936 7.83784 51.5284C7.67875 51.2595 7.45148 51.0492 7.15602 50.8977C6.86436 50.7462 6.51966 50.6705 6.12193 50.6705C5.74314 50.6705 5.38898 50.7405 5.05943 50.8807C4.73367 51.017 4.46852 51.214 4.26398 51.4716C4.05943 51.7254 3.94958 52.0303 3.93443 52.3864H2.23557C2.25451 51.7576 2.44011 51.2045 2.79239 50.7273C3.14845 50.25 3.61814 49.8769 4.20148 49.608C4.78481 49.339 5.43254 49.2045 6.14466 49.2045C6.89087 49.2045 7.53481 49.3504 8.07648 49.642C8.62193 49.9299 9.04239 50.3144 9.33784 50.7955C9.63708 51.2765 9.78481 51.803 9.78102 52.375C9.78481 53.0265 9.60299 53.5795 9.23557 54.0341C8.87193 54.4886 8.38708 54.7936 7.78102 54.9489V55.0398C8.55375 55.1572 9.15223 55.464 9.57648 55.9602C10.0045 56.4564 10.2166 57.072 10.2128 57.8068C10.2166 58.447 10.0386 59.0208 9.67875 59.5284C9.32269 60.036 8.83595 60.4356 8.21852 60.7273C7.6011 61.0152 6.89466 61.1591 6.0992 61.1591ZM11.6362 58.7273V57.3068L16.6647 49.3636H17.784V51.4545H17.0737L13.4772 57.1477V57.2386H20.3692V58.7273H11.6362ZM17.1533 61V58.2955L17.1647 57.6477V49.3636H18.8294V61H17.1533ZM27.9432 58.8182V58.2045C27.9432 57.7652 28.0341 57.3636 28.2159 57C28.4015 56.6326 28.6705 56.339 29.0227 56.1193C29.3788 55.8958 29.8087 55.7841 30.3125 55.7841C30.8277 55.7841 31.2595 55.8939 31.608 56.1136C31.9564 56.3333 32.2197 56.6269 32.3977 56.9943C32.5795 57.3617 32.6705 57.7652 32.6705 58.2045V58.8182C32.6705 59.2576 32.5795 59.661 32.3977 60.0284C32.2159 60.392 31.9489 60.6856 31.5966 60.9091C31.2481 61.1288 30.8201 61.2386 30.3125 61.2386C29.8011 61.2386 29.3693 61.1288 29.017 60.9091C28.6648 60.6856 28.3977 60.392 28.2159 60.0284C28.0341 59.661 27.9432 59.2576 27.9432 58.8182ZM29.267 58.2045V58.8182C29.267 59.1439 29.3447 59.4394 29.5 59.7045C29.6553 59.9697 29.9261 60.1023 30.3125 60.1023C30.6951 60.1023 30.9621 59.9697 31.1136 59.7045C31.2652 59.4394 31.3409 59.1439 31.3409 58.8182V58.2045C31.3409 57.8788 31.267 57.5833 31.1193 57.3182C30.9754 57.053 30.7064 56.9205 30.3125 56.9205C29.9337 56.9205 29.6648 57.053 29.5057 57.3182C29.3466 57.5833 29.267 57.8788 29.267 58.2045ZM22.0909 52.1591V51.5455C22.0909 51.1061 22.1818 50.7027 22.3636 50.3352C22.5492 49.9678 22.8182 49.6742 23.1705 49.4545C23.5265 49.2348 23.9564 49.125 24.4602 49.125C24.9754 49.125 25.4072 49.2348 25.7557 49.4545C26.1042 49.6742 26.3674 49.9678 26.5455 50.3352C26.7235 50.7027 26.8125 51.1061 26.8125 51.5455V52.1591C26.8125 52.5985 26.7216 53.0019 26.5398 53.3693C26.3617 53.733 26.0966 54.0265 25.7443 54.25C25.3958 54.4697 24.9678 54.5795 24.4602 54.5795C23.9451 54.5795 23.5114 54.4697 23.1591 54.25C22.8106 54.0265 22.5455 53.733 22.3636 53.3693C22.1818 53.0019 22.0909 52.5985 22.0909 52.1591ZM23.4205 51.5455V52.1591C23.4205 52.4848 23.4962 52.7803 23.6477 53.0455C23.803 53.3106 24.0739 53.4432 24.4602 53.4432C24.839 53.4432 25.1042 53.3106 25.2557 53.0455C25.411 52.7803 25.4886 52.4848 25.4886 52.1591V51.5455C25.4886 51.2197 25.4148 50.9242 25.267 50.6591C25.1193 50.3939 24.8504 50.2614 24.4602 50.2614C24.0814 50.2614 23.8125 50.3939 23.6534 50.6591C23.4981 50.9242 23.4205 51.2197 23.4205 51.5455ZM22.6307 61L30.6307 49.3636H31.9886L23.9886 61H22.6307Z" fill="#1E222E"/>
<path d="M47.8011 49.3636H49.5511V57.6136C49.5511 58.3598 49.4034 58.9981 49.108 59.5284C48.8163 60.0587 48.4053 60.464 47.875 60.7443C47.3447 61.0208 46.7235 61.1591 46.0114 61.1591C45.3561 61.1591 44.767 61.0398 44.2443 60.8011C43.7254 60.5625 43.3144 60.2159 43.0114 59.7614C42.7121 59.303 42.5625 58.7462 42.5625 58.0909H44.3068C44.3068 58.4129 44.3807 58.6913 44.5284 58.9261C44.6799 59.161 44.8864 59.3447 45.1477 59.4773C45.4129 59.6061 45.7159 59.6705 46.0568 59.6705C46.428 59.6705 46.7424 59.5928 47 59.4375C47.2614 59.2784 47.4602 59.0455 47.5966 58.7386C47.733 58.4318 47.8011 58.0568 47.8011 57.6136V49.3636ZM58.1331 52.4205C58.0725 51.8826 57.8225 51.4659 57.3831 51.1705C56.9437 50.8712 56.3907 50.7216 55.724 50.7216C55.2468 50.7216 54.8339 50.7973 54.4854 50.9489C54.1369 51.0966 53.8661 51.3011 53.6729 51.5625C53.4835 51.8201 53.3888 52.1136 53.3888 52.4432C53.3888 52.7197 53.4532 52.9583 53.582 53.1591C53.7146 53.3598 53.8869 53.5284 54.099 53.6648C54.3149 53.7973 54.546 53.9091 54.7922 54C55.0384 54.0871 55.2752 54.1591 55.5024 54.2159L56.6388 54.5114C57.01 54.6023 57.3907 54.7254 57.7809 54.8807C58.171 55.036 58.5327 55.2405 58.8661 55.4943C59.1994 55.7481 59.4684 56.0625 59.6729 56.4375C59.8812 56.8125 59.9854 57.2614 59.9854 57.7841C59.9854 58.4432 59.8149 59.0284 59.474 59.5398C59.1369 60.0511 58.6464 60.4545 58.0024 60.75C57.3623 61.0455 56.5877 61.1932 55.6786 61.1932C54.8074 61.1932 54.0536 61.0549 53.4172 60.7784C52.7809 60.5019 52.2827 60.1098 51.9229 59.6023C51.563 59.0909 51.3642 58.4848 51.3263 57.7841H53.0877C53.1218 58.2045 53.2581 58.5549 53.4968 58.8352C53.7392 59.1117 54.0479 59.3182 54.4229 59.4545C54.8017 59.5871 55.2165 59.6534 55.6672 59.6534C56.1634 59.6534 56.6047 59.5758 56.9911 59.4205C57.3812 59.2614 57.688 59.0417 57.9115 58.7614C58.135 58.4773 58.2468 58.1458 58.2468 57.767C58.2468 57.4223 58.1483 57.1402 57.9513 56.9205C57.7581 56.7008 57.4949 56.5189 57.1615 56.375C56.832 56.2311 56.4589 56.1042 56.0422 55.9943L54.6672 55.6193C53.7354 55.3655 52.9968 54.9924 52.4513 54.5C51.9096 54.0076 51.6388 53.3561 51.6388 52.5455C51.6388 51.875 51.8206 51.2898 52.1843 50.7898C52.5479 50.2898 53.0403 49.9015 53.6615 49.625C54.2827 49.3447 54.9835 49.2045 55.7638 49.2045C56.5517 49.2045 57.2468 49.3428 57.849 49.6193C58.4551 49.8958 58.9324 50.2765 59.2809 50.7614C59.6293 51.2424 59.8112 51.7955 59.8263 52.4205H58.1331ZM69.9732 48.8182L66.2232 62.75H64.7062L68.4562 48.8182H69.9732ZM74.5733 50.875V49.3636H83.579V50.875H79.9483V61H78.1983V50.875H74.5733ZM85.1865 64.2727C84.9327 64.2727 84.7017 64.2519 84.4934 64.2102C84.285 64.1723 84.1297 64.1307 84.0274 64.0852L84.4365 62.6932C84.7471 62.7765 85.0237 62.8125 85.2661 62.8011C85.5085 62.7898 85.7225 62.6989 85.9081 62.5284C86.0975 62.358 86.2642 62.0795 86.4081 61.6932L86.6184 61.1136L83.4252 52.2727H85.2434L87.4536 59.0455H87.5445L89.7547 52.2727H91.5786L87.982 62.1648C87.8153 62.6193 87.6032 63.0038 87.3456 63.3182C87.0881 63.6364 86.7812 63.875 86.4252 64.0341C86.0691 64.1932 85.6562 64.2727 85.1865 64.2727ZM92.8552 64.2727V52.2727H94.5143V53.6875H94.6563C94.7548 53.5057 94.8968 53.2955 95.0824 53.0568C95.268 52.8182 95.5256 52.6098 95.8552 52.4318C96.1847 52.25 96.6203 52.1591 97.162 52.1591C97.8665 52.1591 98.4953 52.3371 99.0484 52.6932C99.6014 53.0492 100.035 53.5625 100.349 54.233C100.668 54.9034 100.827 55.7102 100.827 56.6534C100.827 57.5966 100.67 58.4053 100.355 59.0795C100.041 59.75 99.609 60.267 99.0597 60.6307C98.5105 60.9905 97.8836 61.1705 97.179 61.1705C96.6487 61.1705 96.215 61.0814 95.8779 60.9034C95.5446 60.7254 95.2832 60.517 95.0938 60.2784C94.9044 60.0398 94.7586 59.8277 94.6563 59.642H94.554V64.2727H92.8552ZM94.5199 56.6364C94.5199 57.25 94.609 57.7879 94.787 58.25C94.965 58.7121 95.2226 59.0739 95.5597 59.3352C95.8968 59.5928 96.3097 59.7216 96.7984 59.7216C97.3059 59.7216 97.7302 59.5871 98.0711 59.3182C98.412 59.0455 98.6696 58.6761 98.8438 58.2102C99.0218 57.7443 99.1109 57.2197 99.1109 56.6364C99.1109 56.0606 99.0237 55.5436 98.8495 55.0852C98.679 54.6269 98.4215 54.2652 98.0768 54C97.7359 53.7348 97.3097 53.6023 96.7984 53.6023C96.3059 53.6023 95.8893 53.7292 95.5484 53.983C95.2112 54.2367 94.9555 54.5909 94.7813 55.0455C94.6071 55.5 94.5199 56.0303 94.5199 56.6364ZM106.172 61.1761C105.312 61.1761 104.571 60.9924 103.95 60.625C103.333 60.2538 102.855 59.733 102.518 59.0625C102.185 58.3883 102.018 57.5985 102.018 56.6932C102.018 55.7992 102.185 55.0114 102.518 54.3295C102.855 53.6477 103.325 53.1155 103.927 52.733C104.533 52.3504 105.242 52.1591 106.052 52.1591C106.545 52.1591 107.022 52.2405 107.484 52.4034C107.946 52.5663 108.361 52.822 108.728 53.1705C109.096 53.5189 109.386 53.9716 109.598 54.5284C109.81 55.0814 109.916 55.7538 109.916 56.5455V57.1477H102.978V55.875H108.251C108.251 55.428 108.16 55.0322 107.978 54.6875C107.797 54.339 107.541 54.0644 107.211 53.8636C106.886 53.6629 106.503 53.5625 106.064 53.5625C105.586 53.5625 105.17 53.6799 104.814 53.9148C104.461 54.1458 104.189 54.4489 103.995 54.8239C103.806 55.1951 103.711 55.5985 103.711 56.0341V57.0284C103.711 57.6117 103.814 58.108 104.018 58.517C104.226 58.9261 104.516 59.2386 104.887 59.4545C105.259 59.6667 105.692 59.7727 106.189 59.7727C106.511 59.7727 106.804 59.7273 107.069 59.6364C107.334 59.5417 107.564 59.4015 107.757 59.2159C107.95 59.0303 108.098 58.8011 108.2 58.5284L109.808 58.8182C109.679 59.2917 109.448 59.7064 109.115 60.0625C108.785 60.4148 108.37 60.6894 107.87 60.8864C107.374 61.0795 106.808 61.1761 106.172 61.1761ZM118.021 54.4034L116.481 54.6761C116.416 54.4792 116.314 54.2917 116.174 54.1136C116.038 53.9356 115.852 53.7898 115.617 53.6761C115.382 53.5625 115.089 53.5057 114.736 53.5057C114.255 53.5057 113.854 53.6136 113.532 53.8295C113.21 54.0417 113.049 54.3163 113.049 54.6534C113.049 54.9451 113.157 55.1799 113.373 55.358C113.589 55.536 113.937 55.6818 114.418 55.7955L115.805 56.1136C116.608 56.2992 117.206 56.5852 117.6 56.9716C117.994 57.358 118.191 57.8598 118.191 58.4773C118.191 59 118.04 59.4659 117.736 59.875C117.437 60.2803 117.019 60.5985 116.481 60.8295C115.947 61.0606 115.327 61.1761 114.623 61.1761C113.646 61.1761 112.848 60.9678 112.231 60.5511C111.613 60.1307 111.235 59.5341 111.094 58.7614L112.736 58.5114C112.839 58.9394 113.049 59.2633 113.367 59.483C113.685 59.6989 114.1 59.8068 114.611 59.8068C115.168 59.8068 115.613 59.6913 115.947 59.4602C116.28 59.2254 116.447 58.9394 116.447 58.6023C116.447 58.3295 116.344 58.1004 116.14 57.9148C115.939 57.7292 115.63 57.589 115.214 57.4943L113.736 57.1705C112.922 56.9848 112.32 56.6894 111.93 56.2841C111.543 55.8788 111.35 55.3655 111.35 54.7443C111.35 54.2292 111.494 53.7784 111.782 53.392C112.07 53.0057 112.468 52.7045 112.975 52.4886C113.483 52.2689 114.064 52.1591 114.719 52.1591C115.663 52.1591 116.405 52.3636 116.947 52.7727C117.488 53.178 117.846 53.7216 118.021 54.4034ZM123.415 61.1761C122.57 61.1761 121.843 60.9848 121.233 60.6023C120.627 60.2159 120.161 59.6837 119.836 59.0057C119.51 58.3277 119.347 57.5511 119.347 56.6761C119.347 55.7898 119.514 55.0076 119.847 54.3295C120.18 53.6477 120.65 53.1155 121.256 52.733C121.862 52.3504 122.576 52.1591 123.398 52.1591C124.061 52.1591 124.652 52.2822 125.171 52.5284C125.69 52.7708 126.108 53.1117 126.426 53.5511C126.748 53.9905 126.94 54.5038 127 55.0909H125.347C125.256 54.6818 125.048 54.3295 124.722 54.0341C124.4 53.7386 123.968 53.5909 123.426 53.5909C122.953 53.5909 122.538 53.7159 122.182 53.9659C121.83 54.2121 121.555 54.5644 121.358 55.0227C121.161 55.4773 121.063 56.0152 121.063 56.6364C121.063 57.2727 121.159 57.822 121.353 58.2841C121.546 58.7462 121.818 59.1042 122.171 59.358C122.527 59.6117 122.945 59.7386 123.426 59.7386C123.748 59.7386 124.04 59.6799 124.301 59.5625C124.567 59.4413 124.788 59.2689 124.966 59.0455C125.148 58.822 125.275 58.553 125.347 58.2386H127C126.94 58.803 126.756 59.3068 126.449 59.75C126.142 60.1932 125.731 60.5417 125.216 60.7955C124.705 61.0492 124.104 61.1761 123.415 61.1761ZM128.497 61V52.2727H130.139V53.6591H130.23C130.389 53.1894 130.669 52.8201 131.071 52.5511C131.476 52.2784 131.935 52.142 132.446 52.142C132.552 52.142 132.677 52.1458 132.821 52.1534C132.969 52.161 133.084 52.1705 133.168 52.1818V53.8068C133.099 53.7879 132.978 53.767 132.804 53.7443C132.63 53.7178 132.455 53.7045 132.281 53.7045C131.88 53.7045 131.522 53.7898 131.207 53.9602C130.897 54.1269 130.65 54.3598 130.469 54.6591C130.287 54.9545 130.196 55.2917 130.196 55.6705V61H128.497ZM134.318 61V52.2727H136.017V61H134.318ZM135.176 50.9261C134.88 50.9261 134.626 50.8277 134.414 50.6307C134.206 50.4299 134.102 50.1913 134.102 49.9148C134.102 49.6345 134.206 49.3958 134.414 49.1989C134.626 48.9981 134.88 48.8977 135.176 48.8977C135.471 48.8977 135.723 48.9981 135.931 49.1989C136.143 49.3958 136.249 49.6345 136.249 49.9148C136.249 50.1913 136.143 50.4299 135.931 50.6307C135.723 50.8277 135.471 50.9261 135.176 50.9261ZM137.982 64.2727V52.2727H139.641V53.6875H139.783C139.882 53.5057 140.024 53.2955 140.209 53.0568C140.395 52.8182 140.652 52.6098 140.982 52.4318C141.312 52.25 141.747 52.1591 142.289 52.1591C142.993 52.1591 143.622 52.3371 144.175 52.6932C144.728 53.0492 145.162 53.5625 145.476 54.233C145.795 54.9034 145.954 55.7102 145.954 56.6534C145.954 57.5966 145.796 58.4053 145.482 59.0795C145.168 59.75 144.736 60.267 144.187 60.6307C143.637 60.9905 143.01 61.1705 142.306 61.1705C141.776 61.1705 141.342 61.0814 141.005 60.9034C140.671 60.7254 140.41 60.517 140.221 60.2784C140.031 60.0398 139.885 59.8277 139.783 59.642H139.681V64.2727H137.982ZM139.647 56.6364C139.647 57.25 139.736 57.7879 139.914 58.25C140.092 58.7121 140.349 59.0739 140.687 59.3352C141.024 59.5928 141.437 59.7216 141.925 59.7216C142.433 59.7216 142.857 59.5871 143.198 59.3182C143.539 59.0455 143.796 58.6761 143.971 58.2102C144.149 57.7443 144.238 57.2197 144.238 56.6364C144.238 56.0606 144.151 55.5436 143.976 55.0852C143.806 54.6269 143.548 54.2652 143.204 54C142.863 53.7348 142.437 53.6023 141.925 53.6023C141.433 53.6023 141.016 53.7292 140.675 53.983C140.338 54.2367 140.082 54.5909 139.908 55.0455C139.734 55.5 139.647 56.0303 139.647 56.6364ZM151.611 52.2727V53.6364H146.844V52.2727H151.611ZM148.122 50.1818H149.821V58.4375C149.821 58.767 149.87 59.0152 149.969 59.1818C150.067 59.3447 150.194 59.4564 150.35 59.517C150.509 59.5739 150.681 59.6023 150.867 59.6023C151.003 59.6023 151.122 59.5928 151.225 59.5739C151.327 59.5549 151.406 59.5398 151.463 59.5284L151.77 60.9318C151.672 60.9697 151.531 61.0076 151.35 61.0455C151.168 61.0871 150.94 61.1098 150.668 61.1136C150.221 61.1212 149.804 61.0417 149.418 60.875C149.031 60.7083 148.719 60.4508 148.48 60.1023C148.242 59.7538 148.122 59.3163 148.122 58.7898V50.1818ZM161.516 48.8182L157.766 62.75H156.249L159.999 48.8182H161.516ZM52.6705 71.3636V83H51.0568L45.142 74.4659H45.0341V83H43.2784V71.3636H44.9034L50.8239 79.9091H50.9318V71.3636H52.6705ZM58.4513 83.1761C57.6331 83.1761 56.9191 82.9886 56.3093 82.6136C55.6994 82.2386 55.2259 81.714 54.8888 81.0398C54.5517 80.3655 54.3831 79.5777 54.3831 78.6761C54.3831 77.7708 54.5517 76.9792 54.8888 76.3011C55.2259 75.6231 55.6994 75.0966 56.3093 74.7216C56.9191 74.3466 57.6331 74.1591 58.4513 74.1591C59.2695 74.1591 59.9835 74.3466 60.5934 74.7216C61.2032 75.0966 61.6767 75.6231 62.0138 76.3011C62.3509 76.9792 62.5195 77.7708 62.5195 78.6761C62.5195 79.5777 62.3509 80.3655 62.0138 81.0398C61.6767 81.714 61.2032 82.2386 60.5934 82.6136C59.9835 82.9886 59.2695 83.1761 58.4513 83.1761ZM58.457 81.75C58.9873 81.75 59.4267 81.6098 59.7752 81.3295C60.1237 81.0492 60.3812 80.6761 60.5479 80.2102C60.7184 79.7443 60.8036 79.2311 60.8036 78.6705C60.8036 78.1136 60.7184 77.6023 60.5479 77.1364C60.3812 76.6667 60.1237 76.2898 59.7752 76.0057C59.4267 75.7216 58.9873 75.5795 58.457 75.5795C57.9229 75.5795 57.4797 75.7216 57.1274 76.0057C56.779 76.2898 56.5195 76.6667 56.349 77.1364C56.1824 77.6023 56.099 78.1136 56.099 78.6705C56.099 79.2311 56.1824 79.7443 56.349 80.2102C56.5195 80.6761 56.779 81.0492 57.1274 81.3295C57.4797 81.6098 57.9229 81.75 58.457 81.75ZM67.3628 83.1705C66.6583 83.1705 66.0295 82.9905 65.4765 82.6307C64.9272 82.267 64.4954 81.75 64.181 81.0795C63.8704 80.4053 63.7151 79.5966 63.7151 78.6534C63.7151 77.7102 63.8723 76.9034 64.1867 76.233C64.5049 75.5625 64.9405 75.0492 65.4935 74.6932C66.0466 74.3371 66.6734 74.1591 67.3742 74.1591C67.9159 74.1591 68.3515 74.25 68.681 74.4318C69.0144 74.6098 69.2719 74.8182 69.4538 75.0568C69.6394 75.2955 69.7833 75.5057 69.8856 75.6875H69.9878V71.3636H71.6867V83H70.0276V81.642H69.8856C69.7833 81.8277 69.6356 82.0398 69.4424 82.2784C69.253 82.517 68.9916 82.7254 68.6583 82.9034C68.325 83.0814 67.8931 83.1705 67.3628 83.1705ZM67.7378 81.7216C68.2265 81.7216 68.6394 81.5928 68.9765 81.3352C69.3174 81.0739 69.575 80.7121 69.7492 80.25C69.9272 79.7879 70.0163 79.25 70.0163 78.6364C70.0163 78.0303 69.9291 77.5 69.7549 77.0455C69.5806 76.5909 69.325 76.2367 68.9878 75.983C68.6507 75.7292 68.2341 75.6023 67.7378 75.6023C67.2265 75.6023 66.8003 75.7348 66.4594 76C66.1185 76.2652 65.8609 76.6269 65.6867 77.0852C65.5163 77.5436 65.431 78.0606 65.431 78.6364C65.431 79.2197 65.5181 79.7443 65.6924 80.2102C65.8666 80.6761 66.1242 81.0455 66.4651 81.3182C66.8098 81.5871 67.2341 81.7216 67.7378 81.7216ZM77.5528 83.1761C76.6929 83.1761 75.9524 82.9924 75.3312 82.625C74.7138 82.2538 74.2365 81.733 73.8994 81.0625C73.566 80.3883 73.3994 79.5985 73.3994 78.6932C73.3994 77.7992 73.566 77.0114 73.8994 76.3295C74.2365 75.6477 74.7062 75.1155 75.3085 74.733C75.9145 74.3504 76.6229 74.1591 77.4335 74.1591C77.9259 74.1591 78.4032 74.2405 78.8653 74.4034C79.3274 74.5663 79.7422 74.822 80.1096 75.1705C80.477 75.5189 80.7668 75.9716 80.9789 76.5284C81.191 77.0814 81.2971 77.7538 81.2971 78.5455V79.1477H74.3596V77.875H79.6323C79.6323 77.428 79.5414 77.0322 79.3596 76.6875C79.1778 76.339 78.9221 76.0644 78.5926 75.8636C78.2668 75.6629 77.8842 75.5625 77.4448 75.5625C76.9676 75.5625 76.5509 75.6799 76.1948 75.9148C75.8426 76.1458 75.5698 76.4489 75.3766 76.8239C75.1873 77.1951 75.0926 77.5985 75.0926 78.0341V79.0284C75.0926 79.6117 75.1948 80.108 75.3994 80.517C75.6077 80.9261 75.8975 81.2386 76.2687 81.4545C76.6399 81.6667 77.0736 81.7727 77.5698 81.7727C77.8918 81.7727 78.1854 81.7273 78.4505 81.6364C78.7157 81.5417 78.9448 81.4015 79.138 81.2159C79.3312 81.0303 79.4789 80.8011 79.5812 80.5284L81.1891 80.8182C81.0604 81.2917 80.8293 81.7064 80.496 82.0625C80.1664 82.4148 79.7516 82.6894 79.2516 82.8864C78.7554 83.0795 78.1891 83.1761 77.5528 83.1761ZM83.9814 83.108C83.6708 83.108 83.4037 82.9981 83.1802 82.7784C82.9567 82.5549 82.845 82.286 82.845 81.9716C82.845 81.661 82.9567 81.3958 83.1802 81.1761C83.4037 80.9527 83.6708 80.8409 83.9814 80.8409C84.292 80.8409 84.559 80.9527 84.7825 81.1761C85.006 81.3958 85.1177 81.661 85.1177 81.9716C85.1177 82.1799 85.0647 82.3712 84.9586 82.5455C84.8564 82.7159 84.72 82.8523 84.5495 82.9545C84.3791 83.0568 84.1897 83.108 83.9814 83.108ZM87.0733 74.2727H88.7722V83.5682C88.7722 84.1515 88.6661 84.6439 88.454 85.0455C88.2456 85.447 87.935 85.7519 87.5222 85.9602C87.1131 86.1686 86.6074 86.2727 86.0051 86.2727C85.9445 86.2727 85.8877 86.2727 85.8347 86.2727C85.7778 86.2727 85.7191 86.2708 85.6585 86.267V84.8068C85.7116 84.8068 85.7589 84.8068 85.8006 84.8068C85.8384 84.8068 85.882 84.8068 85.9313 84.8068C86.3328 84.8068 86.6225 84.6989 86.8006 84.483C86.9824 84.2708 87.0733 83.9621 87.0733 83.5568V74.2727ZM87.9142 72.9261C87.6188 72.9261 87.365 72.8277 87.1528 72.6307C86.9445 72.4299 86.8403 72.1913 86.8403 71.9148C86.8403 71.6345 86.9445 71.3958 87.1528 71.1989C87.365 70.9981 87.6188 70.8977 87.9142 70.8977C88.2097 70.8977 88.4616 70.9981 88.6699 71.1989C88.882 71.3958 88.9881 71.6345 88.9881 71.9148C88.9881 72.1913 88.882 72.4299 88.6699 72.6307C88.4616 72.8277 88.2097 72.9261 87.9142 72.9261ZM97.2774 76.4034L95.7377 76.6761C95.6733 76.4792 95.571 76.2917 95.4309 76.1136C95.2945 75.9356 95.1089 75.7898 94.874 75.6761C94.6392 75.5625 94.3456 75.5057 93.9934 75.5057C93.5123 75.5057 93.1108 75.6136 92.7888 75.8295C92.4668 76.0417 92.3059 76.3163 92.3059 76.6534C92.3059 76.9451 92.4138 77.1799 92.6297 77.358C92.8456 77.536 93.1941 77.6818 93.6752 77.7955L95.0615 78.1136C95.8646 78.2992 96.4631 78.5852 96.857 78.9716C97.2509 79.358 97.4479 79.8598 97.4479 80.4773C97.4479 81 97.2964 81.4659 96.9934 81.875C96.6941 82.2803 96.2756 82.5985 95.7377 82.8295C95.2036 83.0606 94.5843 83.1761 93.8797 83.1761C92.9024 83.1761 92.1051 82.9678 91.4877 82.5511C90.8702 82.1307 90.4915 81.5341 90.3513 80.7614L91.9934 80.5114C92.0956 80.9394 92.3059 81.2633 92.624 81.483C92.9422 81.6989 93.357 81.8068 93.8684 81.8068C94.4252 81.8068 94.8702 81.6913 95.2036 81.4602C95.5369 81.2254 95.7036 80.9394 95.7036 80.6023C95.7036 80.3295 95.6013 80.1004 95.3968 79.9148C95.196 79.7292 94.8873 79.589 94.4706 79.4943L92.9934 79.1705C92.179 78.9848 91.5767 78.6894 91.1865 78.2841C90.8002 77.8788 90.607 77.3655 90.607 76.7443C90.607 76.2292 90.7509 75.7784 91.0388 75.392C91.3267 75.0057 91.7244 74.7045 92.232 74.4886C92.7396 74.2689 93.321 74.1591 93.9763 74.1591C94.9195 74.1591 95.6619 74.3636 96.2036 74.7727C96.7452 75.178 97.1032 75.7216 97.2774 76.4034Z" fill="#1E222E"/>
<rect x="42" y="96" width="111" height="6" rx="3" fill="#397CE8"/>
<path d="M1.94437 132.727V131.307L6.97278 123.364H8.0921V125.455H7.38187L3.78528 131.148V131.239H10.6773V132.727H1.94437ZM7.46142 135V132.295L7.47278 131.648V123.364H9.13756V135H7.46142ZM16.2399 135.159C15.721 135.152 15.2096 135.057 14.7059 134.875C14.2059 134.693 13.7513 134.39 13.3422 133.966C12.9331 133.542 12.6055 132.972 12.3593 132.256C12.1168 131.54 11.9956 130.646 11.9956 129.574C11.9956 128.559 12.096 127.657 12.2968 126.869C12.5013 126.081 12.7949 125.417 13.1774 124.875C13.56 124.33 14.0221 123.915 14.5638 123.631C15.1055 123.347 15.7134 123.205 16.3877 123.205C17.0809 123.205 17.6964 123.341 18.2343 123.614C18.7721 123.886 19.2077 124.263 19.5411 124.744C19.8782 125.225 20.0922 125.773 20.1831 126.386H18.4502C18.3327 125.902 18.0998 125.506 17.7513 125.199C17.4028 124.892 16.9483 124.739 16.3877 124.739C15.5354 124.739 14.8706 125.11 14.3934 125.852C13.9199 126.595 13.6812 127.627 13.6774 128.949H13.7627C13.9634 128.619 14.2096 128.339 14.5013 128.108C14.7968 127.873 15.1263 127.693 15.4899 127.568C15.8574 127.439 16.2437 127.375 16.649 127.375C17.3233 127.375 17.9331 127.54 18.4786 127.869C19.0278 128.195 19.4653 128.646 19.7911 129.222C20.1168 129.797 20.2797 130.456 20.2797 131.199C20.2797 131.941 20.1112 132.614 19.774 133.216C19.4407 133.818 18.971 134.295 18.3649 134.648C17.7589 134.996 17.0505 135.167 16.2399 135.159ZM16.2343 133.682C16.6812 133.682 17.0809 133.572 17.4331 133.352C17.7854 133.133 18.0638 132.837 18.2684 132.466C18.4729 132.095 18.5752 131.68 18.5752 131.222C18.5752 130.775 18.4748 130.367 18.274 130C18.0771 129.633 17.8043 129.341 17.4559 129.125C17.1112 128.909 16.7172 128.801 16.274 128.801C15.9369 128.801 15.6244 128.866 15.3365 128.994C15.0524 129.123 14.8024 129.301 14.5865 129.528C14.3706 129.756 14.2002 130.017 14.0752 130.312C13.954 130.604 13.8934 130.913 13.8934 131.239C13.8934 131.674 13.9937 132.078 14.1945 132.449C14.399 132.82 14.6774 133.119 15.0297 133.347C15.3858 133.57 15.7873 133.682 16.2343 133.682ZM27.9432 132.818V132.205C27.9432 131.765 28.0341 131.364 28.2159 131C28.4015 130.633 28.6705 130.339 29.0227 130.119C29.3788 129.896 29.8087 129.784 30.3125 129.784C30.8277 129.784 31.2595 129.894 31.608 130.114C31.9564 130.333 32.2197 130.627 32.3977 130.994C32.5795 131.362 32.6705 131.765 32.6705 132.205V132.818C32.6705 133.258 32.5795 133.661 32.3977 134.028C32.2159 134.392 31.9489 134.686 31.5966 134.909C31.2481 135.129 30.8201 135.239 30.3125 135.239C29.8011 135.239 29.3693 135.129 29.017 134.909C28.6648 134.686 28.3977 134.392 28.2159 134.028C28.0341 133.661 27.9432 133.258 27.9432 132.818ZM29.267 132.205V132.818C29.267 133.144 29.3447 133.439 29.5 133.705C29.6553 133.97 29.9261 134.102 30.3125 134.102C30.6951 134.102 30.9621 133.97 31.1136 133.705C31.2652 133.439 31.3409 133.144 31.3409 132.818V132.205C31.3409 131.879 31.267 131.583 31.1193 131.318C30.9754 131.053 30.7064 130.92 30.3125 130.92C29.9337 130.92 29.6648 131.053 29.5057 131.318C29.3466 131.583 29.267 131.879 29.267 132.205ZM22.0909 126.159V125.545C22.0909 125.106 22.1818 124.703 22.3636 124.335C22.5492 123.968 22.8182 123.674 23.1705 123.455C23.5265 123.235 23.9564 123.125 24.4602 123.125C24.9754 123.125 25.4072 123.235 25.7557 123.455C26.1042 123.674 26.3674 123.968 26.5455 124.335C26.7235 124.703 26.8125 125.106 26.8125 125.545V126.159C26.8125 126.598 26.7216 127.002 26.5398 127.369C26.3617 127.733 26.0966 128.027 25.7443 128.25C25.3958 128.47 24.9678 128.58 24.4602 128.58C23.9451 128.58 23.5114 128.47 23.1591 128.25C22.8106 128.027 22.5455 127.733 22.3636 127.369C22.1818 127.002 22.0909 126.598 22.0909 126.159ZM23.4205 125.545V126.159C23.4205 126.485 23.4962 126.78 23.6477 127.045C23.803 127.311 24.0739 127.443 24.4602 127.443C24.839 127.443 25.1042 127.311 25.2557 127.045C25.411 126.78 25.4886 126.485 25.4886 126.159V125.545C25.4886 125.22 25.4148 124.924 25.267 124.659C25.1193 124.394 24.8504 124.261 24.4602 124.261C24.0814 124.261 23.8125 124.394 23.6534 124.659C23.4981 124.924 23.4205 125.22 23.4205 125.545ZM22.6307 135L30.6307 123.364H31.9886L23.9886 135H22.6307Z" fill="#1E222E"/>
<path d="M43.2784 135V123.364H47.4261C48.3314 123.364 49.0814 123.528 49.6761 123.858C50.2708 124.187 50.7159 124.638 51.0114 125.21C51.3068 125.778 51.4545 126.419 51.4545 127.131C51.4545 127.847 51.3049 128.491 51.0057 129.062C50.7102 129.631 50.2633 130.081 49.6648 130.415C49.0701 130.744 48.322 130.909 47.4205 130.909H44.5682V129.42H47.2614C47.8333 129.42 48.2973 129.322 48.6534 129.125C49.0095 128.924 49.2708 128.652 49.4375 128.307C49.6042 127.962 49.6875 127.57 49.6875 127.131C49.6875 126.691 49.6042 126.301 49.4375 125.96C49.2708 125.619 49.0076 125.352 48.6477 125.159C48.2917 124.966 47.822 124.869 47.2386 124.869H45.0341V135H43.2784ZM54.1303 138.273C53.8765 138.273 53.6454 138.252 53.4371 138.21C53.2288 138.172 53.0735 138.131 52.9712 138.085L53.3803 136.693C53.6909 136.777 53.9674 136.813 54.2098 136.801C54.4523 136.79 54.6663 136.699 54.8519 136.528C55.0413 136.358 55.2079 136.08 55.3519 135.693L55.5621 135.114L52.3689 126.273H54.1871L56.3973 133.045H56.4882L58.6985 126.273H60.5223L56.9257 136.165C56.7591 136.619 56.547 137.004 56.2894 137.318C56.0318 137.636 55.725 137.875 55.3689 138.034C55.0129 138.193 54.6 138.273 54.1303 138.273ZM65.8728 126.273V127.636H61.1057V126.273H65.8728ZM62.3841 124.182H64.083V132.438C64.083 132.767 64.1323 133.015 64.2307 133.182C64.3292 133.345 64.4561 133.456 64.6114 133.517C64.7705 133.574 64.9429 133.602 65.1285 133.602C65.2648 133.602 65.3841 133.593 65.4864 133.574C65.5887 133.555 65.6682 133.54 65.7251 133.528L66.0319 134.932C65.9334 134.97 65.7932 135.008 65.6114 135.045C65.4296 135.087 65.2023 135.11 64.9296 135.114C64.4826 135.121 64.066 135.042 63.6796 134.875C63.2932 134.708 62.9807 134.451 62.7421 134.102C62.5035 133.754 62.3841 133.316 62.3841 132.79V124.182ZM69.3184 129.818V135H67.6195V123.364H69.2957V127.693H69.4036C69.6082 127.223 69.9207 126.85 70.3411 126.574C70.7616 126.297 71.3108 126.159 71.9889 126.159C72.5873 126.159 73.1101 126.282 73.557 126.528C74.0078 126.775 74.3563 127.142 74.6025 127.631C74.8525 128.116 74.9775 128.722 74.9775 129.449V135H73.2786V129.653C73.2786 129.013 73.1139 128.517 72.7843 128.165C72.4548 127.809 71.9964 127.631 71.4093 127.631C71.0078 127.631 70.648 127.716 70.3298 127.886C70.0154 128.057 69.7673 128.307 69.5855 128.636C69.4074 128.962 69.3184 129.356 69.3184 129.818ZM80.6007 135.176C79.7825 135.176 79.0685 134.989 78.4586 134.614C77.8488 134.239 77.3753 133.714 77.0382 133.04C76.7011 132.366 76.5325 131.578 76.5325 130.676C76.5325 129.771 76.7011 128.979 77.0382 128.301C77.3753 127.623 77.8488 127.097 78.4586 126.722C79.0685 126.347 79.7825 126.159 80.6007 126.159C81.4189 126.159 82.1329 126.347 82.7427 126.722C83.3526 127.097 83.8261 127.623 84.1632 128.301C84.5003 128.979 84.6689 129.771 84.6689 130.676C84.6689 131.578 84.5003 132.366 84.1632 133.04C83.8261 133.714 83.3526 134.239 82.7427 134.614C82.1329 134.989 81.4189 135.176 80.6007 135.176ZM80.6064 133.75C81.1367 133.75 81.5761 133.61 81.9245 133.33C82.273 133.049 82.5306 132.676 82.6973 132.21C82.8677 131.744 82.953 131.231 82.953 130.67C82.953 130.114 82.8677 129.602 82.6973 129.136C82.5306 128.667 82.273 128.29 81.9245 128.006C81.5761 127.722 81.1367 127.58 80.6064 127.58C80.0723 127.58 79.6291 127.722 79.2768 128.006C78.9283 128.29 78.6689 128.667 78.4984 129.136C78.3317 129.602 78.2484 130.114 78.2484 130.67C78.2484 131.231 78.3317 131.744 78.4984 132.21C78.6689 132.676 78.9283 133.049 79.2768 133.33C79.6291 133.61 80.0723 133.75 80.6064 133.75ZM87.944 129.818V135H86.2452V126.273H87.8759V127.693H87.9838C88.1846 127.231 88.499 126.86 88.927 126.58C89.3588 126.299 89.9024 126.159 90.5577 126.159C91.1524 126.159 91.6732 126.284 92.1202 126.534C92.5671 126.78 92.9137 127.148 93.1599 127.636C93.4062 128.125 93.5293 128.729 93.5293 129.449V135H91.8304V129.653C91.8304 129.021 91.6656 128.527 91.3361 128.17C91.0065 127.811 90.5539 127.631 89.9781 127.631C89.5842 127.631 89.2338 127.716 88.927 127.886C88.624 128.057 88.3834 128.307 88.2054 128.636C88.0312 128.962 87.944 129.356 87.944 129.818Z" fill="#1E222E"/>
<rect x="42" y="148" width="150" height="6" rx="3" fill="#397CE8"/>
<path d="M12.1191 175.364V187H10.3577V177.125H10.2895L7.50545 178.943V177.261L10.4089 175.364H12.1191ZM19.2016 175.364V187H17.4402V177.125H17.372L14.588 178.943V177.261L17.4914 175.364H19.2016ZM27.9432 184.818V184.205C27.9432 183.765 28.0341 183.364 28.2159 183C28.4015 182.633 28.6705 182.339 29.0227 182.119C29.3788 181.896 29.8087 181.784 30.3125 181.784C30.8277 181.784 31.2595 181.894 31.608 182.114C31.9564 182.333 32.2197 182.627 32.3977 182.994C32.5795 183.362 32.6705 183.765 32.6705 184.205V184.818C32.6705 185.258 32.5795 185.661 32.3977 186.028C32.2159 186.392 31.9489 186.686 31.5966 186.909C31.2481 187.129 30.8201 187.239 30.3125 187.239C29.8011 187.239 29.3693 187.129 29.017 186.909C28.6648 186.686 28.3977 186.392 28.2159 186.028C28.0341 185.661 27.9432 185.258 27.9432 184.818ZM29.267 184.205V184.818C29.267 185.144 29.3447 185.439 29.5 185.705C29.6553 185.97 29.9261 186.102 30.3125 186.102C30.6951 186.102 30.9621 185.97 31.1136 185.705C31.2652 185.439 31.3409 185.144 31.3409 184.818V184.205C31.3409 183.879 31.267 183.583 31.1193 183.318C30.9754 183.053 30.7064 182.92 30.3125 182.92C29.9337 182.92 29.6648 183.053 29.5057 183.318C29.3466 183.583 29.267 183.879 29.267 184.205ZM22.0909 178.159V177.545C22.0909 177.106 22.1818 176.703 22.3636 176.335C22.5492 175.968 22.8182 175.674 23.1705 175.455C23.5265 175.235 23.9564 175.125 24.4602 175.125C24.9754 175.125 25.4072 175.235 25.7557 175.455C26.1042 175.674 26.3674 175.968 26.5455 176.335C26.7235 176.703 26.8125 177.106 26.8125 177.545V178.159C26.8125 178.598 26.7216 179.002 26.5398 179.369C26.3617 179.733 26.0966 180.027 25.7443 180.25C25.3958 180.47 24.9678 180.58 24.4602 180.58C23.9451 180.58 23.5114 180.47 23.1591 180.25C22.8106 180.027 22.5455 179.733 22.3636 179.369C22.1818 179.002 22.0909 178.598 22.0909 178.159ZM23.4205 177.545V178.159C23.4205 178.485 23.4962 178.78 23.6477 179.045C23.803 179.311 24.0739 179.443 24.4602 179.443C24.839 179.443 25.1042 179.311 25.2557 179.045C25.411 178.78 25.4886 178.485 25.4886 178.159V177.545C25.4886 177.22 25.4148 176.924 25.267 176.659C25.1193 176.394 24.8504 176.261 24.4602 176.261C24.0814 176.261 23.8125 176.394 23.6534 176.659C23.4981 176.924 23.4205 177.22 23.4205 177.545ZM22.6307 187L30.6307 175.364H31.9886L23.9886 187H22.6307Z" fill="#1E222E"/>
<path d="M47.8011 175.364H49.5511V183.614C49.5511 184.36 49.4034 184.998 49.108 185.528C48.8163 186.059 48.4053 186.464 47.875 186.744C47.3447 187.021 46.7235 187.159 46.0114 187.159C45.3561 187.159 44.767 187.04 44.2443 186.801C43.7254 186.562 43.3144 186.216 43.0114 185.761C42.7121 185.303 42.5625 184.746 42.5625 184.091H44.3068C44.3068 184.413 44.3807 184.691 44.5284 184.926C44.6799 185.161 44.8864 185.345 45.1477 185.477C45.4129 185.606 45.7159 185.67 46.0568 185.67C46.428 185.67 46.7424 185.593 47 185.438C47.2614 185.278 47.4602 185.045 47.5966 184.739C47.733 184.432 47.8011 184.057 47.8011 183.614V175.364ZM54.1899 187.193C53.6369 187.193 53.1369 187.091 52.6899 186.886C52.243 186.678 51.8888 186.377 51.6274 185.983C51.3699 185.589 51.2411 185.106 51.2411 184.534C51.2411 184.042 51.3358 183.636 51.5252 183.318C51.7146 183 51.9702 182.748 52.2922 182.562C52.6142 182.377 52.974 182.237 53.3718 182.142C53.7695 182.047 54.1748 181.975 54.5877 181.926C55.1104 181.866 55.5346 181.816 55.8604 181.778C56.1862 181.737 56.4229 181.67 56.5706 181.58C56.7184 181.489 56.7922 181.341 56.7922 181.136V181.097C56.7922 180.6 56.6521 180.216 56.3718 179.943C56.0952 179.67 55.6824 179.534 55.1331 179.534C54.5612 179.534 54.1104 179.661 53.7809 179.915C53.4551 180.165 53.2297 180.443 53.1047 180.75L51.5081 180.386C51.6975 179.856 51.974 179.428 52.3377 179.102C52.7051 178.773 53.1274 178.534 53.6047 178.386C54.082 178.235 54.5839 178.159 55.1104 178.159C55.4589 178.159 55.8282 178.201 56.2184 178.284C56.6123 178.364 56.9797 178.511 57.3206 178.727C57.6653 178.943 57.9475 179.252 58.1672 179.653C58.3869 180.051 58.4968 180.568 58.4968 181.205V187H56.8377V185.807H56.7695C56.6596 186.027 56.4949 186.242 56.2752 186.455C56.0555 186.667 55.7733 186.843 55.4286 186.983C55.0839 187.123 54.671 187.193 54.1899 187.193ZM54.5593 185.83C55.029 185.83 55.4305 185.737 55.7638 185.551C56.1009 185.366 56.3566 185.123 56.5309 184.824C56.7089 184.521 56.7979 184.197 56.7979 183.852V182.727C56.7373 182.788 56.6199 182.845 56.4456 182.898C56.2752 182.947 56.0801 182.991 55.8604 183.028C55.6407 183.062 55.4267 183.095 55.2184 183.125C55.01 183.152 54.8358 183.174 54.6956 183.193C54.3661 183.235 54.0649 183.305 53.7922 183.403C53.5233 183.502 53.3074 183.644 53.1445 183.83C52.9854 184.011 52.9059 184.254 52.9059 184.557C52.9059 184.977 53.0612 185.295 53.3718 185.511C53.6824 185.723 54.0782 185.83 54.5593 185.83ZM67.593 178.273L64.4282 187H62.61L59.4395 178.273H61.2634L63.4736 184.989H63.5645L65.7691 178.273H67.593ZM71.1593 187.193C70.6063 187.193 70.1063 187.091 69.6593 186.886C69.2123 186.678 68.8582 186.377 68.5968 185.983C68.3392 185.589 68.2105 185.106 68.2105 184.534C68.2105 184.042 68.3052 183.636 68.4945 183.318C68.6839 183 68.9396 182.748 69.2616 182.562C69.5836 182.377 69.9434 182.237 70.3411 182.142C70.7389 182.047 71.1442 181.975 71.557 181.926C72.0798 181.866 72.504 181.816 72.8298 181.778C73.1555 181.737 73.3923 181.67 73.54 181.58C73.6877 181.489 73.7616 181.341 73.7616 181.136V181.097C73.7616 180.6 73.6214 180.216 73.3411 179.943C73.0646 179.67 72.6517 179.534 72.1025 179.534C71.5305 179.534 71.0798 179.661 70.7502 179.915C70.4245 180.165 70.1991 180.443 70.0741 180.75L68.4775 180.386C68.6669 179.856 68.9434 179.428 69.307 179.102C69.6745 178.773 70.0968 178.534 70.5741 178.386C71.0514 178.235 71.5533 178.159 72.0798 178.159C72.4283 178.159 72.7976 178.201 73.1877 178.284C73.5817 178.364 73.9491 178.511 74.29 178.727C74.6347 178.943 74.9169 179.252 75.1366 179.653C75.3563 180.051 75.4661 180.568 75.4661 181.205V187H73.807V185.807H73.7389C73.629 186.027 73.4642 186.242 73.2445 186.455C73.0248 186.667 72.7427 186.843 72.398 186.983C72.0533 187.123 71.6404 187.193 71.1593 187.193ZM71.5286 185.83C71.9983 185.83 72.3998 185.737 72.7332 185.551C73.0703 185.366 73.326 185.123 73.5002 184.824C73.6783 184.521 73.7673 184.197 73.7673 183.852V182.727C73.7067 182.788 73.5892 182.845 73.415 182.898C73.2445 182.947 73.0495 182.991 72.8298 183.028C72.6101 183.062 72.3961 183.095 72.1877 183.125C71.9794 183.152 71.8052 183.174 71.665 183.193C71.3355 183.235 71.0343 183.305 70.7616 183.403C70.4927 183.502 70.2767 183.644 70.1139 183.83C69.9548 184.011 69.8752 184.254 69.8752 184.557C69.8752 184.977 70.0305 185.295 70.3411 185.511C70.6517 185.723 71.0476 185.83 71.5286 185.83ZM85.7551 174.818L82.0051 188.75H80.4881L84.2381 174.818H85.7551ZM97.2756 178.42C97.215 177.883 96.965 177.466 96.5256 177.17C96.0862 176.871 95.5332 176.722 94.8665 176.722C94.3893 176.722 93.9764 176.797 93.6279 176.949C93.2794 177.097 93.0086 177.301 92.8154 177.562C92.626 177.82 92.5313 178.114 92.5313 178.443C92.5313 178.72 92.5957 178.958 92.7245 179.159C92.8571 179.36 93.0294 179.528 93.2415 179.665C93.4574 179.797 93.6885 179.909 93.9347 180C94.1809 180.087 94.4177 180.159 94.6449 180.216L95.7813 180.511C96.1525 180.602 96.5332 180.725 96.9234 180.881C97.3135 181.036 97.6752 181.241 98.0086 181.494C98.3419 181.748 98.6109 182.062 98.8154 182.438C99.0237 182.812 99.1279 183.261 99.1279 183.784C99.1279 184.443 98.9574 185.028 98.6165 185.54C98.2794 186.051 97.7889 186.455 97.1449 186.75C96.5048 187.045 95.7302 187.193 94.8211 187.193C93.9499 187.193 93.1961 187.055 92.5597 186.778C91.9234 186.502 91.4252 186.11 91.0654 185.602C90.7055 185.091 90.5067 184.485 90.4688 183.784H92.2302C92.2643 184.205 92.4006 184.555 92.6393 184.835C92.8817 185.112 93.1904 185.318 93.5654 185.455C93.9442 185.587 94.359 185.653 94.8097 185.653C95.3059 185.653 95.7472 185.576 96.1336 185.42C96.5237 185.261 96.8305 185.042 97.054 184.761C97.2775 184.477 97.3893 184.146 97.3893 183.767C97.3893 183.422 97.2908 183.14 97.0938 182.92C96.9006 182.701 96.6374 182.519 96.304 182.375C95.9745 182.231 95.6014 182.104 95.1847 181.994L93.8097 181.619C92.8779 181.366 92.1393 180.992 91.5938 180.5C91.0521 180.008 90.7813 179.356 90.7813 178.545C90.7813 177.875 90.9631 177.29 91.3268 176.79C91.6904 176.29 92.1828 175.902 92.804 175.625C93.4252 175.345 94.126 175.205 94.9063 175.205C95.6942 175.205 96.3893 175.343 96.9915 175.619C97.5976 175.896 98.0749 176.277 98.4234 176.761C98.7718 177.242 98.9537 177.795 98.9688 178.42H97.2756ZM104.446 187.176C103.601 187.176 102.874 186.985 102.264 186.602C101.658 186.216 101.192 185.684 100.866 185.006C100.54 184.328 100.377 183.551 100.377 182.676C100.377 181.79 100.544 181.008 100.877 180.33C101.211 179.648 101.681 179.116 102.287 178.733C102.893 178.35 103.607 178.159 104.429 178.159C105.092 178.159 105.682 178.282 106.201 178.528C106.72 178.771 107.139 179.112 107.457 179.551C107.779 179.991 107.97 180.504 108.031 181.091H106.377C106.287 180.682 106.078 180.33 105.752 180.034C105.431 179.739 104.999 179.591 104.457 179.591C103.984 179.591 103.569 179.716 103.213 179.966C102.86 180.212 102.586 180.564 102.389 181.023C102.192 181.477 102.093 182.015 102.093 182.636C102.093 183.273 102.19 183.822 102.383 184.284C102.576 184.746 102.849 185.104 103.201 185.358C103.557 185.612 103.976 185.739 104.457 185.739C104.779 185.739 105.071 185.68 105.332 185.562C105.597 185.441 105.819 185.269 105.997 185.045C106.179 184.822 106.306 184.553 106.377 184.239H108.031C107.97 184.803 107.787 185.307 107.48 185.75C107.173 186.193 106.762 186.542 106.247 186.795C105.735 187.049 105.135 187.176 104.446 187.176ZM112.067 187.193C111.514 187.193 111.014 187.091 110.567 186.886C110.12 186.678 109.766 186.377 109.505 185.983C109.247 185.589 109.119 185.106 109.119 184.534C109.119 184.042 109.213 183.636 109.403 183.318C109.592 183 109.848 182.748 110.17 182.562C110.492 182.377 110.852 182.237 111.249 182.142C111.647 182.047 112.052 181.975 112.465 181.926C112.988 181.866 113.412 181.816 113.738 181.778C114.064 181.737 114.3 181.67 114.448 181.58C114.596 181.489 114.67 181.341 114.67 181.136V181.097C114.67 180.6 114.53 180.216 114.249 179.943C113.973 179.67 113.56 179.534 113.011 179.534C112.439 179.534 111.988 179.661 111.658 179.915C111.333 180.165 111.107 180.443 110.982 180.75L109.386 180.386C109.575 179.856 109.852 179.428 110.215 179.102C110.583 178.773 111.005 178.534 111.482 178.386C111.959 178.235 112.461 178.159 112.988 178.159C113.336 178.159 113.706 178.201 114.096 178.284C114.49 178.364 114.857 178.511 115.198 178.727C115.543 178.943 115.825 179.252 116.045 179.653C116.264 180.051 116.374 180.568 116.374 181.205V187H114.715V185.807H114.647C114.537 186.027 114.372 186.242 114.153 186.455C113.933 186.667 113.651 186.843 113.306 186.983C112.961 187.123 112.549 187.193 112.067 187.193ZM112.437 185.83C112.906 185.83 113.308 185.737 113.641 185.551C113.978 185.366 114.234 185.123 114.408 184.824C114.586 184.521 114.675 184.197 114.675 183.852V182.727C114.615 182.788 114.497 182.845 114.323 182.898C114.153 182.947 113.958 182.991 113.738 183.028C113.518 183.062 113.304 183.095 113.096 183.125C112.888 183.152 112.713 183.174 112.573 183.193C112.244 183.235 111.942 183.305 111.67 183.403C111.401 183.502 111.185 183.644 111.022 183.83C110.863 184.011 110.783 184.254 110.783 184.557C110.783 184.977 110.939 185.295 111.249 185.511C111.56 185.723 111.956 185.83 112.437 185.83ZM120.016 175.364V187H118.317V175.364H120.016ZM124.521 187.193C123.968 187.193 123.468 187.091 123.021 186.886C122.574 186.678 122.22 186.377 121.959 185.983C121.701 185.589 121.572 185.106 121.572 184.534C121.572 184.042 121.667 183.636 121.856 183.318C122.046 183 122.301 182.748 122.623 182.562C122.945 182.377 123.305 182.237 123.703 182.142C124.101 182.047 124.506 181.975 124.919 181.926C125.442 181.866 125.866 181.816 126.192 181.778C126.517 181.737 126.754 181.67 126.902 181.58C127.05 181.489 127.123 181.341 127.123 181.136V181.097C127.123 180.6 126.983 180.216 126.703 179.943C126.426 179.67 126.014 179.534 125.464 179.534C124.892 179.534 124.442 179.661 124.112 179.915C123.786 180.165 123.561 180.443 123.436 180.75L121.839 180.386C122.029 179.856 122.305 179.428 122.669 179.102C123.036 178.773 123.459 178.534 123.936 178.386C124.413 178.235 124.915 178.159 125.442 178.159C125.79 178.159 126.159 178.201 126.55 178.284C126.944 178.364 127.311 178.511 127.652 178.727C127.997 178.943 128.279 179.252 128.498 179.653C128.718 180.051 128.828 180.568 128.828 181.205V187H127.169V185.807H127.101C126.991 186.027 126.826 186.242 126.606 186.455C126.387 186.667 126.105 186.843 125.76 186.983C125.415 187.123 125.002 187.193 124.521 187.193ZM124.891 185.83C125.36 185.83 125.762 185.737 126.095 185.551C126.432 185.366 126.688 185.123 126.862 184.824C127.04 184.521 127.129 184.197 127.129 183.852V182.727C127.069 182.788 126.951 182.845 126.777 182.898C126.606 182.947 126.411 182.991 126.192 183.028C125.972 183.062 125.758 183.095 125.55 183.125C125.341 183.152 125.167 183.174 125.027 183.193C124.697 183.235 124.396 183.305 124.123 183.403C123.855 183.502 123.639 183.644 123.476 183.83C123.317 184.011 123.237 184.254 123.237 184.557C123.237 184.977 123.392 185.295 123.703 185.511C124.014 185.723 124.409 185.83 124.891 185.83ZM139.117 174.818L135.367 188.75H133.85L137.6 174.818H139.117ZM144.291 187V175.364H146.047V180.92H146.189L151.069 175.364H153.28L148.586 180.602L153.297 187H151.183L147.422 181.801L146.047 183.381V187H144.291ZM157.495 187.176C156.677 187.176 155.963 186.989 155.353 186.614C154.743 186.239 154.27 185.714 153.933 185.04C153.595 184.366 153.427 183.578 153.427 182.676C153.427 181.771 153.595 180.979 153.933 180.301C154.27 179.623 154.743 179.097 155.353 178.722C155.963 178.347 156.677 178.159 157.495 178.159C158.313 178.159 159.027 178.347 159.637 178.722C160.247 179.097 160.72 179.623 161.058 180.301C161.395 180.979 161.563 181.771 161.563 182.676C161.563 183.578 161.395 184.366 161.058 185.04C160.72 185.714 160.247 186.239 159.637 186.614C159.027 186.989 158.313 187.176 157.495 187.176ZM157.501 185.75C158.031 185.75 158.47 185.61 158.819 185.33C159.167 185.049 159.425 184.676 159.592 184.21C159.762 183.744 159.847 183.231 159.847 182.67C159.847 182.114 159.762 181.602 159.592 181.136C159.425 180.667 159.167 180.29 158.819 180.006C158.47 179.722 158.031 179.58 157.501 179.58C156.967 179.58 156.523 179.722 156.171 180.006C155.823 180.29 155.563 180.667 155.393 181.136C155.226 181.602 155.143 182.114 155.143 182.67C155.143 183.231 155.226 183.744 155.393 184.21C155.563 184.676 155.823 185.049 156.171 185.33C156.523 185.61 156.967 185.75 157.501 185.75ZM167.213 178.273V179.636H162.446V178.273H167.213ZM163.725 176.182H165.424V184.438C165.424 184.767 165.473 185.015 165.571 185.182C165.67 185.345 165.797 185.456 165.952 185.517C166.111 185.574 166.283 185.602 166.469 185.602C166.605 185.602 166.725 185.593 166.827 185.574C166.929 185.555 167.009 185.54 167.066 185.528L167.372 186.932C167.274 186.97 167.134 187.008 166.952 187.045C166.77 187.087 166.543 187.11 166.27 187.114C165.823 187.121 165.407 187.042 165.02 186.875C164.634 186.708 164.321 186.451 164.083 186.102C163.844 185.754 163.725 185.316 163.725 184.79V176.182ZM170.659 175.364V187H168.96V175.364H170.659ZM172.625 187V178.273H174.323V187H172.625ZM173.482 176.926C173.187 176.926 172.933 176.828 172.721 176.631C172.513 176.43 172.409 176.191 172.409 175.915C172.409 175.634 172.513 175.396 172.721 175.199C172.933 174.998 173.187 174.898 173.482 174.898C173.778 174.898 174.03 174.998 174.238 175.199C174.45 175.396 174.556 175.634 174.556 175.915C174.556 176.191 174.45 176.43 174.238 176.631C174.03 176.828 173.778 176.926 173.482 176.926ZM177.988 181.818V187H176.289V178.273H177.92V179.693H178.028C178.228 179.231 178.543 178.86 178.971 178.58C179.403 178.299 179.946 178.159 180.601 178.159C181.196 178.159 181.717 178.284 182.164 178.534C182.611 178.78 182.957 179.148 183.204 179.636C183.45 180.125 183.573 180.729 183.573 181.449V187H181.874V181.653C181.874 181.021 181.709 180.527 181.38 180.17C181.05 179.811 180.598 179.631 180.022 179.631C179.628 179.631 179.278 179.716 178.971 179.886C178.668 180.057 178.427 180.307 178.249 180.636C178.075 180.962 177.988 181.356 177.988 181.818Z" fill="#1E222E"/>
<rect x="42" y="200" width="39" height="6" rx="3" fill="#397CE8"/>
<path d="M11.6362 236.727V235.307L16.6647 227.364H17.784V229.455H17.0737L13.4772 235.148V235.239H20.3692V236.727H11.6362ZM17.1533 239V236.295L17.1647 235.648V227.364H18.8294V239H17.1533ZM27.9432 236.818V236.205C27.9432 235.765 28.0341 235.364 28.2159 235C28.4015 234.633 28.6705 234.339 29.0227 234.119C29.3788 233.896 29.8087 233.784 30.3125 233.784C30.8277 233.784 31.2595 233.894 31.608 234.114C31.9564 234.333 32.2197 234.627 32.3977 234.994C32.5795 235.362 32.6705 235.765 32.6705 236.205V236.818C32.6705 237.258 32.5795 237.661 32.3977 238.028C32.2159 238.392 31.9489 238.686 31.5966 238.909C31.2481 239.129 30.8201 239.239 30.3125 239.239C29.8011 239.239 29.3693 239.129 29.017 238.909C28.6648 238.686 28.3977 238.392 28.2159 238.028C28.0341 237.661 27.9432 237.258 27.9432 236.818ZM29.267 236.205V236.818C29.267 237.144 29.3447 237.439 29.5 237.705C29.6553 237.97 29.9261 238.102 30.3125 238.102C30.6951 238.102 30.9621 237.97 31.1136 237.705C31.2652 237.439 31.3409 237.144 31.3409 236.818V236.205C31.3409 235.879 31.267 235.583 31.1193 235.318C30.9754 235.053 30.7064 234.92 30.3125 234.92C29.9337 234.92 29.6648 235.053 29.5057 235.318C29.3466 235.583 29.267 235.879 29.267 236.205ZM22.0909 230.159V229.545C22.0909 229.106 22.1818 228.703 22.3636 228.335C22.5492 227.968 22.8182 227.674 23.1705 227.455C23.5265 227.235 23.9564 227.125 24.4602 227.125C24.9754 227.125 25.4072 227.235 25.7557 227.455C26.1042 227.674 26.3674 227.968 26.5455 228.335C26.7235 228.703 26.8125 229.106 26.8125 229.545V230.159C26.8125 230.598 26.7216 231.002 26.5398 231.369C26.3617 231.733 26.0966 232.027 25.7443 232.25C25.3958 232.47 24.9678 232.58 24.4602 232.58C23.9451 232.58 23.5114 232.47 23.1591 232.25C22.8106 232.027 22.5455 231.733 22.3636 231.369C22.1818 231.002 22.0909 230.598 22.0909 230.159ZM23.4205 229.545V230.159C23.4205 230.485 23.4962 230.78 23.6477 231.045C23.803 231.311 24.0739 231.443 24.4602 231.443C24.839 231.443 25.1042 231.311 25.2557 231.045C25.411 230.78 25.4886 230.485 25.4886 230.159V229.545C25.4886 229.22 25.4148 228.924 25.267 228.659C25.1193 228.394 24.8504 228.261 24.4602 228.261C24.0814 228.261 23.8125 228.394 23.6534 228.659C23.4981 228.924 23.4205 229.22 23.4205 229.545ZM22.6307 239L30.6307 227.364H31.9886L23.9886 239H22.6307Z" fill="#1E222E"/>
<path d="M51.1534 231.04C51.0436 230.695 50.8958 230.386 50.7102 230.114C50.5284 229.837 50.3106 229.602 50.0568 229.409C49.803 229.212 49.5133 229.062 49.1875 228.96C48.8655 228.858 48.5114 228.807 48.125 228.807C47.4697 228.807 46.8788 228.975 46.3523 229.312C45.8258 229.65 45.4091 230.144 45.1023 230.795C44.7992 231.443 44.6477 232.237 44.6477 233.176C44.6477 234.119 44.8011 234.917 45.108 235.568C45.4148 236.22 45.8352 236.714 46.3693 237.051C46.9034 237.388 47.5114 237.557 48.1932 237.557C48.8258 237.557 49.3769 237.428 49.8466 237.17C50.3201 236.913 50.6856 236.549 50.9432 236.08C51.2045 235.606 51.3352 235.049 51.3352 234.409L51.7898 234.494H48.4602V233.045H53.0341V234.369C53.0341 235.347 52.8258 236.195 52.4091 236.915C51.9962 237.631 51.4242 238.184 50.6932 238.574C49.9659 238.964 49.1326 239.159 48.1932 239.159C47.1402 239.159 46.2159 238.917 45.4205 238.432C44.6288 237.947 44.0114 237.259 43.5682 236.369C43.125 235.475 42.9034 234.415 42.9034 233.188C42.9034 232.259 43.0322 231.426 43.2898 230.688C43.5473 229.949 43.9091 229.322 44.375 228.807C44.8447 228.288 45.3958 227.892 46.0284 227.619C46.6648 227.343 47.3598 227.205 48.1136 227.205C48.7424 227.205 49.3277 227.297 49.8693 227.483C50.4148 227.669 50.8996 227.932 51.3239 228.273C51.7519 228.614 52.1061 229.019 52.3864 229.489C52.6667 229.955 52.8561 230.472 52.9545 231.04H51.1534ZM58.4826 239.176C57.6644 239.176 56.9504 238.989 56.3405 238.614C55.7307 238.239 55.2572 237.714 54.9201 237.04C54.5829 236.366 54.4144 235.578 54.4144 234.676C54.4144 233.771 54.5829 232.979 54.9201 232.301C55.2572 231.623 55.7307 231.097 56.3405 230.722C56.9504 230.347 57.6644 230.159 58.4826 230.159C59.3007 230.159 60.0148 230.347 60.6246 230.722C61.2345 231.097 61.7079 231.623 62.0451 232.301C62.3822 232.979 62.5507 233.771 62.5507 234.676C62.5507 235.578 62.3822 236.366 62.0451 237.04C61.7079 237.714 61.2345 238.239 60.6246 238.614C60.0148 238.989 59.3007 239.176 58.4826 239.176ZM58.4882 237.75C59.0185 237.75 59.4579 237.61 59.8064 237.33C60.1549 237.049 60.4125 236.676 60.5791 236.21C60.7496 235.744 60.8348 235.231 60.8348 234.67C60.8348 234.114 60.7496 233.602 60.5791 233.136C60.4125 232.667 60.1549 232.29 59.8064 232.006C59.4579 231.722 59.0185 231.58 58.4882 231.58C57.9541 231.58 57.511 231.722 57.1587 232.006C56.8102 232.29 56.5507 232.667 56.3803 233.136C56.2136 233.602 56.1303 234.114 56.1303 234.67C56.1303 235.231 56.2136 235.744 56.3803 236.21C56.5507 236.676 56.8102 237.049 57.1587 237.33C57.511 237.61 57.9541 237.75 58.4882 237.75Z" fill="#1E222E"/>
<rect x="42" y="252" width="18" height="6" rx="3" fill="#397CE8"/>
<path d="M16.0468 279.205C16.5657 279.208 17.0771 279.303 17.5809 279.489C18.0846 279.674 18.5392 279.977 18.9445 280.398C19.3536 280.818 19.6793 281.386 19.9218 282.102C20.168 282.814 20.293 283.701 20.2968 284.761C20.2968 285.78 20.1945 286.687 19.9899 287.483C19.7854 288.275 19.4918 288.943 19.1093 289.489C18.7305 290.034 18.2702 290.449 17.7286 290.733C17.1869 291.017 16.5771 291.159 15.899 291.159C15.2059 291.159 14.5903 291.023 14.0524 290.75C13.5146 290.477 13.0771 290.1 12.7399 289.619C12.4028 289.134 12.1926 288.578 12.1093 287.949H13.8422C13.9559 288.449 14.1869 288.854 14.5354 289.165C14.8877 289.472 15.3422 289.625 15.899 289.625C16.7513 289.625 17.4161 289.254 17.8934 288.511C18.3706 287.765 18.6112 286.723 18.6149 285.386H18.524C18.3271 285.712 18.0809 285.992 17.7854 286.227C17.4937 286.462 17.1661 286.644 16.8024 286.773C16.4388 286.902 16.0505 286.966 15.6377 286.966C14.9672 286.966 14.3574 286.801 13.8081 286.472C13.2589 286.142 12.8214 285.689 12.4956 285.114C12.1699 284.538 12.007 283.881 12.007 283.142C12.007 282.407 12.1737 281.741 12.507 281.142C12.8441 280.544 13.3138 280.07 13.9161 279.722C14.5221 279.369 15.2324 279.197 16.0468 279.205ZM16.0524 280.682C15.6093 280.682 15.2096 280.792 14.8536 281.011C14.5013 281.227 14.2229 281.521 14.0184 281.892C13.8138 282.259 13.7115 282.669 13.7115 283.119C13.7115 283.57 13.81 283.979 14.007 284.347C14.2077 284.71 14.4805 285 14.8252 285.216C15.1737 285.428 15.5714 285.534 16.0184 285.534C16.3517 285.534 16.6623 285.47 16.9502 285.341C17.238 285.212 17.4899 285.034 17.7059 284.807C17.9218 284.576 18.0903 284.314 18.2115 284.023C18.3327 283.731 18.3934 283.424 18.3934 283.102C18.3934 282.674 18.2911 282.277 18.0865 281.909C17.8858 281.542 17.6093 281.246 17.257 281.023C16.9047 280.795 16.5032 280.682 16.0524 280.682ZM27.9432 288.818V288.205C27.9432 287.765 28.0341 287.364 28.2159 287C28.4015 286.633 28.6705 286.339 29.0227 286.119C29.3788 285.896 29.8087 285.784 30.3125 285.784C30.8277 285.784 31.2595 285.894 31.608 286.114C31.9564 286.333 32.2197 286.627 32.3977 286.994C32.5795 287.362 32.6705 287.765 32.6705 288.205V288.818C32.6705 289.258 32.5795 289.661 32.3977 290.028C32.2159 290.392 31.9489 290.686 31.5966 290.909C31.2481 291.129 30.8201 291.239 30.3125 291.239C29.8011 291.239 29.3693 291.129 29.017 290.909C28.6648 290.686 28.3977 290.392 28.2159 290.028C28.0341 289.661 27.9432 289.258 27.9432 288.818ZM29.267 288.205V288.818C29.267 289.144 29.3447 289.439 29.5 289.705C29.6553 289.97 29.9261 290.102 30.3125 290.102C30.6951 290.102 30.9621 289.97 31.1136 289.705C31.2652 289.439 31.3409 289.144 31.3409 288.818V288.205C31.3409 287.879 31.267 287.583 31.1193 287.318C30.9754 287.053 30.7064 286.92 30.3125 286.92C29.9337 286.92 29.6648 287.053 29.5057 287.318C29.3466 287.583 29.267 287.879 29.267 288.205ZM22.0909 282.159V281.545C22.0909 281.106 22.1818 280.703 22.3636 280.335C22.5492 279.968 22.8182 279.674 23.1705 279.455C23.5265 279.235 23.9564 279.125 24.4602 279.125C24.9754 279.125 25.4072 279.235 25.7557 279.455C26.1042 279.674 26.3674 279.968 26.5455 280.335C26.7235 280.703 26.8125 281.106 26.8125 281.545V282.159C26.8125 282.598 26.7216 283.002 26.5398 283.369C26.3617 283.733 26.0966 284.027 25.7443 284.25C25.3958 284.47 24.9678 284.58 24.4602 284.58C23.9451 284.58 23.5114 284.47 23.1591 284.25C22.8106 284.027 22.5455 283.733 22.3636 283.369C22.1818 283.002 22.0909 282.598 22.0909 282.159ZM23.4205 281.545V282.159C23.4205 282.485 23.4962 282.78 23.6477 283.045C23.803 283.311 24.0739 283.443 24.4602 283.443C24.839 283.443 25.1042 283.311 25.2557 283.045C25.411 282.78 25.4886 282.485 25.4886 282.159V281.545C25.4886 281.22 25.4148 280.924 25.267 280.659C25.1193 280.394 24.8504 280.261 24.4602 280.261C24.0814 280.261 23.8125 280.394 23.6534 280.659C23.4981 280.924 23.4205 281.22 23.4205 281.545ZM22.6307 291L30.6307 279.364H31.9886L23.9886 291H22.6307Z" fill="#1E222E"/>
<path d="M52.9432 283.148H51.1705C51.1023 282.769 50.9754 282.436 50.7898 282.148C50.6042 281.86 50.3769 281.616 50.108 281.415C49.839 281.214 49.5379 281.062 49.2045 280.96C48.875 280.858 48.5246 280.807 48.1534 280.807C47.483 280.807 46.8826 280.975 46.3523 281.312C45.8258 281.65 45.4091 282.144 45.1023 282.795C44.7992 283.447 44.6477 284.242 44.6477 285.182C44.6477 286.129 44.7992 286.928 45.1023 287.58C45.4091 288.231 45.8277 288.723 46.358 289.057C46.8883 289.39 47.4848 289.557 48.1477 289.557C48.5152 289.557 48.8636 289.508 49.1932 289.409C49.5265 289.307 49.8277 289.157 50.0966 288.96C50.3655 288.763 50.5928 288.523 50.7784 288.239C50.9678 287.951 51.0985 287.621 51.1705 287.25L52.9432 287.256C52.8485 287.828 52.6648 288.354 52.392 288.835C52.1231 289.312 51.7765 289.725 51.3523 290.074C50.9318 290.419 50.4508 290.686 49.9091 290.875C49.3674 291.064 48.7765 291.159 48.1364 291.159C47.1288 291.159 46.2311 290.92 45.4432 290.443C44.6553 289.962 44.0341 289.275 43.5795 288.381C43.1288 287.487 42.9034 286.42 42.9034 285.182C42.9034 283.939 43.1307 282.873 43.5852 281.983C44.0398 281.089 44.661 280.403 45.4489 279.926C46.2367 279.445 47.1326 279.205 48.1364 279.205C48.7538 279.205 49.3295 279.294 49.8636 279.472C50.4015 279.646 50.8845 279.903 51.3125 280.244C51.7405 280.581 52.0947 280.994 52.375 281.483C52.6553 281.968 52.8447 282.523 52.9432 283.148ZM58.0081 289.045V281.364H59.5365V289.045H58.0081ZM54.9343 285.966V284.443H62.6161V285.966H54.9343ZM68.3444 289.045V281.364H69.8728V289.045H68.3444ZM65.2705 285.966V284.443H72.9523V285.966H65.2705ZM83.6064 278.818L79.8564 292.75H78.3393L82.0893 278.818H83.6064ZM88.7803 291V279.364H92.928C93.8295 279.364 94.5776 279.519 95.1723 279.83C95.7708 280.14 96.2178 280.57 96.5132 281.119C96.8087 281.665 96.9564 282.295 96.9564 283.011C96.9564 283.723 96.8068 284.35 96.5076 284.892C96.2121 285.43 95.7651 285.848 95.1666 286.148C94.572 286.447 93.8238 286.597 92.9223 286.597H89.7803V285.085H92.7632C93.3314 285.085 93.7935 285.004 94.1496 284.841C94.5095 284.678 94.7727 284.441 94.9394 284.131C95.106 283.82 95.1894 283.447 95.1894 283.011C95.1894 282.572 95.1041 282.191 94.9337 281.869C94.767 281.547 94.5038 281.301 94.1439 281.131C93.7879 280.956 93.3201 280.869 92.7405 280.869H90.536V291H88.7803ZM94.5246 285.75L97.3996 291H95.3996L92.5814 285.75H94.5246ZM104.165 287.381V282.273H105.869V291H104.199V289.489H104.108C103.907 289.955 103.585 290.343 103.142 290.653C102.703 290.96 102.155 291.114 101.5 291.114C100.939 291.114 100.443 290.991 100.011 290.744C99.5834 290.494 99.2463 290.125 99.0001 289.636C98.7576 289.148 98.6364 288.544 98.6364 287.824V282.273H100.335V287.619C100.335 288.214 100.5 288.687 100.83 289.04C101.159 289.392 101.587 289.568 102.114 289.568C102.432 289.568 102.748 289.489 103.063 289.33C103.381 289.17 103.644 288.93 103.852 288.608C104.064 288.286 104.169 287.877 104.165 287.381ZM114.372 284.403L112.832 284.676C112.768 284.479 112.665 284.292 112.525 284.114C112.389 283.936 112.203 283.79 111.968 283.676C111.734 283.562 111.44 283.506 111.088 283.506C110.607 283.506 110.205 283.614 109.883 283.83C109.561 284.042 109.4 284.316 109.4 284.653C109.4 284.945 109.508 285.18 109.724 285.358C109.94 285.536 110.288 285.682 110.77 285.795L112.156 286.114C112.959 286.299 113.557 286.585 113.951 286.972C114.345 287.358 114.542 287.86 114.542 288.477C114.542 289 114.391 289.466 114.088 289.875C113.788 290.28 113.37 290.598 112.832 290.83C112.298 291.061 111.679 291.176 110.974 291.176C109.997 291.176 109.199 290.968 108.582 290.551C107.965 290.131 107.586 289.534 107.446 288.761L109.088 288.511C109.19 288.939 109.4 289.263 109.718 289.483C110.037 289.699 110.451 289.807 110.963 289.807C111.52 289.807 111.965 289.691 112.298 289.46C112.631 289.225 112.798 288.939 112.798 288.602C112.798 288.33 112.696 288.1 112.491 287.915C112.29 287.729 111.982 287.589 111.565 287.494L110.088 287.17C109.273 286.985 108.671 286.689 108.281 286.284C107.895 285.879 107.701 285.366 107.701 284.744C107.701 284.229 107.845 283.778 108.133 283.392C108.421 283.006 108.819 282.705 109.326 282.489C109.834 282.269 110.415 282.159 111.071 282.159C112.014 282.159 112.756 282.364 113.298 282.773C113.84 283.178 114.198 283.722 114.372 284.403ZM120.164 282.273V283.636H115.397V282.273H120.164ZM116.675 280.182H118.374V288.438C118.374 288.767 118.424 289.015 118.522 289.182C118.62 289.345 118.747 289.456 118.903 289.517C119.062 289.574 119.234 289.602 119.42 289.602C119.556 289.602 119.675 289.593 119.778 289.574C119.88 289.555 119.959 289.54 120.016 289.528L120.323 290.932C120.225 290.97 120.084 291.008 119.903 291.045C119.721 291.087 119.494 291.11 119.221 291.114C118.774 291.121 118.357 291.042 117.971 290.875C117.584 290.708 117.272 290.451 117.033 290.102C116.795 289.754 116.675 289.316 116.675 288.79V280.182Z" fill="#1E222E"/>
<rect x="42" y="304" width="32" height="6" rx="3" fill="#397CE8"/>
<path d="M9.35347 331.364V343H7.5921V333.125H7.52392L4.73983 334.943V333.261L7.64324 331.364H9.35347ZM16.0723 343.193C15.1746 343.189 14.4076 342.953 13.7712 342.483C13.1348 342.013 12.6481 341.33 12.311 340.432C11.9738 339.534 11.8053 338.453 11.8053 337.188C11.8053 335.926 11.9738 334.848 12.311 333.955C12.6519 333.061 13.1405 332.379 13.7769 331.909C14.417 331.439 15.1822 331.205 16.0723 331.205C16.9625 331.205 17.7257 331.441 18.3621 331.915C18.9985 332.384 19.4852 333.066 19.8223 333.96C20.1632 334.85 20.3337 335.926 20.3337 337.188C20.3337 338.456 20.1651 339.54 19.828 340.438C19.4909 341.331 19.0041 342.015 18.3678 342.489C17.7314 342.958 16.9663 343.193 16.0723 343.193ZM16.0723 341.676C16.8602 341.676 17.4757 341.292 17.9189 340.523C18.3659 339.754 18.5894 338.642 18.5894 337.188C18.5894 336.222 18.4871 335.405 18.2826 334.739C18.0818 334.068 17.792 333.561 17.4132 333.216C17.0382 332.867 16.5913 332.693 16.0723 332.693C15.2882 332.693 14.6727 333.08 14.2257 333.852C13.7788 334.625 13.5534 335.737 13.5496 337.188C13.5496 338.157 13.65 338.977 13.8507 339.648C14.0553 340.314 14.3451 340.82 14.7201 341.165C15.0951 341.506 15.5458 341.676 16.0723 341.676ZM27.9432 340.818V340.205C27.9432 339.765 28.0341 339.364 28.2159 339C28.4015 338.633 28.6705 338.339 29.0227 338.119C29.3788 337.896 29.8087 337.784 30.3125 337.784C30.8277 337.784 31.2595 337.894 31.608 338.114C31.9564 338.333 32.2197 338.627 32.3977 338.994C32.5795 339.362 32.6705 339.765 32.6705 340.205V340.818C32.6705 341.258 32.5795 341.661 32.3977 342.028C32.2159 342.392 31.9489 342.686 31.5966 342.909C31.2481 343.129 30.8201 343.239 30.3125 343.239C29.8011 343.239 29.3693 343.129 29.017 342.909C28.6648 342.686 28.3977 342.392 28.2159 342.028C28.0341 341.661 27.9432 341.258 27.9432 340.818ZM29.267 340.205V340.818C29.267 341.144 29.3447 341.439 29.5 341.705C29.6553 341.97 29.9261 342.102 30.3125 342.102C30.6951 342.102 30.9621 341.97 31.1136 341.705C31.2652 341.439 31.3409 341.144 31.3409 340.818V340.205C31.3409 339.879 31.267 339.583 31.1193 339.318C30.9754 339.053 30.7064 338.92 30.3125 338.92C29.9337 338.92 29.6648 339.053 29.5057 339.318C29.3466 339.583 29.267 339.879 29.267 340.205ZM22.0909 334.159V333.545C22.0909 333.106 22.1818 332.703 22.3636 332.335C22.5492 331.968 22.8182 331.674 23.1705 331.455C23.5265 331.235 23.9564 331.125 24.4602 331.125C24.9754 331.125 25.4072 331.235 25.7557 331.455C26.1042 331.674 26.3674 331.968 26.5455 332.335C26.7235 332.703 26.8125 333.106 26.8125 333.545V334.159C26.8125 334.598 26.7216 335.002 26.5398 335.369C26.3617 335.733 26.0966 336.027 25.7443 336.25C25.3958 336.47 24.9678 336.58 24.4602 336.58C23.9451 336.58 23.5114 336.47 23.1591 336.25C22.8106 336.027 22.5455 335.733 22.3636 335.369C22.1818 335.002 22.0909 334.598 22.0909 334.159ZM23.4205 333.545V334.159C23.4205 334.485 23.4962 334.78 23.6477 335.045C23.803 335.311 24.0739 335.443 24.4602 335.443C24.839 335.443 25.1042 335.311 25.2557 335.045C25.411 334.78 25.4886 334.485 25.4886 334.159V333.545C25.4886 333.22 25.4148 332.924 25.267 332.659C25.1193 332.394 24.8504 332.261 24.4602 332.261C24.0814 332.261 23.8125 332.394 23.6534 332.659C23.4981 332.924 23.4205 333.22 23.4205 333.545ZM22.6307 343L30.6307 331.364H31.9886L23.9886 343H22.6307Z" fill="#1E222E"/>
<path d="M49.625 334.42C49.5644 333.883 49.3144 333.466 48.875 333.17C48.4356 332.871 47.8826 332.722 47.2159 332.722C46.7386 332.722 46.3258 332.797 45.9773 332.949C45.6288 333.097 45.358 333.301 45.1648 333.562C44.9754 333.82 44.8807 334.114 44.8807 334.443C44.8807 334.72 44.9451 334.958 45.0739 335.159C45.2064 335.36 45.3788 335.528 45.5909 335.665C45.8068 335.797 46.0379 335.909 46.2841 336C46.5303 336.087 46.767 336.159 46.9943 336.216L48.1307 336.511C48.5019 336.602 48.8826 336.725 49.2727 336.881C49.6629 337.036 50.0246 337.241 50.358 337.494C50.6913 337.748 50.9602 338.062 51.1648 338.438C51.3731 338.812 51.4773 339.261 51.4773 339.784C51.4773 340.443 51.3068 341.028 50.9659 341.54C50.6288 342.051 50.1383 342.455 49.4943 342.75C48.8542 343.045 48.0795 343.193 47.1705 343.193C46.2992 343.193 45.5455 343.055 44.9091 342.778C44.2727 342.502 43.7746 342.11 43.4148 341.602C43.0549 341.091 42.8561 340.485 42.8182 339.784H44.5795C44.6136 340.205 44.75 340.555 44.9886 340.835C45.2311 341.112 45.5398 341.318 45.9148 341.455C46.2936 341.587 46.7083 341.653 47.1591 341.653C47.6553 341.653 48.0966 341.576 48.483 341.42C48.8731 341.261 49.1799 341.042 49.4034 340.761C49.6269 340.477 49.7386 340.146 49.7386 339.767C49.7386 339.422 49.6402 339.14 49.4432 338.92C49.25 338.701 48.9867 338.519 48.6534 338.375C48.3239 338.231 47.9508 338.104 47.5341 337.994L46.1591 337.619C45.2273 337.366 44.4886 336.992 43.9432 336.5C43.4015 336.008 43.1307 335.356 43.1307 334.545C43.1307 333.875 43.3125 333.29 43.6761 332.79C44.0398 332.29 44.5322 331.902 45.1534 331.625C45.7746 331.345 46.4754 331.205 47.2557 331.205C48.0436 331.205 48.7386 331.343 49.3409 331.619C49.947 331.896 50.4242 332.277 50.7727 332.761C51.1212 333.242 51.303 333.795 51.3182 334.42H49.625ZM56.7951 343.176C55.9769 343.176 55.2629 342.989 54.653 342.614C54.0432 342.239 53.5697 341.714 53.2326 341.04C52.8954 340.366 52.7269 339.578 52.7269 338.676C52.7269 337.771 52.8954 336.979 53.2326 336.301C53.5697 335.623 54.0432 335.097 54.653 334.722C55.2629 334.347 55.9769 334.159 56.7951 334.159C57.6132 334.159 58.3273 334.347 58.9371 334.722C59.547 335.097 60.0204 335.623 60.3576 336.301C60.6947 336.979 60.8632 337.771 60.8632 338.676C60.8632 339.578 60.6947 340.366 60.3576 341.04C60.0204 341.714 59.547 342.239 58.9371 342.614C58.3273 342.989 57.6132 343.176 56.7951 343.176ZM56.8007 341.75C57.331 341.75 57.7704 341.61 58.1189 341.33C58.4674 341.049 58.725 340.676 58.8916 340.21C59.0621 339.744 59.1473 339.231 59.1473 338.67C59.1473 338.114 59.0621 337.602 58.8916 337.136C58.725 336.667 58.4674 336.29 58.1189 336.006C57.7704 335.722 57.331 335.58 56.8007 335.58C56.2666 335.58 55.8235 335.722 55.4712 336.006C55.1227 336.29 54.8632 336.667 54.6928 337.136C54.5261 337.602 54.4428 338.114 54.4428 338.67C54.4428 339.231 54.5261 339.744 54.6928 340.21C54.8632 340.676 55.1227 341.049 55.4712 341.33C55.8235 341.61 56.2666 341.75 56.8007 341.75ZM64.1384 331.364V343H62.4395V331.364H64.1384ZM66.1039 343V334.273H67.8028V343H66.1039ZM66.9619 332.926C66.6664 332.926 66.4126 332.828 66.2005 332.631C65.9922 332.43 65.888 332.191 65.888 331.915C65.888 331.634 65.9922 331.396 66.2005 331.199C66.4126 330.998 66.6664 330.898 66.9619 330.898C67.2573 330.898 67.5092 330.998 67.7176 331.199C67.9297 331.396 68.0357 331.634 68.0357 331.915C68.0357 332.191 67.9297 332.43 67.7176 332.631C67.5092 332.828 67.2573 332.926 66.9619 332.926ZM73.0353 343.17C72.3308 343.17 71.702 342.991 71.149 342.631C70.5997 342.267 70.1679 341.75 69.8535 341.08C69.5429 340.405 69.3876 339.597 69.3876 338.653C69.3876 337.71 69.5448 336.903 69.8592 336.233C70.1774 335.562 70.613 335.049 71.166 334.693C71.7191 334.337 72.3459 334.159 73.0467 334.159C73.5884 334.159 74.024 334.25 74.3535 334.432C74.6869 334.61 74.9444 334.818 75.1262 335.057C75.3119 335.295 75.4558 335.506 75.5581 335.688H75.6603V331.364H77.3592V343H75.7001V341.642H75.5581C75.4558 341.828 75.3081 342.04 75.1149 342.278C74.9255 342.517 74.6641 342.725 74.3308 342.903C73.9975 343.081 73.5656 343.17 73.0353 343.17ZM73.4103 341.722C73.899 341.722 74.3119 341.593 74.649 341.335C74.9899 341.074 75.2475 340.712 75.4217 340.25C75.5997 339.788 75.6887 339.25 75.6887 338.636C75.6887 338.03 75.6016 337.5 75.4274 337.045C75.2531 336.591 74.9975 336.237 74.6603 335.983C74.3232 335.729 73.9066 335.602 73.4103 335.602C72.899 335.602 72.4728 335.735 72.1319 336C71.791 336.265 71.5334 336.627 71.3592 337.085C71.1887 337.544 71.1035 338.061 71.1035 338.636C71.1035 339.22 71.1906 339.744 71.3649 340.21C71.5391 340.676 71.7967 341.045 72.1376 341.318C72.4823 341.587 72.9066 341.722 73.4103 341.722ZM79.4639 343V334.273H81.1628V343H79.4639ZM80.3219 332.926C80.0264 332.926 79.7726 332.828 79.5605 332.631C79.3522 332.43 79.248 332.191 79.248 331.915C79.248 331.634 79.3522 331.396 79.5605 331.199C79.7726 330.998 80.0264 330.898 80.3219 330.898C80.6173 330.898 80.8692 330.998 81.0776 331.199C81.2897 331.396 81.3957 331.634 81.3957 331.915C81.3957 332.191 81.2897 332.43 81.0776 332.631C80.8692 332.828 80.6173 332.926 80.3219 332.926ZM87.2022 334.273V335.636H82.4351V334.273H87.2022ZM83.7135 332.182H85.4124V340.438C85.4124 340.767 85.4616 341.015 85.5601 341.182C85.6586 341.345 85.7855 341.456 85.9408 341.517C86.0999 341.574 86.2722 341.602 86.4578 341.602C86.5942 341.602 86.7135 341.593 86.8158 341.574C86.9181 341.555 86.9976 341.54 87.0544 341.528L87.3613 342.932C87.2628 342.97 87.1226 343.008 86.9408 343.045C86.759 343.087 86.5317 343.11 86.259 343.114C85.812 343.121 85.3953 343.042 85.009 342.875C84.6226 342.708 84.3101 342.451 84.0715 342.102C83.8328 341.754 83.7135 341.316 83.7135 340.79V332.182ZM89.8353 346.273C89.5815 346.273 89.3504 346.252 89.1421 346.21C88.9338 346.172 88.7785 346.131 88.6762 346.085L89.0853 344.693C89.3959 344.777 89.6724 344.813 89.9148 344.801C90.1573 344.79 90.3713 344.699 90.5569 344.528C90.7463 344.358 90.9129 344.08 91.0569 343.693L91.2671 343.114L88.0739 334.273H89.8921L92.1023 341.045H92.1932L94.4035 334.273H96.2273L92.6307 344.165C92.4641 344.619 92.2519 345.004 91.9944 345.318C91.7368 345.636 91.43 345.875 91.0739 346.034C90.7179 346.193 90.305 346.273 89.8353 346.273Z" fill="#1E222E"/>
<rect x="42" y="356" width="35" height="6" rx="3" fill="#397CE8"/>
<path d="M2.70432 395V393.727L6.64182 389.648C7.06227 389.205 7.40886 388.816 7.68159 388.483C7.95811 388.146 8.16454 387.826 8.30091 387.523C8.43727 387.22 8.50545 386.898 8.50545 386.557C8.50545 386.17 8.41454 385.837 8.23273 385.557C8.05091 385.273 7.8028 385.055 7.48841 384.903C7.17401 384.748 6.81985 384.67 6.42591 384.67C6.00924 384.67 5.64561 384.756 5.335 384.926C5.02439 385.097 4.78576 385.337 4.61909 385.648C4.45242 385.958 4.36909 386.322 4.36909 386.739H2.69295C2.69295 386.03 2.85583 385.411 3.18159 384.881C3.50735 384.35 3.95432 383.939 4.5225 383.648C5.09068 383.352 5.73651 383.205 6.46 383.205C7.19106 383.205 7.835 383.35 8.39182 383.642C8.95242 383.93 9.38992 384.324 9.70432 384.824C10.0187 385.32 10.1759 385.881 10.1759 386.506C10.1759 386.938 10.0945 387.36 9.93159 387.773C9.7725 388.186 9.49409 388.646 9.09636 389.153C8.69864 389.657 8.14561 390.269 7.43727 390.989L5.12477 393.409V393.494H10.3634V395H2.70432ZM16.088 395.159C15.3077 395.159 14.6107 395.025 13.997 394.756C13.3872 394.487 12.9042 394.114 12.5482 393.636C12.1959 393.155 12.0065 392.598 11.98 391.966H13.7641C13.7868 392.311 13.9023 392.61 14.1107 392.864C14.3228 393.114 14.5993 393.307 14.9402 393.443C15.2811 393.58 15.6599 393.648 16.0766 393.648C16.5349 393.648 16.9402 393.568 17.2925 393.409C17.6486 393.25 17.927 393.028 18.1277 392.744C18.3285 392.456 18.4289 392.125 18.4289 391.75C18.4289 391.36 18.3285 391.017 18.1277 390.722C17.9308 390.422 17.641 390.187 17.2584 390.017C16.8796 389.847 16.4213 389.761 15.8834 389.761H14.9005V388.33H15.8834C16.3152 388.33 16.694 388.252 17.0198 388.097C17.3493 387.941 17.6069 387.725 17.7925 387.449C17.9781 387.169 18.0709 386.841 18.0709 386.466C18.0709 386.106 17.9895 385.794 17.8266 385.528C17.6675 385.259 17.4402 385.049 17.1448 384.898C16.8531 384.746 16.5084 384.67 16.1107 384.67C15.7319 384.67 15.3777 384.741 15.0482 384.881C14.7224 385.017 14.4573 385.214 14.2527 385.472C14.0482 385.725 13.9383 386.03 13.9232 386.386H12.2243C12.2433 385.758 12.4289 385.205 12.7811 384.727C13.1372 384.25 13.6069 383.877 14.1902 383.608C14.7736 383.339 15.4213 383.205 16.1334 383.205C16.8796 383.205 17.5236 383.35 18.0652 383.642C18.6107 383.93 19.0311 384.314 19.3266 384.795C19.6258 385.277 19.7736 385.803 19.7698 386.375C19.7736 387.027 19.5917 387.58 19.2243 388.034C18.8607 388.489 18.3758 388.794 17.7698 388.949V389.04C18.5425 389.157 19.141 389.464 19.5652 389.96C19.9933 390.456 20.2054 391.072 20.2016 391.807C20.2054 392.447 20.0273 393.021 19.6675 393.528C19.3114 394.036 18.8247 394.436 18.2073 394.727C17.5898 395.015 16.8834 395.159 16.088 395.159ZM27.9432 392.818V392.205C27.9432 391.765 28.0341 391.364 28.2159 391C28.4015 390.633 28.6705 390.339 29.0227 390.119C29.3788 389.896 29.8087 389.784 30.3125 389.784C30.8277 389.784 31.2595 389.894 31.608 390.114C31.9564 390.333 32.2197 390.627 32.3977 390.994C32.5795 391.362 32.6705 391.765 32.6705 392.205V392.818C32.6705 393.258 32.5795 393.661 32.3977 394.028C32.2159 394.392 31.9489 394.686 31.5966 394.909C31.2481 395.129 30.8201 395.239 30.3125 395.239C29.8011 395.239 29.3693 395.129 29.017 394.909C28.6648 394.686 28.3977 394.392 28.2159 394.028C28.0341 393.661 27.9432 393.258 27.9432 392.818ZM29.267 392.205V392.818C29.267 393.144 29.3447 393.439 29.5 393.705C29.6553 393.97 29.9261 394.102 30.3125 394.102C30.6951 394.102 30.9621 393.97 31.1136 393.705C31.2652 393.439 31.3409 393.144 31.3409 392.818V392.205C31.3409 391.879 31.267 391.583 31.1193 391.318C30.9754 391.053 30.7064 390.92 30.3125 390.92C29.9337 390.92 29.6648 391.053 29.5057 391.318C29.3466 391.583 29.267 391.879 29.267 392.205ZM22.0909 386.159V385.545C22.0909 385.106 22.1818 384.703 22.3636 384.335C22.5492 383.968 22.8182 383.674 23.1705 383.455C23.5265 383.235 23.9564 383.125 24.4602 383.125C24.9754 383.125 25.4072 383.235 25.7557 383.455C26.1042 383.674 26.3674 383.968 26.5455 384.335C26.7235 384.703 26.8125 385.106 26.8125 385.545V386.159C26.8125 386.598 26.7216 387.002 26.5398 387.369C26.3617 387.733 26.0966 388.027 25.7443 388.25C25.3958 388.47 24.9678 388.58 24.4602 388.58C23.9451 388.58 23.5114 388.47 23.1591 388.25C22.8106 388.027 22.5455 387.733 22.3636 387.369C22.1818 387.002 22.0909 386.598 22.0909 386.159ZM23.4205 385.545V386.159C23.4205 386.485 23.4962 386.78 23.6477 387.045C23.803 387.311 24.0739 387.443 24.4602 387.443C24.839 387.443 25.1042 387.311 25.2557 387.045C25.411 386.78 25.4886 386.485 25.4886 386.159V385.545C25.4886 385.22 25.4148 384.924 25.267 384.659C25.1193 384.394 24.8504 384.261 24.4602 384.261C24.0814 384.261 23.8125 384.394 23.6534 384.659C23.4981 384.924 23.4205 385.22 23.4205 385.545ZM22.6307 395L30.6307 383.364H31.9886L23.9886 395H22.6307Z" fill="#1E222E"/>
<path d="M53.3864 389.182C53.3864 390.424 53.1591 391.492 52.7045 392.386C52.25 393.277 51.6269 393.962 50.8352 394.443C50.0473 394.92 49.1515 395.159 48.1477 395.159C47.1402 395.159 46.2405 394.92 45.4489 394.443C44.661 393.962 44.0398 393.275 43.5852 392.381C43.1307 391.487 42.9034 390.42 42.9034 389.182C42.9034 387.939 43.1307 386.873 43.5852 385.983C44.0398 385.089 44.661 384.403 45.4489 383.926C46.2405 383.445 47.1402 383.205 48.1477 383.205C49.1515 383.205 50.0473 383.445 50.8352 383.926C51.6269 384.403 52.25 385.089 52.7045 385.983C53.1591 386.873 53.3864 387.939 53.3864 389.182ZM51.6477 389.182C51.6477 388.235 51.4943 387.437 51.1875 386.79C50.8845 386.138 50.4678 385.646 49.9375 385.312C49.411 384.975 48.8144 384.807 48.1477 384.807C47.4773 384.807 46.8788 384.975 46.3523 385.312C45.8258 385.646 45.4091 386.138 45.1023 386.79C44.7992 387.437 44.6477 388.235 44.6477 389.182C44.6477 390.129 44.7992 390.928 45.1023 391.58C45.4091 392.227 45.8258 392.72 46.3523 393.057C46.8788 393.39 47.4773 393.557 48.1477 393.557C48.8144 393.557 49.411 393.39 49.9375 393.057C50.4678 392.72 50.8845 392.227 51.1875 391.58C51.4943 390.928 51.6477 390.129 51.6477 389.182ZM59.1928 386.273V387.636H54.4257V386.273H59.1928ZM55.7041 384.182H57.403V392.438C57.403 392.767 57.4523 393.015 57.5507 393.182C57.6492 393.345 57.7761 393.456 57.9314 393.517C58.0905 393.574 58.2629 393.602 58.4485 393.602C58.5848 393.602 58.7041 393.593 58.8064 393.574C58.9087 393.555 58.9882 393.54 59.0451 393.528L59.3519 394.932C59.2534 394.97 59.1132 395.008 58.9314 395.045C58.7496 395.087 58.5223 395.11 58.2496 395.114C57.8026 395.121 57.386 395.042 56.9996 394.875C56.6132 394.708 56.3007 394.451 56.0621 394.102C55.8235 393.754 55.7041 393.316 55.7041 392.79V384.182ZM62.6384 389.818V395H60.9395V383.364H62.6157V387.693H62.7236C62.9282 387.223 63.2407 386.85 63.6611 386.574C64.0816 386.297 64.6308 386.159 65.3089 386.159C65.9073 386.159 66.4301 386.282 66.877 386.528C67.3278 386.775 67.6763 387.142 67.9225 387.631C68.1725 388.116 68.2975 388.722 68.2975 389.449V395H66.5986V389.653C66.5986 389.013 66.4339 388.517 66.1043 388.165C65.7748 387.809 65.3164 387.631 64.7293 387.631C64.3278 387.631 63.968 387.716 63.6498 387.886C63.3354 388.057 63.0873 388.307 62.9055 388.636C62.7274 388.962 62.6384 389.356 62.6384 389.818ZM74.0059 395.176C73.1461 395.176 72.4055 394.992 71.7843 394.625C71.1669 394.254 70.6896 393.733 70.3525 393.062C70.0192 392.388 69.8525 391.598 69.8525 390.693C69.8525 389.799 70.0192 389.011 70.3525 388.33C70.6896 387.648 71.1593 387.116 71.7616 386.733C72.3677 386.35 73.076 386.159 73.8866 386.159C74.379 386.159 74.8563 386.241 75.3184 386.403C75.7805 386.566 76.1953 386.822 76.5627 387.17C76.9302 387.519 77.2199 387.972 77.432 388.528C77.6442 389.081 77.7502 389.754 77.7502 390.545V391.148H70.8127V389.875H76.0855C76.0855 389.428 75.9945 389.032 75.8127 388.688C75.6309 388.339 75.3752 388.064 75.0457 387.864C74.7199 387.663 74.3373 387.562 73.898 387.562C73.4207 387.562 73.004 387.68 72.648 387.915C72.2957 388.146 72.023 388.449 71.8298 388.824C71.6404 389.195 71.5457 389.598 71.5457 390.034V391.028C71.5457 391.612 71.648 392.108 71.8525 392.517C72.0608 392.926 72.3506 393.239 72.7218 393.455C73.093 393.667 73.5267 393.773 74.023 393.773C74.3449 393.773 74.6385 393.727 74.9036 393.636C75.1688 393.542 75.398 393.402 75.5911 393.216C75.7843 393.03 75.932 392.801 76.0343 392.528L77.6423 392.818C77.5135 393.292 77.2824 393.706 76.9491 394.062C76.6195 394.415 76.2048 394.689 75.7048 394.886C75.2086 395.08 74.6423 395.176 74.0059 395.176ZM79.3152 395V386.273H80.9572V387.659H81.0481C81.2072 387.189 81.4875 386.82 81.889 386.551C82.2943 386.278 82.7527 386.142 83.264 386.142C83.3701 386.142 83.4951 386.146 83.639 386.153C83.7868 386.161 83.9023 386.17 83.9856 386.182V387.807C83.9174 387.788 83.7962 387.767 83.622 387.744C83.4477 387.718 83.2735 387.705 83.0993 387.705C82.6977 387.705 82.3398 387.79 82.0254 387.96C81.7148 388.127 81.4686 388.36 81.2868 388.659C81.1049 388.955 81.014 389.292 81.014 389.67V395H79.3152Z" fill="#1E222E"/>
<rect x="42" y="408" width="85" height="6" rx="3" fill="#397CE8"/>
</svg>
