<svg width="623" height="267" viewBox="0 0 623 267" fill="none" xmlns="http://www.w3.org/2000/svg">
<path d="M4.04616 21.6783L0.351562 8.58744H2.90199L5.26065 18.2075H5.3821L7.90057 8.58744H10.2209L12.7457 18.2139H12.8608L15.2195 8.58744H17.7699L14.0753 21.6783H11.7358L9.11506 12.493H9.01278L6.38565 21.6783H4.04616ZM22.4766 21.8701C21.4922 21.8701 20.6421 21.6656 19.9262 21.2565C19.2145 20.8431 18.6669 20.2593 18.2834 19.505C17.8999 18.7465 17.7081 17.8538 17.7081 16.8268C17.7081 15.8168 17.8999 14.9305 18.2834 14.1677C18.6712 13.4006 19.2124 12.8041 19.907 12.3779C20.6016 11.9475 21.4177 11.7323 22.3552 11.7323C22.9603 11.7323 23.5313 11.8303 24.0682 12.0264C24.6094 12.2181 25.0867 12.5164 25.5 12.9212C25.9177 13.3261 26.2458 13.8417 26.4844 14.4681C26.7231 15.0903 26.8424 15.8318 26.8424 16.6925V17.4021H18.7948V15.8424H24.6243C24.6201 15.3992 24.5242 15.005 24.3367 14.6599C24.1492 14.3104 23.8871 14.0356 23.5505 13.8353C23.2181 13.635 22.8303 13.5349 22.3871 13.5349C21.9141 13.5349 21.4986 13.6499 21.1407 13.88C20.7827 14.1059 20.5036 14.4042 20.3033 14.7749C20.1073 15.1414 20.0071 15.5441 20.0029 15.983V17.3445C20.0029 17.9156 20.1073 18.4056 20.3161 18.8147C20.5249 19.2195 20.8168 19.5306 21.1918 19.7479C21.5668 19.961 22.0057 20.0675 22.5086 20.0675C22.8452 20.0675 23.1499 20.0207 23.4226 19.9269C23.6954 19.8289 23.9319 19.6862 24.1321 19.4987C24.3324 19.3112 24.4837 19.0789 24.586 18.8019L26.7465 19.0448C26.6101 19.6158 26.3502 20.1144 25.9667 20.5406C25.5874 20.9624 25.1016 21.2906 24.5093 21.5249C23.9169 21.755 23.2394 21.8701 22.4766 21.8701ZM35.7301 21.8765C35.1079 21.8765 34.5475 21.7657 34.049 21.5441C33.5546 21.3183 33.1626 20.9859 32.8728 20.547C32.5873 20.108 32.4446 19.5668 32.4446 18.9234C32.4446 18.3694 32.5468 17.9113 32.7514 17.5491C32.9559 17.1869 33.235 16.8971 33.5887 16.6798C33.9424 16.4624 34.3409 16.2984 34.784 16.1876C35.2315 16.0725 35.6938 15.9894 36.1711 15.9383C36.7464 15.8786 37.213 15.8254 37.571 15.7785C37.9289 15.7274 38.1889 15.6506 38.3508 15.5484C38.517 15.4418 38.6001 15.2778 38.6001 15.0562V15.0178C38.6001 14.5363 38.4573 14.1634 38.1718 13.8992C37.8863 13.635 37.4751 13.5029 36.9382 13.5029C36.3714 13.5029 35.9218 13.6265 35.5894 13.8737C35.2613 14.1208 35.0397 14.4127 34.9247 14.7494L32.7642 14.4425C32.9346 13.846 33.2159 13.3474 33.6079 12.9468C33.9999 12.542 34.4794 12.2394 35.0461 12.0391C35.6129 11.8346 36.2393 11.7323 36.9254 11.7323C37.3984 11.7323 37.8693 11.7877 38.338 11.8985C38.8068 12.0093 39.235 12.1925 39.6228 12.4482C40.0106 12.6997 40.3217 13.0427 40.5561 13.4774C40.7947 13.912 40.914 14.4553 40.914 15.1073V21.6783H38.6896V20.3296H38.6129C38.4723 20.6024 38.2741 20.858 38.0184 21.0967C37.767 21.331 37.4495 21.5207 37.066 21.6656C36.6867 21.8062 36.2414 21.8765 35.7301 21.8765ZM36.3309 20.1762C36.7954 20.1762 37.1981 20.0846 37.539 19.9014C37.8799 19.7139 38.142 19.4667 38.3252 19.1599C38.5127 18.8531 38.6065 18.5185 38.6065 18.1563V16.9994C38.534 17.059 38.4105 17.1144 38.2357 17.1656C38.0653 17.2167 37.8735 17.2614 37.6605 17.2998C37.4474 17.3381 37.2365 17.3722 37.0276 17.4021C36.8188 17.4319 36.6377 17.4575 36.4843 17.4788C36.1392 17.5256 35.8302 17.6024 35.5575 17.7089C35.2848 17.8154 35.0696 17.9646 34.9119 18.1563C34.7542 18.3438 34.6754 18.5867 34.6754 18.885C34.6754 19.3112 34.8309 19.6329 35.142 19.8502C35.4531 20.0675 35.8494 20.1762 36.3309 20.1762ZM43.0607 21.6783V11.8602H45.3043V13.4965H45.4066C45.5856 12.9298 45.8924 12.493 46.3271 12.1862C46.766 11.8751 47.2667 11.7195 47.8292 11.7195C47.957 11.7195 48.0998 11.7259 48.2574 11.7387C48.4194 11.7472 48.5536 11.7622 48.6601 11.7835V13.912C48.5621 13.8779 48.4066 13.8481 48.1935 13.8225C47.9847 13.7927 47.7823 13.7778 47.5863 13.7778C47.1644 13.7778 46.7851 13.8694 46.4485 14.0526C46.1161 14.2316 45.854 14.4809 45.6623 14.8005C45.4705 15.1201 45.3746 15.4887 45.3746 15.9063V21.6783H43.0607ZM53.9597 21.8701C52.9754 21.8701 52.1252 21.6656 51.4093 21.2565C50.6977 20.8431 50.1501 20.2593 49.7665 19.505C49.383 18.7465 49.1913 17.8538 49.1913 16.8268C49.1913 15.8168 49.383 14.9305 49.7665 14.1677C50.1543 13.4006 50.6955 12.8041 51.3901 12.3779C52.0847 11.9475 52.9008 11.7323 53.8383 11.7323C54.4434 11.7323 55.0144 11.8303 55.5513 12.0264C56.0925 12.2181 56.5698 12.5164 56.9832 12.9212C57.4008 13.3261 57.7289 13.8417 57.9675 14.4681C58.2062 15.0903 58.3255 15.8318 58.3255 16.6925V17.4021H50.2779V15.8424H56.1075C56.1032 15.3992 56.0073 15.005 55.8198 14.6599C55.6323 14.3104 55.3702 14.0356 55.0336 13.8353C54.7012 13.635 54.3134 13.5349 53.8702 13.5349C53.3972 13.5349 52.9817 13.6499 52.6238 13.88C52.2658 14.1059 51.9867 14.4042 51.7864 14.7749C51.5904 15.1414 51.4903 15.5441 51.486 15.983V17.3445C51.486 17.9156 51.5904 18.4056 51.7992 18.8147C52.008 19.2195 52.2999 19.5306 52.6749 19.7479C53.0499 19.961 53.4888 20.0675 53.9917 20.0675C54.3283 20.0675 54.633 20.0207 54.9058 19.9269C55.1785 19.8289 55.415 19.6862 55.6153 19.4987C55.8156 19.3112 55.9668 19.0789 56.0691 18.8019L58.2296 19.0448C58.0933 19.6158 57.8333 20.1144 57.4498 20.5406C57.0705 20.9624 56.5847 21.2906 55.9924 21.5249C55.4001 21.755 54.7225 21.8701 53.9597 21.8701ZM64.4902 21.6783V8.58744H66.8041V13.4837H66.9C67.0193 13.2451 67.1876 12.9916 67.405 12.7231C67.6223 12.4504 67.9163 12.2181 68.2871 12.0264C68.6578 11.8303 69.1308 11.7323 69.7061 11.7323C70.4646 11.7323 71.1486 11.9262 71.7579 12.314C72.3716 12.6975 72.8574 13.2664 73.2153 14.0207C73.5775 14.7707 73.7586 15.6911 73.7586 16.782C73.7586 17.8602 73.5818 18.7764 73.2281 19.5306C72.8744 20.2849 72.3929 20.8602 71.7835 21.2565C71.1741 21.6528 70.4838 21.8509 69.7125 21.8509C69.15 21.8509 68.6834 21.7572 68.3126 21.5697C67.9419 21.3822 67.6436 21.1563 67.4177 20.8921C67.1961 20.6237 67.0236 20.3701 66.9 20.1315H66.7657V21.6783H64.4902ZM66.7594 16.7693C66.7594 17.4042 66.8488 17.9603 67.0278 18.4376C67.2111 18.9149 67.4731 19.2877 67.814 19.5562C68.1592 19.8204 68.5768 19.9525 69.0669 19.9525C69.5782 19.9525 70.0065 19.8161 70.3517 19.5434C70.6969 19.2664 70.9568 18.8893 71.1315 18.412C71.3105 17.9305 71.4 17.3829 71.4 16.7693C71.4 16.1599 71.3126 15.6187 71.1379 15.1457C70.9632 14.6727 70.7032 14.3019 70.3581 14.0335C70.0129 13.765 69.5825 13.6308 69.0669 13.6308C68.5726 13.6308 68.1528 13.7607 67.8077 14.0207C67.4625 14.2806 67.2004 14.645 67.0214 15.1137C66.8467 15.5825 66.7594 16.1343 66.7594 16.7693ZM79.8924 21.8701C78.908 21.8701 78.0579 21.6656 77.342 21.2565C76.6303 20.8431 76.0827 20.2593 75.6992 19.505C75.3157 18.7465 75.1239 17.8538 75.1239 16.8268C75.1239 15.8168 75.3157 14.9305 75.6992 14.1677C76.087 13.4006 76.6282 12.8041 77.3228 12.3779C78.0174 11.9475 78.8334 11.7323 79.7709 11.7323C80.376 11.7323 80.9471 11.8303 81.484 12.0264C82.0252 12.2181 82.5025 12.5164 82.9158 12.9212C83.3334 13.3261 83.6616 13.8417 83.9002 14.4681C84.1388 15.0903 84.2582 15.8318 84.2582 16.6925V17.4021H76.2106V15.8424H82.0401C82.0359 15.3992 81.94 15.005 81.7525 14.6599C81.565 14.3104 81.3029 14.0356 80.9662 13.8353C80.6339 13.635 80.2461 13.5349 79.8029 13.5349C79.3299 13.5349 78.9144 13.6499 78.5564 13.88C78.1985 14.1059 77.9194 14.4042 77.7191 14.7749C77.5231 15.1414 77.4229 15.5441 77.4187 15.983V17.3445C77.4187 17.9156 77.5231 18.4056 77.7319 18.8147C77.9407 19.2195 78.2326 19.5306 78.6076 19.7479C78.9826 19.961 79.4215 20.0675 79.9243 20.0675C80.261 20.0675 80.5657 20.0207 80.8384 19.9269C81.1111 19.8289 81.3476 19.6862 81.5479 19.4987C81.7482 19.3112 81.8995 19.0789 82.0018 18.8019L84.1623 19.0448C84.0259 19.6158 83.766 20.1144 83.3824 20.5406C83.0032 20.9624 82.5174 21.2906 81.9251 21.5249C81.3327 21.755 80.6552 21.8701 79.8924 21.8701ZM86.0357 21.6783V11.8602H88.3496V21.6783H86.0357ZM87.1991 10.4667C86.8326 10.4667 86.5172 10.3452 86.253 10.1024C85.9888 9.85519 85.8567 9.55903 85.8567 9.21386C85.8567 8.86442 85.9888 8.56826 86.253 8.32536C86.5172 8.0782 86.8326 7.95462 87.1991 7.95462C87.5698 7.95462 87.8851 8.0782 88.1451 8.32536C88.4093 8.56826 88.5414 8.86442 88.5414 9.21386C88.5414 9.55903 88.4093 9.85519 88.1451 10.1024C87.8851 10.3452 87.5698 10.4667 87.1991 10.4667ZM92.863 15.9255V21.6783H90.5491V11.8602H92.7607V13.5285H92.8758C93.1016 12.9788 93.4617 12.542 93.956 12.2181C94.4546 11.8943 95.0704 11.7323 95.8033 11.7323C96.4809 11.7323 97.0711 11.8772 97.5739 12.167C98.081 12.4568 98.4731 12.8765 98.7501 13.4262C99.0313 13.9759 99.1698 14.6428 99.1656 15.4269V21.6783H96.8516V15.7849C96.8516 15.1286 96.6812 14.6151 96.3403 14.2444C96.0036 13.8737 95.537 13.6883 94.9404 13.6883C94.5356 13.6883 94.1755 13.7778 93.8602 13.9568C93.5491 14.1315 93.304 14.385 93.1251 14.7174C92.9504 15.0498 92.863 15.4525 92.863 15.9255ZM105.608 25.5647C104.777 25.5647 104.063 25.4518 103.466 25.2259C102.87 25.0043 102.39 24.706 102.028 24.331C101.666 23.956 101.415 23.5406 101.274 23.0846L103.358 22.5796C103.451 22.7714 103.588 22.961 103.767 23.1485C103.946 23.3403 104.187 23.4979 104.489 23.6215C104.796 23.7494 105.182 23.8133 105.646 23.8133C106.302 23.8133 106.846 23.6535 107.276 23.3339C107.706 23.0185 107.922 22.4987 107.922 21.7742V19.9141H107.807C107.687 20.1528 107.513 20.3978 107.282 20.6492C107.057 20.9006 106.756 21.1116 106.381 21.282C106.01 21.4525 105.544 21.5377 104.981 21.5377C104.227 21.5377 103.543 21.3609 102.929 21.0072C102.32 20.6492 101.834 20.1166 101.472 19.4092C101.114 18.6975 100.935 17.8069 100.935 16.7373C100.935 15.6592 101.114 14.7494 101.472 14.0079C101.834 13.2622 102.322 12.6975 102.936 12.314C103.549 11.9262 104.233 11.7323 104.988 11.7323C105.563 11.7323 106.036 11.8303 106.407 12.0264C106.782 12.2181 107.08 12.4504 107.302 12.7231C107.523 12.9916 107.692 13.2451 107.807 13.4837H107.934V11.8602H110.216V21.8381C110.216 22.6776 110.016 23.3722 109.616 23.922C109.215 24.4717 108.667 24.8829 107.973 25.1556C107.278 25.4283 106.49 25.5647 105.608 25.5647ZM105.627 19.7224C106.117 19.7224 106.535 19.6031 106.88 19.3644C107.225 19.1258 107.487 18.7827 107.666 18.3353C107.845 17.8879 107.934 17.3509 107.934 16.7245C107.934 16.1066 107.845 15.5654 107.666 15.1009C107.491 14.6364 107.231 14.2764 106.886 14.0207C106.545 13.7607 106.125 13.6308 105.627 13.6308C105.111 13.6308 104.681 13.765 104.336 14.0335C103.991 14.3019 103.731 14.6705 103.556 15.1393C103.381 15.6038 103.294 16.1322 103.294 16.7245C103.294 17.3254 103.381 17.8516 103.556 18.3033C103.735 18.7508 103.997 19.1002 104.342 19.3516C104.692 19.5988 105.12 19.7224 105.627 19.7224ZM118.719 21.6783L115.945 11.8602H118.303L120.029 18.7636H120.119L121.883 11.8602H124.216L125.98 18.7252H126.076L127.776 11.8602H130.142L127.361 21.6783H124.951L123.11 15.0434H122.976L121.135 21.6783H118.719ZM134.402 21.8765C133.78 21.8765 133.22 21.7657 132.721 21.5441C132.227 21.3183 131.835 20.9859 131.545 20.547C131.26 20.108 131.117 19.5668 131.117 18.9234C131.117 18.3694 131.219 17.9113 131.424 17.5491C131.628 17.1869 131.907 16.8971 132.261 16.6798C132.615 16.4624 133.013 16.2984 133.456 16.1876C133.904 16.0725 134.366 15.9894 134.843 15.9383C135.419 15.8786 135.885 15.8254 136.243 15.7785C136.601 15.7274 136.861 15.6506 137.023 15.5484C137.189 15.4418 137.272 15.2778 137.272 15.0562V15.0178C137.272 14.5363 137.13 14.1634 136.844 13.8992C136.559 13.635 136.147 13.5029 135.611 13.5029C135.044 13.5029 134.594 13.6265 134.262 13.8737C133.934 14.1208 133.712 14.4127 133.597 14.7494L131.436 14.4425C131.607 13.846 131.888 13.3474 132.28 12.9468C132.672 12.542 133.152 12.2394 133.718 12.0391C134.285 11.8346 134.912 11.7323 135.598 11.7323C136.071 11.7323 136.542 11.7877 137.01 11.8985C137.479 12.0093 137.907 12.1925 138.295 12.4482C138.683 12.6997 138.994 13.0427 139.228 13.4774C139.467 13.912 139.586 14.4553 139.586 15.1073V21.6783H137.362V20.3296H137.285C137.145 20.6024 136.946 20.858 136.691 21.0967C136.439 21.331 136.122 21.5207 135.738 21.6656C135.359 21.8062 134.914 21.8765 134.402 21.8765ZM135.003 20.1762C135.468 20.1762 135.87 20.0846 136.211 19.9014C136.552 19.7139 136.814 19.4667 136.998 19.1599C137.185 18.8531 137.279 18.5185 137.279 18.1563V16.9994C137.206 17.059 137.083 17.1144 136.908 17.1656C136.738 17.2167 136.546 17.2614 136.333 17.2998C136.12 17.3381 135.909 17.3722 135.7 17.4021C135.491 17.4319 135.31 17.4575 135.157 17.4788C134.811 17.5256 134.503 17.6024 134.23 17.7089C133.957 17.8154 133.742 17.9646 133.584 18.1563C133.427 18.3438 133.348 18.5867 133.348 18.885C133.348 19.3112 133.503 19.6329 133.814 19.8502C134.125 20.0675 134.522 20.1762 135.003 20.1762ZM146.636 11.8602V13.6499H140.992V11.8602H146.636ZM142.385 9.50789H144.699V18.7252C144.699 19.0363 144.746 19.2749 144.84 19.4411C144.938 19.6031 145.065 19.7139 145.223 19.7735C145.381 19.8332 145.556 19.863 145.747 19.863C145.892 19.863 146.024 19.8524 146.144 19.831C146.267 19.8097 146.361 19.7906 146.425 19.7735L146.815 21.5825C146.691 21.6251 146.514 21.672 146.284 21.7231C146.058 21.7742 145.781 21.8041 145.453 21.8126C144.874 21.8296 144.352 21.7423 143.887 21.5505C143.423 21.3545 143.054 21.0519 142.781 20.6428C142.513 20.2337 142.381 19.7224 142.385 19.1087V9.50789ZM152.568 21.8701C151.588 21.8701 150.746 21.6549 150.043 21.2245C149.344 20.7941 148.805 20.1997 148.426 19.4411C148.051 18.6783 147.864 17.8005 147.864 16.8076C147.864 15.8104 148.055 14.9305 148.439 14.1677C148.822 13.4006 149.364 12.8041 150.062 12.3779C150.766 11.9475 151.597 11.7323 152.555 11.7323C153.352 11.7323 154.057 11.8793 154.671 12.1734C155.289 12.4631 155.781 12.8744 156.148 13.407C156.514 13.9354 156.723 14.5533 156.774 15.2607H154.562C154.473 14.7877 154.26 14.3935 153.923 14.0782C153.591 13.7586 153.146 13.5988 152.587 13.5988C152.114 13.5988 151.699 13.7266 151.341 13.9823C150.983 14.2337 150.704 14.596 150.504 15.069C150.307 15.542 150.209 16.1087 150.209 16.7693C150.209 17.4383 150.307 18.0136 150.504 18.4951C150.7 18.9724 150.974 19.341 151.328 19.6009C151.686 19.8566 152.106 19.9845 152.587 19.9845C152.928 19.9845 153.233 19.9205 153.501 19.7927C153.774 19.6606 154.002 19.471 154.185 19.2238C154.369 18.9766 154.494 18.6762 154.562 18.3225H156.774C156.719 19.0171 156.514 19.6329 156.16 20.1698C155.807 20.7025 155.325 21.1201 154.716 21.4227C154.107 21.721 153.391 21.8701 152.568 21.8701ZM160.808 15.9255V21.6783H158.494V8.58744H160.757V13.5285H160.872C161.102 12.9745 161.458 12.5377 161.939 12.2181C162.425 11.8943 163.043 11.7323 163.793 11.7323C164.475 11.7323 165.069 11.8751 165.577 12.1606C166.084 12.4461 166.476 12.8637 166.753 13.4134C167.034 13.9631 167.175 14.6343 167.175 15.4269V21.6783H164.861V15.7849C164.861 15.1244 164.69 14.6109 164.349 14.2444C164.013 13.8737 163.54 13.6883 162.93 13.6883C162.521 13.6883 162.155 13.7778 161.831 13.9568C161.511 14.1315 161.26 14.385 161.077 14.7174C160.898 15.0498 160.808 15.4525 160.808 15.9255ZM173.7 21.8701C172.715 21.8701 171.865 21.6656 171.149 21.2565C170.438 20.8431 169.89 20.2593 169.507 19.505C169.123 18.7465 168.931 17.8538 168.931 16.8268C168.931 15.8168 169.123 14.9305 169.507 14.1677C169.894 13.4006 170.436 12.8041 171.13 12.3779C171.825 11.9475 172.641 11.7323 173.578 11.7323C174.183 11.7323 174.754 11.8303 175.291 12.0264C175.833 12.2181 176.31 12.5164 176.723 12.9212C177.141 13.3261 177.469 13.8417 177.708 14.4681C177.946 15.0903 178.066 15.8318 178.066 16.6925V17.4021H170.018V15.8424H175.848C175.843 15.3992 175.747 15.005 175.56 14.6599C175.372 14.3104 175.11 14.0356 174.774 13.8353C174.441 13.635 174.053 13.5349 173.61 13.5349C173.137 13.5349 172.722 13.6499 172.364 13.88C172.006 14.1059 171.727 14.4042 171.527 14.7749C171.33 15.1414 171.23 15.5441 171.226 15.983V17.3445C171.226 17.9156 171.33 18.4056 171.539 18.8147C171.748 19.2195 172.04 19.5306 172.415 19.7479C172.79 19.961 173.229 20.0675 173.732 20.0675C174.068 20.0675 174.373 20.0207 174.646 19.9269C174.919 19.8289 175.155 19.6862 175.355 19.4987C175.556 19.3112 175.707 19.0789 175.809 18.8019L177.97 19.0448C177.833 19.6158 177.573 20.1144 177.19 20.5406C176.811 20.9624 176.325 21.2906 175.732 21.5249C175.14 21.755 174.463 21.8701 173.7 21.8701ZM183.487 21.8509C182.715 21.8509 182.025 21.6528 181.416 21.2565C180.806 20.8602 180.325 20.2849 179.971 19.5306C179.617 18.7764 179.44 17.8602 179.44 16.782C179.44 15.6911 179.619 14.7707 179.977 14.0207C180.34 13.2664 180.828 12.6975 181.441 12.314C182.055 11.9262 182.739 11.7323 183.493 11.7323C184.068 11.7323 184.541 11.8303 184.912 12.0264C185.283 12.2181 185.577 12.4504 185.794 12.7231C186.011 12.9916 186.18 13.2451 186.299 13.4837H186.395V8.58744H188.715V21.6783H186.44V20.1315H186.299C186.18 20.3701 186.007 20.6237 185.781 20.8921C185.555 21.1563 185.257 21.3822 184.886 21.5697C184.516 21.7572 184.049 21.8509 183.487 21.8509ZM184.132 19.9525C184.622 19.9525 185.04 19.8204 185.385 19.5562C185.73 19.2877 185.992 18.9149 186.171 18.4376C186.35 17.9603 186.44 17.4042 186.44 16.7693C186.44 16.1343 186.35 15.5825 186.171 15.1137C185.997 14.645 185.737 14.2806 185.391 14.0207C185.051 13.7607 184.631 13.6308 184.132 13.6308C183.617 13.6308 183.186 13.765 182.841 14.0335C182.496 14.3019 182.236 14.6727 182.061 15.1457C181.886 15.6187 181.799 16.1599 181.799 16.7693C181.799 17.3829 181.886 17.9305 182.061 18.412C182.24 18.8893 182.502 19.2664 182.847 19.5434C183.197 19.8161 183.625 19.9525 184.132 19.9525ZM192.426 21.819C192.039 21.819 191.706 21.6826 191.429 21.4099C191.152 21.1372 191.016 20.8048 191.02 20.4127C191.016 20.0292 191.152 19.7011 191.429 19.4283C191.706 19.1556 192.039 19.0193 192.426 19.0193C192.801 19.0193 193.127 19.1556 193.404 19.4283C193.686 19.7011 193.828 20.0292 193.833 20.4127C193.828 20.6727 193.76 20.9092 193.628 21.1222C193.5 21.3353 193.33 21.5058 193.117 21.6336C192.908 21.7572 192.678 21.819 192.426 21.819ZM192.426 14.8133C192.039 14.8133 191.706 14.6769 191.429 14.4042C191.152 14.1272 191.016 13.7948 191.02 13.407C191.016 13.0235 191.152 12.6954 191.429 12.4227C191.706 12.1457 192.039 12.0072 192.426 12.0072C192.801 12.0072 193.127 12.1457 193.404 12.4227C193.686 12.6954 193.828 13.0235 193.833 13.407C193.828 13.6627 193.76 13.8971 193.628 14.1102C193.5 14.3232 193.33 14.4937 193.117 14.6215C192.908 14.7494 192.678 14.8133 192.426 14.8133Z" fill="#1E222E"/>
<path d="M6.0992 61.8374C5.3189 61.8374 4.62193 61.703 4.00829 61.434C3.39845 61.1651 2.91549 60.792 2.55943 60.3147C2.20716 59.8336 2.01776 59.2768 1.99125 58.6443H3.77534C3.79807 58.989 3.9136 59.2882 4.12193 59.542C4.33405 59.792 4.61057 59.9852 4.95148 60.1215C5.29239 60.2579 5.67117 60.3261 6.08784 60.3261C6.54617 60.3261 6.95148 60.2465 7.30375 60.0874C7.65981 59.9283 7.93822 59.7068 8.13898 59.4227C8.33973 59.1348 8.44011 58.8033 8.44011 58.4283C8.44011 58.0382 8.33973 57.6954 8.13898 57.3999C7.94201 57.1007 7.65223 56.8658 7.26966 56.6954C6.89087 56.5249 6.43254 56.4397 5.89466 56.4397H4.9117V55.0079H5.89466C6.32648 55.0079 6.70526 54.9302 7.03102 54.7749C7.36057 54.6196 7.61814 54.4037 7.80375 54.1272C7.98936 53.8469 8.08216 53.5193 8.08216 53.1443C8.08216 52.7844 8.00072 52.4719 7.83784 52.2068C7.67875 51.9378 7.45148 51.7276 7.15602 51.5761C6.86436 51.4246 6.51966 51.3488 6.12193 51.3488C5.74314 51.3488 5.38898 51.4189 5.05943 51.559C4.73367 51.6954 4.46852 51.8924 4.26398 52.1499C4.05943 52.4037 3.94958 52.7086 3.93443 53.0647H2.23557C2.25451 52.4359 2.44011 51.8829 2.79239 51.4056C3.14845 50.9283 3.61814 50.5552 4.20148 50.2863C4.78481 50.0174 5.43254 49.8829 6.14466 49.8829C6.89087 49.8829 7.53481 50.0287 8.07648 50.3204C8.62193 50.6083 9.04239 50.9927 9.33784 51.4738C9.63708 51.9549 9.78481 52.4814 9.78102 53.0533C9.78481 53.7049 9.60299 54.2579 9.23557 54.7124C8.87193 55.167 8.38708 55.4719 7.78102 55.6272V55.7181C8.55375 55.8355 9.15223 56.1424 9.57648 56.6386C10.0045 57.1348 10.2166 57.7503 10.2128 58.4852C10.2166 59.1253 10.0386 59.6992 9.67875 60.2068C9.32269 60.7143 8.83595 61.114 8.21852 61.4056C7.6011 61.6935 6.89466 61.8374 6.0992 61.8374ZM11.6362 59.4056V57.9852L16.6647 50.042H17.784V52.1329H17.0737L13.4772 57.8261V57.917H20.3692V59.4056H11.6362ZM17.1533 61.6783V58.9738L17.1647 58.3261V50.042H18.8294V61.6783H17.1533ZM27.9432 59.4965V58.8829C27.9432 58.4435 28.0341 58.042 28.2159 57.6783C28.4015 57.3109 28.6705 57.0174 29.0227 56.7977C29.3788 56.5742 29.8087 56.4624 30.3125 56.4624C30.8277 56.4624 31.2595 56.5723 31.608 56.792C31.9564 57.0117 32.2197 57.3052 32.3977 57.6727C32.5795 58.0401 32.6705 58.4435 32.6705 58.8829V59.4965C32.6705 59.9359 32.5795 60.3393 32.3977 60.7068C32.2159 61.0704 31.9489 61.364 31.5966 61.5874C31.2481 61.8071 30.8201 61.917 30.3125 61.917C29.8011 61.917 29.3693 61.8071 29.017 61.5874C28.6648 61.364 28.3977 61.0704 28.2159 60.7068C28.0341 60.3393 27.9432 59.9359 27.9432 59.4965ZM29.267 58.8829V59.4965C29.267 59.8223 29.3447 60.1177 29.5 60.3829C29.6553 60.648 29.9261 60.7806 30.3125 60.7806C30.6951 60.7806 30.9621 60.648 31.1136 60.3829C31.2652 60.1177 31.3409 59.8223 31.3409 59.4965V58.8829C31.3409 58.5571 31.267 58.2617 31.1193 57.9965C30.9754 57.7314 30.7064 57.5988 30.3125 57.5988C29.9337 57.5988 29.6648 57.7314 29.5057 57.9965C29.3466 58.2617 29.267 58.5571 29.267 58.8829ZM22.0909 52.8374V52.2238C22.0909 51.7844 22.1818 51.381 22.3636 51.0136C22.5492 50.6461 22.8182 50.3526 23.1705 50.1329C23.5265 49.9132 23.9564 49.8033 24.4602 49.8033C24.9754 49.8033 25.4072 49.9132 25.7557 50.1329C26.1042 50.3526 26.3674 50.6461 26.5455 51.0136C26.7235 51.381 26.8125 51.7844 26.8125 52.2238V52.8374C26.8125 53.2768 26.7216 53.6802 26.5398 54.0477C26.3617 54.4113 26.0966 54.7049 25.7443 54.9283C25.3958 55.148 24.9678 55.2579 24.4602 55.2579C23.9451 55.2579 23.5114 55.148 23.1591 54.9283C22.8106 54.7049 22.5455 54.4113 22.3636 54.0477C22.1818 53.6802 22.0909 53.2768 22.0909 52.8374ZM23.4205 52.2238V52.8374C23.4205 53.1632 23.4962 53.4586 23.6477 53.7238C23.803 53.989 24.0739 54.1215 24.4602 54.1215C24.839 54.1215 25.1042 53.989 25.2557 53.7238C25.411 53.4586 25.4886 53.1632 25.4886 52.8374V52.2238C25.4886 51.898 25.4148 51.6026 25.267 51.3374C25.1193 51.0723 24.8504 50.9397 24.4602 50.9397C24.0814 50.9397 23.8125 51.0723 23.6534 51.3374C23.4981 51.6026 23.4205 51.898 23.4205 52.2238ZM22.6307 61.6783L30.6307 50.042H31.9886L23.9886 61.6783H22.6307Z" fill="#1E222E"/>
<path d="M47.8011 50.042H49.5511V58.292C49.5511 59.0382 49.4034 59.6765 49.108 60.2068C48.8163 60.7371 48.4053 61.1424 47.875 61.4227C47.3447 61.6992 46.7235 61.8374 46.0114 61.8374C45.3561 61.8374 44.767 61.7181 44.2443 61.4795C43.7254 61.2408 43.3144 60.8943 43.0114 60.4397C42.7121 59.9814 42.5625 59.4246 42.5625 58.7693H44.3068C44.3068 59.0912 44.3807 59.3696 44.5284 59.6045C44.6799 59.8393 44.8864 60.023 45.1477 60.1556C45.4129 60.2844 45.7159 60.3488 46.0568 60.3488C46.428 60.3488 46.7424 60.2711 47 60.1158C47.2614 59.9568 47.4602 59.7238 47.5966 59.417C47.733 59.1102 47.8011 58.7352 47.8011 58.292V50.042ZM58.1331 53.0988C58.0725 52.5609 57.8225 52.1443 57.3831 51.8488C56.9437 51.5496 56.3907 51.3999 55.724 51.3999C55.2468 51.3999 54.8339 51.4757 54.4854 51.6272C54.1369 51.7749 53.8661 51.9795 53.6729 52.2408C53.4835 52.4984 53.3888 52.792 53.3888 53.1215C53.3888 53.398 53.4532 53.6367 53.582 53.8374C53.7146 54.0382 53.8869 54.2068 54.099 54.3431C54.3149 54.4757 54.546 54.5874 54.7922 54.6783C55.0384 54.7655 55.2752 54.8374 55.5024 54.8943L56.6388 55.1897C57.01 55.2806 57.3907 55.4037 57.7809 55.559C58.171 55.7143 58.5327 55.9189 58.8661 56.1727C59.1994 56.4265 59.4684 56.7408 59.6729 57.1158C59.8812 57.4908 59.9854 57.9397 59.9854 58.4624C59.9854 59.1215 59.8149 59.7068 59.474 60.2181C59.1369 60.7295 58.6464 61.1329 58.0024 61.4283C57.3623 61.7238 56.5877 61.8715 55.6786 61.8715C54.8074 61.8715 54.0536 61.7333 53.4172 61.4568C52.7809 61.1802 52.2827 60.7882 51.9229 60.2806C51.563 59.7693 51.3642 59.1632 51.3263 58.4624H53.0877C53.1218 58.8829 53.2581 59.2333 53.4968 59.5136C53.7392 59.7901 54.0479 59.9965 54.4229 60.1329C54.8017 60.2655 55.2165 60.3318 55.6672 60.3318C56.1634 60.3318 56.6047 60.2541 56.9911 60.0988C57.3812 59.9397 57.688 59.72 57.9115 59.4397C58.135 59.1556 58.2468 58.8242 58.2468 58.4454C58.2468 58.1007 58.1483 57.8185 57.9513 57.5988C57.7581 57.3791 57.4949 57.1973 57.1615 57.0533C56.832 56.9094 56.4589 56.7825 56.0422 56.6727L54.6672 56.2977C53.7354 56.0439 52.9968 55.6708 52.4513 55.1783C51.9096 54.6859 51.6388 54.0344 51.6388 53.2238C51.6388 52.5533 51.8206 51.9681 52.1843 51.4681C52.5479 50.9681 53.0403 50.5799 53.6615 50.3033C54.2827 50.023 54.9835 49.8829 55.7638 49.8829C56.5517 49.8829 57.2468 50.0211 57.849 50.2977C58.4551 50.5742 58.9324 50.9549 59.2809 51.4397C59.6293 51.9208 59.8112 52.4738 59.8263 53.0988H58.1331ZM69.9732 49.4965L66.2232 63.4283H64.7062L68.4562 49.4965H69.9732ZM74.5733 51.5533V50.042H83.579V51.5533H79.9483V61.6783H78.1983V51.5533H74.5733ZM85.1865 64.9511C84.9327 64.9511 84.7017 64.9302 84.4934 64.8886C84.285 64.8507 84.1297 64.809 84.0274 64.7636L84.4365 63.3715C84.7471 63.4549 85.0237 63.4908 85.2661 63.4795C85.5085 63.4681 85.7225 63.3772 85.9081 63.2068C86.0975 63.0363 86.2642 62.7579 86.4081 62.3715L86.6184 61.792L83.4252 52.9511H85.2434L87.4536 59.7238H87.5445L89.7547 52.9511H91.5786L87.982 62.8431C87.8153 63.2977 87.6032 63.6821 87.3456 63.9965C87.0881 64.3147 86.7812 64.5533 86.4252 64.7124C86.0691 64.8715 85.6562 64.9511 85.1865 64.9511ZM92.8552 64.9511V52.9511H94.5143V54.3658H94.6563C94.7548 54.184 94.8968 53.9738 95.0824 53.7352C95.268 53.4965 95.5256 53.2882 95.8552 53.1102C96.1847 52.9283 96.6203 52.8374 97.162 52.8374C97.8665 52.8374 98.4953 53.0155 99.0484 53.3715C99.6014 53.7276 100.035 54.2408 100.349 54.9113C100.668 55.5818 100.827 56.3886 100.827 57.3318C100.827 58.2749 100.67 59.0836 100.355 59.7579C100.041 60.4283 99.609 60.9454 99.0597 61.309C98.5105 61.6689 97.8836 61.8488 97.179 61.8488C96.6487 61.8488 96.215 61.7598 95.8779 61.5818C95.5446 61.4037 95.2832 61.1954 95.0938 60.9568C94.9044 60.7181 94.7586 60.506 94.6563 60.3204H94.554V64.9511H92.8552ZM94.5199 57.3147C94.5199 57.9283 94.609 58.4662 94.787 58.9283C94.965 59.3905 95.2226 59.7522 95.5597 60.0136C95.8968 60.2711 96.3097 60.3999 96.7984 60.3999C97.3059 60.3999 97.7302 60.2655 98.0711 59.9965C98.412 59.7238 98.6696 59.3545 98.8438 58.8886C99.0218 58.4227 99.1109 57.898 99.1109 57.3147C99.1109 56.739 99.0237 56.2219 98.8495 55.7636C98.679 55.3052 98.4215 54.9435 98.0768 54.6783C97.7359 54.4132 97.3097 54.2806 96.7984 54.2806C96.3059 54.2806 95.8893 54.4075 95.5484 54.6613C95.2112 54.9151 94.9555 55.2693 94.7813 55.7238C94.6071 56.1783 94.5199 56.7086 94.5199 57.3147ZM106.172 61.8545C105.312 61.8545 104.571 61.6708 103.95 61.3033C103.333 60.9321 102.855 60.4113 102.518 59.7408C102.185 59.0666 102.018 58.2768 102.018 57.3715C102.018 56.4776 102.185 55.6897 102.518 55.0079C102.855 54.3261 103.325 53.7939 103.927 53.4113C104.533 53.0287 105.242 52.8374 106.052 52.8374C106.545 52.8374 107.022 52.9189 107.484 53.0818C107.946 53.2446 108.361 53.5003 108.728 53.8488C109.096 54.1973 109.386 54.6499 109.598 55.2068C109.81 55.7598 109.916 56.4321 109.916 57.2238V57.8261H102.978V56.5533H108.251C108.251 56.1064 108.16 55.7105 107.978 55.3658C107.797 55.0174 107.541 54.7427 107.211 54.542C106.886 54.3412 106.503 54.2408 106.064 54.2408C105.586 54.2408 105.17 54.3583 104.814 54.5931C104.461 54.8242 104.189 55.1272 103.995 55.5022C103.806 55.8734 103.711 56.2768 103.711 56.7124V57.7068C103.711 58.2901 103.814 58.7863 104.018 59.1954C104.226 59.6045 104.516 59.917 104.887 60.1329C105.259 60.345 105.692 60.4511 106.189 60.4511C106.511 60.4511 106.804 60.4056 107.069 60.3147C107.334 60.22 107.564 60.0799 107.757 59.8943C107.95 59.7086 108.098 59.4795 108.2 59.2068L109.808 59.4965C109.679 59.97 109.448 60.3848 109.115 60.7408C108.785 61.0931 108.37 61.3677 107.87 61.5647C107.374 61.7579 106.808 61.8545 106.172 61.8545ZM118.021 55.0818L116.481 55.3545C116.416 55.1575 116.314 54.97 116.174 54.792C116.038 54.614 115.852 54.4681 115.617 54.3545C115.382 54.2408 115.089 54.184 114.736 54.184C114.255 54.184 113.854 54.292 113.532 54.5079C113.21 54.72 113.049 54.9946 113.049 55.3318C113.049 55.6234 113.157 55.8583 113.373 56.0363C113.589 56.2143 113.937 56.3602 114.418 56.4738L115.805 56.792C116.608 56.9776 117.206 57.2636 117.6 57.6499C117.994 58.0363 118.191 58.5382 118.191 59.1556C118.191 59.6783 118.04 60.1443 117.736 60.5533C117.437 60.9586 117.019 61.2768 116.481 61.5079C115.947 61.739 115.327 61.8545 114.623 61.8545C113.646 61.8545 112.848 61.6461 112.231 61.2295C111.613 60.809 111.235 60.2124 111.094 59.4397L112.736 59.1897C112.839 59.6177 113.049 59.9416 113.367 60.1613C113.685 60.3772 114.1 60.4852 114.611 60.4852C115.168 60.4852 115.613 60.3696 115.947 60.1386C116.28 59.9037 116.447 59.6177 116.447 59.2806C116.447 59.0079 116.344 58.7787 116.14 58.5931C115.939 58.4075 115.63 58.2674 115.214 58.1727L113.736 57.8488C112.922 57.6632 112.32 57.3677 111.93 56.9624C111.543 56.5571 111.35 56.0439 111.35 55.4227C111.35 54.9075 111.494 54.4568 111.782 54.0704C112.07 53.684 112.468 53.3829 112.975 53.167C113.483 52.9473 114.064 52.8374 114.719 52.8374C115.663 52.8374 116.405 53.042 116.947 53.4511C117.488 53.8564 117.846 54.3999 118.021 55.0818ZM123.415 61.8545C122.57 61.8545 121.843 61.6632 121.233 61.2806C120.627 60.8943 120.161 60.3621 119.836 59.684C119.51 59.006 119.347 58.2295 119.347 57.3545C119.347 56.4681 119.514 55.6859 119.847 55.0079C120.18 54.3261 120.65 53.7939 121.256 53.4113C121.862 53.0287 122.576 52.8374 123.398 52.8374C124.061 52.8374 124.652 52.9605 125.171 53.2068C125.69 53.4492 126.108 53.7901 126.426 54.2295C126.748 54.6689 126.94 55.1821 127 55.7693H125.347C125.256 55.3602 125.048 55.0079 124.722 54.7124C124.4 54.417 123.968 54.2693 123.426 54.2693C122.953 54.2693 122.538 54.3943 122.182 54.6443C121.83 54.8905 121.555 55.2427 121.358 55.7011C121.161 56.1556 121.063 56.6935 121.063 57.3147C121.063 57.9511 121.159 58.5003 121.353 58.9624C121.546 59.4246 121.818 59.7825 122.171 60.0363C122.527 60.2901 122.945 60.417 123.426 60.417C123.748 60.417 124.04 60.3583 124.301 60.2408C124.567 60.1196 124.788 59.9473 124.966 59.7238C125.148 59.5003 125.275 59.2314 125.347 58.917H127C126.94 59.4814 126.756 59.9852 126.449 60.4283C126.142 60.8715 125.731 61.22 125.216 61.4738C124.705 61.7276 124.104 61.8545 123.415 61.8545ZM128.497 61.6783V52.9511H130.139V54.3374H130.23C130.389 53.8677 130.669 53.4984 131.071 53.2295C131.476 52.9568 131.935 52.8204 132.446 52.8204C132.552 52.8204 132.677 52.8242 132.821 52.8318C132.969 52.8393 133.084 52.8488 133.168 52.8602V54.4852C133.099 54.4662 132.978 54.4454 132.804 54.4227C132.63 54.3961 132.455 54.3829 132.281 54.3829C131.88 54.3829 131.522 54.4681 131.207 54.6386C130.897 54.8052 130.65 55.0382 130.469 55.3374C130.287 55.6329 130.196 55.97 130.196 56.3488V61.6783H128.497ZM134.318 61.6783V52.9511H136.017V61.6783H134.318ZM135.176 51.6045C134.88 51.6045 134.626 51.506 134.414 51.309C134.206 51.1083 134.102 50.8696 134.102 50.5931C134.102 50.3128 134.206 50.0742 134.414 49.8772C134.626 49.6765 134.88 49.5761 135.176 49.5761C135.471 49.5761 135.723 49.6765 135.931 49.8772C136.143 50.0742 136.249 50.3128 136.249 50.5931C136.249 50.8696 136.143 51.1083 135.931 51.309C135.723 51.506 135.471 51.6045 135.176 51.6045ZM137.982 64.9511V52.9511H139.641V54.3658H139.783C139.882 54.184 140.024 53.9738 140.209 53.7352C140.395 53.4965 140.652 53.2882 140.982 53.1102C141.312 52.9283 141.747 52.8374 142.289 52.8374C142.993 52.8374 143.622 53.0155 144.175 53.3715C144.728 53.7276 145.162 54.2408 145.476 54.9113C145.795 55.5818 145.954 56.3886 145.954 57.3318C145.954 58.2749 145.796 59.0836 145.482 59.7579C145.168 60.4283 144.736 60.9454 144.187 61.309C143.637 61.6689 143.01 61.8488 142.306 61.8488C141.776 61.8488 141.342 61.7598 141.005 61.5818C140.671 61.4037 140.41 61.1954 140.221 60.9568C140.031 60.7181 139.885 60.506 139.783 60.3204H139.681V64.9511H137.982ZM139.647 57.3147C139.647 57.9283 139.736 58.4662 139.914 58.9283C140.092 59.3905 140.349 59.7522 140.687 60.0136C141.024 60.2711 141.437 60.3999 141.925 60.3999C142.433 60.3999 142.857 60.2655 143.198 59.9965C143.539 59.7238 143.796 59.3545 143.971 58.8886C144.149 58.4227 144.238 57.898 144.238 57.3147C144.238 56.739 144.151 56.2219 143.976 55.7636C143.806 55.3052 143.548 54.9435 143.204 54.6783C142.863 54.4132 142.437 54.2806 141.925 54.2806C141.433 54.2806 141.016 54.4075 140.675 54.6613C140.338 54.9151 140.082 55.2693 139.908 55.7238C139.734 56.1783 139.647 56.7086 139.647 57.3147ZM151.611 52.9511V54.3147H146.844V52.9511H151.611ZM148.122 50.8602H149.821V59.1158C149.821 59.4454 149.87 59.6935 149.969 59.8602C150.067 60.023 150.194 60.1348 150.35 60.1954C150.509 60.2522 150.681 60.2806 150.867 60.2806C151.003 60.2806 151.122 60.2711 151.225 60.2522C151.327 60.2333 151.406 60.2181 151.463 60.2068L151.77 61.6102C151.672 61.648 151.531 61.6859 151.35 61.7238C151.168 61.7655 150.94 61.7882 150.668 61.792C150.221 61.7996 149.804 61.72 149.418 61.5533C149.031 61.3867 148.719 61.1291 148.48 60.7806C148.242 60.4321 148.122 59.9946 148.122 59.4681V50.8602ZM161.516 49.4965L157.766 63.4283H156.249L159.999 49.4965H161.516ZM52.6705 72.042V83.6783H51.0568L45.142 75.1443H45.0341V83.6783H43.2784V72.042H44.9034L50.8239 80.5874H50.9318V72.042H52.6705ZM58.4513 83.8545C57.6331 83.8545 56.9191 83.667 56.3093 83.292C55.6994 82.917 55.2259 82.3924 54.8888 81.7181C54.5517 81.0439 54.3831 80.256 54.3831 79.3545C54.3831 78.4492 54.5517 77.6575 54.8888 76.9795C55.2259 76.3015 55.6994 75.7749 56.3093 75.3999C56.9191 75.0249 57.6331 74.8374 58.4513 74.8374C59.2695 74.8374 59.9835 75.0249 60.5934 75.3999C61.2032 75.7749 61.6767 76.3015 62.0138 76.9795C62.3509 77.6575 62.5195 78.4492 62.5195 79.3545C62.5195 80.256 62.3509 81.0439 62.0138 81.7181C61.6767 82.3924 61.2032 82.917 60.5934 83.292C59.9835 83.667 59.2695 83.8545 58.4513 83.8545ZM58.457 82.4283C58.9873 82.4283 59.4267 82.2882 59.7752 82.0079C60.1237 81.7276 60.3812 81.3545 60.5479 80.8886C60.7184 80.4227 60.8036 79.9094 60.8036 79.3488C60.8036 78.792 60.7184 78.2806 60.5479 77.8147C60.3812 77.345 60.1237 76.9681 59.7752 76.684C59.4267 76.3999 58.9873 76.2579 58.457 76.2579C57.9229 76.2579 57.4797 76.3999 57.1274 76.684C56.779 76.9681 56.5195 77.345 56.349 77.8147C56.1824 78.2806 56.099 78.792 56.099 79.3488C56.099 79.9094 56.1824 80.4227 56.349 80.8886C56.5195 81.3545 56.779 81.7276 57.1274 82.0079C57.4797 82.2882 57.9229 82.4283 58.457 82.4283ZM67.3628 83.8488C66.6583 83.8488 66.0295 83.6689 65.4765 83.309C64.9272 82.9454 64.4954 82.4283 64.181 81.7579C63.8704 81.0836 63.7151 80.2749 63.7151 79.3318C63.7151 78.3886 63.8723 77.5818 64.1867 76.9113C64.5049 76.2408 64.9405 75.7276 65.4935 75.3715C66.0466 75.0155 66.6734 74.8374 67.3742 74.8374C67.9159 74.8374 68.3515 74.9283 68.681 75.1102C69.0144 75.2882 69.2719 75.4965 69.4538 75.7352C69.6394 75.9738 69.7833 76.184 69.8856 76.3658H69.9878V72.042H71.6867V83.6783H70.0276V82.3204H69.8856C69.7833 82.506 69.6356 82.7181 69.4424 82.9568C69.253 83.1954 68.9916 83.4037 68.6583 83.5818C68.325 83.7598 67.8931 83.8488 67.3628 83.8488ZM67.7378 82.3999C68.2265 82.3999 68.6394 82.2711 68.9765 82.0136C69.3174 81.7522 69.575 81.3905 69.7492 80.9283C69.9272 80.4662 70.0163 79.9283 70.0163 79.3147C70.0163 78.7086 69.9291 78.1783 69.7549 77.7238C69.5806 77.2693 69.325 76.9151 68.9878 76.6613C68.6507 76.4075 68.2341 76.2806 67.7378 76.2806C67.2265 76.2806 66.8003 76.4132 66.4594 76.6783C66.1185 76.9435 65.8609 77.3052 65.6867 77.7636C65.5163 78.2219 65.431 78.739 65.431 79.3147C65.431 79.898 65.5181 80.4227 65.6924 80.8886C65.8666 81.3545 66.1242 81.7238 66.4651 81.9965C66.8098 82.2655 67.2341 82.3999 67.7378 82.3999ZM77.5528 83.8545C76.6929 83.8545 75.9524 83.6708 75.3312 83.3033C74.7138 82.9321 74.2365 82.4113 73.8994 81.7408C73.566 81.0666 73.3994 80.2768 73.3994 79.3715C73.3994 78.4776 73.566 77.6897 73.8994 77.0079C74.2365 76.3261 74.7062 75.7939 75.3085 75.4113C75.9145 75.0287 76.6229 74.8374 77.4335 74.8374C77.9259 74.8374 78.4032 74.9189 78.8653 75.0818C79.3274 75.2446 79.7422 75.5003 80.1096 75.8488C80.477 76.1973 80.7668 76.6499 80.9789 77.2068C81.191 77.7598 81.2971 78.4321 81.2971 79.2238V79.8261H74.3596V78.5533H79.6323C79.6323 78.1064 79.5414 77.7105 79.3596 77.3658C79.1778 77.0174 78.9221 76.7427 78.5926 76.542C78.2668 76.3412 77.8842 76.2408 77.4448 76.2408C76.9676 76.2408 76.5509 76.3583 76.1948 76.5931C75.8426 76.8242 75.5698 77.1272 75.3766 77.5022C75.1873 77.8734 75.0926 78.2768 75.0926 78.7124V79.7068C75.0926 80.2901 75.1948 80.7863 75.3994 81.1954C75.6077 81.6045 75.8975 81.917 76.2687 82.1329C76.6399 82.345 77.0736 82.4511 77.5698 82.4511C77.8918 82.4511 78.1854 82.4056 78.4505 82.3147C78.7157 82.22 78.9448 82.0799 79.138 81.8943C79.3312 81.7086 79.4789 81.4795 79.5812 81.2068L81.1891 81.4965C81.0604 81.97 80.8293 82.3848 80.496 82.7408C80.1664 83.0931 79.7516 83.3677 79.2516 83.5647C78.7554 83.7579 78.1891 83.8545 77.5528 83.8545ZM83.9814 83.7863C83.6708 83.7863 83.4037 83.6765 83.1802 83.4568C82.9567 83.2333 82.845 82.9643 82.845 82.6499C82.845 82.3393 82.9567 82.0742 83.1802 81.8545C83.4037 81.631 83.6708 81.5193 83.9814 81.5193C84.292 81.5193 84.559 81.631 84.7825 81.8545C85.006 82.0742 85.1177 82.3393 85.1177 82.6499C85.1177 82.8583 85.0647 83.0496 84.9586 83.2238C84.8564 83.3943 84.72 83.5306 84.5495 83.6329C84.3791 83.7352 84.1897 83.7863 83.9814 83.7863ZM87.0733 74.9511H88.7722V84.2465C88.7722 84.8299 88.6661 85.3223 88.454 85.7238C88.2456 86.1253 87.935 86.4302 87.5222 86.6386C87.1131 86.8469 86.6074 86.9511 86.0051 86.9511C85.9445 86.9511 85.8877 86.9511 85.8347 86.9511C85.7778 86.9511 85.7191 86.9492 85.6585 86.9454V85.4852C85.7116 85.4852 85.7589 85.4852 85.8006 85.4852C85.8384 85.4852 85.882 85.4852 85.9313 85.4852C86.3328 85.4852 86.6225 85.3772 86.8006 85.1613C86.9824 84.9492 87.0733 84.6405 87.0733 84.2352V74.9511ZM87.9142 73.6045C87.6188 73.6045 87.365 73.506 87.1528 73.309C86.9445 73.1083 86.8403 72.8696 86.8403 72.5931C86.8403 72.3128 86.9445 72.0742 87.1528 71.8772C87.365 71.6765 87.6188 71.5761 87.9142 71.5761C88.2097 71.5761 88.4616 71.6765 88.6699 71.8772C88.882 72.0742 88.9881 72.3128 88.9881 72.5931C88.9881 72.8696 88.882 73.1083 88.6699 73.309C88.4616 73.506 88.2097 73.6045 87.9142 73.6045ZM97.2774 77.0818L95.7377 77.3545C95.6733 77.1575 95.571 76.97 95.4309 76.792C95.2945 76.614 95.1089 76.4681 94.874 76.3545C94.6392 76.2408 94.3456 76.184 93.9934 76.184C93.5123 76.184 93.1108 76.292 92.7888 76.5079C92.4668 76.72 92.3059 76.9946 92.3059 77.3318C92.3059 77.6234 92.4138 77.8583 92.6297 78.0363C92.8456 78.2143 93.1941 78.3602 93.6752 78.4738L95.0615 78.792C95.8646 78.9776 96.4631 79.2636 96.857 79.6499C97.2509 80.0363 97.4479 80.5382 97.4479 81.1556C97.4479 81.6783 97.2964 82.1443 96.9934 82.5533C96.6941 82.9586 96.2756 83.2768 95.7377 83.5079C95.2036 83.739 94.5843 83.8545 93.8797 83.8545C92.9024 83.8545 92.1051 83.6461 91.4877 83.2295C90.8702 82.809 90.4915 82.2124 90.3513 81.4397L91.9934 81.1897C92.0956 81.6177 92.3059 81.9416 92.624 82.1613C92.9422 82.3772 93.357 82.4852 93.8684 82.4852C94.4252 82.4852 94.8702 82.3696 95.2036 82.1386C95.5369 81.9037 95.7036 81.6177 95.7036 81.2806C95.7036 81.0079 95.6013 80.7787 95.3968 80.5931C95.196 80.4075 94.8873 80.2674 94.4706 80.1727L92.9934 79.8488C92.179 79.6632 91.5767 79.3677 91.1865 78.9624C90.8002 78.5571 90.607 78.0439 90.607 77.4227C90.607 76.9075 90.7509 76.4568 91.0388 76.0704C91.3267 75.684 91.7244 75.3829 92.232 75.167C92.7396 74.9473 93.321 74.8374 93.9763 74.8374C94.9195 74.8374 95.6619 75.042 96.2036 75.4511C96.7452 75.8564 97.1032 76.3999 97.2774 77.0818Z" fill="#1E222E"/>
<rect x="42" y="96.6783" width="111" height="6" rx="3" fill="#397CE8"/>
<path d="M1.94437 133.406V131.985L6.97278 124.042H8.0921V126.133H7.38187L3.78528 131.826V131.917H10.6773V133.406H1.94437ZM7.46142 135.678V132.974L7.47278 132.326V124.042H9.13756V135.678H7.46142ZM16.2399 135.837C15.721 135.83 15.2096 135.735 14.7059 135.553C14.2059 135.372 13.7513 135.068 13.3422 134.644C12.9331 134.22 12.6055 133.65 12.3593 132.934C12.1168 132.218 11.9956 131.324 11.9956 130.252C11.9956 129.237 12.096 128.336 12.2968 127.548C12.5013 126.76 12.7949 126.095 13.1774 125.553C13.56 125.008 14.0221 124.593 14.5638 124.309C15.1055 124.025 15.7134 123.883 16.3877 123.883C17.0809 123.883 17.6964 124.019 18.2343 124.292C18.7721 124.565 19.2077 124.942 19.5411 125.423C19.8782 125.904 20.0922 126.451 20.1831 127.065H18.4502C18.3327 126.58 18.0998 126.184 17.7513 125.877C17.4028 125.57 16.9483 125.417 16.3877 125.417C15.5354 125.417 14.8706 125.788 14.3934 126.531C13.9199 127.273 13.6812 128.305 13.6774 129.627H13.7627C13.9634 129.298 14.2096 129.017 14.5013 128.786C14.7968 128.551 15.1263 128.372 15.4899 128.247C15.8574 128.118 16.2437 128.053 16.649 128.053C17.3233 128.053 17.9331 128.218 18.4786 128.548C19.0278 128.873 19.4653 129.324 19.7911 129.9C20.1168 130.476 20.2797 131.135 20.2797 131.877C20.2797 132.62 20.1112 133.292 19.774 133.894C19.4407 134.497 18.971 134.974 18.3649 135.326C17.7589 135.675 17.0505 135.845 16.2399 135.837ZM16.2343 134.36C16.6812 134.36 17.0809 134.25 17.4331 134.031C17.7854 133.811 18.0638 133.515 18.2684 133.144C18.4729 132.773 18.5752 132.358 18.5752 131.9C18.5752 131.453 18.4748 131.046 18.274 130.678C18.0771 130.311 17.8043 130.019 17.4559 129.803C17.1112 129.587 16.7172 129.479 16.274 129.479C15.9369 129.479 15.6244 129.544 15.3365 129.673C15.0524 129.801 14.8024 129.979 14.5865 130.207C14.3706 130.434 14.2002 130.695 14.0752 130.991C13.954 131.283 13.8934 131.591 13.8934 131.917C13.8934 132.353 13.9937 132.756 14.1945 133.127C14.399 133.498 14.6774 133.798 15.0297 134.025C15.3858 134.248 15.7873 134.36 16.2343 134.36ZM27.9432 133.497V132.883C27.9432 132.443 28.0341 132.042 28.2159 131.678C28.4015 131.311 28.6705 131.017 29.0227 130.798C29.3788 130.574 29.8087 130.462 30.3125 130.462C30.8277 130.462 31.2595 130.572 31.608 130.792C31.9564 131.012 32.2197 131.305 32.3977 131.673C32.5795 132.04 32.6705 132.443 32.6705 132.883V133.497C32.6705 133.936 32.5795 134.339 32.3977 134.707C32.2159 135.07 31.9489 135.364 31.5966 135.587C31.2481 135.807 30.8201 135.917 30.3125 135.917C29.8011 135.917 29.3693 135.807 29.017 135.587C28.6648 135.364 28.3977 135.07 28.2159 134.707C28.0341 134.339 27.9432 133.936 27.9432 133.497ZM29.267 132.883V133.497C29.267 133.822 29.3447 134.118 29.5 134.383C29.6553 134.648 29.9261 134.781 30.3125 134.781C30.6951 134.781 30.9621 134.648 31.1136 134.383C31.2652 134.118 31.3409 133.822 31.3409 133.497V132.883C31.3409 132.557 31.267 132.262 31.1193 131.997C30.9754 131.731 30.7064 131.599 30.3125 131.599C29.9337 131.599 29.6648 131.731 29.5057 131.997C29.3466 132.262 29.267 132.557 29.267 132.883ZM22.0909 126.837V126.224C22.0909 125.784 22.1818 125.381 22.3636 125.014C22.5492 124.646 22.8182 124.353 23.1705 124.133C23.5265 123.913 23.9564 123.803 24.4602 123.803C24.9754 123.803 25.4072 123.913 25.7557 124.133C26.1042 124.353 26.3674 124.646 26.5455 125.014C26.7235 125.381 26.8125 125.784 26.8125 126.224V126.837C26.8125 127.277 26.7216 127.68 26.5398 128.048C26.3617 128.411 26.0966 128.705 25.7443 128.928C25.3958 129.148 24.9678 129.258 24.4602 129.258C23.9451 129.258 23.5114 129.148 23.1591 128.928C22.8106 128.705 22.5455 128.411 22.3636 128.048C22.1818 127.68 22.0909 127.277 22.0909 126.837ZM23.4205 126.224V126.837C23.4205 127.163 23.4962 127.459 23.6477 127.724C23.803 127.989 24.0739 128.122 24.4602 128.122C24.839 128.122 25.1042 127.989 25.2557 127.724C25.411 127.459 25.4886 127.163 25.4886 126.837V126.224C25.4886 125.898 25.4148 125.603 25.267 125.337C25.1193 125.072 24.8504 124.94 24.4602 124.94C24.0814 124.94 23.8125 125.072 23.6534 125.337C23.4981 125.603 23.4205 125.898 23.4205 126.224ZM22.6307 135.678L30.6307 124.042H31.9886L23.9886 135.678H22.6307Z" fill="#1E222E"/>
<path d="M43.2784 135.678V124.042H47.4261C48.3314 124.042 49.0814 124.207 49.6761 124.536C50.2708 124.866 50.7159 125.317 51.0114 125.889C51.3068 126.457 51.4545 127.097 51.4545 127.809C51.4545 128.525 51.3049 129.169 51.0057 129.741C50.7102 130.309 50.2633 130.76 49.6648 131.093C49.0701 131.423 48.322 131.587 47.4205 131.587H44.5682V130.099H47.2614C47.8333 130.099 48.2973 130 48.6534 129.803C49.0095 129.603 49.2708 129.33 49.4375 128.985C49.6042 128.64 49.6875 128.248 49.6875 127.809C49.6875 127.37 49.6042 126.979 49.4375 126.639C49.2708 126.298 49.0076 126.031 48.6477 125.837C48.2917 125.644 47.822 125.548 47.2386 125.548H45.0341V135.678H43.2784ZM54.1303 138.951C53.8765 138.951 53.6454 138.93 53.4371 138.889C53.2288 138.851 53.0735 138.809 52.9712 138.764L53.3803 137.372C53.6909 137.455 53.9674 137.491 54.2098 137.479C54.4523 137.468 54.6663 137.377 54.8519 137.207C55.0413 137.036 55.2079 136.758 55.3519 136.372L55.5621 135.792L52.3689 126.951H54.1871L56.3973 133.724H56.4882L58.6985 126.951H60.5223L56.9257 136.843C56.7591 137.298 56.547 137.682 56.2894 137.997C56.0318 138.315 55.725 138.553 55.3689 138.712C55.0129 138.872 54.6 138.951 54.1303 138.951ZM65.8728 126.951V128.315H61.1057V126.951H65.8728ZM62.3841 124.86H64.083V133.116C64.083 133.445 64.1323 133.693 64.2307 133.86C64.3292 134.023 64.4561 134.135 64.6114 134.195C64.7705 134.252 64.9429 134.281 65.1285 134.281C65.2648 134.281 65.3841 134.271 65.4864 134.252C65.5887 134.233 65.6682 134.218 65.7251 134.207L66.0319 135.61C65.9334 135.648 65.7932 135.686 65.6114 135.724C65.4296 135.765 65.2023 135.788 64.9296 135.792C64.4826 135.8 64.066 135.72 63.6796 135.553C63.2932 135.387 62.9807 135.129 62.7421 134.781C62.5035 134.432 62.3841 133.995 62.3841 133.468V124.86ZM69.3184 130.497V135.678H67.6195V124.042H69.2957V128.372H69.4036C69.6082 127.902 69.9207 127.529 70.3411 127.252C70.7616 126.976 71.3108 126.837 71.9889 126.837C72.5873 126.837 73.1101 126.961 73.557 127.207C74.0078 127.453 74.3563 127.82 74.6025 128.309C74.8525 128.794 74.9775 129.4 74.9775 130.127V135.678H73.2786V130.332C73.2786 129.692 73.1139 129.195 72.7843 128.843C72.4548 128.487 71.9964 128.309 71.4093 128.309C71.0078 128.309 70.648 128.394 70.3298 128.565C70.0154 128.735 69.7673 128.985 69.5855 129.315C69.4074 129.64 69.3184 130.034 69.3184 130.497ZM80.6007 135.854C79.7825 135.854 79.0685 135.667 78.4586 135.292C77.8488 134.917 77.3753 134.392 77.0382 133.718C76.7011 133.044 76.5325 132.256 76.5325 131.354C76.5325 130.449 76.7011 129.658 77.0382 128.979C77.3753 128.301 77.8488 127.775 78.4586 127.4C79.0685 127.025 79.7825 126.837 80.6007 126.837C81.4189 126.837 82.1329 127.025 82.7427 127.4C83.3526 127.775 83.8261 128.301 84.1632 128.979C84.5003 129.658 84.6689 130.449 84.6689 131.354C84.6689 132.256 84.5003 133.044 84.1632 133.718C83.8261 134.392 83.3526 134.917 82.7427 135.292C82.1329 135.667 81.4189 135.854 80.6007 135.854ZM80.6064 134.428C81.1367 134.428 81.5761 134.288 81.9245 134.008C82.273 133.728 82.5306 133.354 82.6973 132.889C82.8677 132.423 82.953 131.909 82.953 131.349C82.953 130.792 82.8677 130.281 82.6973 129.815C82.5306 129.345 82.273 128.968 81.9245 128.684C81.5761 128.4 81.1367 128.258 80.6064 128.258C80.0723 128.258 79.6291 128.4 79.2768 128.684C78.9283 128.968 78.6689 129.345 78.4984 129.815C78.3317 130.281 78.2484 130.792 78.2484 131.349C78.2484 131.909 78.3317 132.423 78.4984 132.889C78.6689 133.354 78.9283 133.728 79.2768 134.008C79.6291 134.288 80.0723 134.428 80.6064 134.428ZM87.944 130.497V135.678H86.2452V126.951H87.8759V128.372H87.9838C88.1846 127.909 88.499 127.538 88.927 127.258C89.3588 126.978 89.9024 126.837 90.5577 126.837C91.1524 126.837 91.6732 126.962 92.1202 127.212C92.5671 127.459 92.9137 127.826 93.1599 128.315C93.4062 128.803 93.5293 129.408 93.5293 130.127V135.678H91.8304V130.332C91.8304 129.699 91.6656 129.205 91.3361 128.849C91.0065 128.489 90.5539 128.309 89.9781 128.309C89.5842 128.309 89.2338 128.394 88.927 128.565C88.624 128.735 88.3834 128.985 88.2054 129.315C88.0312 129.64 87.944 130.034 87.944 130.497Z" fill="#1E222E"/>
<rect x="42" y="148.678" width="150" height="6" rx="3" fill="#397CE8"/>
<path d="M12.1191 176.042V187.678H10.3577V177.803H10.2895L7.50545 179.622V177.94L10.4089 176.042H12.1191ZM19.2016 176.042V187.678H17.4402V177.803H17.372L14.588 179.622V177.94L17.4914 176.042H19.2016ZM27.9432 185.497V184.883C27.9432 184.443 28.0341 184.042 28.2159 183.678C28.4015 183.311 28.6705 183.017 29.0227 182.798C29.3788 182.574 29.8087 182.462 30.3125 182.462C30.8277 182.462 31.2595 182.572 31.608 182.792C31.9564 183.012 32.2197 183.305 32.3977 183.673C32.5795 184.04 32.6705 184.443 32.6705 184.883V185.497C32.6705 185.936 32.5795 186.339 32.3977 186.707C32.2159 187.07 31.9489 187.364 31.5966 187.587C31.2481 187.807 30.8201 187.917 30.3125 187.917C29.8011 187.917 29.3693 187.807 29.017 187.587C28.6648 187.364 28.3977 187.07 28.2159 186.707C28.0341 186.339 27.9432 185.936 27.9432 185.497ZM29.267 184.883V185.497C29.267 185.822 29.3447 186.118 29.5 186.383C29.6553 186.648 29.9261 186.781 30.3125 186.781C30.6951 186.781 30.9621 186.648 31.1136 186.383C31.2652 186.118 31.3409 185.822 31.3409 185.497V184.883C31.3409 184.557 31.267 184.262 31.1193 183.997C30.9754 183.731 30.7064 183.599 30.3125 183.599C29.9337 183.599 29.6648 183.731 29.5057 183.997C29.3466 184.262 29.267 184.557 29.267 184.883ZM22.0909 178.837V178.224C22.0909 177.784 22.1818 177.381 22.3636 177.014C22.5492 176.646 22.8182 176.353 23.1705 176.133C23.5265 175.913 23.9564 175.803 24.4602 175.803C24.9754 175.803 25.4072 175.913 25.7557 176.133C26.1042 176.353 26.3674 176.646 26.5455 177.014C26.7235 177.381 26.8125 177.784 26.8125 178.224V178.837C26.8125 179.277 26.7216 179.68 26.5398 180.048C26.3617 180.411 26.0966 180.705 25.7443 180.928C25.3958 181.148 24.9678 181.258 24.4602 181.258C23.9451 181.258 23.5114 181.148 23.1591 180.928C22.8106 180.705 22.5455 180.411 22.3636 180.048C22.1818 179.68 22.0909 179.277 22.0909 178.837ZM23.4205 178.224V178.837C23.4205 179.163 23.4962 179.459 23.6477 179.724C23.803 179.989 24.0739 180.122 24.4602 180.122C24.839 180.122 25.1042 179.989 25.2557 179.724C25.411 179.459 25.4886 179.163 25.4886 178.837V178.224C25.4886 177.898 25.4148 177.603 25.267 177.337C25.1193 177.072 24.8504 176.94 24.4602 176.94C24.0814 176.94 23.8125 177.072 23.6534 177.337C23.4981 177.603 23.4205 177.898 23.4205 178.224ZM22.6307 187.678L30.6307 176.042H31.9886L23.9886 187.678H22.6307Z" fill="#1E222E"/>
<path d="M47.8011 176.042H49.5511V184.292C49.5511 185.038 49.4034 185.676 49.108 186.207C48.8163 186.737 48.4053 187.142 47.875 187.423C47.3447 187.699 46.7235 187.837 46.0114 187.837C45.3561 187.837 44.767 187.718 44.2443 187.479C43.7254 187.241 43.3144 186.894 43.0114 186.44C42.7121 185.981 42.5625 185.425 42.5625 184.769H44.3068C44.3068 185.091 44.3807 185.37 44.5284 185.604C44.6799 185.839 44.8864 186.023 45.1477 186.156C45.4129 186.284 45.7159 186.349 46.0568 186.349C46.428 186.349 46.7424 186.271 47 186.116C47.2614 185.957 47.4602 185.724 47.5966 185.417C47.733 185.11 47.8011 184.735 47.8011 184.292V176.042ZM54.1899 187.872C53.6369 187.872 53.1369 187.769 52.6899 187.565C52.243 187.356 51.8888 187.055 51.6274 186.661C51.3699 186.267 51.2411 185.784 51.2411 185.212C51.2411 184.72 51.3358 184.315 51.5252 183.997C51.7146 183.678 51.9702 183.426 52.2922 183.241C52.6142 183.055 52.974 182.915 53.3718 182.82C53.7695 182.726 54.1748 182.654 54.5877 182.604C55.1104 182.544 55.5346 182.495 55.8604 182.457C56.1862 182.415 56.4229 182.349 56.5706 182.258C56.7184 182.167 56.7922 182.019 56.7922 181.815V181.775C56.7922 181.279 56.6521 180.894 56.3718 180.622C56.0952 180.349 55.6824 180.212 55.1331 180.212C54.5612 180.212 54.1104 180.339 53.7809 180.593C53.4551 180.843 53.2297 181.122 53.1047 181.428L51.5081 181.065C51.6975 180.534 51.974 180.106 52.3377 179.781C52.7051 179.451 53.1274 179.212 53.6047 179.065C54.082 178.913 54.5839 178.837 55.1104 178.837C55.4589 178.837 55.8282 178.879 56.2184 178.962C56.6123 179.042 56.9797 179.19 57.3206 179.406C57.6653 179.622 57.9475 179.93 58.1672 180.332C58.3869 180.729 58.4968 181.247 58.4968 181.883V187.678H56.8377V186.485H56.7695C56.6596 186.705 56.4949 186.921 56.2752 187.133C56.0555 187.345 55.7733 187.521 55.4286 187.661C55.0839 187.801 54.671 187.872 54.1899 187.872ZM54.5593 186.508C55.029 186.508 55.4305 186.415 55.7638 186.229C56.1009 186.044 56.3566 185.801 56.5309 185.502C56.7089 185.199 56.7979 184.875 56.7979 184.531V183.406C56.7373 183.466 56.6199 183.523 56.4456 183.576C56.2752 183.625 56.0801 183.669 55.8604 183.707C55.6407 183.741 55.4267 183.773 55.2184 183.803C55.01 183.83 54.8358 183.853 54.6956 183.872C54.3661 183.913 54.0649 183.983 53.7922 184.082C53.5233 184.18 53.3074 184.322 53.1445 184.508C52.9854 184.69 52.9059 184.932 52.9059 185.235C52.9059 185.656 53.0612 185.974 53.3718 186.19C53.6824 186.402 54.0782 186.508 54.5593 186.508ZM67.593 178.951L64.4282 187.678H62.61L59.4395 178.951H61.2634L63.4736 185.667H63.5645L65.7691 178.951H67.593ZM71.1593 187.872C70.6063 187.872 70.1063 187.769 69.6593 187.565C69.2123 187.356 68.8582 187.055 68.5968 186.661C68.3392 186.267 68.2105 185.784 68.2105 185.212C68.2105 184.72 68.3052 184.315 68.4945 183.997C68.6839 183.678 68.9396 183.426 69.2616 183.241C69.5836 183.055 69.9434 182.915 70.3411 182.82C70.7389 182.726 71.1442 182.654 71.557 182.604C72.0798 182.544 72.504 182.495 72.8298 182.457C73.1555 182.415 73.3923 182.349 73.54 182.258C73.6877 182.167 73.7616 182.019 73.7616 181.815V181.775C73.7616 181.279 73.6214 180.894 73.3411 180.622C73.0646 180.349 72.6517 180.212 72.1025 180.212C71.5305 180.212 71.0798 180.339 70.7502 180.593C70.4245 180.843 70.1991 181.122 70.0741 181.428L68.4775 181.065C68.6669 180.534 68.9434 180.106 69.307 179.781C69.6745 179.451 70.0968 179.212 70.5741 179.065C71.0514 178.913 71.5533 178.837 72.0798 178.837C72.4283 178.837 72.7976 178.879 73.1877 178.962C73.5817 179.042 73.9491 179.19 74.29 179.406C74.6347 179.622 74.9169 179.93 75.1366 180.332C75.3563 180.729 75.4661 181.247 75.4661 181.883V187.678H73.807V186.485H73.7389C73.629 186.705 73.4642 186.921 73.2445 187.133C73.0248 187.345 72.7427 187.521 72.398 187.661C72.0533 187.801 71.6404 187.872 71.1593 187.872ZM71.5286 186.508C71.9983 186.508 72.3998 186.415 72.7332 186.229C73.0703 186.044 73.326 185.801 73.5002 185.502C73.6783 185.199 73.7673 184.875 73.7673 184.531V183.406C73.7067 183.466 73.5892 183.523 73.415 183.576C73.2445 183.625 73.0495 183.669 72.8298 183.707C72.6101 183.741 72.3961 183.773 72.1877 183.803C71.9794 183.83 71.8052 183.853 71.665 183.872C71.3355 183.913 71.0343 183.983 70.7616 184.082C70.4927 184.18 70.2767 184.322 70.1139 184.508C69.9548 184.69 69.8752 184.932 69.8752 185.235C69.8752 185.656 70.0305 185.974 70.3411 186.19C70.6517 186.402 71.0476 186.508 71.5286 186.508ZM85.7551 175.497L82.0051 189.428H80.4881L84.2381 175.497H85.7551ZM97.2756 179.099C97.215 178.561 96.965 178.144 96.5256 177.849C96.0862 177.55 95.5332 177.4 94.8665 177.4C94.3893 177.4 93.9764 177.476 93.6279 177.627C93.2794 177.775 93.0086 177.979 92.8154 178.241C92.626 178.498 92.5313 178.792 92.5313 179.122C92.5313 179.398 92.5957 179.637 92.7245 179.837C92.8571 180.038 93.0294 180.207 93.2415 180.343C93.4574 180.476 93.6885 180.587 93.9347 180.678C94.1809 180.765 94.4177 180.837 94.6449 180.894L95.7813 181.19C96.1525 181.281 96.5332 181.404 96.9234 181.559C97.3135 181.714 97.6752 181.919 98.0086 182.173C98.3419 182.426 98.6109 182.741 98.8154 183.116C99.0237 183.491 99.1279 183.94 99.1279 184.462C99.1279 185.122 98.9574 185.707 98.6165 186.218C98.2794 186.729 97.7889 187.133 97.1449 187.428C96.5048 187.724 95.7302 187.872 94.8211 187.872C93.9499 187.872 93.1961 187.733 92.5597 187.457C91.9234 187.18 91.4252 186.788 91.0654 186.281C90.7055 185.769 90.5067 185.163 90.4688 184.462H92.2302C92.2643 184.883 92.4006 185.233 92.6393 185.514C92.8817 185.79 93.1904 185.997 93.5654 186.133C93.9442 186.265 94.359 186.332 94.8097 186.332C95.3059 186.332 95.7472 186.254 96.1336 186.099C96.5237 185.94 96.8305 185.72 97.054 185.44C97.2775 185.156 97.3893 184.824 97.3893 184.445C97.3893 184.101 97.2908 183.818 97.0938 183.599C96.9006 183.379 96.6374 183.197 96.304 183.053C95.9745 182.909 95.6014 182.783 95.1847 182.673L93.8097 182.298C92.8779 182.044 92.1393 181.671 91.5938 181.178C91.0521 180.686 90.7813 180.034 90.7813 179.224C90.7813 178.553 90.9631 177.968 91.3268 177.468C91.6904 176.968 92.1828 176.58 92.804 176.303C93.4252 176.023 94.126 175.883 94.9063 175.883C95.6942 175.883 96.3893 176.021 96.9915 176.298C97.5976 176.574 98.0749 176.955 98.4234 177.44C98.7718 177.921 98.9537 178.474 98.9688 179.099H97.2756ZM104.446 187.854C103.601 187.854 102.874 187.663 102.264 187.281C101.658 186.894 101.192 186.362 100.866 185.684C100.54 185.006 100.377 184.229 100.377 183.354C100.377 182.468 100.544 181.686 100.877 181.008C101.211 180.326 101.681 179.794 102.287 179.411C102.893 179.029 103.607 178.837 104.429 178.837C105.092 178.837 105.682 178.961 106.201 179.207C106.72 179.449 107.139 179.79 107.457 180.229C107.779 180.669 107.97 181.182 108.031 181.769H106.377C106.287 181.36 106.078 181.008 105.752 180.712C105.431 180.417 104.999 180.269 104.457 180.269C103.984 180.269 103.569 180.394 103.213 180.644C102.86 180.89 102.586 181.243 102.389 181.701C102.192 182.156 102.093 182.693 102.093 183.315C102.093 183.951 102.19 184.5 102.383 184.962C102.576 185.425 102.849 185.783 103.201 186.036C103.557 186.29 103.976 186.417 104.457 186.417C104.779 186.417 105.071 186.358 105.332 186.241C105.597 186.12 105.819 185.947 105.997 185.724C106.179 185.5 106.306 185.231 106.377 184.917H108.031C107.97 185.481 107.787 185.985 107.48 186.428C107.173 186.872 106.762 187.22 106.247 187.474C105.735 187.728 105.135 187.854 104.446 187.854ZM112.067 187.872C111.514 187.872 111.014 187.769 110.567 187.565C110.12 187.356 109.766 187.055 109.505 186.661C109.247 186.267 109.119 185.784 109.119 185.212C109.119 184.72 109.213 184.315 109.403 183.997C109.592 183.678 109.848 183.426 110.17 183.241C110.492 183.055 110.852 182.915 111.249 182.82C111.647 182.726 112.052 182.654 112.465 182.604C112.988 182.544 113.412 182.495 113.738 182.457C114.064 182.415 114.3 182.349 114.448 182.258C114.596 182.167 114.67 182.019 114.67 181.815V181.775C114.67 181.279 114.53 180.894 114.249 180.622C113.973 180.349 113.56 180.212 113.011 180.212C112.439 180.212 111.988 180.339 111.658 180.593C111.333 180.843 111.107 181.122 110.982 181.428L109.386 181.065C109.575 180.534 109.852 180.106 110.215 179.781C110.583 179.451 111.005 179.212 111.482 179.065C111.959 178.913 112.461 178.837 112.988 178.837C113.336 178.837 113.706 178.879 114.096 178.962C114.49 179.042 114.857 179.19 115.198 179.406C115.543 179.622 115.825 179.93 116.045 180.332C116.264 180.729 116.374 181.247 116.374 181.883V187.678H114.715V186.485H114.647C114.537 186.705 114.372 186.921 114.153 187.133C113.933 187.345 113.651 187.521 113.306 187.661C112.961 187.801 112.549 187.872 112.067 187.872ZM112.437 186.508C112.906 186.508 113.308 186.415 113.641 186.229C113.978 186.044 114.234 185.801 114.408 185.502C114.586 185.199 114.675 184.875 114.675 184.531V183.406C114.615 183.466 114.497 183.523 114.323 183.576C114.153 183.625 113.958 183.669 113.738 183.707C113.518 183.741 113.304 183.773 113.096 183.803C112.888 183.83 112.713 183.853 112.573 183.872C112.244 183.913 111.942 183.983 111.67 184.082C111.401 184.18 111.185 184.322 111.022 184.508C110.863 184.69 110.783 184.932 110.783 185.235C110.783 185.656 110.939 185.974 111.249 186.19C111.56 186.402 111.956 186.508 112.437 186.508ZM120.016 176.042V187.678H118.317V176.042H120.016ZM124.521 187.872C123.968 187.872 123.468 187.769 123.021 187.565C122.574 187.356 122.22 187.055 121.959 186.661C121.701 186.267 121.572 185.784 121.572 185.212C121.572 184.72 121.667 184.315 121.856 183.997C122.046 183.678 122.301 183.426 122.623 183.241C122.945 183.055 123.305 182.915 123.703 182.82C124.101 182.726 124.506 182.654 124.919 182.604C125.442 182.544 125.866 182.495 126.192 182.457C126.517 182.415 126.754 182.349 126.902 182.258C127.05 182.167 127.123 182.019 127.123 181.815V181.775C127.123 181.279 126.983 180.894 126.703 180.622C126.426 180.349 126.014 180.212 125.464 180.212C124.892 180.212 124.442 180.339 124.112 180.593C123.786 180.843 123.561 181.122 123.436 181.428L121.839 181.065C122.029 180.534 122.305 180.106 122.669 179.781C123.036 179.451 123.459 179.212 123.936 179.065C124.413 178.913 124.915 178.837 125.442 178.837C125.79 178.837 126.159 178.879 126.55 178.962C126.944 179.042 127.311 179.19 127.652 179.406C127.997 179.622 128.279 179.93 128.498 180.332C128.718 180.729 128.828 181.247 128.828 181.883V187.678H127.169V186.485H127.101C126.991 186.705 126.826 186.921 126.606 187.133C126.387 187.345 126.105 187.521 125.76 187.661C125.415 187.801 125.002 187.872 124.521 187.872ZM124.891 186.508C125.36 186.508 125.762 186.415 126.095 186.229C126.432 186.044 126.688 185.801 126.862 185.502C127.04 185.199 127.129 184.875 127.129 184.531V183.406C127.069 183.466 126.951 183.523 126.777 183.576C126.606 183.625 126.411 183.669 126.192 183.707C125.972 183.741 125.758 183.773 125.55 183.803C125.341 183.83 125.167 183.853 125.027 183.872C124.697 183.913 124.396 183.983 124.123 184.082C123.855 184.18 123.639 184.322 123.476 184.508C123.317 184.69 123.237 184.932 123.237 185.235C123.237 185.656 123.392 185.974 123.703 186.19C124.014 186.402 124.409 186.508 124.891 186.508ZM139.117 175.497L135.367 189.428H133.85L137.6 175.497H139.117ZM144.291 187.678V176.042H146.047V181.599H146.189L151.069 176.042H153.28L148.586 181.281L153.297 187.678H151.183L147.422 182.479L146.047 184.059V187.678H144.291ZM157.495 187.854C156.677 187.854 155.963 187.667 155.353 187.292C154.743 186.917 154.27 186.392 153.933 185.718C153.595 185.044 153.427 184.256 153.427 183.354C153.427 182.449 153.595 181.658 153.933 180.979C154.27 180.301 154.743 179.775 155.353 179.4C155.963 179.025 156.677 178.837 157.495 178.837C158.313 178.837 159.027 179.025 159.637 179.4C160.247 179.775 160.72 180.301 161.058 180.979C161.395 181.658 161.563 182.449 161.563 183.354C161.563 184.256 161.395 185.044 161.058 185.718C160.72 186.392 160.247 186.917 159.637 187.292C159.027 187.667 158.313 187.854 157.495 187.854ZM157.501 186.428C158.031 186.428 158.47 186.288 158.819 186.008C159.167 185.728 159.425 185.354 159.592 184.889C159.762 184.423 159.847 183.909 159.847 183.349C159.847 182.792 159.762 182.281 159.592 181.815C159.425 181.345 159.167 180.968 158.819 180.684C158.47 180.4 158.031 180.258 157.501 180.258C156.967 180.258 156.523 180.4 156.171 180.684C155.823 180.968 155.563 181.345 155.393 181.815C155.226 182.281 155.143 182.792 155.143 183.349C155.143 183.909 155.226 184.423 155.393 184.889C155.563 185.354 155.823 185.728 156.171 186.008C156.523 186.288 156.967 186.428 157.501 186.428ZM167.213 178.951V180.315H162.446V178.951H167.213ZM163.725 176.86H165.424V185.116C165.424 185.445 165.473 185.693 165.571 185.86C165.67 186.023 165.797 186.135 165.952 186.195C166.111 186.252 166.283 186.281 166.469 186.281C166.605 186.281 166.725 186.271 166.827 186.252C166.929 186.233 167.009 186.218 167.066 186.207L167.372 187.61C167.274 187.648 167.134 187.686 166.952 187.724C166.77 187.765 166.543 187.788 166.27 187.792C165.823 187.8 165.407 187.72 165.02 187.553C164.634 187.387 164.321 187.129 164.083 186.781C163.844 186.432 163.725 185.995 163.725 185.468V176.86ZM170.659 176.042V187.678H168.96V176.042H170.659ZM172.625 187.678V178.951H174.323V187.678H172.625ZM173.482 177.604C173.187 177.604 172.933 177.506 172.721 177.309C172.513 177.108 172.409 176.87 172.409 176.593C172.409 176.313 172.513 176.074 172.721 175.877C172.933 175.676 173.187 175.576 173.482 175.576C173.778 175.576 174.03 175.676 174.238 175.877C174.45 176.074 174.556 176.313 174.556 176.593C174.556 176.87 174.45 177.108 174.238 177.309C174.03 177.506 173.778 177.604 173.482 177.604ZM177.988 182.497V187.678H176.289V178.951H177.92V180.372H178.028C178.228 179.909 178.543 179.538 178.971 179.258C179.403 178.978 179.946 178.837 180.601 178.837C181.196 178.837 181.717 178.962 182.164 179.212C182.611 179.459 182.957 179.826 183.204 180.315C183.45 180.803 183.573 181.408 183.573 182.127V187.678H181.874V182.332C181.874 181.699 181.709 181.205 181.38 180.849C181.05 180.489 180.598 180.309 180.022 180.309C179.628 180.309 179.278 180.394 178.971 180.565C178.668 180.735 178.427 180.985 178.249 181.315C178.075 181.64 177.988 182.034 177.988 182.497Z" fill="#1E222E"/>
<rect x="42" y="200.678" width="39" height="6" rx="3" fill="#397CE8"/>
<path d="M11.6362 237.405V235.985L16.6647 228.042H17.784V230.133H17.0737L13.4772 235.826V235.917H20.3692V237.405H11.6362ZM17.1533 239.678V236.974L17.1647 236.326V228.042H18.8294V239.678H17.1533ZM27.9432 237.496V236.883C27.9432 236.443 28.0341 236.042 28.2159 235.678C28.4015 235.311 28.6705 235.017 29.0227 234.798C29.3788 234.574 29.8087 234.462 30.3125 234.462C30.8277 234.462 31.2595 234.572 31.608 234.792C31.9564 235.012 32.2197 235.305 32.3977 235.673C32.5795 236.04 32.6705 236.443 32.6705 236.883V237.496C32.6705 237.936 32.5795 238.339 32.3977 238.707C32.2159 239.07 31.9489 239.364 31.5966 239.587C31.2481 239.807 30.8201 239.917 30.3125 239.917C29.8011 239.917 29.3693 239.807 29.017 239.587C28.6648 239.364 28.3977 239.07 28.2159 238.707C28.0341 238.339 27.9432 237.936 27.9432 237.496ZM29.267 236.883V237.496C29.267 237.822 29.3447 238.118 29.5 238.383C29.6553 238.648 29.9261 238.78 30.3125 238.78C30.6951 238.78 30.9621 238.648 31.1136 238.383C31.2652 238.118 31.3409 237.822 31.3409 237.496V236.883C31.3409 236.557 31.267 236.262 31.1193 235.996C30.9754 235.731 30.7064 235.599 30.3125 235.599C29.9337 235.599 29.6648 235.731 29.5057 235.996C29.3466 236.262 29.267 236.557 29.267 236.883ZM22.0909 230.837V230.224C22.0909 229.784 22.1818 229.381 22.3636 229.013C22.5492 228.646 22.8182 228.352 23.1705 228.133C23.5265 227.913 23.9564 227.803 24.4602 227.803C24.9754 227.803 25.4072 227.913 25.7557 228.133C26.1042 228.352 26.3674 228.646 26.5455 229.013C26.7235 229.381 26.8125 229.784 26.8125 230.224V230.837C26.8125 231.277 26.7216 231.68 26.5398 232.048C26.3617 232.411 26.0966 232.705 25.7443 232.928C25.3958 233.148 24.9678 233.258 24.4602 233.258C23.9451 233.258 23.5114 233.148 23.1591 232.928C22.8106 232.705 22.5455 232.411 22.3636 232.048C22.1818 231.68 22.0909 231.277 22.0909 230.837ZM23.4205 230.224V230.837C23.4205 231.163 23.4962 231.459 23.6477 231.724C23.803 231.989 24.0739 232.121 24.4602 232.121C24.839 232.121 25.1042 231.989 25.2557 231.724C25.411 231.459 25.4886 231.163 25.4886 230.837V230.224C25.4886 229.898 25.4148 229.602 25.267 229.337C25.1193 229.072 24.8504 228.94 24.4602 228.94C24.0814 228.94 23.8125 229.072 23.6534 229.337C23.4981 229.602 23.4205 229.898 23.4205 230.224ZM22.6307 239.678L30.6307 228.042H31.9886L23.9886 239.678H22.6307Z" fill="#1E222E"/>
<path d="M51.1534 231.718C51.0436 231.373 50.8958 231.065 50.7102 230.792C50.5284 230.515 50.3106 230.28 50.0568 230.087C49.803 229.89 49.5133 229.741 49.1875 229.638C48.8655 229.536 48.5114 229.485 48.125 229.485C47.4697 229.485 46.8788 229.654 46.3523 229.991C45.8258 230.328 45.4091 230.822 45.1023 231.474C44.7992 232.121 44.6477 232.915 44.6477 233.854C44.6477 234.798 44.8011 235.595 45.108 236.246C45.4148 236.898 45.8352 237.392 46.3693 237.729C46.9034 238.066 47.5114 238.235 48.1932 238.235C48.8258 238.235 49.3769 238.106 49.8466 237.849C50.3201 237.591 50.6856 237.227 50.9432 236.758C51.2045 236.284 51.3352 235.727 51.3352 235.087L51.7898 235.173H48.4602V233.724H53.0341V235.048C53.0341 236.025 52.8258 236.873 52.4091 237.593C51.9962 238.309 51.4242 238.862 50.6932 239.252C49.9659 239.642 49.1326 239.837 48.1932 239.837C47.1402 239.837 46.2159 239.595 45.4205 239.11C44.6288 238.625 44.0114 237.938 43.5682 237.048C43.125 236.154 42.9034 235.093 42.9034 233.866C42.9034 232.938 43.0322 232.104 43.2898 231.366C43.5473 230.627 43.9091 230 44.375 229.485C44.8447 228.966 45.3958 228.57 46.0284 228.298C46.6648 228.021 47.3598 227.883 48.1136 227.883C48.7424 227.883 49.3277 227.976 49.8693 228.161C50.4148 228.347 50.8996 228.61 51.3239 228.951C51.7519 229.292 52.1061 229.697 52.3864 230.167C52.6667 230.633 52.8561 231.15 52.9545 231.718H51.1534ZM58.4826 239.854C57.6644 239.854 56.9504 239.667 56.3405 239.292C55.7307 238.917 55.2572 238.392 54.9201 237.718C54.5829 237.044 54.4144 236.256 54.4144 235.354C54.4144 234.449 54.5829 233.657 54.9201 232.979C55.2572 232.301 55.7307 231.775 56.3405 231.4C56.9504 231.025 57.6644 230.837 58.4826 230.837C59.3007 230.837 60.0148 231.025 60.6246 231.4C61.2345 231.775 61.7079 232.301 62.0451 232.979C62.3822 233.657 62.5507 234.449 62.5507 235.354C62.5507 236.256 62.3822 237.044 62.0451 237.718C61.7079 238.392 61.2345 238.917 60.6246 239.292C60.0148 239.667 59.3007 239.854 58.4826 239.854ZM58.4882 238.428C59.0185 238.428 59.4579 238.288 59.8064 238.008C60.1549 237.727 60.4125 237.354 60.5791 236.888C60.7496 236.423 60.8348 235.909 60.8348 235.349C60.8348 234.792 60.7496 234.28 60.5791 233.815C60.4125 233.345 60.1549 232.968 59.8064 232.684C59.4579 232.4 59.0185 232.258 58.4882 232.258C57.9541 232.258 57.511 232.4 57.1587 232.684C56.8102 232.968 56.5507 233.345 56.3803 233.815C56.2136 234.28 56.1303 234.792 56.1303 235.349C56.1303 235.909 56.2136 236.423 56.3803 236.888C56.5507 237.354 56.8102 237.727 57.1587 238.008C57.511 238.288 57.9541 238.428 58.4882 238.428Z" fill="#1E222E"/>
<rect x="42" y="252.678" width="18" height="6" rx="3" fill="#397CE8"/>
<path d="M280.047 49.8829C280.566 49.8867 281.077 49.9814 281.581 50.167C282.085 50.3526 282.539 50.6556 282.944 51.0761C283.354 51.4965 283.679 52.0647 283.922 52.7806C284.168 53.4927 284.293 54.3791 284.297 55.4397C284.297 56.4586 284.194 57.3658 283.99 58.1613C283.785 58.953 283.492 59.6215 283.109 60.167C282.73 60.7124 282.27 61.1272 281.729 61.4113C281.187 61.6954 280.577 61.8374 279.899 61.8374C279.206 61.8374 278.59 61.7011 278.052 61.4283C277.515 61.1556 277.077 60.7787 276.74 60.2977C276.403 59.8128 276.193 59.256 276.109 58.6272H277.842C277.956 59.1272 278.187 59.5325 278.535 59.8431C278.888 60.1499 279.342 60.3033 279.899 60.3033C280.751 60.3033 281.416 59.9321 281.893 59.1897C282.371 58.4435 282.611 57.4018 282.615 56.0647H282.524C282.327 56.3905 282.081 56.6708 281.785 56.9056C281.494 57.1405 281.166 57.3223 280.802 57.4511C280.439 57.5799 280.051 57.6443 279.638 57.6443C278.967 57.6443 278.357 57.4795 277.808 57.1499C277.259 56.8204 276.821 56.3677 276.496 55.792C276.17 55.2162 276.007 54.559 276.007 53.8204C276.007 53.0855 276.174 52.4189 276.507 51.8204C276.844 51.2219 277.314 50.7484 277.916 50.3999C278.522 50.0477 279.232 49.8753 280.047 49.8829ZM280.052 51.3602C279.609 51.3602 279.21 51.47 278.854 51.6897C278.501 51.9056 278.223 52.1992 278.018 52.5704C277.814 52.9378 277.712 53.3469 277.712 53.7977C277.712 54.2484 277.81 54.6575 278.007 55.0249C278.208 55.3886 278.48 55.6783 278.825 55.8943C279.174 56.1064 279.571 56.2124 280.018 56.2124C280.352 56.2124 280.662 56.148 280.95 56.0193C281.238 55.8905 281.49 55.7124 281.706 55.4852C281.922 55.2541 282.09 54.9927 282.212 54.7011C282.333 54.4094 282.393 54.1026 282.393 53.7806C282.393 53.3526 282.291 52.9549 282.087 52.5874C281.886 52.22 281.609 51.9246 281.257 51.7011C280.905 51.4738 280.503 51.3602 280.052 51.3602ZM291.943 59.4965V58.8829C291.943 58.4435 292.034 58.042 292.216 57.6783C292.402 57.3109 292.67 57.0174 293.023 56.7977C293.379 56.5742 293.809 56.4624 294.312 56.4624C294.828 56.4624 295.259 56.5723 295.608 56.792C295.956 57.0117 296.22 57.3052 296.398 57.6727C296.58 58.0401 296.67 58.4435 296.67 58.8829V59.4965C296.67 59.9359 296.58 60.3393 296.398 60.7068C296.216 61.0704 295.949 61.364 295.597 61.5874C295.248 61.8071 294.82 61.917 294.312 61.917C293.801 61.917 293.369 61.8071 293.017 61.5874C292.665 61.364 292.398 61.0704 292.216 60.7068C292.034 60.3393 291.943 59.9359 291.943 59.4965ZM293.267 58.8829V59.4965C293.267 59.8223 293.345 60.1177 293.5 60.3829C293.655 60.648 293.926 60.7806 294.312 60.7806C294.695 60.7806 294.962 60.648 295.114 60.3829C295.265 60.1177 295.341 59.8223 295.341 59.4965V58.8829C295.341 58.5571 295.267 58.2617 295.119 57.9965C294.975 57.7314 294.706 57.5988 294.312 57.5988C293.934 57.5988 293.665 57.7314 293.506 57.9965C293.347 58.2617 293.267 58.5571 293.267 58.8829ZM286.091 52.8374V52.2238C286.091 51.7844 286.182 51.381 286.364 51.0136C286.549 50.6461 286.818 50.3526 287.17 50.1329C287.527 49.9132 287.956 49.8033 288.46 49.8033C288.975 49.8033 289.407 49.9132 289.756 50.1329C290.104 50.3526 290.367 50.6461 290.545 51.0136C290.723 51.381 290.812 51.7844 290.812 52.2238V52.8374C290.812 53.2768 290.722 53.6802 290.54 54.0477C290.362 54.4113 290.097 54.7049 289.744 54.9283C289.396 55.148 288.968 55.2579 288.46 55.2579C287.945 55.2579 287.511 55.148 287.159 54.9283C286.811 54.7049 286.545 54.4113 286.364 54.0477C286.182 53.6802 286.091 53.2768 286.091 52.8374ZM287.42 52.2238V52.8374C287.42 53.1632 287.496 53.4586 287.648 53.7238C287.803 53.989 288.074 54.1215 288.46 54.1215C288.839 54.1215 289.104 53.989 289.256 53.7238C289.411 53.4586 289.489 53.1632 289.489 52.8374V52.2238C289.489 51.898 289.415 51.6026 289.267 51.3374C289.119 51.0723 288.85 50.9397 288.46 50.9397C288.081 50.9397 287.813 51.0723 287.653 51.3374C287.498 51.6026 287.42 51.898 287.42 52.2238ZM286.631 61.6783L294.631 50.042H295.989L287.989 61.6783H286.631Z" fill="#1E222E"/>
<path d="M316.943 53.8261H315.17C315.102 53.4473 314.975 53.114 314.79 52.8261C314.604 52.5382 314.377 52.2939 314.108 52.0931C313.839 51.8924 313.538 51.7408 313.205 51.6386C312.875 51.5363 312.525 51.4852 312.153 51.4852C311.483 51.4852 310.883 51.6537 310.352 51.9908C309.826 52.328 309.409 52.8223 309.102 53.4738C308.799 54.1253 308.648 54.9208 308.648 55.8602C308.648 56.8071 308.799 57.6064 309.102 58.2579C309.409 58.9094 309.828 59.4018 310.358 59.7352C310.888 60.0685 311.485 60.2352 312.148 60.2352C312.515 60.2352 312.864 60.1859 313.193 60.0874C313.527 59.9852 313.828 59.8355 314.097 59.6386C314.366 59.4416 314.593 59.2011 314.778 58.917C314.968 58.6291 315.098 58.2996 315.17 57.9283L316.943 57.934C316.848 58.506 316.665 59.0325 316.392 59.5136C316.123 59.9908 315.777 60.4037 315.352 60.7522C314.932 61.0969 314.451 61.364 313.909 61.5533C313.367 61.7427 312.777 61.8374 312.136 61.8374C311.129 61.8374 310.231 61.5988 309.443 61.1215C308.655 60.6405 308.034 59.953 307.58 59.059C307.129 58.1651 306.903 57.0988 306.903 55.8602C306.903 54.6177 307.131 53.5515 307.585 52.6613C308.04 51.7674 308.661 51.0818 309.449 50.6045C310.237 50.1234 311.133 49.8829 312.136 49.8829C312.754 49.8829 313.33 49.9719 313.864 50.1499C314.402 50.3242 314.884 50.5818 315.312 50.9227C315.741 51.2598 316.095 51.6727 316.375 52.1613C316.655 52.6461 316.845 53.2011 316.943 53.8261ZM322.008 59.7238V52.042H323.537V59.7238H322.008ZM318.934 56.6443V55.1215H326.616V56.6443H318.934ZM332.344 59.7238V52.042H333.873V59.7238H332.344ZM329.271 56.6443V55.1215H336.952V56.6443H329.271ZM347.606 49.4965L343.856 63.4283H342.339L346.089 49.4965H347.606ZM352.78 61.6783V50.042H356.928C357.83 50.042 358.578 50.1973 359.172 50.5079C359.771 50.8185 360.218 51.2484 360.513 51.7977C360.809 52.3431 360.956 52.9738 360.956 53.6897C360.956 54.4018 360.807 55.0287 360.508 55.5704C360.212 56.1083 359.765 56.5268 359.167 56.8261C358.572 57.1253 357.824 57.2749 356.922 57.2749H353.78V55.7636H356.763C357.331 55.7636 357.794 55.6821 358.15 55.5193C358.509 55.3564 358.773 55.1196 358.939 54.809C359.106 54.4984 359.189 54.1253 359.189 53.6897C359.189 53.2503 359.104 52.8696 358.934 52.5477C358.767 52.2257 358.504 51.9795 358.144 51.809C357.788 51.6348 357.32 51.5477 356.741 51.5477H354.536V61.6783H352.78ZM358.525 56.4283L361.4 61.6783H359.4L356.581 56.4283H358.525ZM368.165 58.059V52.9511H369.869V61.6783H368.199V60.167H368.108C367.907 60.6329 367.585 61.0211 367.142 61.3318C366.703 61.6386 366.155 61.792 365.5 61.792C364.939 61.792 364.443 61.6689 364.011 61.4227C363.583 61.1727 363.246 60.8033 363 60.3147C362.758 59.8261 362.636 59.2219 362.636 58.5022V52.9511H364.335V58.2977C364.335 58.8924 364.5 59.3658 364.83 59.7181C365.159 60.0704 365.587 60.2465 366.114 60.2465C366.432 60.2465 366.748 60.167 367.063 60.0079C367.381 59.8488 367.644 59.6083 367.852 59.2863C368.064 58.9643 368.169 58.5552 368.165 58.059ZM378.372 55.0818L376.832 55.3545C376.768 55.1575 376.665 54.97 376.525 54.792C376.389 54.614 376.203 54.4681 375.968 54.3545C375.734 54.2408 375.44 54.184 375.088 54.184C374.607 54.184 374.205 54.292 373.883 54.5079C373.561 54.72 373.4 54.9946 373.4 55.3318C373.4 55.6234 373.508 55.8583 373.724 56.0363C373.94 56.2143 374.288 56.3602 374.77 56.4738L376.156 56.792C376.959 56.9776 377.557 57.2636 377.951 57.6499C378.345 58.0363 378.542 58.5382 378.542 59.1556C378.542 59.6783 378.391 60.1443 378.088 60.5533C377.788 60.9586 377.37 61.2768 376.832 61.5079C376.298 61.739 375.679 61.8545 374.974 61.8545C373.997 61.8545 373.199 61.6461 372.582 61.2295C371.965 60.809 371.586 60.2124 371.446 59.4397L373.088 59.1897C373.19 59.6177 373.4 59.9416 373.718 60.1613C374.037 60.3772 374.451 60.4852 374.963 60.4852C375.52 60.4852 375.965 60.3696 376.298 60.1386C376.631 59.9037 376.798 59.6177 376.798 59.2806C376.798 59.0079 376.696 58.7787 376.491 58.5931C376.29 58.4075 375.982 58.2674 375.565 58.1727L374.088 57.8488C373.273 57.6632 372.671 57.3677 372.281 56.9624C371.895 56.5571 371.701 56.0439 371.701 55.4227C371.701 54.9075 371.845 54.4568 372.133 54.0704C372.421 53.684 372.819 53.3829 373.326 53.167C373.834 52.9473 374.415 52.8374 375.071 52.8374C376.014 52.8374 376.756 53.042 377.298 53.4511C377.84 53.8564 378.198 54.3999 378.372 55.0818ZM384.164 52.9511V54.3147H379.397V52.9511H384.164ZM380.675 50.8602H382.374V59.1158C382.374 59.4454 382.424 59.6935 382.522 59.8602C382.62 60.023 382.747 60.1348 382.903 60.1954C383.062 60.2522 383.234 60.2806 383.42 60.2806C383.556 60.2806 383.675 60.2711 383.778 60.2522C383.88 60.2333 383.959 60.2181 384.016 60.2068L384.323 61.6102C384.225 61.648 384.084 61.6859 383.903 61.7238C383.721 61.7655 383.494 61.7882 383.221 61.792C382.774 61.7996 382.357 61.72 381.971 61.5533C381.584 61.3867 381.272 61.1291 381.033 60.7806C380.795 60.4321 380.675 59.9946 380.675 59.4681V50.8602Z" fill="#1E222E"/>
<rect x="306" y="74.6783" width="32" height="6" rx="3" fill="#397CE8"/>
<path d="M273.353 102.042V113.678H271.592V103.803H271.524L268.74 105.622V103.94L271.643 102.042H273.353ZM280.072 113.872C279.175 113.868 278.408 113.631 277.771 113.161C277.135 112.692 276.648 112.008 276.311 111.11C275.974 110.212 275.805 109.131 275.805 107.866C275.805 106.604 275.974 105.527 276.311 104.633C276.652 103.739 277.141 103.057 277.777 102.587C278.417 102.118 279.182 101.883 280.072 101.883C280.962 101.883 281.726 102.12 282.362 102.593C282.998 103.063 283.485 103.745 283.822 104.639C284.163 105.529 284.334 106.604 284.334 107.866C284.334 109.135 284.165 110.218 283.828 111.116C283.491 112.01 283.004 112.693 282.368 113.167C281.731 113.637 280.966 113.872 280.072 113.872ZM280.072 112.354C280.86 112.354 281.476 111.97 281.919 111.201C282.366 110.432 282.589 109.32 282.589 107.866C282.589 106.9 282.487 106.084 282.283 105.417C282.082 104.747 281.792 104.239 281.413 103.894C281.038 103.546 280.591 103.372 280.072 103.372C279.288 103.372 278.673 103.758 278.226 104.531C277.779 105.303 277.553 106.415 277.55 107.866C277.55 108.836 277.65 109.656 277.851 110.326C278.055 110.993 278.345 111.498 278.72 111.843C279.095 112.184 279.546 112.354 280.072 112.354ZM291.943 111.497V110.883C291.943 110.443 292.034 110.042 292.216 109.678C292.402 109.311 292.67 109.017 293.023 108.798C293.379 108.574 293.809 108.462 294.312 108.462C294.828 108.462 295.259 108.572 295.608 108.792C295.956 109.012 296.22 109.305 296.398 109.673C296.58 110.04 296.67 110.443 296.67 110.883V111.497C296.67 111.936 296.58 112.339 296.398 112.707C296.216 113.07 295.949 113.364 295.597 113.587C295.248 113.807 294.82 113.917 294.312 113.917C293.801 113.917 293.369 113.807 293.017 113.587C292.665 113.364 292.398 113.07 292.216 112.707C292.034 112.339 291.943 111.936 291.943 111.497ZM293.267 110.883V111.497C293.267 111.822 293.345 112.118 293.5 112.383C293.655 112.648 293.926 112.781 294.312 112.781C294.695 112.781 294.962 112.648 295.114 112.383C295.265 112.118 295.341 111.822 295.341 111.497V110.883C295.341 110.557 295.267 110.262 295.119 109.997C294.975 109.731 294.706 109.599 294.312 109.599C293.934 109.599 293.665 109.731 293.506 109.997C293.347 110.262 293.267 110.557 293.267 110.883ZM286.091 104.837V104.224C286.091 103.784 286.182 103.381 286.364 103.014C286.549 102.646 286.818 102.353 287.17 102.133C287.527 101.913 287.956 101.803 288.46 101.803C288.975 101.803 289.407 101.913 289.756 102.133C290.104 102.353 290.367 102.646 290.545 103.014C290.723 103.381 290.812 103.784 290.812 104.224V104.837C290.812 105.277 290.722 105.68 290.54 106.048C290.362 106.411 290.097 106.705 289.744 106.928C289.396 107.148 288.968 107.258 288.46 107.258C287.945 107.258 287.511 107.148 287.159 106.928C286.811 106.705 286.545 106.411 286.364 106.048C286.182 105.68 286.091 105.277 286.091 104.837ZM287.42 104.224V104.837C287.42 105.163 287.496 105.459 287.648 105.724C287.803 105.989 288.074 106.122 288.46 106.122C288.839 106.122 289.104 105.989 289.256 105.724C289.411 105.459 289.489 105.163 289.489 104.837V104.224C289.489 103.898 289.415 103.603 289.267 103.337C289.119 103.072 288.85 102.94 288.46 102.94C288.081 102.94 287.813 103.072 287.653 103.337C287.498 103.603 287.42 103.898 287.42 104.224ZM286.631 113.678L294.631 102.042H295.989L287.989 113.678H286.631Z" fill="#1E222E"/>
<path d="M313.625 105.099C313.564 104.561 313.314 104.144 312.875 103.849C312.436 103.55 311.883 103.4 311.216 103.4C310.739 103.4 310.326 103.476 309.977 103.627C309.629 103.775 309.358 103.979 309.165 104.241C308.975 104.498 308.881 104.792 308.881 105.122C308.881 105.398 308.945 105.637 309.074 105.837C309.206 106.038 309.379 106.207 309.591 106.343C309.807 106.476 310.038 106.587 310.284 106.678C310.53 106.765 310.767 106.837 310.994 106.894L312.131 107.19C312.502 107.281 312.883 107.404 313.273 107.559C313.663 107.714 314.025 107.919 314.358 108.173C314.691 108.426 314.96 108.741 315.165 109.116C315.373 109.491 315.477 109.94 315.477 110.462C315.477 111.122 315.307 111.707 314.966 112.218C314.629 112.729 314.138 113.133 313.494 113.428C312.854 113.724 312.08 113.872 311.17 113.872C310.299 113.872 309.545 113.733 308.909 113.457C308.273 113.18 307.775 112.788 307.415 112.281C307.055 111.769 306.856 111.163 306.818 110.462H308.58C308.614 110.883 308.75 111.233 308.989 111.514C309.231 111.79 309.54 111.997 309.915 112.133C310.294 112.265 310.708 112.332 311.159 112.332C311.655 112.332 312.097 112.254 312.483 112.099C312.873 111.94 313.18 111.72 313.403 111.44C313.627 111.156 313.739 110.824 313.739 110.445C313.739 110.101 313.64 109.818 313.443 109.599C313.25 109.379 312.987 109.197 312.653 109.053C312.324 108.909 311.951 108.783 311.534 108.673L310.159 108.298C309.227 108.044 308.489 107.671 307.943 107.178C307.402 106.686 307.131 106.034 307.131 105.224C307.131 104.553 307.313 103.968 307.676 103.468C308.04 102.968 308.532 102.58 309.153 102.303C309.775 102.023 310.475 101.883 311.256 101.883C312.044 101.883 312.739 102.021 313.341 102.298C313.947 102.574 314.424 102.955 314.773 103.44C315.121 103.921 315.303 104.474 315.318 105.099H313.625ZM320.795 113.854C319.977 113.854 319.263 113.667 318.653 113.292C318.043 112.917 317.57 112.392 317.233 111.718C316.895 111.044 316.727 110.256 316.727 109.354C316.727 108.449 316.895 107.658 317.233 106.979C317.57 106.301 318.043 105.775 318.653 105.4C319.263 105.025 319.977 104.837 320.795 104.837C321.613 104.837 322.327 105.025 322.937 105.4C323.547 105.775 324.02 106.301 324.358 106.979C324.695 107.658 324.863 108.449 324.863 109.354C324.863 110.256 324.695 111.044 324.358 111.718C324.02 112.392 323.547 112.917 322.937 113.292C322.327 113.667 321.613 113.854 320.795 113.854ZM320.801 112.428C321.331 112.428 321.77 112.288 322.119 112.008C322.467 111.728 322.725 111.354 322.892 110.889C323.062 110.423 323.147 109.909 323.147 109.349C323.147 108.792 323.062 108.281 322.892 107.815C322.725 107.345 322.467 106.968 322.119 106.684C321.77 106.4 321.331 106.258 320.801 106.258C320.267 106.258 319.823 106.4 319.471 106.684C319.123 106.968 318.863 107.345 318.693 107.815C318.526 108.281 318.443 108.792 318.443 109.349C318.443 109.909 318.526 110.423 318.693 110.889C318.863 111.354 319.123 111.728 319.471 112.008C319.823 112.288 320.267 112.428 320.801 112.428ZM328.138 102.042V113.678H326.44V102.042H328.138ZM330.104 113.678V104.951H331.803V113.678H330.104ZM330.962 103.604C330.666 103.604 330.413 103.506 330.201 103.309C329.992 103.108 329.888 102.87 329.888 102.593C329.888 102.313 329.992 102.074 330.201 101.877C330.413 101.676 330.666 101.576 330.962 101.576C331.257 101.576 331.509 101.676 331.718 101.877C331.93 102.074 332.036 102.313 332.036 102.593C332.036 102.87 331.93 103.108 331.718 103.309C331.509 103.506 331.257 103.604 330.962 103.604ZM337.035 113.849C336.331 113.849 335.702 113.669 335.149 113.309C334.6 112.945 334.168 112.428 333.854 111.758C333.543 111.084 333.388 110.275 333.388 109.332C333.388 108.389 333.545 107.582 333.859 106.911C334.177 106.241 334.613 105.728 335.166 105.372C335.719 105.015 336.346 104.837 337.047 104.837C337.588 104.837 338.024 104.928 338.354 105.11C338.687 105.288 338.944 105.497 339.126 105.735C339.312 105.974 339.456 106.184 339.558 106.366H339.66V102.042H341.359V113.678H339.7V112.32H339.558C339.456 112.506 339.308 112.718 339.115 112.957C338.925 113.195 338.664 113.404 338.331 113.582C337.997 113.76 337.566 113.849 337.035 113.849ZM337.41 112.4C337.899 112.4 338.312 112.271 338.649 112.014C338.99 111.752 339.247 111.39 339.422 110.928C339.6 110.466 339.689 109.928 339.689 109.315C339.689 108.709 339.602 108.178 339.427 107.724C339.253 107.269 338.997 106.915 338.66 106.661C338.323 106.408 337.907 106.281 337.41 106.281C336.899 106.281 336.473 106.413 336.132 106.678C335.791 106.943 335.533 107.305 335.359 107.764C335.189 108.222 335.104 108.739 335.104 109.315C335.104 109.898 335.191 110.423 335.365 110.889C335.539 111.354 335.797 111.724 336.138 111.997C336.482 112.265 336.907 112.4 337.41 112.4ZM343.464 113.678V104.951H345.163V113.678H343.464ZM344.322 103.604C344.026 103.604 343.773 103.506 343.561 103.309C343.352 103.108 343.248 102.87 343.248 102.593C343.248 102.313 343.352 102.074 343.561 101.877C343.773 101.676 344.026 101.576 344.322 101.576C344.617 101.576 344.869 101.676 345.078 101.877C345.29 102.074 345.396 102.313 345.396 102.593C345.396 102.87 345.29 103.108 345.078 103.309C344.869 103.506 344.617 103.604 344.322 103.604ZM351.202 104.951V106.315H346.435V104.951H351.202ZM347.714 102.86H349.412V111.116C349.412 111.445 349.462 111.693 349.56 111.86C349.659 112.023 349.785 112.135 349.941 112.195C350.1 112.252 350.272 112.281 350.458 112.281C350.594 112.281 350.714 112.271 350.816 112.252C350.918 112.233 350.998 112.218 351.054 112.207L351.361 113.61C351.263 113.648 351.123 113.686 350.941 113.724C350.759 113.765 350.532 113.788 350.259 113.792C349.812 113.8 349.395 113.72 349.009 113.553C348.623 113.387 348.31 113.129 348.071 112.781C347.833 112.432 347.714 111.995 347.714 111.468V102.86ZM353.835 116.951C353.581 116.951 353.35 116.93 353.142 116.889C352.934 116.851 352.778 116.809 352.676 116.764L353.085 115.372C353.396 115.455 353.672 115.491 353.915 115.479C354.157 115.468 354.371 115.377 354.557 115.207C354.746 115.036 354.913 114.758 355.057 114.372L355.267 113.792L352.074 104.951H353.892L356.102 111.724H356.193L358.403 104.951H360.227L356.631 114.843C356.464 115.298 356.252 115.682 355.994 115.997C355.737 116.315 355.43 116.553 355.074 116.712C354.718 116.872 354.305 116.951 353.835 116.951Z" fill="#1E222E"/>
<rect x="306" y="126.678" width="35" height="6" rx="3" fill="#397CE8"/>
<path d="M266.704 165.678V164.406L270.642 160.326C271.062 159.883 271.409 159.495 271.682 159.161C271.958 158.824 272.165 158.504 272.301 158.201C272.437 157.898 272.505 157.576 272.505 157.235C272.505 156.849 272.415 156.515 272.233 156.235C272.051 155.951 271.803 155.733 271.488 155.582C271.174 155.426 270.82 155.349 270.426 155.349C270.009 155.349 269.646 155.434 269.335 155.604C269.024 155.775 268.786 156.015 268.619 156.326C268.452 156.637 268.369 157 268.369 157.417H266.693C266.693 156.709 266.856 156.089 267.182 155.559C267.507 155.029 267.954 154.618 268.522 154.326C269.091 154.031 269.737 153.883 270.46 153.883C271.191 153.883 271.835 154.029 272.392 154.32C272.952 154.608 273.39 155.002 273.704 155.502C274.019 155.998 274.176 156.559 274.176 157.184C274.176 157.616 274.094 158.038 273.932 158.451C273.772 158.864 273.494 159.324 273.096 159.832C272.699 160.336 272.146 160.947 271.437 161.667L269.125 164.087V164.173H274.363V165.678H266.704ZM280.088 165.837C279.308 165.837 278.611 165.703 277.997 165.434C277.387 165.165 276.904 164.792 276.548 164.315C276.196 163.834 276.007 163.277 275.98 162.644H277.764C277.787 162.989 277.902 163.288 278.111 163.542C278.323 163.792 278.599 163.985 278.94 164.122C279.281 164.258 279.66 164.326 280.077 164.326C280.535 164.326 280.94 164.247 281.292 164.087C281.649 163.928 281.927 163.707 282.128 163.423C282.328 163.135 282.429 162.803 282.429 162.428C282.429 162.038 282.328 161.695 282.128 161.4C281.931 161.101 281.641 160.866 281.258 160.695C280.88 160.525 280.421 160.44 279.883 160.44H278.9V159.008H279.883C280.315 159.008 280.694 158.93 281.02 158.775C281.349 158.62 281.607 158.404 281.792 158.127C281.978 157.847 282.071 157.519 282.071 157.144C282.071 156.784 281.989 156.472 281.827 156.207C281.667 155.938 281.44 155.728 281.145 155.576C280.853 155.425 280.508 155.349 280.111 155.349C279.732 155.349 279.378 155.419 279.048 155.559C278.722 155.695 278.457 155.892 278.253 156.15C278.048 156.404 277.938 156.709 277.923 157.065H276.224C276.243 156.436 276.429 155.883 276.781 155.406C277.137 154.928 277.607 154.555 278.19 154.286C278.774 154.017 279.421 153.883 280.133 153.883C280.88 153.883 281.524 154.029 282.065 154.32C282.611 154.608 283.031 154.993 283.327 155.474C283.626 155.955 283.774 156.481 283.77 157.053C283.774 157.705 283.592 158.258 283.224 158.712C282.861 159.167 282.376 159.472 281.77 159.627V159.718C282.542 159.836 283.141 160.142 283.565 160.639C283.993 161.135 284.205 161.75 284.202 162.485C284.205 163.125 284.027 163.699 283.667 164.207C283.311 164.714 282.825 165.114 282.207 165.406C281.59 165.693 280.883 165.837 280.088 165.837ZM291.943 163.497V162.883C291.943 162.443 292.034 162.042 292.216 161.678C292.402 161.311 292.67 161.017 293.023 160.798C293.379 160.574 293.809 160.462 294.312 160.462C294.828 160.462 295.259 160.572 295.608 160.792C295.956 161.012 296.22 161.305 296.398 161.673C296.58 162.04 296.67 162.443 296.67 162.883V163.497C296.67 163.936 296.58 164.339 296.398 164.707C296.216 165.07 295.949 165.364 295.597 165.587C295.248 165.807 294.82 165.917 294.312 165.917C293.801 165.917 293.369 165.807 293.017 165.587C292.665 165.364 292.398 165.07 292.216 164.707C292.034 164.339 291.943 163.936 291.943 163.497ZM293.267 162.883V163.497C293.267 163.822 293.345 164.118 293.5 164.383C293.655 164.648 293.926 164.781 294.312 164.781C294.695 164.781 294.962 164.648 295.114 164.383C295.265 164.118 295.341 163.822 295.341 163.497V162.883C295.341 162.557 295.267 162.262 295.119 161.997C294.975 161.731 294.706 161.599 294.312 161.599C293.934 161.599 293.665 161.731 293.506 161.997C293.347 162.262 293.267 162.557 293.267 162.883ZM286.091 156.837V156.224C286.091 155.784 286.182 155.381 286.364 155.014C286.549 154.646 286.818 154.353 287.17 154.133C287.527 153.913 287.956 153.803 288.46 153.803C288.975 153.803 289.407 153.913 289.756 154.133C290.104 154.353 290.367 154.646 290.545 155.014C290.723 155.381 290.812 155.784 290.812 156.224V156.837C290.812 157.277 290.722 157.68 290.54 158.048C290.362 158.411 290.097 158.705 289.744 158.928C289.396 159.148 288.968 159.258 288.46 159.258C287.945 159.258 287.511 159.148 287.159 158.928C286.811 158.705 286.545 158.411 286.364 158.048C286.182 157.68 286.091 157.277 286.091 156.837ZM287.42 156.224V156.837C287.42 157.163 287.496 157.459 287.648 157.724C287.803 157.989 288.074 158.122 288.46 158.122C288.839 158.122 289.104 157.989 289.256 157.724C289.411 157.459 289.489 157.163 289.489 156.837V156.224C289.489 155.898 289.415 155.603 289.267 155.337C289.119 155.072 288.85 154.94 288.46 154.94C288.081 154.94 287.813 155.072 287.653 155.337C287.498 155.603 287.42 155.898 287.42 156.224ZM286.631 165.678L294.631 154.042H295.989L287.989 165.678H286.631Z" fill="#1E222E"/>
<path d="M317.386 159.86C317.386 161.103 317.159 162.171 316.705 163.065C316.25 163.955 315.627 164.64 314.835 165.122C314.047 165.599 313.152 165.837 312.148 165.837C311.14 165.837 310.241 165.599 309.449 165.122C308.661 164.64 308.04 163.953 307.585 163.059C307.131 162.165 306.903 161.099 306.903 159.86C306.903 158.618 307.131 157.551 307.585 156.661C308.04 155.767 308.661 155.082 309.449 154.604C310.241 154.123 311.14 153.883 312.148 153.883C313.152 153.883 314.047 154.123 314.835 154.604C315.627 155.082 316.25 155.767 316.705 156.661C317.159 157.551 317.386 158.618 317.386 159.86ZM315.648 159.86C315.648 158.913 315.494 158.116 315.188 157.468C314.884 156.817 314.468 156.324 313.938 155.991C313.411 155.654 312.814 155.485 312.148 155.485C311.477 155.485 310.879 155.654 310.352 155.991C309.826 156.324 309.409 156.817 309.102 157.468C308.799 158.116 308.648 158.913 308.648 159.86C308.648 160.807 308.799 161.606 309.102 162.258C309.409 162.906 309.826 163.398 310.352 163.735C310.879 164.068 311.477 164.235 312.148 164.235C312.814 164.235 313.411 164.068 313.938 163.735C314.468 163.398 314.884 162.906 315.188 162.258C315.494 161.606 315.648 160.807 315.648 159.86ZM323.193 156.951V158.315H318.426V156.951H323.193ZM319.704 154.86H321.403V163.116C321.403 163.445 321.452 163.693 321.551 163.86C321.649 164.023 321.776 164.135 321.931 164.195C322.091 164.252 322.263 164.281 322.448 164.281C322.585 164.281 322.704 164.271 322.806 164.252C322.909 164.233 322.988 164.218 323.045 164.207L323.352 165.61C323.253 165.648 323.113 165.686 322.931 165.724C322.75 165.765 322.522 165.788 322.25 165.792C321.803 165.8 321.386 165.72 321 165.553C320.613 165.387 320.301 165.129 320.062 164.781C319.823 164.432 319.704 163.995 319.704 163.468V154.86ZM326.638 160.497V165.678H324.94V154.042H326.616V158.372H326.724C326.928 157.902 327.241 157.529 327.661 157.252C328.082 156.976 328.631 156.837 329.309 156.837C329.907 156.837 330.43 156.961 330.877 157.207C331.328 157.453 331.676 157.82 331.923 158.309C332.173 158.794 332.298 159.4 332.298 160.127V165.678H330.599V160.332C330.599 159.692 330.434 159.195 330.104 158.843C329.775 158.487 329.316 158.309 328.729 158.309C328.328 158.309 327.968 158.394 327.65 158.565C327.335 158.735 327.087 158.985 326.905 159.315C326.727 159.64 326.638 160.034 326.638 160.497ZM338.006 165.854C337.146 165.854 336.406 165.671 335.784 165.303C335.167 164.932 334.69 164.411 334.353 163.741C334.019 163.067 333.853 162.277 333.853 161.372C333.853 160.478 334.019 159.69 334.353 159.008C334.69 158.326 335.159 157.794 335.762 157.411C336.368 157.029 337.076 156.837 337.887 156.837C338.379 156.837 338.856 156.919 339.318 157.082C339.781 157.245 340.195 157.5 340.563 157.849C340.93 158.197 341.22 158.65 341.432 159.207C341.644 159.76 341.75 160.432 341.75 161.224V161.826H334.813V160.553H340.085C340.085 160.106 339.995 159.711 339.813 159.366C339.631 159.017 339.375 158.743 339.046 158.542C338.72 158.341 338.337 158.241 337.898 158.241C337.421 158.241 337.004 158.358 336.648 158.593C336.296 158.824 336.023 159.127 335.83 159.502C335.64 159.873 335.546 160.277 335.546 160.712V161.707C335.546 162.29 335.648 162.786 335.853 163.195C336.061 163.604 336.351 163.917 336.722 164.133C337.093 164.345 337.527 164.451 338.023 164.451C338.345 164.451 338.638 164.406 338.904 164.315C339.169 164.22 339.398 164.08 339.591 163.894C339.784 163.709 339.932 163.479 340.034 163.207L341.642 163.497C341.513 163.97 341.282 164.385 340.949 164.741C340.62 165.093 340.205 165.368 339.705 165.565C339.209 165.758 338.642 165.854 338.006 165.854ZM343.315 165.678V156.951H344.957V158.337H345.048C345.207 157.868 345.488 157.498 345.889 157.229C346.294 156.957 346.753 156.82 347.264 156.82C347.37 156.82 347.495 156.824 347.639 156.832C347.787 156.839 347.902 156.849 347.986 156.86V158.485C347.917 158.466 347.796 158.445 347.622 158.423C347.448 158.396 347.274 158.383 347.099 158.383C346.698 158.383 346.34 158.468 346.025 158.639C345.715 158.805 345.469 159.038 345.287 159.337C345.105 159.633 345.014 159.97 345.014 160.349V165.678H343.315Z" fill="#1E222E"/>
<rect x="306" y="178.678" width="85" height="6" rx="3" fill="#397CE8"/>
</svg>
