<svg width="208" height="414" fill="none" xmlns="http://www.w3.org/2000/svg"><path d="M4.046 21L.352 7.91h2.55l2.359 9.62h.121l2.519-9.62h2.32l2.525 9.625h.115l2.358-9.626h2.55L14.076 21h-2.34l-2.62-9.185h-.102L6.386 21h-2.34zm18.43.192c-.984 0-1.834-.205-2.55-.614a4.155 4.155 0 01-1.643-1.751c-.383-.759-.575-1.652-.575-2.679 0-1.01.192-1.896.575-2.659a4.35 4.35 0 011.624-1.79c.695-.43 1.51-.645 2.448-.645.605 0 1.176.098 1.713.294.541.192 1.019.49 1.432.895.418.405.746.92.984 1.547.24.622.358 1.363.358 2.224v.71h-8.047v-1.56h5.83a2.489 2.489 0 00-.288-1.182 2.091 2.091 0 00-.787-.825c-.332-.2-.72-.3-1.163-.3-.473 0-.888.115-1.246.345a2.379 2.379 0 00-.838.895 2.57 2.57 0 00-.3 1.208v1.361c0 .571.104 1.061.313 1.47.209.405.5.716.876.934.375.213.814.32 1.317.32a2.8 2.8 0 00.914-.141c.272-.098.509-.241.71-.429.2-.187.35-.42.453-.696l2.16.242a3.368 3.368 0 01-.78 1.496c-.379.422-.864.75-1.457.985-.592.23-1.27.345-2.032.345zm13.254.006c-.622 0-1.182-.11-1.681-.332a2.744 2.744 0 01-1.176-.997c-.286-.44-.428-.98-.428-1.624 0-.554.102-1.012.306-1.374.205-.362.484-.652.838-.87a4.226 4.226 0 011.195-.492c.447-.115.91-.198 1.387-.25a51.97 51.97 0 001.4-.159c.358-.051.618-.128.78-.23.166-.106.25-.27.25-.492v-.039c0-.481-.144-.854-.43-1.118-.285-.264-.696-.396-1.233-.396-.567 0-1.016.123-1.349.37-.328.248-.55.54-.664.876l-2.16-.307c.17-.596.45-1.095.843-1.495a3.67 3.67 0 011.438-.908 5.5 5.5 0 011.88-.307c.472 0 .943.055 1.412.166.469.111.897.294 1.285.55.388.251.699.594.933 1.029.239.435.358.978.358 1.63V21H38.69v-1.349h-.077c-.14.273-.339.529-.595.767a2.859 2.859 0 01-.952.57c-.38.14-.825.21-1.336.21zm.6-1.7c.465 0 .868-.092 1.209-.275.34-.188.603-.435.786-.741.188-.307.281-.642.281-1.004v-1.157c-.072.06-.196.115-.37.166a5.22 5.22 0 01-.575.134c-.214.039-.425.073-.633.103l-.544.076a4.044 4.044 0 00-.927.23 1.54 1.54 0 00-.645.448c-.158.188-.237.43-.237.729 0 .426.156.747.467.965.311.217.707.326 1.189.326zM43.06 21v-9.818h2.244v1.636h.103c.179-.567.485-1.003.92-1.31.439-.311.94-.467 1.502-.467.128 0 .27.007.428.02.162.008.297.023.403.044v2.129a2.426 2.426 0 00-.466-.09 4.283 4.283 0 00-.608-.045c-.422 0-.8.092-1.137.275a2.011 2.011 0 00-.787.748c-.191.32-.287.688-.287 1.106V21H43.06zm10.9.192c-.985 0-1.835-.205-2.55-.614a4.156 4.156 0 01-1.643-1.751c-.384-.759-.576-1.652-.576-2.679 0-1.01.192-1.896.575-2.659a4.35 4.35 0 011.624-1.79c.695-.43 1.51-.645 2.448-.645.605 0 1.176.098 1.713.294.541.192 1.019.49 1.432.895.418.405.746.92.985 1.547.238.622.357 1.363.357 2.224v.71h-8.047v-1.56h5.83a2.49 2.49 0 00-.288-1.182 2.091 2.091 0 00-.786-.825c-.333-.2-.72-.3-1.164-.3-.473 0-.888.115-1.246.345a2.379 2.379 0 00-.838.895 2.57 2.57 0 00-.3 1.208v1.361c0 .571.104 1.061.313 1.47.209.405.5.716.876.934.375.213.814.32 1.317.32.336 0 .641-.048.914-.141.273-.098.509-.241.71-.429.2-.187.35-.42.453-.696l2.16.242a3.367 3.367 0 01-.78 1.496c-.378.422-.864.75-1.457.985-.592.23-1.27.345-2.032.345zM64.49 21V7.91h2.314v4.895h.096c.12-.238.288-.492.505-.76a2.68 2.68 0 01.882-.697c.37-.196.844-.294 1.42-.294a3.74 3.74 0 012.05.582c.615.383 1.1.952 1.458 1.706.362.75.544 1.67.544 2.762 0 1.078-.177 1.994-.53 2.748-.355.755-.836 1.33-1.445 1.726a3.72 3.72 0 01-2.072.595c-.562 0-1.029-.094-1.4-.282a2.849 2.849 0 01-.894-.677 4.386 4.386 0 01-.518-.76h-.134V21H64.49zm2.27-4.91c0 .636.089 1.192.268 1.67.183.476.445.85.786 1.118.345.264.763.396 1.253.396.511 0 .94-.136 1.285-.409.345-.277.605-.654.78-1.131.178-.482.268-1.03.268-1.643 0-.61-.087-1.15-.262-1.624-.175-.473-.435-.843-.78-1.112-.345-.268-.776-.403-1.291-.403-.494 0-.914.13-1.26.39-.344.26-.607.625-.786 1.093-.174.47-.262 1.021-.262 1.656zm13.132 5.102c-.984 0-1.834-.205-2.55-.614a4.155 4.155 0 01-1.643-1.751c-.383-.759-.575-1.652-.575-2.679 0-1.01.192-1.896.575-2.659a4.35 4.35 0 011.624-1.79c.694-.43 1.51-.645 2.448-.645.605 0 1.176.098 1.713.294.541.192 1.019.49 1.432.895.417.405.746.92.984 1.547.239.622.358 1.363.358 2.224v.71h-8.047v-1.56h5.83a2.489 2.489 0 00-.288-1.182 2.09 2.09 0 00-.787-.825c-.332-.2-.72-.3-1.163-.3-.473 0-.889.115-1.247.345a2.38 2.38 0 00-.837.895 2.57 2.57 0 00-.3 1.208v1.361c0 .571.104 1.061.313 1.47.209.405.5.716.876.934.375.213.813.32 1.316.32a2.8 2.8 0 00.914-.141 2.02 2.02 0 00.71-.429c.2-.187.352-.42.454-.696l2.16.242a3.368 3.368 0 01-.78 1.496c-.379.422-.865.75-1.457.985-.592.23-1.27.345-2.033.345zM86.036 21v-9.818h2.314V21h-2.314zm1.163-11.212a1.35 1.35 0 01-.946-.364 1.174 1.174 0 01-.396-.888c0-.35.132-.646.396-.889.264-.247.58-.37.946-.37.37 0 .686.123.946.37.264.243.396.54.396.889 0 .345-.132.64-.396.888-.26.243-.575.364-.946.364zm5.664 5.46V21h-2.314v-9.818h2.212v1.668h.115c.226-.55.586-.986 1.08-1.31.499-.324 1.114-.486 1.847-.486.678 0 1.268.145 1.77.435.508.29.9.71 1.177 1.259.281.55.42 1.216.416 2V21h-2.314v-5.893c0-.657-.17-1.17-.512-1.54-.336-.372-.803-.557-1.4-.557-.404 0-.764.09-1.08.268a1.86 1.86 0 00-.735.761c-.175.332-.262.735-.262 1.208zm12.745 9.638c-.831 0-1.545-.113-2.142-.338-.596-.222-1.076-.52-1.438-.895a3.104 3.104 0 01-.754-1.247l2.084-.505c.093.192.23.382.409.57.179.19.42.349.722.472.307.128.693.192 1.157.192.656 0 1.2-.16 1.63-.48.43-.315.646-.835.646-1.56v-1.86h-.115c-.12.24-.294.485-.525.736a2.673 2.673 0 01-.901.633c-.371.17-.837.255-1.4.255a4.037 4.037 0 01-2.052-.53c-.609-.358-1.095-.89-1.457-1.598-.358-.712-.537-1.602-.537-2.672 0-1.078.179-1.988.537-2.73.362-.745.85-1.31 1.464-1.693a3.759 3.759 0 012.052-.582c.575 0 1.048.098 1.419.294.375.192.673.424.895.697.221.268.39.522.505.76h.127v-1.623h2.282v9.978c0 .84-.2 1.534-.6 2.084-.401.55-.949.96-1.643 1.233-.695.273-1.483.41-2.365.41zm.019-5.842c.49 0 .908-.12 1.253-.358.345-.239.607-.582.786-1.029.179-.448.268-.984.268-1.61 0-.619-.089-1.16-.268-1.624-.175-.465-.435-.825-.78-1.08-.341-.26-.761-.39-1.259-.39-.516 0-.946.134-1.291.402-.345.269-.605.637-.78 1.106-.175.464-.262.993-.262 1.585 0 .601.087 1.127.262 1.579.179.447.441.797.786 1.048.35.248.778.371 1.285.371zM118.719 21l-2.774-9.818h2.358l1.726 6.903h.09l1.764-6.903h2.333l1.764 6.865h.096l1.7-6.865h2.366L127.361 21h-2.41l-1.841-6.635h-.134L121.135 21h-2.416zm15.683.198c-.622 0-1.182-.11-1.681-.332a2.747 2.747 0 01-1.176-.997c-.285-.44-.428-.98-.428-1.624 0-.554.102-1.012.307-1.374.204-.362.483-.652.837-.87a4.229 4.229 0 011.195-.492c.448-.115.91-.198 1.387-.25a51.501 51.501 0 001.4-.159c.358-.051.618-.128.78-.23.166-.106.249-.27.249-.492v-.039c0-.481-.142-.854-.428-1.118-.285-.264-.697-.396-1.233-.396-.567 0-1.017.123-1.349.37-.328.248-.55.54-.665.876l-2.161-.307c.171-.596.452-1.095.844-1.495a3.674 3.674 0 011.438-.908 5.506 5.506 0 011.88-.307 6.1 6.1 0 011.412.166c.469.111.897.294 1.285.55.388.251.699.594.933 1.029.239.435.358.978.358 1.63V21h-2.224v-1.349h-.077a2.81 2.81 0 01-.594.767 2.863 2.863 0 01-.953.57c-.379.14-.824.21-1.336.21zm.601-1.7c.465 0 .867-.092 1.208-.275.341-.188.603-.435.787-.741.187-.307.281-.642.281-1.004v-1.157c-.073.06-.196.115-.371.166-.17.051-.362.096-.575.134-.213.039-.424.073-.633.103l-.543.076a4.038 4.038 0 00-.927.23 1.542 1.542 0 00-.646.448c-.157.188-.236.43-.236.729 0 .426.155.747.466.965.311.217.708.326 1.189.326zm11.633-8.316v1.79h-5.644v-1.79h5.644zm-4.251-2.352h2.314v9.217c0 .311.047.55.141.716a.757.757 0 00.383.332c.158.06.333.09.524.09.145 0 .277-.011.397-.032.123-.022.217-.04.281-.058l.39 1.81a5.378 5.378 0 01-.531.14 4.34 4.34 0 01-.831.09 3.776 3.776 0 01-1.566-.263 2.441 2.441 0 01-1.106-.907c-.268-.41-.4-.921-.396-1.535v-9.6zm10.183 12.362c-.98 0-1.822-.215-2.525-.646a4.308 4.308 0 01-1.617-1.783c-.375-.763-.562-1.64-.562-2.634 0-.997.191-1.877.575-2.64a4.294 4.294 0 011.623-1.79c.704-.43 1.535-.645 2.493-.645.797 0 1.502.147 2.116.441.618.29 1.11.701 1.477 1.234.366.528.575 1.146.626 1.853h-2.212a2.109 2.109 0 00-.639-1.182c-.332-.32-.777-.48-1.336-.48-.473 0-.888.128-1.246.384-.358.251-.637.614-.837 1.087-.197.473-.295 1.04-.295 1.7 0 .669.098 1.244.295 1.726.196.477.47.846.824 1.106a2.11 2.11 0 001.259.383c.341 0 .646-.064.914-.192.273-.132.501-.321.684-.569a2.17 2.17 0 00.377-.9h2.212a3.85 3.85 0 01-.614 1.846 3.63 3.63 0 01-1.444 1.253c-.609.299-1.325.448-2.148.448zm8.24-5.945V21h-2.314V7.91h2.263v4.94h.115c.23-.554.586-.99 1.067-1.31.486-.324 1.104-.486 1.854-.486.682 0 1.276.143 1.784.428a2.89 2.89 0 011.176 1.253c.281.55.422 1.221.422 2.014V21h-2.314v-5.893c0-.661-.171-1.175-.512-1.54-.336-.372-.809-.557-1.419-.557-.409 0-.775.09-1.099.268a1.88 1.88 0 00-.754.761c-.179.332-.269.735-.269 1.208zm12.892 5.945c-.985 0-1.835-.205-2.551-.614a4.154 4.154 0 01-1.642-1.751c-.384-.759-.576-1.652-.576-2.679 0-1.01.192-1.896.576-2.659a4.348 4.348 0 011.623-1.79c.695-.43 1.511-.645 2.448-.645.605 0 1.176.098 1.713.294.542.192 1.019.49 1.432.895.418.405.746.92.985 1.547.238.622.358 1.363.358 2.224v.71h-8.048v-1.56h5.83a2.504 2.504 0 00-.288-1.182 2.098 2.098 0 00-.786-.825c-.333-.2-.721-.3-1.164-.3-.473 0-.888.115-1.246.345a2.376 2.376 0 00-.837.895 2.559 2.559 0 00-.301 1.208v1.361c0 .571.104 1.061.313 1.47.209.405.501.716.876.934.375.213.814.32 1.317.32.336 0 .641-.048.914-.141.273-.098.509-.241.709-.429.201-.187.352-.42.454-.696l2.161.242a3.38 3.38 0 01-.78 1.496c-.379.422-.865.75-1.458.985-.592.23-1.269.345-2.032.345zm9.787-.02c-.772 0-1.462-.198-2.071-.594-.61-.396-1.091-.971-1.445-1.726-.354-.754-.531-1.67-.531-2.748 0-1.091.179-2.012.537-2.762.363-.754.851-1.323 1.464-1.706a3.764 3.764 0 012.052-.582c.575 0 1.048.098 1.419.294.371.192.665.424.882.697.217.268.386.522.505.76h.096V7.91h2.32V21h-2.275v-1.547h-.141a3.934 3.934 0 01-.518.76c-.226.265-.524.49-.895.678-.37.188-.837.282-1.399.282zm.645-1.898c.49 0 .908-.132 1.253-.396.345-.269.607-.642.786-1.119.179-.477.269-1.033.269-1.668s-.09-1.187-.269-1.656c-.174-.468-.434-.833-.78-1.093-.34-.26-.76-.39-1.259-.39-.515 0-.946.135-1.291.403-.345.269-.605.64-.78 1.112-.175.473-.262 1.014-.262 1.624 0 .613.087 1.161.262 1.643.179.477.441.854.786 1.131.35.273.778.41 1.285.41zm8.294 1.867c-.387 0-.72-.137-.997-.41a1.326 1.326 0 01-.409-.997 1.31 1.31 0 01.409-.984c.277-.273.61-.41.997-.41.375 0 .701.137.978.41a1.345 1.345 0 01.224 1.694 1.47 1.47 0 01-.511.511 1.332 1.332 0 01-.691.186zm0-7.006c-.387 0-.72-.136-.997-.41a1.339 1.339 0 01-.409-.996 1.31 1.31 0 01.409-.985 1.36 1.36 0 01.997-.415c.375 0 .701.138.978.415.282.273.424.601.429.985a1.36 1.36 0 01-.205.703 1.47 1.47 0 01-.511.511 1.298 1.298 0 01-.691.192zM6.1 61.16c-.781 0-1.478-.135-2.092-.404-.61-.27-1.093-.642-1.449-1.12a2.972 2.972 0 01-.568-1.67h1.784c.023.345.139.644.347.898.212.25.489.443.83.58.34.136.72.204 1.136.204.458 0 .863-.08 1.216-.239.356-.159.634-.38.835-.665a1.7 1.7 0 00.301-.994c0-.39-.1-.733-.301-1.028-.197-.3-.487-.535-.87-.705-.378-.17-.836-.256-1.374-.256h-.983V54.33h.983c.431 0 .81-.078 1.136-.233.33-.156.587-.372.773-.648a1.74 1.74 0 00.278-.983c0-.36-.081-.672-.244-.938a1.641 1.641 0 00-.682-.63c-.292-.152-.636-.228-1.034-.228-.379 0-.733.07-1.063.21a1.96 1.96 0 00-.795.592 1.52 1.52 0 00-.33.914H2.236a2.87 2.87 0 01.556-1.659 3.6 3.6 0 011.41-1.119 4.585 4.585 0 011.943-.403c.746 0 1.39.145 1.931.437.546.288.966.672 1.262 1.153.3.481.447 1.008.443 1.58.004.651-.178 1.205-.545 1.66-.364.454-.849.759-1.455.914v.09c.773.118 1.371.425 1.795.921.428.496.64 1.112.637 1.847a2.874 2.874 0 01-.534 1.721c-.356.508-.843.908-1.46 1.2-.618.287-1.324.431-2.12.431zm5.536-2.433v-1.42l5.029-7.943h1.119v2.09h-.71l-3.597 5.694v.09h6.892v1.49h-8.733zM17.153 61v-2.705l.012-.647v-8.284h1.664V61h-1.676zm10.79-2.182v-.613c0-.44.091-.841.273-1.205.185-.367.454-.661.807-.88.356-.224.786-.336 1.29-.336.515 0 .947.11 1.295.33.348.22.612.513.79.88.181.368.272.771.272 1.21v.614c0 .44-.09.843-.272 1.21a2.185 2.185 0 01-.801.881c-.349.22-.777.33-1.285.33-.51 0-.943-.11-1.295-.33a2.186 2.186 0 01-.801-.88 2.69 2.69 0 01-.273-1.21zm1.324-.613v.613c0 .326.078.621.233.887.155.265.426.397.813.397.382 0 .65-.132.8-.397.152-.266.228-.561.228-.887v-.613a1.79 1.79 0 00-.222-.887c-.144-.265-.413-.398-.806-.398-.38 0-.648.133-.807.398a1.69 1.69 0 00-.239.887zm-7.176-6.046v-.614c0-.439.09-.842.273-1.21.185-.367.454-.66.806-.88.356-.22.786-.33 1.29-.33.515 0 .947.11 1.296.33.348.22.611.513.79.88.178.368.267.771.267 1.21v.614c0 .44-.091.843-.273 1.21a2.145 2.145 0 01-.796.881c-.348.22-.776.33-1.284.33-.515 0-.949-.11-1.3-.33a2.198 2.198 0 01-.796-.88 2.69 2.69 0 01-.273-1.21zm1.33-.614v.614c0 .326.075.621.227.886.155.266.426.398.812.398.379 0 .644-.132.796-.398.155-.265.233-.56.233-.886v-.614c0-.325-.074-.62-.222-.886-.148-.265-.417-.398-.807-.398-.379 0-.648.133-.807.398-.155.265-.232.56-.232.886zM22.63 61l8-11.636h1.358l-8 11.636H22.63zm25.171-11.636h1.75v8.25c0 .746-.148 1.384-.443 1.914-.292.53-.703.936-1.233 1.216-.53.277-1.151.415-1.864.415-.655 0-1.244-.12-1.767-.358a2.906 2.906 0 01-1.233-1.04c-.299-.458-.449-1.015-.449-1.67h1.745c0 .322.074.6.221.835.152.235.358.419.62.551.265.13.568.194.909.194.371 0 .685-.078.943-.233.261-.16.46-.393.597-.7.136-.306.204-.681.204-1.124v-8.25zm10.332 3.056a1.66 1.66 0 00-.75-1.25c-.44-.299-.992-.448-1.659-.448-.477 0-.89.075-1.239.227a1.905 1.905 0 00-.812.614 1.44 1.44 0 00-.284.88c0 .277.064.515.193.716.133.2.305.37.517.506.216.132.447.244.693.335.246.087.483.16.71.216l1.137.295c.371.091.752.214 1.142.37.39.155.752.36 1.085.613.333.254.602.569.807.944.208.374.312.823.312 1.346 0 .66-.17 1.244-.511 1.756-.337.511-.828.915-1.472 1.21-.64.295-1.414.443-2.323.443-.872 0-1.625-.138-2.262-.415-.636-.276-1.134-.668-1.494-1.176-.36-.511-.559-1.117-.597-1.818h1.762c.034.42.17.77.409 1.051.242.277.55.483.926.62a3.76 3.76 0 001.244.198c.496 0 .938-.077 1.324-.233.39-.159.697-.378.92-.659.224-.284.336-.615.336-.994 0-.345-.099-.627-.296-.847a2.182 2.182 0 00-.79-.545 7.726 7.726 0 00-1.119-.38l-1.375-.376c-.932-.254-1.67-.627-2.216-1.119-.541-.492-.812-1.144-.812-1.955 0-.67.182-1.255.545-1.755.364-.5.856-.889 1.477-1.165.622-.28 1.322-.42 2.103-.42.788 0 1.483.138 2.085.414.606.277 1.083.657 1.432 1.142.348.481.53 1.034.545 1.66h-1.693zm11.84-3.602l-3.75 13.932h-1.517l3.75-13.932h1.517zm4.6 2.057v-1.511h9.006v1.511h-3.63V61h-1.75V50.875h-3.626zm10.614 13.398a3.54 3.54 0 01-.694-.063 2.18 2.18 0 01-.466-.125l.41-1.392c.31.084.587.12.83.108a.993.993 0 00.641-.273c.19-.17.356-.448.5-.835l.21-.58-3.193-8.84h1.818l2.21 6.772h.091l2.21-6.772h1.825l-3.597 9.892a3.948 3.948 0 01-.636 1.153 2.47 2.47 0 01-.92.716c-.357.16-.77.239-1.24.239zm7.668 0v-12h1.66v1.414h.141c.099-.181.24-.392.426-.63a2.41 2.41 0 01.773-.625c.33-.182.765-.273 1.307-.273.704 0 1.333.178 1.886.534.553.356.987.87 1.301 1.54.319.67.478 1.477.478 2.42 0 .944-.157 1.752-.472 2.427-.314.67-.746 1.187-1.295 1.55-.55.36-1.176.54-1.881.54-.53 0-.964-.089-1.301-.267a2.463 2.463 0 01-.784-.625 4.724 4.724 0 01-.438-.636h-.102v4.63h-1.699zm1.665-7.637c0 .614.089 1.152.267 1.614.178.462.436.824.773 1.085.337.258.75.387 1.238.387.508 0 .932-.135 1.273-.404.341-.273.599-.642.773-1.108.178-.466.267-.99.267-1.574a4.34 4.34 0 00-.261-1.55c-.171-.46-.428-.82-.773-1.086-.341-.265-.767-.398-1.279-.398-.492 0-.909.127-1.25.381-.337.254-.593.608-.767 1.063-.174.454-.261.984-.261 1.59zm11.652 4.54c-.86 0-1.601-.184-2.222-.551a3.74 3.74 0 01-1.432-1.563c-.333-.674-.5-1.463-.5-2.369 0-.894.167-1.682.5-2.363a3.883 3.883 0 011.409-1.597c.606-.383 1.315-.574 2.125-.574.493 0 .97.081 1.432.244.462.163.877.419 1.244.767.368.349.658.802.87 1.358.212.553.318 1.226.318 2.017v.603h-6.938v-1.273h5.273c0-.447-.091-.843-.273-1.188a2.053 2.053 0 00-.767-.823c-.325-.201-.708-.301-1.147-.301-.478 0-.894.117-1.25.352a2.367 2.367 0 00-.819.909 2.629 2.629 0 00-.284 1.21v.994c0 .584.103 1.08.307 1.489.208.41.498.722.869.938.372.212.805.318 1.302.318.322 0 .615-.046.88-.137.265-.094.495-.235.688-.42.193-.186.341-.415.443-.688l1.608.29c-.129.474-.36.888-.693 1.245-.33.352-.745.626-1.245.823-.496.194-1.062.29-1.698.29zm11.849-6.773l-1.54.273a1.842 1.842 0 00-.307-.562 1.515 1.515 0 00-.557-.438c-.235-.114-.528-.17-.881-.17-.481 0-.882.108-1.204.324-.322.212-.483.486-.483.823 0 .292.108.527.324.705.216.178.564.324 1.045.438l1.387.318c.803.185 1.401.471 1.795.858.394.386.591.888.591 1.505 0 .523-.151.989-.455 1.398-.299.405-.717.724-1.255.955-.534.23-1.154.346-1.858.346-.977 0-1.775-.208-2.392-.625-.618-.42-.996-1.017-1.137-1.79l1.642-.25c.103.428.313.752.631.972.318.216.733.324 1.244.324.557 0 1.002-.116 1.336-.347.333-.235.5-.52.5-.858a.893.893 0 00-.307-.687c-.201-.186-.51-.326-.926-.42l-1.478-.325c-.814-.185-1.416-.48-1.806-.886-.387-.405-.58-.919-.58-1.54a2.2 2.2 0 01.432-1.352c.288-.386.686-.688 1.193-.903.508-.22 1.089-.33 1.744-.33.944 0 1.686.205 2.228.614.541.405.899.949 1.074 1.63zm5.394 6.773c-.845 0-1.572-.191-2.182-.574a3.793 3.793 0 01-1.397-1.596c-.326-.678-.489-1.455-.489-2.33 0-.886.167-1.668.5-2.346a3.827 3.827 0 011.409-1.597c.606-.383 1.32-.574 2.142-.574.663 0 1.254.123 1.773.37.519.242.937.583 1.255 1.022.322.44.514.953.574 1.54h-1.653a1.98 1.98 0 00-.625-1.057c-.322-.295-.754-.443-1.296-.443a2.11 2.11 0 00-1.244.375c-.352.246-.627.598-.824 1.057-.197.454-.295.992-.295 1.613 0 .637.096 1.186.29 1.648.193.462.465.82.818 1.074.356.254.774.38 1.255.38.322 0 .614-.058.875-.175.266-.122.487-.294.665-.518a1.94 1.94 0 00.381-.806H127a3.204 3.204 0 01-.551 1.511 3.174 3.174 0 01-1.233 1.045c-.511.254-1.112.381-1.801.381zm5.082-.176v-8.727h1.642v1.386h.091c.159-.47.439-.839.841-1.108a2.404 2.404 0 011.375-.409 7.242 7.242 0 01.722.04v1.625a3.1 3.1 0 00-.364-.063 3.475 3.475 0 00-.523-.04 2.22 2.22 0 00-1.074.256 1.896 1.896 0 00-1.011 1.71V61h-1.699zm5.821 0v-8.727h1.699V61h-1.699zm.858-10.074a1.08 1.08 0 01-.762-.295.961.961 0 01-.312-.716.95.95 0 01.312-.716c.212-.2.466-.301.762-.301.295 0 .547.1.755.3a.941.941 0 01.318.717.953.953 0 01-.318.716c-.208.197-.46.295-.755.295zm2.806 13.347v-12h1.659v1.414h.142c.099-.181.241-.392.426-.63.186-.239.443-.447.773-.625.33-.182.765-.273 1.307-.273.704 0 1.333.178 1.886.534.553.356.987.87 1.301 1.54.319.67.478 1.477.478 2.42 0 .944-.158 1.752-.472 2.427-.314.67-.746 1.187-1.295 1.55-.55.36-1.177.54-1.881.54-.53 0-.964-.089-1.301-.267a2.45 2.45 0 01-.784-.625 4.65 4.65 0 01-.438-.636h-.102v4.63h-1.699zm1.665-7.637c0 .614.089 1.152.267 1.614.178.462.435.824.773 1.085.337.258.75.387 1.238.387.508 0 .932-.135 1.273-.404.341-.273.598-.642.773-1.108.178-.466.267-.99.267-1.574 0-.575-.087-1.092-.262-1.55-.17-.46-.428-.82-.772-1.086-.341-.265-.767-.398-1.279-.398-.492 0-.909.127-1.25.381-.337.254-.593.608-.767 1.063-.174.454-.261.984-.261 1.59zm11.964-4.363v1.363h-4.767v-1.363h4.767zm-3.489-2.091h1.699v8.255c0 .33.049.578.148.745a.766.766 0 00.381.335c.159.057.331.085.517.085a2 2 0 00.358-.028l.238-.046.307 1.404a2.859 2.859 0 01-.42.113c-.182.042-.41.065-.682.069a2.989 2.989 0 01-1.25-.239 2.144 2.144 0 01-.938-.773c-.238-.348-.358-.786-.358-1.312v-8.608zm13.394-1.364l-3.75 13.932h-1.517l3.75-13.932h1.517zM52.671 71.364V83h-1.614l-5.915-8.534h-.108V83h-1.756V71.364h1.625l5.92 8.545h.109v-8.545h1.738zm5.78 11.812c-.818 0-1.532-.187-2.142-.562a3.793 3.793 0 01-1.42-1.574c-.337-.675-.506-1.462-.506-2.364 0-.905.169-1.697.506-2.375a3.785 3.785 0 011.42-1.58c.61-.374 1.324-.562 2.142-.562.819 0 1.532.188 2.142.563.61.375 1.084.901 1.42 1.58.338.677.507 1.469.507 2.374 0 .902-.17 1.69-.506 2.364a3.793 3.793 0 01-1.42 1.574c-.61.375-1.325.562-2.143.562zm.006-1.426c.53 0 .97-.14 1.318-.42.349-.28.606-.654.773-1.12.17-.466.256-.979.256-1.54 0-.556-.086-1.068-.256-1.534a2.5 2.5 0 00-.773-1.13c-.348-.284-.788-.427-1.318-.427-.534 0-.977.143-1.33.427a2.54 2.54 0 00-.778 1.13c-.167.466-.25.978-.25 1.535 0 .56.083 1.073.25 1.54.17.465.43.838.778 1.118.353.28.796.421 1.33.421zm8.906 1.42c-.705 0-1.334-.18-1.886-.54-.55-.363-.982-.88-1.296-1.55-.31-.675-.466-1.483-.466-2.427 0-.943.157-1.75.472-2.42.318-.67.754-1.184 1.306-1.54a3.398 3.398 0 011.881-.534c.542 0 .978.091 1.307.273.333.178.59.386.773.625.185.239.33.449.432.63h.102v-4.323h1.699V83h-1.66v-1.358h-.141a4.49 4.49 0 01-.444.636c-.189.239-.45.447-.784.625-.333.178-.765.267-1.295.267zm.375-1.448c.489 0 .901-.13 1.239-.387.34-.261.598-.623.772-1.085.178-.462.267-1 .267-1.614 0-.606-.087-1.136-.261-1.59-.174-.455-.43-.81-.767-1.063-.337-.254-.754-.38-1.25-.38-.511 0-.938.132-1.279.397-.34.265-.598.627-.772 1.085-.17.459-.256.976-.256 1.551 0 .584.087 1.108.261 1.574.175.466.432.836.773 1.108.345.27.77.404 1.273.404zm9.815 1.454c-.86 0-1.6-.184-2.222-.551a3.738 3.738 0 01-1.432-1.563c-.333-.674-.5-1.463-.5-2.369 0-.894.167-1.682.5-2.364a3.882 3.882 0 011.41-1.596c.606-.383 1.314-.574 2.124-.574.493 0 .97.081 1.432.244.462.163.877.419 1.245.767.367.349.657.802.869 1.358.212.553.318 1.226.318 2.017v.603H74.36v-1.273h5.272c0-.447-.09-.843-.272-1.188a2.062 2.062 0 00-.767-.823c-.326-.201-.709-.302-1.148-.302-.477 0-.894.118-1.25.353a2.365 2.365 0 00-.818.909c-.19.371-.284.775-.284 1.21v.994c0 .584.102 1.08.306 1.489.209.41.498.722.87.938.37.212.805.318 1.3.318.323 0 .616-.046.882-.137a1.827 1.827 0 001.13-1.108l1.608.29c-.129.474-.36.888-.693 1.245a3.36 3.36 0 01-1.244.823c-.497.194-1.063.29-1.7.29zm6.428-.068a1.1 1.1 0 01-.8-.33 1.1 1.1 0 01-.336-.806c0-.311.112-.576.335-.796.224-.223.49-.335.801-.335.311 0 .578.112.802.335.223.22.335.485.335.796 0 .208-.053.4-.16.574-.102.17-.238.306-.409.408-.17.103-.36.154-.568.154zm3.092-8.835h1.7v9.295c0 .584-.107 1.076-.319 1.478a2.075 2.075 0 01-.932.914c-.409.209-.915.313-1.517.313h-.17c-.057 0-.116-.002-.176-.006v-1.46h.272c.402 0 .692-.108.87-.324.181-.212.272-.52.272-.926v-9.284zm.841-1.347a1.08 1.08 0 01-.761-.295.96.96 0 01-.313-.716c0-.28.105-.52.313-.716.212-.2.466-.301.761-.301.296 0 .548.1.756.3a.941.941 0 01.318.717.953.953 0 01-.318.716 1.06 1.06 0 01-.756.295zm9.363 3.477l-1.54.273a1.827 1.827 0 00-.306-.562 1.52 1.52 0 00-.557-.438c-.235-.114-.528-.17-.88-.17-.482 0-.883.108-1.205.323-.322.213-.483.487-.483.824 0 .292.108.527.324.705.216.178.564.324 1.045.438l1.386.318c.804.185 1.402.471 1.796.858.394.386.59.888.59 1.505 0 .523-.15.989-.454 1.398-.299.405-.717.724-1.255.954-.534.232-1.154.347-1.858.347-.978 0-1.775-.208-2.392-.625-.618-.42-.996-1.017-1.137-1.79l1.642-.25c.103.428.313.752.631.972.318.216.733.324 1.244.324.557 0 1.002-.116 1.336-.347.333-.235.5-.52.5-.858a.892.892 0 00-.307-.687c-.201-.186-.51-.326-.926-.42l-1.478-.325c-.814-.185-1.416-.48-1.806-.886-.387-.405-.58-.919-.58-1.54a2.2 2.2 0 01.432-1.352c.288-.386.685-.688 1.193-.903.508-.22 1.089-.33 1.744-.33.944 0 1.686.205 2.228.614.541.405.9.949 1.073 1.63z" fill="#1E222E"/><rect x="42" y="96" width="111" height="6" rx="3" fill="#397CE8"/><path d="M1.944 132.727v-1.42l5.029-7.943h1.12v2.091h-.711l-3.597 5.693v.091h6.892v1.488H1.944zM7.461 135v-2.705l.012-.647v-8.284h1.665V135H7.46zm8.779.159a4.672 4.672 0 01-1.534-.284 3.6 3.6 0 01-1.364-.909c-.409-.424-.737-.994-.983-1.71-.242-.716-.363-1.61-.363-2.682 0-1.015.1-1.917.3-2.705.205-.788.499-1.452.881-1.994.383-.545.845-.96 1.387-1.244.541-.284 1.15-.426 1.824-.426.693 0 1.308.136 1.846.409a3.46 3.46 0 011.307 1.13 3.79 3.79 0 01.642 1.642H18.45a2.243 2.243 0 00-.699-1.187c-.348-.307-.803-.46-1.363-.46-.853 0-1.517.371-1.995 1.113-.473.743-.712 1.775-.716 3.097h.086c.2-.33.447-.61.738-.841a3.473 3.473 0 012.148-.733c.674 0 1.284.165 1.83.494.549.326.986.777 1.312 1.353.326.575.489 1.234.489 1.977a4.06 4.06 0 01-.506 2.017 3.714 3.714 0 01-1.41 1.432c-.605.348-1.314.519-2.124.511zm-.006-1.477c.447 0 .847-.11 1.2-.33.351-.219.63-.515.834-.886a2.53 2.53 0 00.307-1.244c0-.447-.1-.855-.301-1.222a2.277 2.277 0 00-.818-.875 2.179 2.179 0 00-1.182-.324c-.337 0-.65.065-.938.193a2.389 2.389 0 00-.75.534 2.611 2.611 0 00-.51.784 2.394 2.394 0 00-.183.927 2.477 2.477 0 001.136 2.108c.357.223.758.335 1.205.335zm11.71-.864v-.613c0-.44.09-.841.272-1.205.185-.367.454-.661.807-.881.356-.223.786-.335 1.29-.335.515 0 .947.11 1.295.33.348.219.612.513.79.88.181.368.272.771.272 1.211v.613c0 .44-.09.843-.272 1.21a2.18 2.18 0 01-.801.881c-.349.22-.777.33-1.285.33-.51 0-.943-.11-1.295-.33a2.18 2.18 0 01-.801-.881 2.687 2.687 0 01-.273-1.21zm1.323-.613v.613c0 .326.078.621.233.887.155.265.426.397.813.397.382 0 .65-.132.8-.397.152-.266.228-.561.228-.887v-.613c0-.326-.074-.622-.222-.887-.144-.265-.413-.398-.806-.398-.38 0-.648.133-.807.398a1.69 1.69 0 00-.239.887zm-7.176-6.046v-.614c0-.439.09-.842.273-1.21a2.17 2.17 0 01.806-.88c.356-.22.786-.33 1.29-.33.515 0 .947.11 1.296.33.348.219.611.513.79.88.178.368.267.771.267 1.21v.614c0 .439-.091.843-.273 1.21a2.14 2.14 0 01-.796.881c-.348.22-.776.33-1.284.33-.515 0-.949-.11-1.3-.33a2.194 2.194 0 01-.796-.881 2.69 2.69 0 01-.273-1.21zm1.33-.614v.614c0 .326.075.621.227.886.155.266.426.398.812.398.379 0 .644-.132.796-.398.155-.265.233-.56.233-.886v-.614a1.79 1.79 0 00-.222-.886c-.148-.265-.417-.398-.807-.398-.379 0-.648.133-.807.398a1.721 1.721 0 00-.232.886zM22.63 135l8-11.636h1.358l-8 11.636H22.63zm20.648 0v-11.636h4.148c.905 0 1.655.164 2.25.494.595.329 1.04.78 1.335 1.352.296.568.444 1.209.444 1.921 0 .716-.15 1.36-.45 1.931-.295.569-.742 1.019-1.34 1.353-.595.329-1.343.494-2.245.494h-2.852v-1.489h2.693c.572 0 1.036-.098 1.392-.295.357-.201.618-.473.785-.818a2.67 2.67 0 00.25-1.176c0-.44-.084-.83-.25-1.171a1.791 1.791 0 00-.79-.801c-.356-.193-.826-.29-1.41-.29h-2.204V135h-1.756zm10.852 3.273a3.51 3.51 0 01-.693-.063 2.157 2.157 0 01-.466-.125l.41-1.392c.31.084.586.12.829.108a.989.989 0 00.642-.273c.19-.17.356-.448.5-.835l.21-.579-3.193-8.841h1.818l2.21 6.772h.091l2.21-6.772h1.824l-3.596 9.892a3.944 3.944 0 01-.637 1.153 2.472 2.472 0 01-.92.716c-.356.159-.769.239-1.239.239zm11.743-12v1.363h-4.767v-1.363h4.767zm-3.489-2.091h1.699v8.256c0 .329.05.577.148.744a.772.772 0 00.38.335c.16.057.332.085.517.085.137 0 .256-.009.358-.028l.24-.046.306 1.404a2.75 2.75 0 01-.42.113c-.182.042-.41.065-.682.069a2.995 2.995 0 01-1.25-.239 2.143 2.143 0 01-.938-.773c-.238-.348-.358-.786-.358-1.312v-8.608zm6.934 5.636V135H67.62v-11.636h1.676v4.329h.108c.204-.47.517-.843.937-1.119.42-.277.97-.415 1.648-.415.598 0 1.121.123 1.568.369.45.247.8.614 1.046 1.103.25.485.375 1.091.375 1.818V135h-1.7v-5.347c0-.64-.164-1.136-.494-1.488-.33-.356-.788-.534-1.375-.534a2.26 2.26 0 00-1.08.255 1.85 1.85 0 00-.743.75c-.179.326-.268.72-.268 1.182zm11.283 5.358c-.819 0-1.532-.187-2.142-.562a3.795 3.795 0 01-1.42-1.574c-.338-.674-.507-1.462-.507-2.364 0-.905.17-1.697.506-2.375a3.784 3.784 0 011.42-1.579c.61-.375 1.325-.563 2.143-.563.818 0 1.532.188 2.142.563.61.375 1.083.901 1.42 1.579.337.678.506 1.47.506 2.375 0 .902-.169 1.69-.506 2.364a3.794 3.794 0 01-1.42 1.574c-.61.375-1.324.562-2.142.562zm.005-1.426c.53 0 .97-.14 1.319-.42a2.47 2.47 0 00.772-1.12c.17-.466.256-.979.256-1.54 0-.556-.085-1.068-.256-1.534a2.5 2.5 0 00-.773-1.13c-.348-.284-.787-.426-1.318-.426-.534 0-.977.142-1.33.426a2.54 2.54 0 00-.778 1.13c-.166.466-.25.978-.25 1.534 0 .561.084 1.074.25 1.54.17.466.43.839.779 1.12.352.28.795.42 1.33.42zm7.338-3.932V135h-1.699v-8.727h1.63v1.42h.109c.2-.462.515-.833.943-1.113.432-.281.975-.421 1.63-.421.595 0 1.116.125 1.563.375a2.51 2.51 0 011.04 1.102c.246.489.37 1.093.37 1.813V135h-1.7v-5.347c0-.632-.164-1.126-.494-1.483-.33-.359-.782-.539-1.358-.539-.394 0-.744.085-1.051.255a1.846 1.846 0 00-.722.75c-.174.326-.261.72-.261 1.182z" fill="#1E222E"/><rect x="42" y="148" width="150" height="6" rx="3" fill="#397CE8"/><path d="M12.12 175.364V187h-1.762v-9.875h-.069l-2.784 1.818v-1.682l2.904-1.897h1.71zm7.082 0V187H17.44v-9.875h-.068l-2.784 1.818v-1.682l2.903-1.897h1.71zm8.741 9.454v-.613c0-.44.091-.841.273-1.205.185-.367.454-.661.807-.881.356-.223.786-.335 1.29-.335.515 0 .947.11 1.295.33.348.219.612.513.79.88.181.368.272.771.272 1.211v.613c0 .44-.09.843-.272 1.21a2.18 2.18 0 01-.801.881c-.349.22-.777.33-1.285.33-.51 0-.943-.11-1.295-.33a2.18 2.18 0 01-.801-.881 2.687 2.687 0 01-.273-1.21zm1.324-.613v.613c0 .326.078.621.233.887.155.265.426.397.813.397.382 0 .65-.132.8-.397.152-.266.228-.561.228-.887v-.613c0-.326-.074-.622-.222-.887-.144-.265-.413-.398-.806-.398-.38 0-.648.133-.807.398a1.69 1.69 0 00-.239.887zm-7.176-6.046v-.614c0-.439.09-.842.273-1.21a2.17 2.17 0 01.806-.88c.356-.22.786-.33 1.29-.33.515 0 .947.11 1.296.33.348.219.611.513.79.88.178.368.267.771.267 1.21v.614c0 .439-.091.843-.273 1.21a2.14 2.14 0 01-.796.881c-.348.22-.776.33-1.284.33-.515 0-.949-.11-1.3-.33a2.194 2.194 0 01-.796-.881 2.69 2.69 0 01-.273-1.21zm1.33-.614v.614c0 .326.075.621.227.886.155.266.426.398.812.398.379 0 .644-.132.796-.398.155-.265.233-.56.233-.886v-.614a1.79 1.79 0 00-.222-.886c-.148-.265-.417-.398-.807-.398-.379 0-.648.133-.807.398a1.721 1.721 0 00-.232.886zM22.63 187l8-11.636h1.358l-8 11.636H22.63zm25.171-11.636h1.75v8.25c0 .746-.148 1.384-.443 1.914a2.952 2.952 0 01-1.233 1.216c-.53.277-1.151.415-1.864.415-.655 0-1.244-.119-1.767-.358a2.906 2.906 0 01-1.233-1.04c-.299-.458-.449-1.015-.449-1.67h1.745c0 .322.074.6.221.835.152.235.358.419.62.551.265.129.568.193.909.193.371 0 .685-.077.943-.232.261-.16.46-.393.597-.699.136-.307.204-.682.204-1.125v-8.25zm6.389 11.829a3.557 3.557 0 01-1.5-.307 2.524 2.524 0 01-1.063-.903c-.257-.394-.386-.877-.386-1.449 0-.492.095-.898.284-1.216.19-.318.445-.57.767-.756a4.035 4.035 0 011.08-.42 10.61 10.61 0 011.216-.216l1.272-.148c.326-.041.563-.108.71-.198.148-.091.222-.239.222-.444v-.039c0-.497-.14-.881-.42-1.154-.277-.273-.69-.409-1.239-.409-.572 0-1.023.127-1.352.381-.326.25-.551.528-.676.835l-1.597-.364c.19-.53.466-.958.83-1.284.367-.329.79-.568 1.267-.716a4.959 4.959 0 011.505-.227c.349 0 .718.042 1.108.125.394.08.762.227 1.103.443.344.216.627.525.846.926.22.398.33.915.33 1.552V187h-1.66v-1.193h-.068c-.11.22-.274.435-.494.648-.22.212-.502.388-.846.528-.345.14-.758.21-1.24.21zm.37-1.363c.469 0 .87-.093 1.204-.279.337-.185.593-.428.767-.727.178-.303.267-.627.267-.972v-1.125c-.06.061-.178.118-.352.171-.17.049-.366.093-.586.13-.22.034-.433.067-.642.097l-.522.068c-.33.042-.631.112-.904.21a1.554 1.554 0 00-.648.427c-.159.181-.238.424-.238.727 0 .42.155.738.466.954.31.212.706.319 1.187.319zm13.033-7.557L64.428 187H62.61l-3.17-8.727h1.823l2.21 6.716h.092l2.204-6.716h1.824zm3.566 8.92a3.557 3.557 0 01-1.5-.307 2.523 2.523 0 01-1.062-.903c-.258-.394-.386-.877-.386-1.449 0-.492.094-.898.284-1.216.189-.318.445-.57.767-.756a4.036 4.036 0 011.08-.42c.397-.095.802-.167 1.215-.216l1.273-.148c.326-.041.562-.108.71-.198.148-.091.222-.239.222-.444v-.039c0-.497-.14-.881-.42-1.154-.277-.273-.69-.409-1.24-.409-.572 0-1.022.127-1.352.381-.326.25-.55.528-.676.835l-1.596-.364c.189-.53.465-.958.829-1.284.367-.329.79-.568 1.267-.716.477-.151.98-.227 1.506-.227.348 0 .718.042 1.108.125.394.08.761.227 1.102.443.345.216.627.525.847.926.22.398.33.915.33 1.552V187h-1.66v-1.193h-.068c-.11.22-.275.435-.495.648-.22.212-.501.388-.846.528s-.758.21-1.239.21zm.37-1.363c.47 0 .87-.093 1.204-.279.337-.185.593-.428.767-.727.178-.303.267-.627.267-.972v-1.125c-.06.061-.178.118-.352.171-.17.049-.366.093-.585.13-.22.034-.434.067-.642.097l-.523.068c-.33.042-.63.112-.903.21a1.553 1.553 0 00-.648.427c-.16.181-.239.424-.239.727 0 .42.156.738.466.954.31.212.707.319 1.188.319zm14.226-11.012l-3.75 13.932h-1.517l3.75-13.932h1.517zm11.52 3.602a1.662 1.662 0 00-.75-1.25c-.439-.299-.992-.448-1.659-.448-.477 0-.89.075-1.238.227a1.91 1.91 0 00-.813.613 1.454 1.454 0 00-.284.881c0 .277.065.515.194.716.132.201.304.369.517.506.215.132.447.244.693.335.246.087.483.159.71.216l1.136.295c.371.091.752.214 1.142.37.39.155.752.36 1.086.613.333.254.602.568.806.944.209.374.313.823.313 1.346 0 .659-.17 1.244-.511 1.756-.338.511-.828.915-1.472 1.21-.64.295-1.415.443-2.324.443-.871 0-1.625-.138-2.261-.415-.637-.276-1.135-.668-1.495-1.176-.36-.511-.558-1.117-.596-1.818h1.761c.034.421.17.771.41 1.051.242.277.55.483.925.62.38.132.794.198 1.245.198.496 0 .937-.077 1.324-.233.39-.159.697-.378.92-.659a1.56 1.56 0 00.335-.994c0-.345-.098-.627-.295-.847a2.191 2.191 0 00-.79-.545 7.725 7.725 0 00-1.12-.381l-1.374-.375c-.932-.253-1.67-.627-2.216-1.119-.542-.492-.813-1.144-.813-1.955 0-.67.182-1.255.546-1.755.363-.5.856-.888 1.477-1.165.621-.28 1.322-.42 2.102-.42.788 0 1.483.138 2.085.414.607.277 1.084.658 1.432 1.142.349.481.53 1.034.546 1.659h-1.693zm7.171 8.756c-.845 0-1.572-.191-2.182-.574a3.798 3.798 0 01-1.398-1.596c-.326-.678-.489-1.455-.489-2.33 0-.886.167-1.668.5-2.346a3.84 3.84 0 011.41-1.597c.606-.383 1.32-.574 2.142-.574.663 0 1.253.123 1.772.369.519.243.938.584 1.256 1.023.322.44.513.953.574 1.54h-1.654a1.977 1.977 0 00-.625-1.057c-.321-.295-.753-.443-1.295-.443a2.11 2.11 0 00-1.244.375c-.353.246-.627.598-.824 1.057-.197.454-.296.992-.296 1.613 0 .637.097 1.186.29 1.648.193.462.466.82.818 1.074.356.254.775.381 1.256.381.322 0 .614-.059.875-.177a1.78 1.78 0 00.665-.517c.182-.223.309-.492.38-.806h1.654a3.214 3.214 0 01-.551 1.511 3.168 3.168 0 01-1.233 1.045c-.512.254-1.112.381-1.801.381zm7.621.017a3.557 3.557 0 01-1.5-.307 2.52 2.52 0 01-1.062-.903c-.258-.394-.386-.877-.386-1.449 0-.492.094-.898.284-1.216.189-.318.445-.57.767-.756a4.042 4.042 0 011.079-.42 10.62 10.62 0 011.216-.216l1.273-.148c.326-.041.562-.108.71-.198.148-.091.222-.239.222-.444v-.039c0-.497-.14-.881-.421-1.154-.276-.273-.689-.409-1.238-.409-.572 0-1.023.127-1.353.381-.325.25-.551.528-.676.835l-1.596-.364c.189-.53.466-.958.829-1.284.368-.329.79-.568 1.267-.716a4.96 4.96 0 011.506-.227c.348 0 .718.042 1.108.125.394.08.761.227 1.102.443.345.216.627.525.847.926.219.398.329.915.329 1.552V187h-1.659v-1.193h-.068c-.11.22-.275.435-.494.648-.22.212-.502.388-.847.528s-.757.21-1.239.21zm.37-1.363c.469 0 .871-.093 1.204-.279.337-.185.593-.428.767-.727.178-.303.267-.627.267-.972v-1.125c-.06.061-.178.118-.352.171-.17.049-.365.093-.585.13-.22.034-.434.067-.642.097l-.523.068a4.255 4.255 0 00-.903.21 1.555 1.555 0 00-.648.427c-.159.181-.239.424-.239.727 0 .42.156.738.466.954.311.212.707.319 1.188.319zm7.579-10.466V187h-1.699v-11.636h1.699zm4.505 11.829a3.557 3.557 0 01-1.5-.307 2.52 2.52 0 01-1.062-.903c-.258-.394-.387-.877-.387-1.449 0-.492.095-.898.284-1.216.19-.318.445-.57.767-.756a4.035 4.035 0 011.08-.42 10.62 10.62 0 011.216-.216l1.273-.148c.325-.041.562-.108.71-.198.148-.091.221-.239.221-.444v-.039c0-.497-.14-.881-.42-1.154-.277-.273-.689-.409-1.239-.409-.572 0-1.022.127-1.352.381-.326.25-.551.528-.676.835l-1.597-.364c.19-.53.466-.958.83-1.284.367-.329.79-.568 1.267-.716a4.96 4.96 0 011.506-.227c.348 0 .717.042 1.108.125.394.08.761.227 1.102.443.345.216.627.525.846.926.22.398.33.915.33 1.552V187h-1.659v-1.193h-.068c-.11.22-.275.435-.495.648a2.611 2.611 0 01-.846.528c-.345.14-.758.21-1.239.21zm.37-1.363c.469 0 .871-.093 1.204-.279.337-.185.593-.428.767-.727.178-.303.267-.627.267-.972v-1.125c-.06.061-.178.118-.352.171a5.398 5.398 0 01-.585.13c-.22.034-.434.067-.642.097l-.523.068c-.33.042-.631.112-.904.21a1.558 1.558 0 00-.647.427c-.159.181-.239.424-.239.727 0 .42.155.738.466.954.311.212.706.319 1.188.319zm14.226-11.012l-3.75 13.932h-1.517l3.75-13.932h1.517zM144.291 187v-11.636h1.756v5.556h.142l4.88-5.556h2.211l-4.694 5.238 4.711 6.398h-2.114l-3.761-5.199-1.375 1.58V187h-1.756zm13.204.176c-.818 0-1.532-.187-2.142-.562a3.792 3.792 0 01-1.42-1.574c-.338-.674-.506-1.462-.506-2.364 0-.905.168-1.697.506-2.375a3.781 3.781 0 011.42-1.579c.61-.375 1.324-.563 2.142-.563.818 0 1.532.188 2.142.563a3.79 3.79 0 011.421 1.579c.337.678.505 1.47.505 2.375 0 .902-.168 1.69-.505 2.364a3.8 3.8 0 01-1.421 1.574c-.61.375-1.324.562-2.142.562zm.006-1.426c.53 0 .969-.14 1.318-.42.348-.281.606-.654.773-1.12.17-.466.255-.979.255-1.54 0-.556-.085-1.068-.255-1.534a2.507 2.507 0 00-.773-1.13c-.349-.284-.788-.426-1.318-.426-.534 0-.978.142-1.33.426a2.54 2.54 0 00-.778 1.13 4.52 4.52 0 00-.25 1.534c0 .561.083 1.074.25 1.54.17.466.43.839.778 1.12.352.28.796.42 1.33.42zm9.712-7.477v1.363h-4.767v-1.363h4.767zm-3.488-2.091h1.699v8.256c0 .329.049.577.147.744a.776.776 0 00.381.335c.159.057.331.085.517.085.136 0 .256-.009.358-.028.102-.019.182-.034.239-.046l.306 1.404a2.718 2.718 0 01-.42.113 3.314 3.314 0 01-.682.069 2.997 2.997 0 01-1.25-.239 2.14 2.14 0 01-.937-.773c-.239-.348-.358-.786-.358-1.312v-8.608zm6.934-.818V187h-1.699v-11.636h1.699zM172.625 187v-8.727h1.698V187h-1.698zm.857-10.074a1.08 1.08 0 01-.761-.295.963.963 0 01-.312-.716c0-.281.104-.519.312-.716.212-.201.466-.301.761-.301.296 0 .548.1.756.301a.94.94 0 01.318.716.954.954 0 01-.318.716c-.208.197-.46.295-.756.295zm4.506 4.892V187h-1.699v-8.727h1.631v1.42h.108c.2-.462.515-.833.943-1.113.432-.281.975-.421 1.63-.421.595 0 1.116.125 1.563.375.447.246.793.614 1.04 1.102.246.489.369 1.093.369 1.813V187h-1.699v-5.347c0-.632-.165-1.126-.494-1.483-.33-.359-.782-.539-1.358-.539-.394 0-.744.085-1.051.255a1.846 1.846 0 00-.722.75c-.174.326-.261.72-.261 1.182z" fill="#1E222E"/><rect x="42" y="200" width="39" height="6" rx="3" fill="#397CE8"/><path d="M11.636 236.727v-1.42l5.029-7.943h1.119v2.091h-.71l-3.597 5.693v.091h6.892v1.488h-8.733zM17.153 239v-2.705l.012-.647v-8.284h1.664V239h-1.676zm10.79-2.182v-.613c0-.44.091-.841.273-1.205.185-.367.454-.661.807-.881.356-.223.786-.335 1.29-.335.515 0 .947.11 1.295.33.348.219.612.513.79.88.181.368.272.771.272 1.211v.613c0 .44-.09.843-.272 1.21a2.18 2.18 0 01-.801.881c-.349.22-.777.33-1.285.33-.51 0-.943-.11-1.295-.33a2.18 2.18 0 01-.801-.881 2.687 2.687 0 01-.273-1.21zm1.324-.613v.613c0 .326.078.621.233.887.155.265.426.397.813.397.382 0 .65-.132.8-.397.152-.266.228-.561.228-.887v-.613c0-.326-.074-.622-.222-.887-.144-.265-.413-.398-.806-.398-.38 0-.648.133-.807.398a1.69 1.69 0 00-.239.887zm-7.176-6.046v-.614c0-.439.09-.842.273-1.21a2.17 2.17 0 01.806-.88c.356-.22.786-.33 1.29-.33.515 0 .947.11 1.296.33.348.219.611.513.79.88.178.368.267.771.267 1.21v.614c0 .439-.091.843-.273 1.21a2.14 2.14 0 01-.796.881c-.348.22-.776.33-1.284.33-.515 0-.949-.11-1.3-.33a2.194 2.194 0 01-.796-.881 2.69 2.69 0 01-.273-1.21zm1.33-.614v.614c0 .326.075.621.227.886.155.266.426.398.812.398.379 0 .644-.132.796-.398.155-.265.233-.56.233-.886v-.614a1.79 1.79 0 00-.222-.886c-.148-.265-.417-.398-.807-.398-.379 0-.648.133-.807.398a1.721 1.721 0 00-.232.886zM22.63 239l8-11.636h1.358l-8 11.636H22.63zm28.523-7.96a3.534 3.534 0 00-.443-.926 2.823 2.823 0 00-1.523-1.154 3.504 3.504 0 00-1.062-.153 3.22 3.22 0 00-1.773.505c-.526.338-.943.832-1.25 1.483-.303.648-.454 1.442-.454 2.381 0 .943.153 1.741.46 2.392.307.652.727 1.146 1.261 1.483.534.337 1.142.506 1.824.506.633 0 1.184-.129 1.654-.387a2.69 2.69 0 001.096-1.09c.262-.474.392-1.031.392-1.671l.455.085h-3.33v-1.449h4.574v1.324c0 .978-.208 1.826-.625 2.546a4.254 4.254 0 01-1.716 1.659c-.727.39-1.56.585-2.5.585-1.053 0-1.977-.242-2.773-.727-.791-.485-1.409-1.173-1.852-2.063-.443-.894-.665-1.954-.665-3.181 0-.929.13-1.762.387-2.5.257-.739.62-1.366 1.085-1.881a4.742 4.742 0 011.653-1.188 5.184 5.184 0 012.086-.414c.628 0 1.214.092 1.755.278.546.186 1.03.449 1.455.79a4.47 4.47 0 011.63 2.767h-1.8zm7.33 8.136c-.819 0-1.533-.187-2.142-.562a3.795 3.795 0 01-1.42-1.574c-.338-.674-.507-1.462-.507-2.364 0-.905.169-1.697.506-2.375a3.784 3.784 0 011.42-1.579c.61-.375 1.324-.563 2.143-.563.818 0 1.532.188 2.142.563.61.375 1.083.901 1.42 1.579.337.678.506 1.47.506 2.375 0 .902-.169 1.69-.506 2.364a3.795 3.795 0 01-1.42 1.574c-.61.375-1.324.562-2.142.562zm.005-1.426c.53 0 .97-.14 1.318-.42a2.46 2.46 0 00.773-1.12 4.45 4.45 0 00.256-1.54c0-.556-.085-1.068-.256-1.534a2.5 2.5 0 00-.773-1.13c-.348-.284-.787-.426-1.318-.426-.534 0-.977.142-1.33.426a2.54 2.54 0 00-.778 1.13c-.166.466-.25.978-.25 1.534 0 .561.084 1.074.25 1.54.17.466.43.839.779 1.12.352.28.795.42 1.33.42z" fill="#1E222E"/><rect x="42" y="252" width="18" height="6" rx="3" fill="#397CE8"/><path d="M16.047 279.205c.519.003 1.03.098 1.534.284.504.185.958.488 1.364.909.409.42.734.988.977 1.704.246.712.371 1.599.375 2.659 0 1.019-.102 1.926-.307 2.722-.205.792-.498 1.46-.88 2.006-.38.545-.84.96-1.381 1.244-.542.284-1.152.426-1.83.426-.693 0-1.309-.136-1.847-.409a3.522 3.522 0 01-1.312-1.131 3.737 3.737 0 01-.63-1.67h1.732c.114.5.345.905.693 1.216.353.307.807.46 1.364.46.852 0 1.517-.371 1.994-1.114.478-.746.718-1.788.722-3.125h-.091a3.138 3.138 0 01-.739.841 3.314 3.314 0 01-.983.546 3.458 3.458 0 01-1.164.193c-.67 0-1.28-.165-1.83-.494a3.655 3.655 0 01-1.312-1.358c-.326-.576-.489-1.233-.489-1.972 0-.735.167-1.401.5-2a3.73 3.73 0 011.41-1.42c.605-.353 1.315-.525 2.13-.517zm.005 1.477c-.443 0-.842.11-1.198.329-.353.216-.631.51-.836.881a2.48 2.48 0 00-.307 1.227c0 .451.099.86.296 1.228.2.363.473.653.818.869a2.25 2.25 0 001.193.318c.334 0 .644-.064.932-.193.288-.129.54-.307.756-.534.216-.231.384-.493.506-.784a2.4 2.4 0 00.181-.921 2.42 2.42 0 00-.306-1.193 2.388 2.388 0 00-.83-.886 2.167 2.167 0 00-1.205-.341zm11.891 8.136v-.613c0-.44.091-.841.273-1.205.185-.367.454-.661.807-.881.356-.223.786-.335 1.29-.335.515 0 .947.11 1.295.33.348.219.612.513.79.88.181.368.272.771.272 1.211v.613c0 .44-.09.843-.272 1.21a2.18 2.18 0 01-.801.881c-.349.22-.777.33-1.285.33-.51 0-.943-.11-1.295-.33a2.18 2.18 0 01-.801-.881 2.687 2.687 0 01-.273-1.21zm1.324-.613v.613c0 .326.078.621.233.887.155.265.426.397.813.397.382 0 .65-.132.8-.397.152-.266.228-.561.228-.887v-.613c0-.326-.074-.622-.222-.887-.144-.265-.413-.398-.806-.398-.38 0-.648.133-.807.398a1.69 1.69 0 00-.239.887zm-7.176-6.046v-.614c0-.439.09-.842.273-1.21a2.17 2.17 0 01.806-.88c.356-.22.786-.33 1.29-.33.515 0 .947.11 1.296.33.348.219.611.513.79.88.178.368.267.771.267 1.21v.614c0 .439-.091.843-.273 1.21a2.14 2.14 0 01-.796.881c-.348.22-.776.33-1.284.33-.515 0-.949-.11-1.3-.33a2.194 2.194 0 01-.796-.881 2.69 2.69 0 01-.273-1.21zm1.33-.614v.614c0 .326.075.621.227.886.155.266.426.398.812.398.379 0 .644-.132.796-.398.155-.265.233-.56.233-.886v-.614a1.79 1.79 0 00-.222-.886c-.148-.265-.417-.398-.807-.398-.379 0-.648.133-.807.398a1.721 1.721 0 00-.232.886zM22.63 291l8-11.636h1.358l-8 11.636H22.63zm30.313-7.852H51.17a2.71 2.71 0 00-1.062-1.733 2.928 2.928 0 00-.903-.455 3.535 3.535 0 00-1.052-.153c-.67 0-1.27.168-1.8.505-.527.338-.944.832-1.25 1.483-.304.652-.455 1.447-.455 2.387 0 .947.151 1.746.454 2.398.307.651.726 1.143 1.256 1.477.53.333 1.127.5 1.79.5.367 0 .716-.049 1.045-.148a3 3 0 00.904-.449 2.725 2.725 0 001.074-1.71l1.772.006a4.742 4.742 0 01-.551 1.579c-.269.477-.616.89-1.04 1.239-.42.345-.901.612-1.443.801a5.348 5.348 0 01-1.773.284c-1.007 0-1.905-.239-2.693-.716-.788-.481-1.409-1.168-1.863-2.062-.451-.894-.677-1.961-.677-3.199 0-1.243.228-2.309.682-3.199.455-.894 1.076-1.58 1.864-2.057.788-.481 1.684-.721 2.687-.721a5.43 5.43 0 011.728.267 4.55 4.55 0 011.449.772c.427.337.782.75 1.062 1.239.28.485.47 1.04.568 1.665zm5.065 5.897v-7.681h1.528v7.681h-1.528zm-3.074-3.079v-1.523h7.682v1.523h-7.682zm13.41 3.079v-7.681h1.529v7.681h-1.529zm-3.073-3.079v-1.523h7.681v1.523h-7.681zm18.335-7.148l-3.75 13.932H78.34l3.75-13.932h1.517zM88.78 291v-11.636h4.148c.901 0 1.65.155 2.244.466.599.31 1.046.74 1.341 1.289.296.546.443 1.176.443 1.892 0 .712-.15 1.339-.448 1.881-.296.538-.743.956-1.341 1.256-.595.299-1.343.449-2.245.449H89.78v-1.512h2.983c.568 0 1.03-.081 1.387-.244.36-.163.623-.4.79-.71.166-.311.25-.684.25-1.12 0-.439-.086-.82-.256-1.142a1.648 1.648 0 00-.79-.738c-.356-.175-.824-.262-1.404-.262h-2.204V291H88.78zm5.745-5.25L97.4 291h-2l-2.819-5.25h1.944zm9.64 1.631v-5.108h1.704V291h-1.67v-1.511h-.091a2.721 2.721 0 01-.966 1.164c-.439.307-.987.461-1.642.461-.561 0-1.057-.123-1.489-.37-.428-.25-.765-.619-1.01-1.108-.243-.488-.365-1.092-.365-1.812v-5.551h1.699v5.346c0 .595.165 1.068.495 1.421.329.352.757.528 1.284.528.318 0 .634-.079.949-.238.318-.16.581-.4.789-.722.212-.322.317-.731.313-1.227zm10.207-2.978l-1.54.273a1.817 1.817 0 00-.307-.562 1.52 1.52 0 00-.557-.438c-.234-.114-.528-.17-.88-.17-.481 0-.883.108-1.205.324-.322.212-.483.486-.483.823 0 .292.108.527.324.705.216.178.564.324 1.046.437l1.386.319c.803.185 1.401.471 1.795.858.394.386.591.888.591 1.505 0 .523-.151.989-.454 1.398-.3.405-.718.723-1.256.955-.534.231-1.153.346-1.858.346-.977 0-1.775-.208-2.392-.625-.617-.42-.996-1.017-1.136-1.79l1.642-.25c.102.428.312.752.63.972.319.216.733.324 1.245.324.557 0 1.002-.116 1.335-.347.333-.235.5-.521.5-.858a.89.89 0 00-.307-.687c-.201-.186-.509-.326-.926-.421l-1.477-.324c-.815-.185-1.417-.481-1.807-.886-.386-.405-.58-.918-.58-1.54a2.2 2.2 0 01.432-1.352c.288-.386.686-.687 1.193-.903.508-.22 1.089-.33 1.745-.33.943 0 1.685.205 2.227.614.542.405.9.949 1.074 1.63zm5.792-2.13v1.363h-4.767v-1.363h4.767zm-3.489-2.091h1.699v8.256c0 .329.05.577.148.744a.767.767 0 00.381.335c.159.057.331.085.517.085.136 0 .255-.009.358-.028l.238-.046.307 1.404a2.75 2.75 0 01-.42.113 3.314 3.314 0 01-.682.069 2.994 2.994 0 01-1.25-.239 2.143 2.143 0 01-.938-.773c-.238-.348-.358-.786-.358-1.312v-8.608z" fill="#1E222E"/><rect x="42" y="304" width="32" height="6" rx="3" fill="#397CE8"/><path d="M9.353 331.364V343h-1.76v-9.875h-.07l-2.783 1.818v-1.682l2.903-1.897h1.71zm6.72 11.829c-.898-.004-1.665-.24-2.302-.71-.636-.47-1.123-1.153-1.46-2.051-.337-.898-.506-1.979-.506-3.244 0-1.262.169-2.34.506-3.233.34-.894.83-1.576 1.466-2.046.64-.47 1.405-.704 2.295-.704.89 0 1.654.236 2.29.71.637.469 1.123 1.151 1.46 2.045.341.89.512 1.966.512 3.228 0 1.268-.169 2.352-.506 3.25-.337.893-.824 1.577-1.46 2.051-.637.469-1.402.704-2.296.704zm0-1.517c.787 0 1.403-.384 1.846-1.153.447-.769.67-1.881.67-3.335 0-.966-.102-1.783-.306-2.449-.201-.671-.491-1.178-.87-1.523a1.9 1.9 0 00-1.34-.523c-.785 0-1.4.387-1.847 1.159-.447.773-.673 1.885-.676 3.336 0 .969.1 1.789.3 2.46.205.666.495 1.172.87 1.517a1.94 1.94 0 001.352.511zm11.87-.858v-.613c0-.44.091-.841.273-1.205.185-.367.454-.661.807-.881.356-.223.786-.335 1.29-.335.515 0 .947.11 1.295.33.348.219.612.513.79.88.181.368.272.771.272 1.211v.613c0 .44-.09.843-.272 1.21a2.18 2.18 0 01-.801.881c-.349.22-.777.33-1.285.33-.51 0-.943-.11-1.295-.33a2.18 2.18 0 01-.801-.881 2.687 2.687 0 01-.273-1.21zm1.324-.613v.613c0 .326.078.621.233.887.155.265.426.397.813.397.382 0 .65-.132.8-.397.152-.266.228-.561.228-.887v-.613c0-.326-.074-.622-.222-.887-.144-.265-.413-.398-.806-.398-.38 0-.648.133-.807.398a1.69 1.69 0 00-.239.887zm-7.176-6.046v-.614c0-.439.09-.842.273-1.21a2.17 2.17 0 01.806-.88c.356-.22.786-.33 1.29-.33.515 0 .947.11 1.296.33.348.219.611.513.79.88.178.368.267.771.267 1.21v.614c0 .439-.091.843-.273 1.21a2.14 2.14 0 01-.796.881c-.348.22-.776.33-1.284.33-.515 0-.949-.11-1.3-.33a2.194 2.194 0 01-.796-.881 2.69 2.69 0 01-.273-1.21zm1.33-.614v.614c0 .326.075.621.227.886.155.266.426.398.812.398.379 0 .644-.132.796-.398.155-.265.233-.56.233-.886v-.614a1.79 1.79 0 00-.222-.886c-.148-.265-.417-.398-.807-.398-.379 0-.648.133-.807.398a1.721 1.721 0 00-.232.886zM22.63 343l8-11.636h1.358l-8 11.636H22.63zm26.995-8.58a1.662 1.662 0 00-.75-1.25c-.44-.299-.992-.448-1.66-.448-.476 0-.89.075-1.238.227a1.91 1.91 0 00-.812.613c-.19.258-.284.552-.284.881 0 .277.064.515.193.716.132.201.305.369.517.506.216.132.447.244.693.335.246.087.483.159.71.216l1.137.295c.37.091.752.214 1.142.37.39.155.752.36 1.085.613.333.254.602.568.807.944.208.374.312.823.312 1.346 0 .659-.17 1.244-.511 1.756-.337.511-.828.915-1.472 1.21-.64.295-1.414.443-2.324.443-.87 0-1.625-.138-2.26-.415-.637-.276-1.135-.668-1.495-1.176-.36-.511-.559-1.117-.597-1.818h1.762c.034.421.17.771.409 1.051.242.277.55.483.926.62.379.132.793.198 1.244.198.496 0 .938-.077 1.324-.233.39-.159.697-.378.92-.659a1.56 1.56 0 00.336-.994c0-.345-.099-.627-.296-.847a2.192 2.192 0 00-.79-.545 7.725 7.725 0 00-1.119-.381l-1.375-.375c-.932-.253-1.67-.627-2.216-1.119-.541-.492-.812-1.144-.812-1.955 0-.67.181-1.255.545-1.755.364-.5.856-.888 1.477-1.165.622-.28 1.322-.42 2.103-.42.788 0 1.483.138 2.085.414.606.277 1.083.658 1.432 1.142a2.88 2.88 0 01.545 1.659h-1.693zm7.17 8.756c-.818 0-1.532-.187-2.142-.562a3.795 3.795 0 01-1.42-1.574c-.338-.674-.506-1.462-.506-2.364 0-.905.168-1.697.506-2.375a3.784 3.784 0 011.42-1.579c.61-.375 1.324-.563 2.142-.563.818 0 1.532.188 2.142.563.61.375 1.083.901 1.42 1.579.338.678.506 1.47.506 2.375 0 .902-.168 1.69-.505 2.364a3.795 3.795 0 01-1.42 1.574c-.61.375-1.325.562-2.143.562zm.006-1.426c.53 0 .97-.14 1.318-.42.348-.281.606-.654.773-1.12a4.45 4.45 0 00.255-1.54c0-.556-.085-1.068-.255-1.534a2.5 2.5 0 00-.773-1.13c-.349-.284-.788-.426-1.318-.426-.534 0-.977.142-1.33.426a2.54 2.54 0 00-.778 1.13 4.52 4.52 0 00-.25 1.534c0 .561.083 1.074.25 1.54.17.466.43.839.778 1.12.353.28.796.42 1.33.42zm7.337-10.386V343H62.44v-11.636h1.7zM66.104 343v-8.727h1.699V343h-1.7zm.858-10.074a1.08 1.08 0 01-.761-.295.962.962 0 01-.313-.716c0-.281.104-.519.313-.716.212-.201.465-.301.76-.301.296 0 .548.1.757.301a.94.94 0 01.318.716.954.954 0 01-.318.716 1.06 1.06 0 01-.756.295zm6.073 10.244c-.704 0-1.333-.179-1.886-.539-.55-.364-.981-.881-1.296-1.551-.31-.675-.465-1.483-.465-2.427 0-.943.157-1.75.471-2.42.318-.671.754-1.184 1.307-1.54a3.4 3.4 0 011.88-.534c.542 0 .978.091 1.307.273.334.178.591.386.773.625.186.238.33.449.432.631h.102v-4.324h1.7V343H75.7v-1.358h-.142c-.102.186-.25.398-.443.636-.19.239-.45.447-.784.625s-.765.267-1.296.267zm.375-1.448c.489 0 .902-.129 1.239-.387.34-.261.599-.623.773-1.085.178-.462.267-1 .267-1.614 0-.606-.087-1.136-.262-1.591-.174-.454-.43-.808-.767-1.062s-.753-.381-1.25-.381c-.511 0-.937.133-1.278.398-.341.265-.599.627-.773 1.085a4.43 4.43 0 00-.255 1.551c0 .584.087 1.108.26 1.574.175.466.433.835.774 1.108.344.269.769.404 1.272.404zM79.464 343v-8.727h1.699V343h-1.7zm.858-10.074a1.08 1.08 0 01-.761-.295.962.962 0 01-.313-.716c0-.281.104-.519.313-.716.212-.201.465-.301.76-.301.296 0 .548.1.757.301a.94.94 0 01.318.716.954.954 0 01-.318.716 1.06 1.06 0 01-.756.295zm6.88 1.347v1.363h-4.767v-1.363h4.767zm-3.489-2.091h1.7v8.256c0 .329.049.577.147.744a.772.772 0 00.38.335c.16.057.332.085.518.085.136 0 .255-.009.358-.028.102-.019.182-.034.238-.046l.307 1.404a2.75 2.75 0 01-.42.113c-.182.042-.41.065-.682.069a2.995 2.995 0 01-1.25-.239 2.143 2.143 0 01-.938-.773c-.238-.348-.358-.786-.358-1.312v-8.608zm6.122 14.091c-.253 0-.485-.021-.693-.063a2.157 2.157 0 01-.466-.125l.41-1.392c.31.084.586.12.829.108a.989.989 0 00.642-.273c.19-.17.356-.448.5-.835l.21-.579-3.193-8.841h1.818l2.21 6.772h.091l2.21-6.772h1.824l-3.596 9.892a3.946 3.946 0 01-.637 1.153 2.472 2.472 0 01-.92.716c-.356.159-.769.239-1.239.239z" fill="#1E222E"/><rect x="42" y="356" width="35" height="6" rx="3" fill="#397CE8"/><path d="M2.704 395v-1.273l3.938-4.079c.42-.443.767-.832 1.04-1.165a4.38 4.38 0 00.619-.96c.136-.303.204-.625.204-.966 0-.387-.09-.72-.272-1a1.788 1.788 0 00-.745-.654 2.37 2.37 0 00-1.062-.233c-.417 0-.78.086-1.091.256-.31.171-.55.411-.716.722-.167.31-.25.674-.25 1.091H2.693c0-.709.163-1.328.489-1.858a3.31 3.31 0 011.34-1.233c.569-.296 1.215-.443 1.938-.443.731 0 1.375.145 1.932.437.56.288.998.682 1.312 1.182.315.496.472 1.057.472 1.682 0 .432-.082.854-.244 1.267-.16.413-.438.873-.836 1.38-.397.504-.95 1.116-1.659 1.836l-2.312 2.42v.085h5.238V395H2.704zm13.384.159c-.78 0-1.477-.134-2.091-.403-.61-.269-1.093-.642-1.449-1.12a2.971 2.971 0 01-.568-1.67h1.784c.023.345.138.644.347.898.212.25.488.443.83.579.34.137.719.205 1.136.205.458 0 .863-.08 1.215-.239.357-.159.635-.381.836-.665.2-.288.3-.619.3-.994 0-.39-.1-.733-.3-1.028-.197-.3-.487-.535-.87-.705-.378-.17-.837-.256-1.375-.256h-.982v-1.431h.982a2.62 2.62 0 001.137-.233c.33-.156.587-.372.773-.648.185-.28.278-.608.278-.983 0-.36-.082-.672-.244-.938a1.636 1.636 0 00-.682-.63c-.292-.152-.637-.228-1.034-.228a2.69 2.69 0 00-1.063.211c-.326.136-.59.333-.795.591a1.516 1.516 0 00-.33.914h-1.699a2.875 2.875 0 01.557-1.659 3.6 3.6 0 011.41-1.119 4.585 4.585 0 011.942-.403c.747 0 1.39.145 1.932.437.546.288.966.672 1.262 1.153a2.9 2.9 0 01.443 1.58c.004.652-.178 1.205-.546 1.659-.363.455-.848.76-1.454.915v.091c.773.117 1.371.424 1.795.92.428.496.64 1.112.637 1.847a2.871 2.871 0 01-.535 1.721c-.356.508-.842.908-1.46 1.199-.617.288-1.324.432-2.119.432zm11.855-2.341v-.613c0-.44.091-.841.273-1.205.185-.367.454-.661.807-.881.356-.223.786-.335 1.29-.335.515 0 .947.11 1.295.33.348.219.612.513.79.88.181.368.272.771.272 1.211v.613c0 .44-.09.843-.272 1.21a2.18 2.18 0 01-.801.881c-.349.22-.777.33-1.285.33-.51 0-.943-.11-1.295-.33a2.18 2.18 0 01-.801-.881 2.687 2.687 0 01-.273-1.21zm1.324-.613v.613c0 .326.078.621.233.887.155.265.426.397.813.397.382 0 .65-.132.8-.397.152-.266.228-.561.228-.887v-.613c0-.326-.074-.622-.222-.887-.144-.265-.413-.398-.806-.398-.38 0-.648.133-.807.398a1.69 1.69 0 00-.239.887zm-7.176-6.046v-.614c0-.439.09-.842.273-1.21a2.17 2.17 0 01.806-.88c.356-.22.786-.33 1.29-.33.515 0 .947.11 1.296.33.348.219.611.513.79.88.178.368.267.771.267 1.21v.614c0 .439-.091.843-.273 1.21a2.14 2.14 0 01-.796.881c-.348.22-.776.33-1.284.33-.515 0-.949-.11-1.3-.33a2.194 2.194 0 01-.796-.881 2.69 2.69 0 01-.273-1.21zm1.33-.614v.614c0 .326.075.621.227.886.155.266.426.398.812.398.379 0 .644-.132.796-.398.155-.265.233-.56.233-.886v-.614a1.79 1.79 0 00-.222-.886c-.148-.265-.417-.398-.807-.398-.379 0-.648.133-.807.398a1.721 1.721 0 00-.232.886zM22.63 395l8-11.636h1.358l-8 11.636H22.63zm30.756-5.818c0 1.242-.227 2.31-.681 3.204-.455.891-1.078 1.576-1.87 2.057-.788.477-1.684.716-2.687.716-1.008 0-1.908-.239-2.7-.716-.787-.481-1.408-1.168-1.863-2.062-.454-.894-.682-1.961-.682-3.199 0-1.243.228-2.309.682-3.199.455-.894 1.076-1.58 1.864-2.057.791-.481 1.691-.721 2.699-.721 1.003 0 1.9.24 2.687.721.792.477 1.415 1.163 1.87 2.057.454.89.681 1.956.681 3.199zm-1.738 0c0-.947-.154-1.745-.46-2.392-.303-.652-.72-1.144-1.25-1.478a3.248 3.248 0 00-1.79-.505c-.67 0-1.27.168-1.796.505-.526.334-.943.826-1.25 1.478-.303.647-.454 1.445-.454 2.392 0 .947.151 1.746.454 2.398.307.647.724 1.14 1.25 1.477a3.29 3.29 0 001.796.5c.666 0 1.263-.167 1.79-.5.53-.337.947-.83 1.25-1.477.306-.652.46-1.451.46-2.398zm7.545-2.909v1.363h-4.767v-1.363h4.767zm-3.489-2.091h1.699v8.256c0 .329.05.577.148.744a.772.772 0 00.38.335c.16.057.332.085.518.085.136 0 .255-.009.357-.028l.24-.046.306 1.404a2.75 2.75 0 01-.42.113c-.182.042-.41.065-.682.069a2.995 2.995 0 01-1.25-.239 2.143 2.143 0 01-.938-.773c-.238-.348-.358-.786-.358-1.312v-8.608zm6.934 5.636V395H60.94v-11.636h1.676v4.329h.108c.204-.47.517-.843.937-1.119.42-.277.97-.415 1.648-.415.598 0 1.121.123 1.568.369.45.247.8.614 1.046 1.103.25.485.374 1.091.374 1.818V395H66.6v-5.347c0-.64-.165-1.136-.495-1.488-.33-.356-.788-.534-1.375-.534a2.26 2.26 0 00-1.08.255 1.85 1.85 0 00-.743.75c-.179.326-.268.72-.268 1.182zm11.368 5.358c-.86 0-1.6-.184-2.222-.551a3.735 3.735 0 01-1.431-1.563c-.334-.674-.5-1.464-.5-2.369 0-.894.166-1.682.5-2.363a3.885 3.885 0 011.409-1.597c.606-.383 1.314-.574 2.125-.574.492 0 .97.082 1.431.244.463.163.877.419 1.245.767.367.349.657.802.869 1.358.212.553.318 1.226.318 2.017v.603h-6.937v-1.273h5.272a2.5 2.5 0 00-.272-1.187 2.054 2.054 0 00-.767-.824c-.326-.201-.709-.302-1.148-.302-.477 0-.894.118-1.25.353a2.364 2.364 0 00-.818.909c-.19.371-.284.774-.284 1.21v.994c0 .584.102 1.08.306 1.489.209.409.499.722.87.938.371.212.805.318 1.301.318.322 0 .615-.046.88-.137a1.88 1.88 0 00.688-.42 1.83 1.83 0 00.443-.688l1.608.29c-.129.474-.36.888-.693 1.244-.33.353-.744.627-1.244.824-.496.194-1.063.29-1.7.29zm5.31-.176v-8.727h1.641v1.386h.091c.16-.47.44-.839.841-1.108a2.404 2.404 0 011.375-.409c.106 0 .231.004.375.011.148.008.263.017.347.029v1.625a3.063 3.063 0 00-.364-.063 3.538 3.538 0 00-.523-.039c-.401 0-.76.085-1.074.255a1.904 1.904 0 00-1.011 1.71V395h-1.699z" fill="#1E222E"/><rect x="42" y="408" width="85" height="6" rx="3" fill="#397CE8"/></svg>