<svg width="623" height="267" fill="none" xmlns="http://www.w3.org/2000/svg"><path d="M4.046 21.678L.352 8.588h2.55l2.359 9.62h.121l2.519-9.62h2.32l2.525 9.626h.115l2.358-9.627h2.55l-3.694 13.091h-2.34l-2.62-9.185h-.102l-2.627 9.185h-2.34zm18.43.192c-.984 0-1.834-.204-2.55-.614a4.156 4.156 0 01-1.643-1.751c-.383-.758-.575-1.651-.575-2.678 0-1.01.192-1.897.575-2.66a4.35 4.35 0 011.624-1.79c.695-.43 1.51-.645 2.448-.645.605 0 1.176.098 1.713.294a3.87 3.87 0 011.432.895c.418.405.746.92.984 1.547.24.622.358 1.364.358 2.224v.71h-8.047v-1.56h5.83a2.488 2.488 0 00-.288-1.182 2.091 2.091 0 00-.787-.825c-.332-.2-.72-.3-1.163-.3-.473 0-.888.115-1.246.345a2.379 2.379 0 00-.838.895c-.196.366-.296.77-.3 1.208v1.361c0 .572.104 1.062.313 1.47.209.405.5.717.876.934.375.213.814.32 1.317.32a2.8 2.8 0 00.914-.141c.272-.098.509-.24.71-.428.2-.188.35-.42.453-.697l2.16.243a3.37 3.37 0 01-.78 1.496c-.379.421-.864.75-1.457.984-.592.23-1.27.345-2.032.345zm13.254.006c-.622 0-1.182-.11-1.681-.332a2.743 2.743 0 01-1.176-.997c-.286-.439-.428-.98-.428-1.624 0-.554.102-1.012.306-1.374.205-.362.484-.652.838-.87a4.223 4.223 0 011.195-.491 9.71 9.71 0 011.387-.25 54.74 54.74 0 001.4-.16c.358-.05.618-.127.78-.23.166-.106.25-.27.25-.492v-.038c0-.482-.144-.855-.43-1.119-.285-.264-.696-.396-1.233-.396-.567 0-1.016.123-1.349.37-.328.248-.55.54-.664.876l-2.16-.306a3.45 3.45 0 01.843-1.496 3.67 3.67 0 011.438-.908 5.503 5.503 0 011.88-.307c.472 0 .943.056 1.412.167.469.11.897.294 1.285.55.388.25.699.594.933 1.028.239.435.358.978.358 1.63v6.571H38.69V20.33h-.077c-.14.272-.339.528-.595.767a2.86 2.86 0 01-.952.569c-.38.14-.825.21-1.336.21zm.6-1.7c.465 0 .868-.091 1.209-.275a2.03 2.03 0 00.786-.741c.188-.307.281-.642.281-1.004V17a1.09 1.09 0 01-.37.167c-.17.05-.362.095-.575.134-.214.038-.425.072-.633.102l-.544.077a4.039 4.039 0 00-.927.23 1.54 1.54 0 00-.645.447c-.158.188-.237.43-.237.729 0 .426.156.748.467.965.311.217.707.326 1.189.326zm6.73 1.502V11.86h2.244v1.636h.103c.179-.566.485-1.003.92-1.31.439-.31.94-.466 1.502-.466.128 0 .27.006.428.019.162.008.297.023.403.044v2.129a2.434 2.434 0 00-.466-.09 4.297 4.297 0 00-.608-.044c-.422 0-.8.091-1.137.275a2.011 2.011 0 00-.787.747c-.191.32-.287.689-.287 1.106v5.772H43.06zm10.9.192c-.985 0-1.835-.204-2.55-.614a4.157 4.157 0 01-1.643-1.751c-.384-.758-.576-1.651-.576-2.678 0-1.01.192-1.897.575-2.66a4.35 4.35 0 011.624-1.79c.695-.43 1.51-.645 2.448-.645.605 0 1.176.098 1.713.294.541.192 1.019.49 1.432.895.418.405.746.92.985 1.547.238.622.357 1.364.357 2.224v.71h-8.047v-1.56h5.83a2.489 2.489 0 00-.288-1.182 2.091 2.091 0 00-.786-.825c-.333-.2-.72-.3-1.164-.3-.473 0-.888.115-1.246.345a2.379 2.379 0 00-.838.895c-.196.366-.296.77-.3 1.208v1.361c0 .572.104 1.062.313 1.47.209.405.5.717.876.934.375.213.814.32 1.317.32.336 0 .641-.047.914-.141.273-.098.509-.24.71-.428.2-.188.35-.42.453-.697l2.16.243a3.368 3.368 0 01-.78 1.496c-.378.421-.864.75-1.457.984-.592.23-1.27.345-2.032.345zm10.53-.192V8.588h2.314v4.896h.096c.12-.239.288-.492.505-.76.217-.274.511-.506.882-.698.37-.196.844-.294 1.42-.294a3.74 3.74 0 012.05.582c.615.383 1.1.952 1.458 1.707.362.75.544 1.67.544 2.761 0 1.078-.177 1.994-.53 2.749-.355.754-.836 1.33-1.445 1.726-.61.396-1.3.594-2.072.594-.562 0-1.029-.094-1.4-.281a2.85 2.85 0 01-.894-.678 4.386 4.386 0 01-.518-.76h-.134v1.546H64.49zm2.27-4.909c0 .635.089 1.191.268 1.669.183.477.445.85.786 1.118.345.264.763.396 1.253.396.511 0 .94-.136 1.285-.409.345-.277.605-.654.78-1.131.178-.482.268-1.03.268-1.643 0-.61-.087-1.15-.262-1.623-.175-.473-.435-.844-.78-1.113-.345-.268-.776-.402-1.291-.402-.494 0-.914.13-1.26.39-.344.26-.607.624-.786 1.093-.174.468-.262 1.02-.262 1.655zm13.132 5.101c-.984 0-1.834-.204-2.55-.614a4.156 4.156 0 01-1.643-1.751c-.383-.758-.575-1.651-.575-2.678 0-1.01.192-1.897.575-2.66a4.35 4.35 0 011.624-1.79c.694-.43 1.51-.645 2.448-.645.605 0 1.176.098 1.713.294a3.87 3.87 0 011.432.895c.417.405.746.92.984 1.547.239.622.358 1.364.358 2.224v.71h-8.047v-1.56h5.83a2.488 2.488 0 00-.288-1.182 2.091 2.091 0 00-.787-.825c-.332-.2-.72-.3-1.163-.3-.473 0-.889.115-1.247.345a2.38 2.38 0 00-.837.895c-.196.366-.296.77-.3 1.208v1.361c0 .572.104 1.062.313 1.47.209.405.5.717.876.934.375.213.813.32 1.316.32.337 0 .642-.047.914-.141.273-.098.51-.24.71-.428.2-.188.352-.42.454-.697l2.16.243a3.369 3.369 0 01-.78 1.496c-.379.421-.865.75-1.457.984-.592.23-1.27.345-2.033.345zm6.144-.192V11.86h2.314v9.818h-2.314zm1.163-11.211a1.35 1.35 0 01-.946-.365 1.175 1.175 0 01-.396-.888c0-.35.132-.646.396-.889.264-.247.58-.37.946-.37.37 0 .686.123.946.37.264.243.396.54.396.889 0 .345-.132.641-.396.888-.26.243-.575.365-.946.365zm5.664 5.458v5.753h-2.314V11.86h2.212v1.668h.115c.226-.55.586-.986 1.08-1.31.499-.324 1.114-.486 1.847-.486.678 0 1.268.145 1.77.435.508.29.9.71 1.177 1.26.281.549.42 1.216.416 2v6.251h-2.314v-5.893c0-.656-.17-1.17-.512-1.54-.336-.371-.803-.557-1.4-.557-.404 0-.764.09-1.08.269a1.86 1.86 0 00-.735.76c-.175.333-.262.736-.262 1.208zm12.745 9.64c-.831 0-1.545-.113-2.142-.34-.596-.22-1.076-.519-1.438-.894a3.104 3.104 0 01-.754-1.246l2.084-.505c.093.191.23.381.409.569.179.191.42.349.722.473.307.127.693.191 1.157.191.656 0 1.2-.16 1.63-.48.43-.314.646-.834.646-1.559v-1.86h-.115c-.12.239-.294.484-.525.735a2.671 2.671 0 01-.901.633c-.371.17-.837.256-1.4.256a4.036 4.036 0 01-2.052-.53c-.609-.359-1.095-.891-1.457-1.599-.358-.711-.537-1.602-.537-2.672 0-1.078.179-1.988.537-2.73.362-.745.85-1.31 1.464-1.693a3.759 3.759 0 012.052-.582c.575 0 1.048.098 1.419.294.375.192.673.424.895.697.221.269.39.522.505.76h.127V11.86h2.282v9.978c0 .84-.2 1.534-.6 2.084-.401.55-.949.96-1.643 1.234-.695.272-1.483.409-2.365.409zm.019-5.843c.49 0 .908-.119 1.253-.358.345-.238.607-.581.786-1.029.179-.447.268-.984.268-1.61 0-.618-.089-1.16-.268-1.624-.175-.465-.435-.825-.78-1.08-.341-.26-.761-.39-1.259-.39-.516 0-.946.134-1.291.402-.345.269-.605.638-.78 1.106-.175.465-.262.993-.262 1.585 0 .601.087 1.128.262 1.58.179.447.441.796.786 1.048.35.247.778.37 1.285.37zm13.092 1.956l-2.774-9.818h2.358l1.726 6.904h.09l1.764-6.904h2.333l1.764 6.865h.096l1.7-6.865h2.366l-2.781 9.818h-2.41l-1.841-6.635h-.134l-1.841 6.635h-2.416zm15.683.198c-.622 0-1.182-.11-1.681-.332a2.746 2.746 0 01-1.176-.997c-.285-.439-.428-.98-.428-1.624 0-.554.102-1.012.307-1.374.204-.362.483-.652.837-.87a4.226 4.226 0 011.195-.491 9.73 9.73 0 011.387-.25 54.39 54.39 0 001.4-.16c.358-.05.618-.127.78-.23.166-.106.249-.27.249-.492v-.038c0-.482-.142-.855-.428-1.119-.285-.264-.697-.396-1.233-.396-.567 0-1.017.123-1.349.37-.328.248-.55.54-.665.876l-2.161-.306c.171-.597.452-1.096.844-1.496a3.675 3.675 0 011.438-.908 5.508 5.508 0 011.88-.307c.473 0 .944.056 1.412.167.469.11.897.294 1.285.55.388.25.699.594.933 1.028.239.435.358.978.358 1.63v6.571h-2.224V20.33h-.077a2.84 2.84 0 01-.594.767 2.864 2.864 0 01-.953.569c-.379.14-.824.21-1.336.21zm.601-1.7c.465 0 .867-.091 1.208-.275a2.04 2.04 0 00.787-.741c.187-.307.281-.642.281-1.004V17c-.073.06-.196.115-.371.167a5.24 5.24 0 01-.575.134 18.87 18.87 0 01-.633.102l-.543.077a4.033 4.033 0 00-.927.23 1.541 1.541 0 00-.646.447c-.157.188-.236.43-.236.729 0 .426.155.748.466.965.311.217.708.326 1.189.326zm11.633-8.316v1.79h-5.644v-1.79h5.644zm-4.251-2.352h2.314v9.217c0 .311.047.55.141.716a.756.756 0 00.383.332c.158.06.333.09.524.09.145 0 .277-.01.397-.032.123-.021.217-.04.281-.058l.39 1.81a5.378 5.378 0 01-.531.14 4.348 4.348 0 01-.831.09c-.579.017-1.101-.07-1.566-.262a2.44 2.44 0 01-1.106-.908c-.268-.41-.4-.92-.396-1.534V9.508zm10.183 12.362c-.98 0-1.822-.215-2.525-.646a4.308 4.308 0 01-1.617-1.783c-.375-.763-.562-1.64-.562-2.633 0-.998.191-1.877.575-2.64a4.295 4.295 0 011.623-1.79c.704-.43 1.535-.646 2.493-.646.797 0 1.502.147 2.116.441.618.29 1.11.701 1.477 1.234.366.528.575 1.146.626 1.854h-2.212a2.109 2.109 0 00-.639-1.183c-.332-.32-.777-.48-1.336-.48-.473 0-.888.129-1.246.384-.358.252-.637.614-.837 1.087-.197.473-.295 1.04-.295 1.7 0 .67.098 1.245.295 1.726.196.477.47.846.824 1.106a2.11 2.11 0 001.259.384 2.1 2.1 0 00.914-.192c.273-.132.501-.322.684-.57.184-.246.309-.547.377-.9h2.212a3.849 3.849 0 01-.614 1.847 3.63 3.63 0 01-1.444 1.253c-.609.298-1.325.447-2.148.447zm8.24-5.945v5.753h-2.314V8.588h2.263v4.94h.115c.23-.553.586-.99 1.067-1.31.486-.324 1.104-.486 1.854-.486.682 0 1.276.143 1.784.429.507.285.899.703 1.176 1.252.281.55.422 1.221.422 2.014v6.251h-2.314v-5.893c0-.66-.171-1.174-.512-1.54-.336-.371-.809-.557-1.419-.557-.409 0-.775.09-1.099.269-.32.175-.571.428-.754.76-.179.333-.269.736-.269 1.208zM173.7 21.87c-.985 0-1.835-.204-2.551-.614a4.155 4.155 0 01-1.642-1.751c-.384-.758-.576-1.651-.576-2.678 0-1.01.192-1.897.576-2.66a4.348 4.348 0 011.623-1.79c.695-.43 1.511-.645 2.448-.645.605 0 1.176.098 1.713.294.542.192 1.019.49 1.432.895.418.405.746.92.985 1.547.238.622.358 1.364.358 2.224v.71h-8.048v-1.56h5.83a2.503 2.503 0 00-.288-1.182 2.099 2.099 0 00-.786-.825c-.333-.2-.721-.3-1.164-.3-.473 0-.888.115-1.246.345a2.376 2.376 0 00-.837.895c-.197.366-.297.77-.301 1.208v1.361c0 .572.104 1.062.313 1.47.209.405.501.717.876.934.375.213.814.32 1.317.32.336 0 .641-.047.914-.141a2.02 2.02 0 00.709-.428c.201-.188.352-.42.454-.697l2.161.243a3.38 3.38 0 01-.78 1.496c-.379.421-.865.75-1.458.984-.592.23-1.269.345-2.032.345zm9.787-.02c-.772 0-1.462-.197-2.071-.594-.61-.396-1.091-.971-1.445-1.725-.354-.755-.531-1.67-.531-2.749 0-1.09.179-2.011.537-2.761.363-.755.851-1.324 1.464-1.707a3.764 3.764 0 012.052-.582c.575 0 1.048.098 1.419.294.371.192.665.424.882.697.217.269.386.522.505.76h.096V8.588h2.32v13.091h-2.275v-1.547h-.141a3.934 3.934 0 01-.518.761c-.226.264-.524.49-.895.678-.37.187-.837.28-1.399.28zm.645-1.898c.49 0 .908-.132 1.253-.396.345-.268.607-.641.786-1.118.179-.478.269-1.034.269-1.669s-.09-1.186-.269-1.655c-.174-.469-.434-.833-.78-1.093-.34-.26-.76-.39-1.259-.39-.515 0-.946.134-1.291.402-.345.269-.605.64-.78 1.113-.175.473-.262 1.014-.262 1.623 0 .614.087 1.162.262 1.643.179.477.441.854.786 1.131.35.273.778.41 1.285.41zm8.294 1.867c-.387 0-.72-.136-.997-.41a1.326 1.326 0 01-.409-.996 1.311 1.311 0 01.409-.985c.277-.272.61-.409.997-.409.375 0 .701.137.978.41a1.345 1.345 0 01.224 1.693 1.47 1.47 0 01-.511.512 1.332 1.332 0 01-.691.185zm0-7.006a1.37 1.37 0 01-.997-.409 1.339 1.339 0 01-.409-.997 1.31 1.31 0 01.409-.984 1.36 1.36 0 01.997-.416c.375 0 .701.139.978.416.282.272.424.6.429.984a1.36 1.36 0 01-.205.703 1.47 1.47 0 01-.511.511 1.297 1.297 0 01-.691.192zM6.1 61.837c-.781 0-1.478-.134-2.092-.403-.61-.269-1.093-.642-1.449-1.12a2.972 2.972 0 01-.568-1.67h1.784c.023.345.139.644.347.898.212.25.489.443.83.58.34.136.72.204 1.136.204.458 0 .863-.08 1.216-.239.356-.159.634-.38.835-.664.2-.288.301-.62.301-.995 0-.39-.1-.733-.301-1.028-.197-.3-.487-.534-.87-.705-.378-.17-.836-.255-1.374-.255h-.983v-1.432h.983c.431 0 .81-.078 1.136-.233.33-.155.587-.371.773-.648.185-.28.278-.608.278-.983 0-.36-.081-.672-.244-.937a1.64 1.64 0 00-.682-.63c-.292-.152-.636-.228-1.034-.228-.379 0-.733.07-1.063.21-.325.136-.59.333-.795.59a1.52 1.52 0 00-.33.916H2.236a2.87 2.87 0 01.556-1.66 3.6 3.6 0 011.41-1.119 4.587 4.587 0 011.943-.403c.746 0 1.39.146 1.931.437a3.19 3.19 0 011.262 1.154c.3.48.447 1.007.443 1.58.004.65-.178 1.204-.545 1.658-.364.455-.849.76-1.455.915v.091c.773.117 1.371.424 1.795.92.428.497.64 1.112.637 1.847a2.874 2.874 0 01-.534 1.722c-.356.507-.843.907-1.46 1.199-.618.288-1.324.431-2.12.431zm5.536-2.431v-1.42l5.029-7.944h1.119v2.09h-.71l-3.597 5.694v.091h6.892v1.489h-8.733zm5.517 2.272v-2.704l.012-.648v-8.284h1.664v11.636h-1.676zm10.79-2.181v-.614c0-.44.091-.841.273-1.205.185-.367.454-.66.807-.88.356-.224.786-.336 1.29-.336.515 0 .947.11 1.295.33.348.22.612.513.79.88.181.368.272.772.272 1.21v.614c0 .44-.09.843-.272 1.21a2.184 2.184 0 01-.801.881c-.349.22-.777.33-1.285.33-.51 0-.943-.11-1.295-.33a2.185 2.185 0 01-.801-.88 2.692 2.692 0 01-.273-1.21zm1.324-.614v.613c0 .326.078.622.233.887.155.265.426.398.813.398.382 0 .65-.133.8-.398.152-.265.228-.56.228-.887v-.613a1.79 1.79 0 00-.222-.887c-.144-.265-.413-.397-.806-.397-.38 0-.648.132-.807.398a1.69 1.69 0 00-.239.886zm-7.176-6.046v-.613c0-.44.09-.843.273-1.21.185-.368.454-.661.806-.881.356-.22.786-.33 1.29-.33.515 0 .947.11 1.296.33.348.22.611.513.79.88.178.368.267.771.267 1.21v.614c0 .44-.091.843-.273 1.21a2.144 2.144 0 01-.796.881c-.348.22-.776.33-1.284.33-.515 0-.949-.11-1.3-.33a2.198 2.198 0 01-.796-.88 2.692 2.692 0 01-.273-1.21zm1.33-.613v.613c0 .326.075.622.227.887.155.265.426.398.812.398.379 0 .644-.133.796-.398.155-.265.233-.56.233-.887v-.613a1.79 1.79 0 00-.222-.887c-.148-.265-.417-.397-.807-.397-.379 0-.648.132-.807.397a1.727 1.727 0 00-.232.887zm-.79 9.454l8-11.636h1.358l-8 11.636H22.63zm25.17-11.636h1.75v8.25c0 .746-.148 1.384-.443 1.915-.292.53-.703.935-1.233 1.216-.53.276-1.151.414-1.864.414-.655 0-1.244-.119-1.767-.358a2.907 2.907 0 01-1.233-1.04c-.299-.458-.449-1.014-.449-1.67h1.745c0 .322.074.6.221.836.152.234.358.418.62.55.265.13.568.194.909.194.371 0 .685-.078.943-.233.261-.16.46-.392.597-.699.136-.307.204-.682.204-1.125v-8.25zm10.332 3.057a1.66 1.66 0 00-.75-1.25c-.44-.3-.992-.45-1.659-.45-.477 0-.89.077-1.239.228a1.905 1.905 0 00-.812.614c-.19.257-.284.551-.284.88 0 .277.064.516.193.716.133.201.305.37.517.506.216.133.447.244.693.335.246.088.483.16.71.216l1.137.296c.371.09.752.214 1.142.369.39.155.752.36 1.085.614.333.253.602.568.807.943.208.375.312.824.312 1.346 0 .66-.17 1.245-.511 1.756-.337.511-.828.915-1.472 1.21-.64.296-1.414.444-2.323.444-.872 0-1.625-.139-2.262-.415-.636-.277-1.134-.669-1.494-1.176-.36-.512-.559-1.118-.597-1.819h1.762c.034.42.17.771.409 1.052.242.276.55.482.926.619.379.133.794.199 1.244.199.496 0 .938-.078 1.324-.233.39-.16.697-.379.92-.66.224-.283.336-.615.336-.994 0-.344-.099-.627-.296-.846a2.183 2.183 0 00-.79-.546 7.714 7.714 0 00-1.119-.38l-1.375-.375c-.932-.254-1.67-.627-2.216-1.12-.541-.492-.812-1.144-.812-1.954 0-.67.182-1.256.545-1.756.364-.5.856-.888 1.477-1.165.622-.28 1.322-.42 2.103-.42.788 0 1.483.138 2.085.415.606.276 1.083.657 1.432 1.142a2.88 2.88 0 01.545 1.659h-1.693zm11.84-3.602l-3.75 13.931h-1.517l3.75-13.931h1.517zm4.6 2.056v-1.511h9.006v1.511h-3.63v10.125h-1.75V51.553h-3.626zm10.614 13.398c-.254 0-.485-.02-.694-.062a2.186 2.186 0 01-.466-.125l.41-1.392c.31.083.587.119.83.108a.994.994 0 00.641-.273c.19-.17.356-.45.5-.836l.21-.579-3.193-8.84h1.818l2.21 6.772h.091l2.21-6.773h1.825l-3.597 9.892a3.946 3.946 0 01-.636 1.153 2.47 2.47 0 01-.92.716c-.357.16-.77.24-1.24.24zm7.668 0v-12h1.66v1.415h.141c.099-.182.24-.392.426-.63.186-.24.444-.448.773-.626.33-.182.765-.273 1.307-.273.704 0 1.333.178 1.886.534.553.357.987.87 1.301 1.54.319.67.478 1.478.478 2.42 0 .944-.157 1.753-.472 2.427-.314.67-.746 1.187-1.295 1.551-.55.36-1.176.54-1.881.54-.53 0-.964-.09-1.301-.267a2.464 2.464 0 01-.784-.625 4.737 4.737 0 01-.438-.637h-.102v4.631h-1.699zm1.665-7.636c0 .613.089 1.151.267 1.613.178.463.436.824.773 1.086.337.257.75.386 1.238.386.508 0 .932-.134 1.273-.404.341-.272.599-.642.773-1.107.178-.466.267-.991.267-1.574a4.34 4.34 0 00-.261-1.551c-.171-.459-.428-.82-.773-1.086-.341-.265-.767-.397-1.279-.397-.492 0-.909.127-1.25.38-.337.254-.593.608-.767 1.063-.174.454-.261.985-.261 1.59zm11.652 4.54c-.86 0-1.601-.184-2.222-.552a3.74 3.74 0 01-1.432-1.562c-.333-.674-.5-1.464-.5-2.37 0-.893.167-1.681.5-2.363a3.884 3.884 0 011.409-1.597c.606-.382 1.315-.574 2.125-.574.493 0 .97.082 1.432.245.462.163.877.418 1.244.767.368.348.658.8.87 1.358.212.553.318 1.225.318 2.017v.602h-6.938v-1.273h5.273c0-.447-.091-.842-.273-1.187a2.053 2.053 0 00-.767-.824c-.325-.2-.708-.301-1.147-.301-.478 0-.894.117-1.25.352a2.367 2.367 0 00-.819.91 2.629 2.629 0 00-.284 1.21v.994c0 .583.103 1.08.307 1.488.208.41.498.722.869.938.372.212.805.318 1.302.318.322 0 .615-.045.88-.136.265-.095.495-.235.688-.42.193-.186.341-.416.443-.688l1.608.29c-.129.473-.36.888-.693 1.244a3.37 3.37 0 01-1.245.824c-.496.193-1.062.29-1.698.29zm11.849-6.773l-1.54.273a1.84 1.84 0 00-.307-.563 1.514 1.514 0 00-.557-.438c-.235-.113-.528-.17-.881-.17-.481 0-.882.108-1.204.324-.322.212-.483.487-.483.824 0 .291.108.526.324.704.216.178.564.324 1.045.438l1.387.318c.803.186 1.401.472 1.795.858.394.386.591.888.591 1.506 0 .522-.151.988-.455 1.397-.299.406-.717.724-1.255.955-.534.231-1.154.346-1.858.346-.977 0-1.775-.208-2.392-.624-.618-.421-.996-1.018-1.137-1.79l1.642-.25c.103.428.313.752.631.971.318.216.733.324 1.244.324.557 0 1.002-.115 1.336-.346.333-.235.5-.521.5-.858a.894.894 0 00-.307-.688c-.201-.186-.51-.326-.926-.42l-1.478-.324c-.814-.186-1.416-.481-1.806-.887-.387-.405-.58-.918-.58-1.54a2.2 2.2 0 01.432-1.352c.288-.386.686-.687 1.193-.903.508-.22 1.089-.33 1.744-.33.944 0 1.686.205 2.228.614.541.405.899.949 1.074 1.63zm5.394 6.773c-.845 0-1.572-.192-2.182-.574a3.792 3.792 0 01-1.397-1.597c-.326-.678-.489-1.454-.489-2.33 0-.886.167-1.668.5-2.346a3.828 3.828 0 011.409-1.597c.606-.382 1.32-.574 2.142-.574.663 0 1.254.123 1.773.37.519.242.937.583 1.255 1.023.322.439.514.952.574 1.54h-1.653a1.98 1.98 0 00-.625-1.058c-.322-.295-.754-.443-1.296-.443a2.11 2.11 0 00-1.244.375c-.352.247-.627.599-.824 1.057-.197.455-.295.992-.295 1.614 0 .636.096 1.185.29 1.647.193.463.465.82.818 1.074.356.254.774.381 1.255.381.322 0 .614-.059.875-.176a1.78 1.78 0 00.665-.517 1.95 1.95 0 00.381-.807H127a3.203 3.203 0 01-.551 1.511 3.174 3.174 0 01-1.233 1.046c-.511.254-1.112.38-1.801.38zm5.082-.177v-8.727h1.642v1.386h.091c.159-.47.439-.839.841-1.108a2.412 2.412 0 011.375-.409 7.242 7.242 0 01.722.04v1.625a3.079 3.079 0 00-.364-.062 3.462 3.462 0 00-.523-.04 2.22 2.22 0 00-1.074.256 1.896 1.896 0 00-1.011 1.71v5.33h-1.699zm5.821 0v-8.727h1.699v8.727h-1.699zm.858-10.073a1.08 1.08 0 01-.762-.296.961.961 0 01-.312-.716.95.95 0 01.312-.716c.212-.2.466-.3.762-.3.295 0 .547.1.755.3a.941.941 0 01.318.716.953.953 0 01-.318.716 1.06 1.06 0 01-.755.296zm2.806 13.346v-12h1.659v1.415h.142a4.8 4.8 0 01.426-.63 2.41 2.41 0 01.773-.626c.33-.182.765-.273 1.307-.273.704 0 1.333.178 1.886.534.553.357.987.87 1.301 1.54.319.67.478 1.478.478 2.42 0 .944-.158 1.753-.472 2.427-.314.67-.746 1.187-1.295 1.551-.55.36-1.177.54-1.881.54-.53 0-.964-.09-1.301-.267a2.452 2.452 0 01-.784-.625 4.663 4.663 0 01-.438-.637h-.102v4.631h-1.699zm1.665-7.636c0 .613.089 1.151.267 1.613.178.463.435.824.773 1.086.337.257.75.386 1.238.386.508 0 .932-.134 1.273-.404.341-.272.598-.642.773-1.107.178-.466.267-.991.267-1.574a4.32 4.32 0 00-.262-1.551 2.378 2.378 0 00-.772-1.086c-.341-.265-.767-.397-1.279-.397-.492 0-.909.127-1.25.38-.337.254-.593.608-.767 1.063-.174.454-.261.985-.261 1.59zm11.964-4.364v1.364h-4.767V52.95h4.767zm-3.489-2.09h1.699v8.255c0 .33.049.578.148.744a.767.767 0 00.381.335c.159.057.331.086.517.086a2 2 0 00.358-.029l.238-.045.307 1.403a2.873 2.873 0 01-.42.114 3.33 3.33 0 01-.682.068 2.99 2.99 0 01-1.25-.239 2.143 2.143 0 01-.938-.772c-.238-.349-.358-.786-.358-1.313V50.86zm13.394-1.364l-3.75 13.931h-1.517l3.75-13.931h1.517zM52.671 72.041v11.636h-1.614l-5.915-8.534h-.108v8.534h-1.756V72.042h1.625l5.92 8.545h.109v-8.545h1.738zm5.78 11.813c-.818 0-1.532-.188-2.142-.563a3.792 3.792 0 01-1.42-1.574c-.337-.674-.506-1.462-.506-2.364 0-.905.169-1.697.506-2.374a3.785 3.785 0 011.42-1.58c.61-.375 1.324-.563 2.142-.563.819 0 1.532.188 2.142.563.61.375 1.084.901 1.42 1.58.338.677.507 1.47.507 2.374 0 .902-.17 1.69-.506 2.364a3.793 3.793 0 01-1.42 1.574c-.61.375-1.325.563-2.143.563zm.006-1.427c.53 0 .97-.14 1.318-.42.349-.28.606-.653.773-1.12.17-.465.256-.979.256-1.54 0-.556-.086-1.067-.256-1.533a2.5 2.5 0 00-.773-1.131c-.348-.284-.788-.426-1.318-.426-.534 0-.977.142-1.33.426a2.54 2.54 0 00-.778 1.13c-.167.467-.25.978-.25 1.535 0 .56.083 1.074.25 1.54.17.466.43.839.778 1.119.353.28.796.42 1.33.42zm8.906 1.42c-.705 0-1.334-.18-1.886-.539-.55-.364-.982-.88-1.296-1.551-.31-.674-.466-1.483-.466-2.426 0-.943.157-1.75.472-2.42.318-.671.754-1.184 1.306-1.54a3.4 3.4 0 011.881-.535c.542 0 .978.091 1.307.273.333.178.59.386.773.625.185.239.33.449.432.63h.102v-4.323h1.699v11.636h-1.66V82.32h-.141a4.5 4.5 0 01-.444.637c-.189.238-.45.447-.784.625-.333.178-.765.267-1.295.267zm.375-1.448c.489 0 .901-.129 1.239-.386.34-.262.598-.623.772-1.086.178-.462.267-1 .267-1.613 0-.606-.087-1.137-.261-1.591-.174-.455-.43-.809-.767-1.063-.337-.254-.754-.38-1.25-.38-.511 0-.938.132-1.279.397-.34.266-.598.627-.772 1.086-.17.458-.256.975-.256 1.55 0 .584.087 1.109.261 1.575.175.466.432.835.773 1.108.345.269.77.403 1.273.403zm9.815 1.454c-.86 0-1.6-.183-2.222-.55A3.738 3.738 0 0173.9 81.74c-.333-.674-.5-1.464-.5-2.37 0-.893.167-1.681.5-2.363a3.883 3.883 0 011.41-1.597c.606-.382 1.314-.574 2.124-.574.493 0 .97.082 1.432.245.462.163.877.418 1.245.767.367.348.657.8.869 1.358.212.553.318 1.225.318 2.017v.602H74.36v-1.273h5.272a2.5 2.5 0 00-.272-1.187 2.062 2.062 0 00-.767-.824c-.326-.2-.709-.301-1.148-.301-.477 0-.894.117-1.25.352a2.365 2.365 0 00-.818.91c-.19.37-.284.774-.284 1.21v.994c0 .583.102 1.08.306 1.488.209.41.498.722.87.938.37.212.805.318 1.3.318.323 0 .616-.045.882-.136.265-.095.494-.235.687-.42a1.84 1.84 0 00.443-.688l1.608.29a2.91 2.91 0 01-.693 1.244 3.36 3.36 0 01-1.244.824c-.497.193-1.063.29-1.7.29zm6.428-.068a1.1 1.1 0 01-.8-.33 1.1 1.1 0 01-.336-.806c0-.31.112-.576.335-.796.224-.223.49-.335.801-.335.311 0 .578.112.802.335.223.22.335.485.335.796 0 .208-.053.4-.16.574a1.17 1.17 0 01-.409.409c-.17.102-.36.153-.568.153zm3.092-8.835h1.7v9.296c0 .583-.107 1.075-.319 1.477a2.075 2.075 0 01-.932.915c-.409.208-.915.312-1.517.312h-.17c-.057 0-.116-.002-.176-.006v-1.46h.272c.402 0 .692-.108.87-.324.181-.212.272-.52.272-.926V74.95zm.841-1.346a1.08 1.08 0 01-.761-.296.96.96 0 01-.313-.716.95.95 0 01.313-.716c.212-.2.466-.3.761-.3.296 0 .548.1.756.3a.941.941 0 01.318.716.953.953 0 01-.318.716 1.06 1.06 0 01-.756.296zm9.363 3.477l-1.54.273a1.824 1.824 0 00-.306-.563 1.518 1.518 0 00-.557-.438c-.235-.113-.528-.17-.88-.17-.482 0-.883.108-1.205.324-.322.212-.483.487-.483.824 0 .291.108.526.324.704.216.178.564.324 1.045.438l1.386.318c.804.186 1.402.472 1.796.858.394.386.59.888.59 1.506 0 .522-.15.988-.454 1.397-.299.406-.717.724-1.255.955-.534.231-1.154.347-1.858.347-.978 0-1.775-.209-2.392-.626-.618-.42-.996-1.017-1.137-1.79l1.642-.25c.103.429.313.753.631.972.318.216.733.324 1.244.324.557 0 1.002-.115 1.336-.346.333-.235.5-.521.5-.858a.892.892 0 00-.307-.688c-.201-.186-.51-.326-.926-.42l-1.478-.324c-.814-.186-1.416-.481-1.806-.887-.387-.405-.58-.918-.58-1.54 0-.514.144-.965.432-1.352.288-.386.685-.687 1.193-.903.508-.22 1.089-.33 1.744-.33.944 0 1.686.205 2.228.614.541.405.9.949 1.073 1.63z" fill="#1E222E"/><rect x="42" y="96.678" width="111" height="6" rx="3" fill="#397CE8"/><path d="M1.944 133.406v-1.421l5.029-7.943h1.12v2.091h-.711l-3.597 5.693v.091h6.892v1.489H1.944zm5.517 2.272v-2.704l.012-.648v-8.284h1.665v11.636H7.46zm8.779.159a4.672 4.672 0 01-1.534-.284 3.59 3.59 0 01-1.364-.909c-.409-.424-.737-.994-.983-1.71-.242-.716-.363-1.61-.363-2.682 0-1.015.1-1.916.3-2.704.205-.788.499-1.453.881-1.995.383-.545.845-.96 1.387-1.244.541-.284 1.15-.426 1.824-.426.693 0 1.308.136 1.846.409.538.273.974.65 1.307 1.131.337.481.551 1.028.642 1.642H18.45a2.242 2.242 0 00-.699-1.188c-.348-.307-.803-.46-1.363-.46-.853 0-1.517.371-1.995 1.114-.473.742-.712 1.774-.716 3.096h.086c.2-.329.447-.61.738-.841a3.474 3.474 0 012.148-.733c.674 0 1.284.165 1.83.495.549.325.986.776 1.312 1.352.326.576.489 1.235.489 1.977 0 .743-.169 1.415-.506 2.017a3.7 3.7 0 01-1.41 1.432c-.605.349-1.314.519-2.124.511zm-.006-1.477c.447 0 .847-.11 1.2-.329.351-.22.63-.516.834-.887a2.53 2.53 0 00.307-1.244c0-.447-.1-.854-.301-1.222a2.277 2.277 0 00-.818-.875 2.179 2.179 0 00-1.182-.324 2.266 2.266 0 00-1.688.728 2.587 2.587 0 00-.51.784c-.122.292-.183.6-.183.926a2.469 2.469 0 001.136 2.108c.357.223.758.335 1.205.335zm11.71-.863v-.614c0-.44.09-.841.272-1.205.185-.367.454-.661.807-.88.356-.224.786-.336 1.29-.336.515 0 .947.11 1.295.33.348.22.612.513.79.881.181.367.272.77.272 1.21v.614c0 .439-.09.842-.272 1.21a2.184 2.184 0 01-.801.88c-.349.22-.777.33-1.285.33-.51 0-.943-.11-1.295-.33a2.184 2.184 0 01-.801-.88 2.693 2.693 0 01-.273-1.21zm1.323-.614v.614c0 .325.078.621.233.886.155.265.426.398.813.398.382 0 .65-.133.8-.398a1.75 1.75 0 00.228-.886v-.614c0-.326-.074-.621-.222-.886-.144-.266-.413-.398-.806-.398-.38 0-.648.132-.807.398a1.68 1.68 0 00-.239.886zm-7.176-6.046v-.613c0-.44.09-.843.273-1.21.185-.368.454-.661.806-.881.356-.22.786-.33 1.29-.33.515 0 .947.11 1.296.33.348.22.611.513.79.881.178.367.267.77.267 1.21v.613c0 .44-.091.843-.273 1.211a2.144 2.144 0 01-.796.88c-.348.22-.776.33-1.284.33-.515 0-.949-.11-1.3-.33a2.198 2.198 0 01-.796-.88 2.694 2.694 0 01-.273-1.211zm1.33-.613v.613c0 .326.075.622.227.887.155.265.426.398.812.398.379 0 .644-.133.796-.398.155-.265.233-.561.233-.887v-.613c0-.326-.074-.621-.222-.887-.148-.265-.417-.397-.807-.397-.379 0-.648.132-.807.397a1.725 1.725 0 00-.232.887zm-.79 9.454l8-11.636h1.358l-8 11.636H22.63zm20.647 0v-11.636h4.148c.905 0 1.655.165 2.25.494.595.33 1.04.781 1.335 1.353.296.568.444 1.208.444 1.92 0 .716-.15 1.36-.45 1.932a3.246 3.246 0 01-1.34 1.352c-.595.33-1.343.494-2.245.494h-2.852v-1.488h2.693c.572 0 1.036-.099 1.392-.296.357-.2.618-.473.785-.818a2.67 2.67 0 00.25-1.176c0-.439-.084-.83-.25-1.17a1.798 1.798 0 00-.79-.802c-.356-.193-.826-.289-1.41-.289h-2.204v10.13h-1.756zm10.852 3.273c-.254 0-.485-.021-.693-.062a2.217 2.217 0 01-.466-.125l.41-1.392c.31.083.586.119.829.107a.993.993 0 00.642-.272c.19-.171.356-.449.5-.835l.21-.58-3.193-8.841h1.818l2.21 6.773h.091l2.21-6.773h1.824l-3.596 9.892a3.95 3.95 0 01-.637 1.154 2.47 2.47 0 01-.92.715c-.356.16-.769.239-1.239.239zm11.743-12v1.364h-4.767v-1.364h4.767zm-3.489-2.091h1.699v8.256c0 .329.05.577.148.744a.767.767 0 00.38.335c.16.057.332.086.517.086.137 0 .256-.01.358-.029l.24-.045.306 1.403a3.392 3.392 0 01-1.102.182 2.98 2.98 0 01-1.25-.239 2.14 2.14 0 01-.938-.772c-.238-.349-.358-.786-.358-1.313v-8.608zm6.934 5.637v5.181H67.62v-11.636h1.676v4.33h.108a2.51 2.51 0 01.937-1.12c.42-.276.97-.415 1.648-.415.598 0 1.121.124 1.568.37.45.246.8.613 1.046 1.102.25.485.375 1.091.375 1.818v5.551h-1.7v-5.346c0-.64-.164-1.137-.494-1.489-.33-.356-.788-.534-1.375-.534a2.25 2.25 0 00-1.08.256c-.314.17-.562.42-.743.75-.179.325-.268.719-.268 1.182zm11.283 5.357c-.819 0-1.532-.187-2.142-.562a3.795 3.795 0 01-1.42-1.574c-.338-.674-.507-1.462-.507-2.364 0-.905.17-1.696.506-2.375a3.784 3.784 0 011.42-1.579c.61-.375 1.325-.563 2.143-.563.818 0 1.532.188 2.142.563.61.375 1.083.901 1.42 1.579.337.679.506 1.47.506 2.375 0 .902-.169 1.69-.506 2.364a3.794 3.794 0 01-1.42 1.574c-.61.375-1.324.562-2.142.562zm.005-1.426c.53 0 .97-.14 1.319-.42.348-.28.606-.654.772-1.119.17-.466.256-.98.256-1.54a4.42 4.42 0 00-.256-1.534 2.498 2.498 0 00-.773-1.131c-.348-.284-.787-.426-1.318-.426-.534 0-.977.142-1.33.426a2.538 2.538 0 00-.778 1.131c-.166.466-.25.977-.25 1.534 0 .56.084 1.074.25 1.54.17.465.43.839.779 1.119.352.28.795.42 1.33.42zm7.338-3.931v5.181h-1.699v-8.727h1.63v1.421h.109c.2-.463.515-.834.943-1.114.432-.28.975-.421 1.63-.421.595 0 1.116.125 1.563.375.447.247.794.614 1.04 1.103.246.488.37 1.093.37 1.812v5.551h-1.7v-5.346c0-.633-.164-1.127-.494-1.483-.33-.36-.782-.54-1.358-.54-.394 0-.744.085-1.051.256-.303.17-.544.42-.722.75-.174.325-.261.719-.261 1.182z" fill="#1E222E"/><rect x="42" y="148.678" width="150" height="6" rx="3" fill="#397CE8"/><path d="M12.12 176.042v11.636h-1.762v-9.875h-.069l-2.784 1.819v-1.682l2.904-1.898h1.71zm7.082 0v11.636H17.44v-9.875h-.068l-2.784 1.819v-1.682l2.903-1.898h1.71zm8.741 9.455v-.614c0-.44.091-.841.273-1.205.185-.367.454-.661.807-.88.356-.224.786-.336 1.29-.336.515 0 .947.11 1.295.33.348.22.612.513.79.881.181.367.272.77.272 1.21v.614c0 .439-.09.842-.272 1.21a2.184 2.184 0 01-.801.88c-.349.22-.777.33-1.285.33-.51 0-.943-.11-1.295-.33a2.184 2.184 0 01-.801-.88 2.693 2.693 0 01-.273-1.21zm1.324-.614v.614c0 .325.078.621.233.886.155.265.426.398.813.398.382 0 .65-.133.8-.398a1.75 1.75 0 00.228-.886v-.614c0-.326-.074-.621-.222-.886-.144-.266-.413-.398-.806-.398-.38 0-.648.132-.807.398a1.68 1.68 0 00-.239.886zm-7.176-6.046v-.613c0-.44.09-.843.273-1.21.185-.368.454-.661.806-.881.356-.22.786-.33 1.29-.33.515 0 .947.11 1.296.33.348.22.611.513.79.881.178.367.267.77.267 1.21v.613c0 .44-.091.843-.273 1.211a2.144 2.144 0 01-.796.88c-.348.22-.776.33-1.284.33-.515 0-.949-.11-1.3-.33a2.198 2.198 0 01-.796-.88 2.694 2.694 0 01-.273-1.211zm1.33-.613v.613c0 .326.075.622.227.887.155.265.426.398.812.398.379 0 .644-.133.796-.398.155-.265.233-.561.233-.887v-.613c0-.326-.074-.621-.222-.887-.148-.265-.417-.397-.807-.397-.379 0-.648.132-.807.397a1.725 1.725 0 00-.232.887zm-.79 9.454l8-11.636h1.358l-8 11.636H22.63zm25.17-11.636h1.75v8.25c0 .746-.148 1.384-.443 1.915-.292.53-.703.935-1.233 1.216-.53.276-1.151.414-1.864.414-.655 0-1.244-.119-1.767-.358a2.904 2.904 0 01-1.233-1.039c-.299-.459-.449-1.015-.449-1.671h1.745c0 .322.074.601.221.835.152.235.358.419.62.552.265.128.568.193.909.193.371 0 .685-.078.943-.233.261-.159.46-.392.597-.699.136-.307.204-.682.204-1.125v-8.25zm6.389 11.83a3.572 3.572 0 01-1.5-.307 2.533 2.533 0 01-1.063-.904c-.257-.394-.386-.877-.386-1.449 0-.492.095-.897.284-1.215a2.09 2.09 0 01.767-.756 4.004 4.004 0 011.08-.421c.398-.094.803-.166 1.216-.216l1.272-.147c.326-.042.563-.108.71-.199.148-.091.222-.239.222-.443v-.04c0-.496-.14-.881-.42-1.153-.277-.273-.69-.41-1.239-.41-.572 0-1.023.127-1.352.381-.326.25-.551.529-.676.835l-1.597-.363c.19-.531.466-.959.83-1.284.367-.33.79-.569 1.267-.716a4.929 4.929 0 011.505-.228c.349 0 .718.042 1.108.125.394.08.762.228 1.103.444.344.216.627.524.846.926.22.397.33.915.33 1.551v5.795h-1.66v-1.193h-.068c-.11.22-.274.436-.494.648-.22.212-.502.388-.846.528-.345.14-.758.211-1.24.211zm.37-1.364c.469 0 .87-.093 1.204-.279.337-.185.593-.428.767-.727.178-.303.267-.627.267-.971v-1.125c-.06.06-.178.117-.352.17a5.56 5.56 0 01-.586.131c-.22.034-.433.066-.642.096a92.5 92.5 0 00-.522.069c-.33.041-.631.111-.904.21-.269.098-.485.24-.648.426-.159.182-.238.424-.238.727 0 .421.155.739.466.955.31.212.706.318 1.187.318zm13.033-7.557l-3.165 8.727H62.61l-3.17-8.727h1.823l2.21 6.716h.092l2.204-6.716h1.824zm3.566 8.921a3.572 3.572 0 01-1.5-.307 2.532 2.532 0 01-1.062-.904c-.258-.394-.386-.877-.386-1.449 0-.492.094-.897.284-1.215.189-.319.445-.571.767-.756a4.004 4.004 0 011.08-.421c.397-.094.802-.166 1.215-.216l1.273-.147c.326-.042.562-.108.71-.199.148-.091.222-.239.222-.443v-.04c0-.496-.14-.881-.42-1.153-.277-.273-.69-.41-1.24-.41-.572 0-1.022.127-1.352.381-.326.25-.55.529-.676.835l-1.596-.363c.189-.531.465-.959.829-1.284a3.35 3.35 0 011.267-.716c.477-.152.98-.228 1.506-.228.348 0 .718.042 1.108.125.394.08.761.228 1.102.444.345.216.627.524.847.926.22.397.33.915.33 1.551v5.795h-1.66v-1.193h-.068c-.11.22-.275.436-.495.648-.22.212-.501.388-.846.528s-.758.211-1.239.211zm.37-1.364c.47 0 .87-.093 1.204-.279.337-.185.593-.428.767-.727.178-.303.267-.627.267-.971v-1.125c-.06.06-.178.117-.352.17-.17.049-.366.093-.585.131-.22.034-.434.066-.642.096l-.523.069c-.33.041-.63.111-.903.21-.27.098-.485.24-.648.426-.16.182-.239.424-.239.727 0 .421.156.739.466.955.31.212.707.318 1.188.318zm14.226-11.011l-3.75 13.931h-1.517l3.75-13.931h1.517zm11.52 3.602a1.659 1.659 0 00-.75-1.25c-.439-.299-.992-.449-1.659-.449-.477 0-.89.076-1.238.227-.349.148-.62.352-.813.614a1.45 1.45 0 00-.284.881c0 .276.065.515.194.715.132.201.304.37.517.506.215.133.447.244.693.335.246.087.483.159.71.216l1.136.296c.371.091.752.214 1.142.369.39.155.752.36 1.086.614.333.253.602.568.806.943.209.375.313.824.313 1.346 0 .66-.17 1.245-.511 1.756-.338.511-.828.915-1.472 1.21-.64.296-1.415.444-2.324.444-.871 0-1.625-.139-2.261-.415-.637-.277-1.135-.669-1.495-1.176-.36-.512-.558-1.118-.596-1.819h1.761c.034.421.17.771.41 1.052.242.276.55.483.925.619.38.132.794.199 1.245.199.496 0 .937-.078 1.324-.233.39-.159.697-.379.92-.659a1.56 1.56 0 00.335-.995c0-.344-.098-.627-.295-.846a2.18 2.18 0 00-.79-.546 7.728 7.728 0 00-1.12-.38l-1.374-.375c-.932-.254-1.67-.627-2.216-1.12-.542-.492-.813-1.144-.813-1.954 0-.671.182-1.256.546-1.756.363-.5.856-.888 1.477-1.165.621-.28 1.322-.42 2.102-.42.788 0 1.483.138 2.085.415.607.276 1.084.657 1.432 1.142.349.481.53 1.034.546 1.659h-1.693zm7.171 8.755c-.845 0-1.572-.191-2.182-.573a3.807 3.807 0 01-1.398-1.597c-.326-.678-.489-1.455-.489-2.33 0-.886.167-1.668.5-2.346a3.84 3.84 0 011.41-1.597c.606-.382 1.32-.574 2.142-.574.663 0 1.253.124 1.772.37.519.242.938.583 1.256 1.022.322.44.513.953.574 1.54h-1.654a1.977 1.977 0 00-.625-1.057c-.321-.295-.753-.443-1.295-.443a2.11 2.11 0 00-1.244.375c-.353.246-.627.599-.824 1.057-.197.455-.296.992-.296 1.614 0 .636.097 1.185.29 1.647.193.463.466.821.818 1.074.356.254.775.381 1.256.381.322 0 .614-.059.875-.176.265-.121.487-.294.665-.517.182-.224.309-.493.38-.807h1.654a3.214 3.214 0 01-.551 1.511 3.17 3.17 0 01-1.233 1.046c-.512.254-1.112.38-1.801.38zm7.621.018a3.572 3.572 0 01-1.5-.307 2.529 2.529 0 01-1.062-.904c-.258-.394-.386-.877-.386-1.449 0-.492.094-.897.284-1.215.189-.319.445-.571.767-.756a4.01 4.01 0 011.079-.421c.398-.094.803-.166 1.216-.216l1.273-.147c.326-.042.562-.108.71-.199.148-.091.222-.239.222-.443v-.04c0-.496-.14-.881-.421-1.153-.276-.273-.689-.41-1.238-.41-.572 0-1.023.127-1.353.381-.325.25-.551.529-.676.835l-1.596-.363c.189-.531.466-.959.829-1.284.368-.33.79-.569 1.267-.716a4.93 4.93 0 011.506-.228c.348 0 .718.042 1.108.125.394.08.761.228 1.102.444.345.216.627.524.847.926.219.397.329.915.329 1.551v5.795h-1.659v-1.193h-.068c-.11.22-.275.436-.494.648-.22.212-.502.388-.847.528s-.757.211-1.239.211zm.37-1.364c.469 0 .871-.093 1.204-.279.337-.185.593-.428.767-.727.178-.303.267-.627.267-.971v-1.125c-.06.06-.178.117-.352.17-.17.049-.365.093-.585.131-.22.034-.434.066-.642.096l-.523.069a4.136 4.136 0 00-.903.21c-.269.098-.485.24-.648.426-.159.182-.239.424-.239.727 0 .421.156.739.466.955.311.212.707.318 1.188.318zm7.579-10.466v11.636h-1.699v-11.636h1.699zm4.505 11.83a3.572 3.572 0 01-1.5-.307 2.529 2.529 0 01-1.062-.904c-.258-.394-.387-.877-.387-1.449 0-.492.095-.897.284-1.215a2.09 2.09 0 01.767-.756 4.004 4.004 0 011.08-.421c.398-.094.803-.166 1.216-.216l1.273-.147c.325-.042.562-.108.71-.199.148-.091.221-.239.221-.443v-.04c0-.496-.14-.881-.42-1.153-.277-.273-.689-.41-1.239-.41-.572 0-1.022.127-1.352.381-.326.25-.551.529-.676.835l-1.597-.363c.19-.531.466-.959.83-1.284.367-.33.79-.569 1.267-.716a4.93 4.93 0 011.506-.228c.348 0 .717.042 1.108.125.394.08.761.228 1.102.444.345.216.627.524.846.926.22.397.33.915.33 1.551v5.795h-1.659v-1.193h-.068c-.11.22-.275.436-.495.648a2.611 2.611 0 01-.846.528c-.345.14-.758.211-1.239.211zm.37-1.364c.469 0 .871-.093 1.204-.279.337-.185.593-.428.767-.727.178-.303.267-.627.267-.971v-1.125c-.06.06-.178.117-.352.17a5.631 5.631 0 01-.585.131c-.22.034-.434.066-.642.096l-.523.069c-.33.041-.631.111-.904.21-.268.098-.484.24-.647.426-.159.182-.239.424-.239.727 0 .421.155.739.466.955.311.212.706.318 1.188.318zm14.226-11.011l-3.75 13.931h-1.517l3.75-13.931h1.517zm5.174 12.181v-11.636h1.756v5.557h.142l4.88-5.557h2.211l-4.694 5.239 4.711 6.397h-2.114l-3.761-5.199-1.375 1.58v3.619h-1.756zm13.204.176c-.818 0-1.532-.187-2.142-.562a3.792 3.792 0 01-1.42-1.574c-.338-.674-.506-1.462-.506-2.364 0-.905.168-1.696.506-2.375a3.781 3.781 0 011.42-1.579c.61-.375 1.324-.563 2.142-.563.818 0 1.532.188 2.142.563a3.79 3.79 0 011.421 1.579c.337.679.505 1.47.505 2.375 0 .902-.168 1.69-.505 2.364a3.8 3.8 0 01-1.421 1.574c-.61.375-1.324.562-2.142.562zm.006-1.426c.53 0 .969-.14 1.318-.42.348-.28.606-.654.773-1.119.17-.466.255-.98.255-1.54 0-.557-.085-1.068-.255-1.534a2.505 2.505 0 00-.773-1.131c-.349-.284-.788-.426-1.318-.426-.534 0-.978.142-1.33.426a2.537 2.537 0 00-.778 1.131c-.167.466-.25.977-.25 1.534 0 .56.083 1.074.25 1.54.17.465.43.839.778 1.119.352.28.796.42 1.33.42zm9.712-7.477v1.364h-4.767v-1.364h4.767zm-3.488-2.091h1.699v8.256c0 .329.049.577.147.744a.77.77 0 00.381.335c.159.057.331.086.517.086.136 0 .256-.01.358-.029l.239-.045.306 1.403a3.393 3.393 0 01-1.102.182 2.981 2.981 0 01-1.25-.239 2.138 2.138 0 01-.937-.772c-.239-.349-.358-.786-.358-1.313v-8.608zm6.934-.818v11.636h-1.699v-11.636h1.699zm1.966 11.636v-8.727h1.698v8.727h-1.698zm.857-10.074a1.08 1.08 0 01-.761-.295.961.961 0 01-.312-.716.95.95 0 01.312-.716c.212-.201.466-.301.761-.301.296 0 .548.1.756.301a.942.942 0 01.318.716.953.953 0 01-.318.716c-.208.197-.46.295-.756.295zm4.506 4.893v5.181h-1.699v-8.727h1.631v1.421h.108c.2-.463.515-.834.943-1.114.432-.28.975-.421 1.63-.421.595 0 1.116.125 1.563.375.447.247.793.614 1.04 1.103.246.488.369 1.093.369 1.812v5.551h-1.699v-5.346c0-.633-.165-1.127-.494-1.483-.33-.36-.782-.54-1.358-.54-.394 0-.744.085-1.051.256-.303.17-.544.42-.722.75-.174.325-.261.719-.261 1.182z" fill="#1E222E"/><rect x="42" y="200.678" width="39" height="6" rx="3" fill="#397CE8"/><path d="M11.636 237.405v-1.42l5.029-7.943h1.119v2.091h-.71l-3.597 5.693v.091h6.892v1.488h-8.733zm5.517 2.273v-2.704l.012-.648v-8.284h1.664v11.636h-1.676zm10.79-2.182v-.613c0-.44.091-.841.273-1.205.185-.367.454-.661.807-.88.356-.224.786-.336 1.29-.336.515 0 .947.11 1.295.33.348.22.612.513.79.881.181.367.272.77.272 1.21v.613c0 .44-.09.843-.272 1.211a2.184 2.184 0 01-.801.88c-.349.22-.777.33-1.285.33-.51 0-.943-.11-1.295-.33a2.184 2.184 0 01-.801-.88 2.694 2.694 0 01-.273-1.211zm1.324-.613v.613c0 .326.078.622.233.887.155.265.426.397.813.397.382 0 .65-.132.8-.397.152-.265.228-.561.228-.887v-.613c0-.326-.074-.621-.222-.887-.144-.265-.413-.397-.806-.397-.38 0-.648.132-.807.397-.16.266-.239.561-.239.887zm-7.176-6.046v-.613c0-.44.09-.843.273-1.211a2.17 2.17 0 01.806-.88c.356-.22.786-.33 1.29-.33.515 0 .947.11 1.296.33.348.219.611.513.79.88.178.368.267.771.267 1.211v.613c0 .44-.091.843-.273 1.211a2.144 2.144 0 01-.796.88c-.348.22-.776.33-1.284.33-.515 0-.949-.11-1.3-.33a2.198 2.198 0 01-.796-.88 2.694 2.694 0 01-.273-1.211zm1.33-.613v.613c0 .326.075.622.227.887.155.265.426.397.812.397.379 0 .644-.132.796-.397.155-.265.233-.561.233-.887v-.613a1.79 1.79 0 00-.222-.887c-.148-.265-.417-.397-.807-.397-.379 0-.648.132-.807.397a1.722 1.722 0 00-.232.887zm-.79 9.454l8-11.636h1.358l-8 11.636H22.63zm28.522-7.96a3.549 3.549 0 00-.443-.926 2.823 2.823 0 00-1.523-1.154 3.504 3.504 0 00-1.062-.153c-.655 0-1.246.169-1.773.506-.526.337-.943.831-1.25 1.483-.303.647-.454 1.441-.454 2.38 0 .944.153 1.741.46 2.392.307.652.727 1.146 1.261 1.483.534.337 1.142.506 1.824.506.633 0 1.184-.129 1.654-.386a2.699 2.699 0 001.096-1.091c.262-.474.392-1.031.392-1.671l.455.086h-3.33v-1.449h4.574v1.324c0 .977-.208 1.825-.625 2.545a4.254 4.254 0 01-1.716 1.659c-.727.39-1.56.585-2.5.585-1.053 0-1.977-.242-2.773-.727-.791-.485-1.409-1.172-1.852-2.062-.443-.894-.665-1.955-.665-3.182 0-.928.13-1.762.387-2.5.257-.739.62-1.366 1.085-1.881a4.726 4.726 0 011.653-1.187 5.168 5.168 0 012.086-.415c.628 0 1.214.093 1.755.278.546.186 1.03.449 1.455.79a4.47 4.47 0 011.63 2.767h-1.8zm7.33 8.136c-.819 0-1.533-.187-2.142-.562a3.795 3.795 0 01-1.42-1.574c-.338-.674-.507-1.462-.507-2.364 0-.905.169-1.697.506-2.375a3.784 3.784 0 011.42-1.579c.61-.375 1.324-.563 2.143-.563.818 0 1.532.188 2.142.563.61.375 1.083.901 1.42 1.579.337.678.506 1.47.506 2.375 0 .902-.169 1.69-.506 2.364a3.795 3.795 0 01-1.42 1.574c-.61.375-1.324.562-2.142.562zm.005-1.426c.53 0 .97-.14 1.318-.42a2.46 2.46 0 00.773-1.12c.17-.465.256-.979.256-1.539 0-.557-.085-1.069-.256-1.534a2.497 2.497 0 00-.773-1.131c-.348-.284-.787-.426-1.318-.426-.534 0-.977.142-1.33.426a2.537 2.537 0 00-.778 1.131 4.52 4.52 0 00-.25 1.534c0 .56.084 1.074.25 1.539.17.466.43.839.779 1.12.352.28.795.42 1.33.42z" fill="#1E222E"/><rect x="42" y="252.678" width="18" height="6" rx="3" fill="#397CE8"/><path d="M280.047 49.883c.519.004 1.03.098 1.534.284a3.62 3.62 0 011.363.91c.41.42.735.988.978 1.704.246.712.371 1.598.375 2.659 0 1.019-.103 1.926-.307 2.721-.205.792-.498 1.46-.881 2.006a3.86 3.86 0 01-1.38 1.244c-.542.284-1.152.426-1.83.426-.693 0-1.309-.136-1.847-.409a3.521 3.521 0 01-1.312-1.13 3.75 3.75 0 01-.631-1.67h1.733c.114.5.345.904.693 1.215.353.307.807.46 1.364.46.852 0 1.517-.37 1.994-1.113.478-.746.718-1.788.722-3.125h-.091a3.133 3.133 0 01-.739.84 3.31 3.31 0 01-.983.546 3.456 3.456 0 01-1.164.193 3.487 3.487 0 01-1.83-.494 3.64 3.64 0 01-1.312-1.358c-.326-.576-.489-1.233-.489-1.972 0-.734.167-1.401.5-2a3.732 3.732 0 011.409-1.42c.606-.352 1.316-.525 2.131-.517zm.005 1.477c-.443 0-.842.11-1.198.33-.353.216-.631.51-.836.88a2.485 2.485 0 00-.306 1.228c0 .45.098.86.295 1.227.201.364.473.653.818.87a2.25 2.25 0 001.193.317c.334 0 .644-.064.932-.193.288-.128.54-.307.756-.534.216-.23.384-.492.506-.784.121-.292.181-.598.181-.92 0-.428-.102-.826-.306-1.194a2.395 2.395 0 00-.83-.886 2.173 2.173 0 00-1.205-.34zm11.891 8.136v-.613c0-.44.091-.841.273-1.205.186-.367.454-.66.807-.88.356-.224.786-.336 1.289-.336.516 0 .947.11 1.296.33.348.22.612.513.79.88.182.368.272.772.272 1.21v.614c0 .44-.09.843-.272 1.21a2.187 2.187 0 01-.801.881c-.349.22-.777.33-1.285.33-.511 0-.943-.11-1.295-.33a2.187 2.187 0 01-.801-.88 2.69 2.69 0 01-.273-1.21zm1.324-.613v.613c0 .326.078.622.233.887.155.265.426.398.812.398.383 0 .65-.133.802-.398a1.76 1.76 0 00.227-.887v-.613c0-.326-.074-.621-.222-.887-.144-.265-.413-.397-.807-.397-.378 0-.647.132-.806.398a1.69 1.69 0 00-.239.886zm-7.176-6.046v-.613c0-.44.091-.843.273-1.21.185-.368.454-.661.806-.881.357-.22.786-.33 1.29-.33.515 0 .947.11 1.296.33.348.22.611.513.789.88.178.368.267.771.267 1.21v.614c0 .44-.09.843-.272 1.21a2.14 2.14 0 01-.796.881c-.348.22-.776.33-1.284.33-.515 0-.949-.11-1.301-.33a2.194 2.194 0 01-.795-.88 2.69 2.69 0 01-.273-1.21zm1.329-.613v.613c0 .326.076.622.228.887.155.265.426.398.812.398.379 0 .644-.133.796-.398.155-.265.233-.56.233-.887v-.613c0-.326-.074-.621-.222-.887-.148-.265-.417-.397-.807-.397-.379 0-.647.132-.807.397a1.728 1.728 0 00-.233.887zm-.789 9.454l8-11.636h1.358l-8 11.636h-1.358zm30.312-7.852h-1.773a2.717 2.717 0 00-.38-1 2.805 2.805 0 00-.682-.733 2.94 2.94 0 00-.903-.454 3.53 3.53 0 00-1.052-.154c-.67 0-1.27.169-1.801.506-.526.337-.943.831-1.25 1.483-.303.651-.454 1.447-.454 2.386 0 .947.151 1.746.454 2.398.307.651.726 1.144 1.256 1.477.53.334 1.127.5 1.79.5.367 0 .716-.05 1.045-.148.334-.102.635-.252.904-.448a2.738 2.738 0 001.073-1.71l1.773.005a4.748 4.748 0 01-.551 1.58 4.35 4.35 0 01-1.04 1.238 4.69 4.69 0 01-1.443.801 5.337 5.337 0 01-1.773.284c-1.007 0-1.905-.238-2.693-.716-.788-.48-1.409-1.168-1.863-2.062-.451-.894-.677-1.96-.677-3.199 0-1.242.228-2.309.682-3.199.455-.894 1.076-1.58 1.864-2.056.788-.482 1.684-.722 2.687-.722.618 0 1.194.089 1.728.267.538.174 1.02.432 1.448.773.429.337.783.75 1.063 1.238.28.485.47 1.04.568 1.665zm5.065 5.898v-7.682h1.529v7.682h-1.529zm-3.074-3.08v-1.523h7.682v1.523h-7.682zm13.41 3.08v-7.682h1.529v7.682h-1.529zm-3.073-3.08v-1.523h7.681v1.523h-7.681zm18.335-7.148l-3.75 13.932h-1.517l3.75-13.931h1.517zm5.174 12.182V50.042h4.148c.902 0 1.65.155 2.244.466.599.31 1.046.74 1.341 1.29.296.545.443 1.176.443 1.892 0 .712-.149 1.339-.448 1.88-.296.538-.743.957-1.341 1.256-.595.3-1.343.449-2.245.449h-3.142v-1.511h2.983c.568 0 1.031-.082 1.387-.245.359-.163.623-.4.789-.71.167-.31.25-.684.25-1.12 0-.439-.085-.82-.255-1.141a1.653 1.653 0 00-.79-.739c-.356-.174-.824-.261-1.403-.261h-2.205v10.13h-1.756zm5.745-5.25l2.875 5.25h-2l-2.819-5.25h1.944zm9.64 1.631v-5.108h1.704v8.727h-1.67v-1.511h-.091a2.728 2.728 0 01-.966 1.165c-.439.307-.987.46-1.642.46-.561 0-1.057-.123-1.489-.37-.428-.25-.765-.619-1.011-1.107-.242-.489-.364-1.093-.364-1.813v-5.55h1.699v5.346c0 .594.165 1.068.495 1.42.329.352.757.528 1.284.528.318 0 .634-.079.949-.238.318-.16.581-.4.789-.722.212-.322.317-.73.313-1.227zm10.207-2.977l-1.54.273a1.819 1.819 0 00-.307-.563 1.514 1.514 0 00-.557-.438c-.234-.113-.528-.17-.88-.17-.481 0-.883.108-1.205.324-.322.212-.483.487-.483.824 0 .291.108.526.324.704.216.178.564.324 1.046.438l1.386.318c.803.186 1.401.472 1.795.858.394.386.591.888.591 1.506 0 .522-.151.988-.454 1.397-.3.406-.718.724-1.256.955-.534.231-1.153.346-1.858.346-.977 0-1.775-.208-2.392-.624-.617-.421-.996-1.018-1.136-1.79l1.642-.25c.102.428.312.752.63.971.319.216.733.324 1.245.324.557 0 1.002-.115 1.335-.346.333-.235.5-.521.5-.858a.89.89 0 00-.307-.688c-.201-.186-.509-.326-.926-.42l-1.477-.324c-.815-.186-1.417-.481-1.807-.887-.386-.405-.58-.918-.58-1.54a2.2 2.2 0 01.432-1.352c.288-.386.686-.687 1.193-.903.508-.22 1.089-.33 1.745-.33.943 0 1.685.205 2.227.614.542.405.9.949 1.074 1.63zm5.792-2.13v1.363h-4.767V52.95h4.767zm-3.489-2.092h1.699v8.256c0 .33.05.578.148.744a.767.767 0 00.381.335c.159.057.331.086.517.086a2 2 0 00.358-.029l.238-.045.307 1.403a2.873 2.873 0 01-.42.114 3.327 3.327 0 01-.682.068 2.99 2.99 0 01-1.25-.239 2.143 2.143 0 01-.938-.772c-.238-.349-.358-.786-.358-1.313V50.86z" fill="#1E222E"/><rect x="306" y="74.678" width="32" height="6" rx="3" fill="#397CE8"/><path d="M273.353 102.042v11.636h-1.761v-9.875h-.068l-2.784 1.819v-1.682l2.903-1.898h1.71zm6.719 11.83c-.897-.004-1.664-.241-2.301-.711-.636-.469-1.123-1.153-1.46-2.051-.337-.898-.506-1.979-.506-3.244 0-1.262.169-2.339.506-3.233.341-.894.83-1.576 1.466-2.046.64-.469 1.405-.704 2.295-.704.89 0 1.654.237 2.29.71.636.47 1.123 1.152 1.46 2.046.341.89.512 1.965.512 3.227 0 1.269-.169 2.352-.506 3.25-.337.894-.824 1.577-1.46 2.051-.637.47-1.402.705-2.296.705zm0-1.518c.788 0 1.404-.384 1.847-1.153.447-.769.67-1.881.67-3.335 0-.966-.102-1.782-.306-2.449-.201-.67-.491-1.178-.87-1.523a1.904 1.904 0 00-1.341-.522c-.784 0-1.399.386-1.846 1.159-.447.772-.673 1.884-.676 3.335 0 .97.1 1.79.301 2.46.204.667.494 1.172.869 1.517a1.94 1.94 0 001.352.511zm11.871-.857v-.614c0-.44.091-.841.273-1.205.186-.367.454-.661.807-.88.356-.224.786-.336 1.289-.336.516 0 .947.11 1.296.33.348.22.612.513.79.881.182.367.272.77.272 1.21v.614c0 .439-.09.842-.272 1.21a2.187 2.187 0 01-.801.88c-.349.22-.777.33-1.285.33-.511 0-.943-.11-1.295-.33a2.187 2.187 0 01-.801-.88 2.69 2.69 0 01-.273-1.21zm1.324-.614v.614c0 .325.078.621.233.886.155.265.426.398.812.398.383 0 .65-.133.802-.398a1.76 1.76 0 00.227-.886v-.614c0-.326-.074-.621-.222-.886-.144-.266-.413-.398-.807-.398-.378 0-.647.132-.806.398-.159.265-.239.56-.239.886zm-7.176-6.046v-.613c0-.44.091-.843.273-1.21.185-.368.454-.661.806-.881.357-.22.786-.33 1.29-.33.515 0 .947.11 1.296.33.348.22.611.513.789.881.178.367.267.77.267 1.21v.613c0 .44-.09.843-.272 1.211a2.14 2.14 0 01-.796.88c-.348.22-.776.33-1.284.33-.515 0-.949-.11-1.301-.33a2.194 2.194 0 01-.795-.88 2.692 2.692 0 01-.273-1.211zm1.329-.613v.613c0 .326.076.622.228.887.155.265.426.398.812.398.379 0 .644-.133.796-.398.155-.265.233-.561.233-.887v-.613c0-.326-.074-.621-.222-.887-.148-.265-.417-.397-.807-.397-.379 0-.647.132-.807.397a1.728 1.728 0 00-.233.887zm-.789 9.454l8-11.636h1.358l-8 11.636h-1.358zm26.994-8.579a1.661 1.661 0 00-.75-1.25c-.439-.299-.992-.449-1.659-.449-.477 0-.89.076-1.239.227a1.905 1.905 0 00-.812.614c-.19.257-.284.551-.284.881 0 .276.064.515.193.715.132.201.305.37.517.506.216.133.447.244.693.335.246.087.483.159.71.216l1.137.296c.371.091.752.214 1.142.369.39.155.752.36 1.085.614.333.253.602.568.807.943.208.375.312.824.312 1.346 0 .66-.17 1.245-.511 1.756-.337.511-.828.915-1.472 1.21-.64.296-1.414.444-2.324.444-.871 0-1.625-.139-2.261-.415-.636-.277-1.134-.669-1.494-1.176-.36-.512-.559-1.118-.597-1.819h1.762c.034.421.17.771.409 1.052.242.276.551.483.926.619.379.132.793.199 1.244.199.496 0 .938-.078 1.324-.233.39-.159.697-.379.92-.659a1.56 1.56 0 00.336-.995c0-.344-.099-.627-.296-.846a2.174 2.174 0 00-.79-.546 7.69 7.69 0 00-1.119-.38l-1.375-.375c-.932-.254-1.67-.627-2.216-1.12-.541-.492-.812-1.144-.812-1.954 0-.671.182-1.256.545-1.756.364-.5.856-.888 1.477-1.165.622-.28 1.322-.42 2.103-.42.788 0 1.483.138 2.085.415.606.276 1.083.657 1.432 1.142a2.88 2.88 0 01.545 1.659h-1.693zm7.17 8.755c-.818 0-1.532-.187-2.142-.562a3.792 3.792 0 01-1.42-1.574c-.338-.674-.506-1.462-.506-2.364 0-.905.168-1.696.506-2.375a3.781 3.781 0 011.42-1.579c.61-.375 1.324-.563 2.142-.563.818 0 1.532.188 2.142.563a3.79 3.79 0 011.421 1.579c.337.679.505 1.47.505 2.375 0 .902-.168 1.69-.505 2.364a3.8 3.8 0 01-1.421 1.574c-.61.375-1.324.562-2.142.562zm.006-1.426c.53 0 .969-.14 1.318-.42.348-.28.606-.654.773-1.119.17-.466.255-.98.255-1.54 0-.557-.085-1.068-.255-1.534a2.505 2.505 0 00-.773-1.131c-.349-.284-.788-.426-1.318-.426-.534 0-.978.142-1.33.426a2.537 2.537 0 00-.778 1.131c-.167.466-.25.977-.25 1.534 0 .56.083 1.074.25 1.54.17.465.43.839.778 1.119.352.28.796.42 1.33.42zm7.337-10.386v11.636h-1.698v-11.636h1.698zm1.966 11.636v-8.727h1.699v8.727h-1.699zm.858-10.074c-.296 0-.549-.098-.761-.295a.959.959 0 01-.313-.716c0-.28.104-.519.313-.716.212-.201.465-.301.761-.301.295 0 .547.1.756.301a.942.942 0 01.318.716.953.953 0 01-.318.716 1.062 1.062 0 01-.756.295zm6.073 10.245c-.704 0-1.333-.18-1.886-.54-.549-.364-.981-.881-1.295-1.551-.311-.674-.466-1.483-.466-2.426 0-.943.157-1.75.471-2.421.318-.67.754-1.183 1.307-1.539a3.392 3.392 0 011.881-.535c.541 0 .977.091 1.307.273.333.178.59.387.772.625.186.239.33.449.432.631h.102v-4.324h1.699v11.636H339.7v-1.358h-.142c-.102.186-.25.398-.443.637a2.48 2.48 0 01-.784.625c-.334.178-.765.267-1.296.267zm.375-1.449c.489 0 .902-.129 1.239-.386.341-.262.598-.624.773-1.086.178-.462.267-1 .267-1.613 0-.606-.087-1.137-.262-1.591-.174-.455-.43-.809-.767-1.063-.337-.253-.753-.38-1.25-.38-.511 0-.937.132-1.278.397-.341.265-.599.627-.773 1.086-.17.458-.255.975-.255 1.551 0 .583.087 1.108.261 1.574.174.465.432.835.773 1.108.344.268.769.403 1.272.403zm6.054 1.278v-8.727h1.699v8.727h-1.699zm.858-10.074c-.296 0-.549-.098-.761-.295a.959.959 0 01-.313-.716c0-.28.104-.519.313-.716.212-.201.465-.301.761-.301.295 0 .547.1.756.301a.942.942 0 01.318.716.953.953 0 01-.318.716 1.062 1.062 0 01-.756.295zm6.88 1.347v1.364h-4.767v-1.364h4.767zm-3.488-2.091h1.698v8.256c0 .329.05.577.148.744a.767.767 0 00.381.335c.159.057.331.086.517.086.136 0 .256-.01.358-.029l.238-.045.307 1.403a3.393 3.393 0 01-1.102.182 2.978 2.978 0 01-1.25-.239 2.147 2.147 0 01-.938-.772c-.238-.349-.357-.786-.357-1.313v-8.608zm6.121 14.091c-.254 0-.485-.021-.693-.062a2.219 2.219 0 01-.466-.125l.409-1.392c.311.083.587.119.83.107a.995.995 0 00.642-.272c.189-.171.356-.449.5-.835l.21-.58-3.193-8.841h1.818l2.21 6.773h.091l2.21-6.773h1.824l-3.596 9.892a3.951 3.951 0 01-.637 1.154 2.464 2.464 0 01-.92.715c-.356.16-.769.239-1.239.239z" fill="#1E222E"/><rect x="306" y="126.678" width="35" height="6" rx="3" fill="#397CE8"/><path d="M266.704 165.678v-1.272l3.938-4.08c.42-.443.767-.831 1.04-1.165a4.38 4.38 0 00.619-.96c.136-.303.204-.625.204-.966 0-.386-.09-.72-.272-1a1.778 1.778 0 00-.745-.653 2.354 2.354 0 00-1.062-.233c-.417 0-.78.085-1.091.255a1.754 1.754 0 00-.716.722c-.167.311-.25.674-.25 1.091h-1.676c0-.708.163-1.328.489-1.858.325-.53.772-.941 1.34-1.233.569-.295 1.215-.443 1.938-.443.731 0 1.375.146 1.932.437.56.288.998.682 1.312 1.182.315.496.472 1.057.472 1.682 0 .432-.082.854-.244 1.267-.16.413-.438.873-.836 1.381-.397.504-.95 1.115-1.659 1.835l-2.312 2.42v.086h5.238v1.505h-7.659zm13.384.159c-.78 0-1.477-.134-2.091-.403-.61-.269-1.093-.642-1.449-1.119a2.978 2.978 0 01-.568-1.671h1.784c.023.345.138.644.347.898.212.25.488.443.829.58.341.136.72.204 1.137.204.458 0 .863-.079 1.215-.239.357-.159.635-.38.836-.664.2-.288.301-.62.301-.995 0-.39-.101-.733-.301-1.028-.197-.299-.487-.534-.87-.705-.378-.17-.837-.255-1.375-.255h-.983v-1.432h.983a2.62 2.62 0 001.137-.233c.329-.155.587-.371.772-.648.186-.28.279-.608.279-.983 0-.36-.082-.672-.244-.937a1.654 1.654 0 00-.682-.631c-.292-.151-.637-.227-1.034-.227-.379 0-.733.07-1.063.21a1.948 1.948 0 00-.795.591 1.517 1.517 0 00-.33.915h-1.699a2.872 2.872 0 01.557-1.659 3.598 3.598 0 011.409-1.12 4.587 4.587 0 011.943-.403c.747 0 1.391.146 1.932.437a3.19 3.19 0 011.262 1.154c.299.481.447 1.007.443 1.579.004.652-.178 1.205-.546 1.659-.363.455-.848.76-1.454.915v.091c.772.118 1.371.424 1.795.921.428.496.64 1.111.637 1.846a2.881 2.881 0 01-.535 1.722c-.356.507-.842.907-1.46 1.199-.617.287-1.324.431-2.119.431zm11.855-2.34v-.614c0-.44.091-.841.273-1.205.186-.367.454-.661.807-.88.356-.224.786-.336 1.289-.336.516 0 .947.11 1.296.33.348.22.612.513.79.881.182.367.272.77.272 1.21v.614c0 .439-.09.842-.272 1.21a2.187 2.187 0 01-.801.88c-.349.22-.777.33-1.285.33-.511 0-.943-.11-1.295-.33a2.187 2.187 0 01-.801-.88 2.69 2.69 0 01-.273-1.21zm1.324-.614v.614c0 .325.078.621.233.886.155.265.426.398.812.398.383 0 .65-.133.802-.398a1.76 1.76 0 00.227-.886v-.614c0-.326-.074-.621-.222-.886-.144-.266-.413-.398-.807-.398-.378 0-.647.132-.806.398-.159.265-.239.56-.239.886zm-7.176-6.046v-.613c0-.44.091-.843.273-1.21.185-.368.454-.661.806-.881.357-.22.786-.33 1.29-.33.515 0 .947.11 1.296.33.348.22.611.513.789.881.178.367.267.77.267 1.21v.613c0 .44-.09.843-.272 1.211a2.14 2.14 0 01-.796.88c-.348.22-.776.33-1.284.33-.515 0-.949-.11-1.301-.33a2.194 2.194 0 01-.795-.88 2.692 2.692 0 01-.273-1.211zm1.329-.613v.613c0 .326.076.622.228.887.155.265.426.398.812.398.379 0 .644-.133.796-.398.155-.265.233-.561.233-.887v-.613c0-.326-.074-.621-.222-.887-.148-.265-.417-.397-.807-.397-.379 0-.647.132-.807.397a1.728 1.728 0 00-.233.887zm-.789 9.454l8-11.636h1.358l-8 11.636h-1.358zm30.755-5.818c0 1.243-.227 2.311-.681 3.205-.455.89-1.078 1.575-1.87 2.057-.788.477-1.683.715-2.687.715-1.008 0-1.907-.238-2.699-.715-.788-.482-1.409-1.169-1.864-2.063-.454-.894-.682-1.96-.682-3.199 0-1.242.228-2.309.682-3.199.455-.894 1.076-1.579 1.864-2.057.792-.481 1.691-.721 2.699-.721 1.004 0 1.899.24 2.687.721.792.478 1.415 1.163 1.87 2.057.454.89.681 1.957.681 3.199zm-1.738 0c0-.947-.154-1.744-.46-2.392-.304-.651-.72-1.144-1.25-1.477a3.252 3.252 0 00-1.79-.506 3.26 3.26 0 00-1.796.506c-.526.333-.943.826-1.25 1.477-.303.648-.454 1.445-.454 2.392 0 .947.151 1.746.454 2.398.307.648.724 1.14 1.25 1.477a3.29 3.29 0 001.796.5c.666 0 1.263-.167 1.79-.5.53-.337.946-.829 1.25-1.477.306-.652.46-1.451.46-2.398zm7.545-2.909v1.364h-4.767v-1.364h4.767zm-3.489-2.091h1.699v8.256c0 .329.049.577.148.744a.765.765 0 00.38.335c.16.057.332.086.517.086.137 0 .256-.01.358-.029l.239-.045.307 1.403a3.382 3.382 0 01-1.102.182 2.978 2.978 0 01-1.25-.239 2.141 2.141 0 01-.938-.772c-.239-.349-.358-.786-.358-1.313v-8.608zm6.934 5.637v5.181h-1.698v-11.636h1.676v4.33h.108a2.51 2.51 0 01.937-1.12c.421-.276.97-.415 1.648-.415.598 0 1.121.124 1.568.37a2.5 2.5 0 011.046 1.102c.25.485.375 1.091.375 1.818v5.551h-1.699v-5.346c0-.64-.165-1.137-.495-1.489-.329-.356-.788-.534-1.375-.534-.401 0-.761.085-1.079.256-.315.17-.563.42-.745.75-.178.325-.267.719-.267 1.182zm11.368 5.357c-.86 0-1.6-.183-2.222-.551a3.739 3.739 0 01-1.431-1.562c-.334-.674-.5-1.464-.5-2.369 0-.894.166-1.682.5-2.364a3.88 3.88 0 011.409-1.597c.606-.382 1.314-.574 2.125-.574.492 0 .969.082 1.431.245.463.163.877.418 1.245.767.367.348.657.801.869 1.358.212.553.318 1.225.318 2.017v.602h-6.937v-1.273h5.272c0-.447-.09-.842-.272-1.187a2.066 2.066 0 00-.767-.824c-.326-.201-.709-.301-1.148-.301-.477 0-.894.117-1.25.352a2.364 2.364 0 00-.818.909c-.19.371-.284.775-.284 1.21v.995c0 .583.102 1.079.307 1.488.208.409.498.722.869.938.371.212.805.318 1.301.318.322 0 .615-.045.881-.136a1.824 1.824 0 001.13-1.108l1.608.29c-.129.473-.36.888-.693 1.244a3.358 3.358 0 01-1.244.824c-.496.193-1.063.289-1.699.289zm5.309-.176v-8.727h1.642v1.386h.091c.159-.469.44-.839.841-1.108a2.412 2.412 0 011.375-.409 6.881 6.881 0 01.722.04v1.625a2.962 2.962 0 00-.364-.062 3.402 3.402 0 00-.523-.04c-.401 0-.759.085-1.074.256a1.898 1.898 0 00-1.011 1.71v5.329h-1.699z" fill="#1E222E"/><rect x="306" y="178.678" width="85" height="6" rx="3" fill="#397CE8"/></svg>