<svg width="208" height="423" fill="none" xmlns="http://www.w3.org/2000/svg"><path d="M4.046 21.678L.352 8.588h2.55l2.359 9.62h.121l2.519-9.62h2.32l2.525 9.626h.115l2.358-9.627h2.55l-3.694 13.091h-2.34l-2.62-9.185h-.102l-2.627 9.185h-2.34zm18.43.192c-.984 0-1.834-.205-2.55-.614a4.155 4.155 0 01-1.643-1.751c-.383-.759-.575-1.651-.575-2.678 0-1.01.192-1.897.575-2.66a4.35 4.35 0 011.624-1.79c.695-.43 1.51-.645 2.448-.645.605 0 1.176.098 1.713.294.541.192 1.019.49 1.432.895.418.405.746.92.984 1.547.24.622.358 1.364.358 2.224v.71h-8.047v-1.56h5.83a2.488 2.488 0 00-.288-1.182 2.091 2.091 0 00-.787-.825c-.332-.2-.72-.3-1.163-.3-.473 0-.888.115-1.246.345a2.379 2.379 0 00-.838.895 2.57 2.57 0 00-.3 1.208v1.361c0 .571.104 1.061.313 1.47.209.405.5.716.876.934.375.213.814.32 1.317.32a2.8 2.8 0 00.914-.141 2.05 2.05 0 00.71-.428c.2-.188.35-.42.453-.697l2.16.243a3.368 3.368 0 01-.78 1.495c-.379.422-.864.75-1.457.985-.592.23-1.27.345-2.032.345zm13.254.006c-.622 0-1.182-.11-1.681-.332a2.743 2.743 0 01-1.176-.997c-.286-.44-.428-.98-.428-1.624 0-.554.102-1.012.306-1.374.205-.362.484-.652.838-.87a4.225 4.225 0 011.195-.491 9.71 9.71 0 011.387-.25 55.2 55.2 0 001.4-.16c.358-.05.618-.128.78-.23.166-.106.25-.27.25-.492v-.038c0-.482-.144-.855-.43-1.119-.285-.264-.696-.396-1.233-.396-.567 0-1.016.123-1.349.37-.328.248-.55.54-.664.876l-2.16-.307a3.45 3.45 0 01.843-1.495 3.67 3.67 0 011.438-.908 5.503 5.503 0 011.88-.307c.472 0 .943.056 1.412.166.469.111.897.294 1.285.55.388.252.699.595.933 1.03.239.434.358.977.358 1.63v6.57H38.69V20.33h-.077c-.14.273-.339.529-.595.767a2.857 2.857 0 01-.952.57c-.38.14-.825.21-1.336.21zm.6-1.7c.465 0 .868-.091 1.209-.275a2.03 2.03 0 00.786-.741 1.89 1.89 0 00.281-1.004V17c-.072.06-.196.115-.37.166-.17.052-.362.096-.575.135-.214.038-.425.072-.633.102l-.544.077a4.038 4.038 0 00-.927.23 1.54 1.54 0 00-.645.447c-.158.188-.237.43-.237.729 0 .426.156.748.467.965.311.217.707.326 1.189.326zm6.73 1.502V11.86h2.244v1.636h.103c.179-.566.485-1.003.92-1.31.439-.311.94-.467 1.502-.467.128 0 .27.007.428.02.162.008.297.023.403.044v2.129a2.434 2.434 0 00-.466-.09 4.297 4.297 0 00-.608-.044c-.422 0-.8.091-1.137.274a2.011 2.011 0 00-.787.748c-.191.32-.287.689-.287 1.106v5.772H43.06zm10.9.192c-.985 0-1.835-.205-2.55-.614a4.156 4.156 0 01-1.643-1.751c-.384-.759-.576-1.651-.576-2.678 0-1.01.192-1.897.575-2.66a4.35 4.35 0 011.624-1.79c.695-.43 1.51-.645 2.448-.645.605 0 1.176.098 1.713.294.541.192 1.019.49 1.432.895.418.405.746.92.985 1.547.238.622.357 1.364.357 2.224v.71h-8.047v-1.56h5.83a2.489 2.489 0 00-.288-1.182 2.091 2.091 0 00-.786-.825c-.333-.2-.72-.3-1.164-.3-.473 0-.888.115-1.246.345a2.379 2.379 0 00-.838.895 2.57 2.57 0 00-.3 1.208v1.361c0 .571.104 1.061.313 1.47.209.405.5.716.876.934.375.213.814.32 1.317.32.336 0 .641-.047.914-.141.273-.098.509-.241.71-.428.2-.188.35-.42.453-.697l2.16.243a3.367 3.367 0 01-.78 1.495c-.378.422-.864.75-1.457.985-.592.23-1.27.345-2.032.345zm10.53-.192V8.588h2.314v4.896h.096c.12-.239.288-.493.505-.761.217-.273.511-.505.882-.697.37-.196.844-.294 1.42-.294a3.74 3.74 0 012.05.582c.615.383 1.1.952 1.458 1.707.362.75.544 1.67.544 2.76 0 1.079-.177 1.995-.53 2.75-.355.754-.836 1.329-1.445 1.725-.61.397-1.3.595-2.072.595-.562 0-1.029-.094-1.4-.281a2.85 2.85 0 01-.894-.678 4.386 4.386 0 01-.518-.76h-.134v1.546H64.49zm2.27-4.909c0 .635.089 1.191.268 1.669.183.477.445.85.786 1.118.345.264.763.396 1.253.396.511 0 .94-.136 1.285-.409.345-.277.605-.654.78-1.131.178-.482.268-1.03.268-1.643 0-.61-.087-1.15-.262-1.623-.175-.474-.435-.844-.78-1.113-.345-.268-.776-.402-1.291-.402-.494 0-.914.13-1.26.39-.344.26-.607.624-.786 1.093-.174.468-.262 1.02-.262 1.655zm13.132 5.101c-.984 0-1.834-.205-2.55-.614a4.155 4.155 0 01-1.643-1.751c-.383-.759-.575-1.651-.575-2.678 0-1.01.192-1.897.575-2.66a4.35 4.35 0 011.624-1.79c.694-.43 1.51-.645 2.448-.645.605 0 1.176.098 1.713.294.541.192 1.019.49 1.432.895.417.405.746.92.984 1.547.239.622.358 1.364.358 2.224v.71h-8.047v-1.56h5.83a2.488 2.488 0 00-.288-1.182 2.091 2.091 0 00-.787-.825c-.332-.2-.72-.3-1.163-.3-.473 0-.889.115-1.247.345a2.38 2.38 0 00-.837.895 2.57 2.57 0 00-.3 1.208v1.361c0 .571.104 1.061.313 1.47.209.405.5.716.876.934.375.213.813.32 1.316.32.337 0 .642-.047.914-.141.273-.098.51-.241.71-.428.2-.188.352-.42.454-.697l2.16.243a3.368 3.368 0 01-.78 1.495c-.379.422-.865.75-1.457.985-.592.23-1.27.345-2.033.345zm6.144-.192V11.86h2.314v9.818h-2.314zm1.163-11.211a1.35 1.35 0 01-.946-.365 1.174 1.174 0 01-.396-.888c0-.35.132-.646.396-.889.264-.247.58-.37.946-.37.37 0 .686.123.946.37.264.243.396.54.396.889 0 .345-.132.641-.396.888-.26.243-.575.365-.946.365zm5.664 5.458v5.753h-2.314V11.86h2.212v1.668h.115c.226-.55.586-.986 1.08-1.31.499-.324 1.114-.486 1.847-.486.678 0 1.268.145 1.77.435.508.29.9.71 1.177 1.26.281.549.42 1.216.416 2v6.251h-2.314v-5.893c0-.656-.17-1.17-.512-1.54-.336-.371-.803-.557-1.4-.557-.404 0-.764.09-1.08.269a1.86 1.86 0 00-.735.76c-.175.333-.262.735-.262 1.208zm12.745 9.64c-.831 0-1.545-.113-2.142-.34-.596-.22-1.076-.52-1.438-.894a3.104 3.104 0 01-.754-1.247l2.084-.505c.093.192.23.382.409.57.179.191.42.349.722.472.307.128.693.192 1.157.192.656 0 1.2-.16 1.63-.48.43-.315.646-.834.646-1.559v-1.86h-.115c-.12.239-.294.484-.525.735a2.671 2.671 0 01-.901.633c-.371.17-.837.256-1.4.256a4.036 4.036 0 01-2.052-.53c-.609-.359-1.095-.892-1.457-1.599-.358-.712-.537-1.602-.537-2.672 0-1.078.179-1.988.537-2.73.362-.745.85-1.31 1.464-1.693a3.759 3.759 0 012.052-.582c.575 0 1.048.098 1.419.294.375.192.673.424.895.697.221.268.39.522.505.76h.127V11.86h2.282v9.978c0 .84-.2 1.534-.6 2.084-.401.55-.949.96-1.643 1.233-.695.273-1.483.41-2.365.41zm.019-5.843c.49 0 .908-.12 1.253-.358.345-.238.607-.581.786-1.029.179-.447.268-.984.268-1.61 0-.619-.089-1.16-.268-1.624-.175-.465-.435-.825-.78-1.08-.341-.26-.761-.39-1.259-.39-.516 0-.946.134-1.291.402-.345.269-.605.637-.78 1.106-.175.465-.262.993-.262 1.585 0 .601.087 1.128.262 1.58.179.447.441.796.786 1.048.35.247.778.37 1.285.37zm13.092 1.956l-2.774-9.818h2.358l1.726 6.903h.09l1.764-6.903h2.333l1.764 6.865h.096l1.7-6.865h2.366l-2.781 9.818h-2.41l-1.841-6.635h-.134l-1.841 6.635h-2.416zm15.683.198c-.622 0-1.182-.11-1.681-.332a2.746 2.746 0 01-1.176-.997c-.285-.44-.428-.98-.428-1.624 0-.554.102-1.012.307-1.374.204-.362.483-.652.837-.87a4.228 4.228 0 011.195-.491 9.73 9.73 0 011.387-.25c.576-.06 1.042-.113 1.4-.16.358-.05.618-.128.78-.23.166-.106.249-.27.249-.492v-.038c0-.482-.142-.855-.428-1.119-.285-.264-.697-.396-1.233-.396-.567 0-1.017.123-1.349.37-.328.248-.55.54-.665.876l-2.161-.307c.171-.596.452-1.095.844-1.495a3.675 3.675 0 011.438-.908 5.508 5.508 0 011.88-.307c.473 0 .944.056 1.412.166.469.111.897.294 1.285.55.388.252.699.595.933 1.03.239.434.358.977.358 1.63v6.57h-2.224V20.33h-.077a2.81 2.81 0 01-.594.767 2.861 2.861 0 01-.953.57c-.379.14-.824.21-1.336.21zm.601-1.7c.465 0 .867-.091 1.208-.275a2.04 2.04 0 00.787-.741c.187-.307.281-.642.281-1.004V17c-.073.06-.196.115-.371.166-.17.052-.362.096-.575.135a18.87 18.87 0 01-.633.102l-.543.077a4.032 4.032 0 00-.927.23 1.54 1.54 0 00-.646.447c-.157.188-.236.43-.236.729 0 .426.155.748.466.965.311.217.708.326 1.189.326zm11.633-8.316v1.79h-5.644v-1.79h5.644zm-4.251-2.352h2.314v9.217c0 .311.047.55.141.716a.757.757 0 00.383.332c.158.06.333.09.524.09.145 0 .277-.01.397-.032.123-.021.217-.04.281-.058l.39 1.81a5.378 5.378 0 01-.531.14c-.226.051-.503.08-.831.09a3.778 3.778 0 01-1.566-.263 2.44 2.44 0 01-1.106-.907c-.268-.41-.4-.92-.396-1.534V9.508zm10.183 12.362c-.98 0-1.822-.215-2.525-.646a4.308 4.308 0 01-1.617-1.783c-.375-.763-.562-1.64-.562-2.633 0-.998.191-1.878.575-2.64a4.294 4.294 0 011.623-1.79c.704-.43 1.535-.646 2.493-.646.797 0 1.502.147 2.116.441.618.29 1.11.701 1.477 1.234.366.528.575 1.146.626 1.854h-2.212a2.109 2.109 0 00-.639-1.183c-.332-.32-.777-.48-1.336-.48-.473 0-.888.128-1.246.384-.358.252-.637.614-.837 1.087-.197.473-.295 1.04-.295 1.7 0 .67.098 1.244.295 1.726.196.477.47.846.824 1.106a2.11 2.11 0 001.259.383 2.1 2.1 0 00.914-.191c.273-.133.501-.322.684-.57.184-.246.309-.547.377-.9h2.212a3.849 3.849 0 01-.614 1.847c-.353.532-.835.95-1.444 1.252-.609.299-1.325.448-2.148.448zm8.24-5.945v5.753h-2.314V8.588h2.263v4.94h.115c.23-.554.586-.99 1.067-1.31.486-.324 1.104-.486 1.854-.486.682 0 1.276.143 1.784.429.507.285.899.703 1.176 1.252.281.55.422 1.221.422 2.014v6.251h-2.314v-5.893c0-.66-.171-1.174-.512-1.54-.336-.371-.809-.557-1.419-.557-.409 0-.775.09-1.099.269a1.87 1.87 0 00-.754.76c-.179.333-.269.735-.269 1.208zM173.7 21.87c-.985 0-1.835-.205-2.551-.614a4.154 4.154 0 01-1.642-1.751c-.384-.759-.576-1.651-.576-2.678 0-1.01.192-1.897.576-2.66a4.347 4.347 0 011.623-1.79c.695-.43 1.511-.645 2.448-.645.605 0 1.176.098 1.713.294.542.192 1.019.49 1.432.895.418.405.746.92.985 1.547.238.622.358 1.364.358 2.224v.71h-8.048v-1.56h5.83a2.503 2.503 0 00-.288-1.182 2.099 2.099 0 00-.786-.825c-.333-.2-.721-.3-1.164-.3-.473 0-.888.115-1.246.345a2.376 2.376 0 00-.837.895 2.559 2.559 0 00-.301 1.208v1.361c0 .571.104 1.061.313 1.47.209.405.501.716.876.934.375.213.814.32 1.317.32.336 0 .641-.047.914-.141.273-.098.509-.241.709-.428.201-.188.352-.42.454-.697l2.161.243a3.38 3.38 0 01-.78 1.495c-.379.422-.865.75-1.458.985-.592.23-1.269.345-2.032.345zm9.787-.02c-.772 0-1.462-.197-2.071-.594-.61-.396-1.091-.971-1.445-1.726-.354-.754-.531-1.67-.531-2.748 0-1.091.179-2.011.537-2.761.363-.755.851-1.324 1.464-1.707a3.764 3.764 0 012.052-.582c.575 0 1.048.098 1.419.294.371.192.665.424.882.697.217.268.386.522.505.76h.096V8.588h2.32v13.091h-2.275v-1.547h-.141a3.934 3.934 0 01-.518.761c-.226.264-.524.49-.895.678-.37.187-.837.28-1.399.28zm.645-1.898c.49 0 .908-.132 1.253-.396.345-.268.607-.641.786-1.119.179-.477.269-1.033.269-1.668s-.09-1.187-.269-1.655c-.174-.47-.434-.834-.78-1.093-.34-.26-.76-.39-1.259-.39-.515 0-.946.134-1.291.402-.345.269-.605.64-.78 1.113-.175.473-.262 1.014-.262 1.623 0 .614.087 1.161.262 1.643.179.477.441.854.786 1.131.35.273.778.41 1.285.41zm8.294 1.867c-.387 0-.72-.136-.997-.41a1.326 1.326 0 01-.409-.996 1.31 1.31 0 01.409-.985 1.37 1.37 0 01.997-.409c.375 0 .701.137.978.41a1.345 1.345 0 01.224 1.693 1.47 1.47 0 01-.511.512 1.331 1.331 0 01-.691.185zm0-7.006a1.37 1.37 0 01-.997-.409 1.339 1.339 0 01-.409-.997 1.311 1.311 0 01.409-.985c.277-.276.61-.415.997-.415.375 0 .701.139.978.415.282.273.424.601.429.985a1.36 1.36 0 01-.205.703 1.47 1.47 0 01-.511.511 1.298 1.298 0 01-.691.192zM6.1 61.837c-.781 0-1.478-.134-2.092-.403-.61-.269-1.093-.642-1.449-1.12a2.972 2.972 0 01-.568-1.67h1.784c.023.345.139.644.347.898.212.25.489.443.83.58.34.136.72.204 1.136.204.458 0 .863-.08 1.216-.239.356-.159.634-.38.835-.665.2-.287.301-.619.301-.994 0-.39-.1-.733-.301-1.028-.197-.3-.487-.534-.87-.705-.378-.17-.836-.255-1.374-.255h-.983v-1.432h.983c.431 0 .81-.078 1.136-.233.33-.155.587-.371.773-.648a1.74 1.74 0 00.278-.983c0-.36-.081-.672-.244-.937a1.642 1.642 0 00-.682-.631c-.292-.152-.636-.227-1.034-.227-.379 0-.733.07-1.063.21-.325.136-.59.333-.795.59a1.52 1.52 0 00-.33.916H2.236a2.87 2.87 0 01.556-1.66 3.6 3.6 0 011.41-1.119 4.585 4.585 0 011.943-.403c.746 0 1.39.146 1.931.437a3.19 3.19 0 011.262 1.154c.3.48.447 1.007.443 1.58.004.65-.178 1.204-.545 1.658-.364.455-.849.76-1.455.915v.091c.773.117 1.371.424 1.795.92.428.497.64 1.112.637 1.847a2.873 2.873 0 01-.534 1.722c-.356.507-.843.907-1.46 1.199-.618.287-1.324.431-2.12.431zm5.536-2.431v-1.421l5.029-7.943h1.119v2.09h-.71l-3.597 5.694v.09h6.892v1.49h-8.733zm5.517 2.272v-2.704l.012-.648v-8.284h1.664v11.636h-1.676zm10.79-2.182v-.613c0-.44.091-.841.273-1.205.185-.367.454-.66.807-.88.356-.224.786-.336 1.29-.336.515 0 .947.11 1.295.33.348.22.612.513.79.88.181.368.272.771.272 1.21v.614c0 .44-.09.843-.272 1.21a2.184 2.184 0 01-.801.881c-.349.22-.777.33-1.285.33-.51 0-.943-.11-1.295-.33a2.185 2.185 0 01-.801-.88 2.69 2.69 0 01-.273-1.21zm1.324-.613v.613c0 .326.078.622.233.887.155.265.426.398.813.398.382 0 .65-.133.8-.398.152-.265.228-.56.228-.887v-.613a1.79 1.79 0 00-.222-.887c-.144-.265-.413-.397-.806-.397-.38 0-.648.132-.807.397a1.69 1.69 0 00-.239.887zm-7.176-6.046v-.613c0-.44.09-.843.273-1.21.185-.368.454-.662.806-.881.356-.22.786-.33 1.29-.33.515 0 .947.11 1.296.33.348.22.611.513.79.88.178.368.267.771.267 1.21v.614c0 .44-.091.843-.273 1.21a2.145 2.145 0 01-.796.881c-.348.22-.776.33-1.284.33-.515 0-.949-.11-1.3-.33a2.198 2.198 0 01-.796-.88 2.69 2.69 0 01-.273-1.21zm1.33-.613v.613c0 .326.075.621.227.887.155.265.426.397.812.397.379 0 .644-.132.796-.397.155-.265.233-.56.233-.887v-.613a1.79 1.79 0 00-.222-.887c-.148-.265-.417-.397-.807-.397-.379 0-.648.132-.807.397-.155.265-.232.56-.232.887zm-.79 9.454l8-11.636h1.358l-8 11.636H22.63zm25.17-11.636h1.75v8.25c0 .746-.148 1.384-.443 1.915-.292.53-.703.935-1.233 1.215-.53.277-1.151.415-1.864.415-.655 0-1.244-.119-1.767-.358a2.907 2.907 0 01-1.233-1.04c-.299-.458-.449-1.015-.449-1.67h1.745c0 .322.074.6.221.835.152.235.358.419.62.552.265.128.568.193.909.193.371 0 .685-.078.943-.233.261-.16.46-.392.597-.7.136-.306.204-.681.204-1.124v-8.25zm10.332 3.057a1.66 1.66 0 00-.75-1.25c-.44-.3-.992-.45-1.659-.45-.477 0-.89.077-1.239.228a1.905 1.905 0 00-.812.614 1.44 1.44 0 00-.284.88c0 .277.064.516.193.716.133.201.305.37.517.506.216.133.447.244.693.335.246.087.483.16.71.216l1.137.296c.371.09.752.214 1.142.369.39.155.752.36 1.085.614.333.253.602.568.807.943.208.375.312.824.312 1.346 0 .66-.17 1.245-.511 1.756-.337.511-.828.915-1.472 1.21-.64.296-1.414.443-2.323.443-.872 0-1.625-.138-2.262-.414-.636-.277-1.134-.669-1.494-1.176-.36-.512-.559-1.118-.597-1.819h1.762c.034.42.17.771.409 1.051.242.277.55.483.926.62a3.76 3.76 0 001.244.199c.496 0 .938-.078 1.324-.233.39-.16.697-.38.92-.66.224-.283.336-.615.336-.994 0-.344-.099-.627-.296-.846a2.183 2.183 0 00-.79-.546 7.726 7.726 0 00-1.119-.38l-1.375-.376c-.932-.253-1.67-.626-2.216-1.119-.541-.492-.812-1.144-.812-1.954 0-.67.182-1.256.545-1.756.364-.5.856-.888 1.477-1.165.622-.28 1.322-.42 2.103-.42.788 0 1.483.138 2.085.414.606.277 1.083.658 1.432 1.143.348.48.53 1.034.545 1.659h-1.693zm11.84-3.603l-3.75 13.932h-1.517l3.75-13.932h1.517zm4.6 2.057v-1.511h9.006v1.511h-3.63v10.125h-1.75V51.553h-3.626zm10.614 13.398a3.54 3.54 0 01-.694-.063 2.174 2.174 0 01-.466-.125l.41-1.392c.31.084.587.12.83.108a.993.993 0 00.641-.272c.19-.17.356-.45.5-.836l.21-.58-3.193-8.84h1.818l2.21 6.773h.091l2.21-6.773h1.825l-3.597 9.892a3.948 3.948 0 01-.636 1.153 2.47 2.47 0 01-.92.716c-.357.16-.77.239-1.24.239zm7.668 0v-12h1.66v1.415h.141c.099-.182.24-.392.426-.631s.444-.447.773-.625c.33-.182.765-.273 1.307-.273.704 0 1.333.178 1.886.534.553.356.987.87 1.301 1.54.319.67.478 1.477.478 2.42 0 .944-.157 1.752-.472 2.427-.314.67-.746 1.187-1.295 1.55-.55.36-1.176.54-1.881.54-.53 0-.964-.088-1.301-.266a2.462 2.462 0 01-.784-.625 4.73 4.73 0 01-.438-.637h-.102v4.631h-1.699zm1.665-7.636c0 .613.089 1.151.267 1.613.178.462.436.824.773 1.085.337.258.75.387 1.238.387.508 0 .932-.135 1.273-.404.341-.272.599-.642.773-1.108.178-.465.267-.99.267-1.573a4.34 4.34 0 00-.261-1.552c-.171-.458-.428-.82-.773-1.085-.341-.265-.767-.397-1.279-.397-.492 0-.909.126-1.25.38-.337.254-.593.608-.767 1.063-.174.454-.261.985-.261 1.59zm11.652 4.54c-.86 0-1.601-.184-2.222-.552a3.74 3.74 0 01-1.432-1.562c-.333-.675-.5-1.464-.5-2.37 0-.894.167-1.681.5-2.363a3.883 3.883 0 011.409-1.597c.606-.382 1.315-.574 2.125-.574.493 0 .97.082 1.432.245.462.163.877.418 1.244.767.368.348.658.8.87 1.358.212.553.318 1.225.318 2.017v.602h-6.938v-1.273h5.273c0-.447-.091-.843-.273-1.187a2.053 2.053 0 00-.767-.824c-.325-.2-.708-.301-1.147-.301-.478 0-.894.117-1.25.352a2.367 2.367 0 00-.819.91 2.629 2.629 0 00-.284 1.21v.994c0 .583.103 1.08.307 1.488.208.41.498.722.869.938.372.212.805.318 1.302.318.322 0 .615-.045.88-.136.265-.095.495-.235.688-.42.193-.187.341-.416.443-.688l1.608.29c-.129.473-.36.888-.693 1.244a3.37 3.37 0 01-1.245.824c-.496.193-1.062.29-1.698.29zm11.849-6.773l-1.54.272a1.84 1.84 0 00-.307-.562 1.513 1.513 0 00-.557-.438c-.235-.113-.528-.17-.881-.17-.481 0-.882.108-1.204.324-.322.212-.483.486-.483.824 0 .291.108.526.324.704.216.178.564.324 1.045.438l1.387.318c.803.185 1.401.471 1.795.858.394.386.591.888.591 1.506 0 .522-.151.988-.455 1.397-.299.406-.717.724-1.255.955-.534.23-1.154.346-1.858.346-.977 0-1.775-.208-2.392-.625-.618-.42-.996-1.017-1.137-1.79l1.642-.25c.103.429.313.752.631.972.318.216.733.324 1.244.324.557 0 1.002-.115 1.336-.347.333-.234.5-.52.5-.857a.894.894 0 00-.307-.688c-.201-.186-.51-.326-.926-.42l-1.478-.324c-.814-.186-1.416-.481-1.806-.887-.387-.405-.58-.918-.58-1.54a2.2 2.2 0 01.432-1.352c.288-.386.686-.687 1.193-.903.508-.22 1.089-.33 1.744-.33.944 0 1.686.205 2.228.614.541.405.899.949 1.074 1.63zm5.394 6.772c-.845 0-1.572-.19-2.182-.573a3.793 3.793 0 01-1.397-1.597c-.326-.678-.489-1.455-.489-2.33 0-.886.167-1.668.5-2.346a3.828 3.828 0 011.409-1.597c.606-.382 1.32-.574 2.142-.574.663 0 1.254.123 1.773.37.519.242.937.583 1.255 1.022.322.44.514.953.574 1.54h-1.653a1.98 1.98 0 00-.625-1.057c-.322-.295-.754-.443-1.296-.443a2.11 2.11 0 00-1.244.375c-.352.246-.627.599-.824 1.057-.197.455-.295.992-.295 1.614 0 .636.096 1.185.29 1.647.193.462.465.82.818 1.074.356.254.774.38 1.255.38.322 0 .614-.058.875-.175a1.78 1.78 0 00.665-.517 1.95 1.95 0 00.381-.807H127a3.204 3.204 0 01-.551 1.511 3.174 3.174 0 01-1.233 1.046c-.511.254-1.112.38-1.801.38zm5.082-.176v-8.727h1.642v1.386h.091c.159-.47.439-.839.841-1.108a2.412 2.412 0 011.375-.409 7.344 7.344 0 01.722.04v1.625a3.122 3.122 0 00-.364-.063 3.475 3.475 0 00-.523-.04 2.22 2.22 0 00-1.074.256 1.897 1.897 0 00-1.011 1.71v5.33h-1.699zm5.821 0v-8.727h1.699v8.727h-1.699zm.858-10.074a1.08 1.08 0 01-.762-.295.961.961 0 01-.312-.716.95.95 0 01.312-.716c.212-.2.466-.301.762-.301.295 0 .547.1.755.301a.941.941 0 01.318.716.953.953 0 01-.318.716c-.208.197-.46.295-.755.295zm2.806 13.347v-12h1.659v1.415h.142a4.87 4.87 0 01.426-.631c.186-.239.443-.447.773-.625.33-.182.765-.273 1.307-.273.704 0 1.333.178 1.886.534.553.356.987.87 1.301 1.54.319.67.478 1.477.478 2.42 0 .944-.158 1.752-.472 2.427-.314.67-.746 1.187-1.295 1.55-.55.36-1.177.54-1.881.54-.53 0-.964-.088-1.301-.266a2.45 2.45 0 01-.784-.625 4.657 4.657 0 01-.438-.637h-.102v4.631h-1.699zm1.665-7.636c0 .613.089 1.151.267 1.613.178.462.435.824.773 1.085.337.258.75.387 1.238.387.508 0 .932-.135 1.273-.404.341-.272.598-.642.773-1.108.178-.465.267-.99.267-1.573a4.33 4.33 0 00-.262-1.552c-.17-.458-.428-.82-.772-1.085-.341-.265-.767-.397-1.279-.397-.492 0-.909.126-1.25.38-.337.254-.593.608-.767 1.063-.174.454-.261.985-.261 1.59zm11.964-4.364v1.364h-4.767V52.95h4.767zm-3.489-2.091h1.699v8.256c0 .33.049.577.148.744a.767.767 0 00.381.335c.159.057.331.086.517.086a2 2 0 00.358-.029l.238-.045.307 1.403a2.859 2.859 0 01-.42.114c-.182.041-.41.064-.682.068a2.99 2.99 0 01-1.25-.239 2.143 2.143 0 01-.938-.772c-.238-.349-.358-.786-.358-1.313V50.86zm13.394-1.364l-3.75 13.932h-1.517l3.75-13.932h1.517zM52.671 72.042v11.636h-1.614l-5.915-8.534h-.108v8.534h-1.756V72.042h1.625l5.92 8.545h.109v-8.545h1.738zm5.78 11.812c-.818 0-1.532-.187-2.142-.562a3.793 3.793 0 01-1.42-1.574c-.337-.674-.506-1.462-.506-2.364 0-.905.169-1.697.506-2.375a3.785 3.785 0 011.42-1.58c.61-.374 1.324-.562 2.142-.562.819 0 1.532.188 2.142.563.61.375 1.084.901 1.42 1.58.338.677.507 1.47.507 2.374 0 .902-.17 1.69-.506 2.364a3.793 3.793 0 01-1.42 1.574c-.61.375-1.325.562-2.143.562zm.006-1.426c.53 0 .97-.14 1.318-.42.349-.28.606-.654.773-1.12.17-.466.256-.979.256-1.54 0-.556-.086-1.067-.256-1.533a2.5 2.5 0 00-.773-1.131c-.348-.284-.788-.426-1.318-.426-.534 0-.977.142-1.33.426a2.54 2.54 0 00-.778 1.13c-.167.467-.25.978-.25 1.535 0 .56.083 1.073.25 1.54.17.465.43.839.778 1.119.353.28.796.42 1.33.42zm8.906 1.42c-.705 0-1.334-.18-1.886-.54-.55-.363-.982-.88-1.296-1.55-.31-.674-.466-1.483-.466-2.426 0-.944.157-1.75.472-2.42.318-.671.754-1.184 1.306-1.54a3.398 3.398 0 011.881-.535c.542 0 .978.091 1.307.273.333.178.59.386.773.625.185.239.33.449.432.63h.102v-4.323h1.699v11.636h-1.66V82.32h-.141c-.103.186-.25.398-.444.637-.189.238-.45.447-.784.625-.333.178-.765.267-1.295.267zm.375-1.448c.489 0 .901-.129 1.239-.387.34-.26.598-.623.772-1.085.178-.462.267-1 .267-1.613 0-.606-.087-1.137-.261-1.591-.174-.455-.43-.809-.767-1.063-.337-.254-.754-.38-1.25-.38-.511 0-.938.132-1.279.397-.34.265-.598.627-.772 1.085-.17.459-.256.976-.256 1.552 0 .583.087 1.108.261 1.573.175.466.432.836.773 1.108.345.27.77.404 1.273.404zm9.815 1.454c-.86 0-1.6-.183-2.222-.55A3.738 3.738 0 0173.9 81.74c-.333-.674-.5-1.464-.5-2.37 0-.893.167-1.681.5-2.363a3.882 3.882 0 011.41-1.597c.606-.382 1.314-.574 2.124-.574.493 0 .97.082 1.432.245.462.163.877.418 1.245.767.367.348.657.8.869 1.358.212.553.318 1.225.318 2.017v.602H74.36v-1.273h5.272a2.5 2.5 0 00-.272-1.187 2.062 2.062 0 00-.767-.824c-.326-.2-.709-.301-1.148-.301-.477 0-.894.117-1.25.352a2.365 2.365 0 00-.818.91c-.19.37-.284.774-.284 1.21v.994c0 .583.102 1.08.306 1.488.209.41.498.722.87.938.37.212.805.318 1.3.318.323 0 .616-.045.882-.136.265-.095.494-.235.687-.42.193-.186.34-.416.443-.688l1.608.29a2.91 2.91 0 01-.693 1.244 3.36 3.36 0 01-1.244.824c-.497.193-1.063.29-1.7.29zm6.428-.068a1.1 1.1 0 01-.8-.33 1.1 1.1 0 01-.336-.806c0-.31.112-.576.335-.796.224-.223.49-.335.801-.335.311 0 .578.112.802.335.223.22.335.485.335.796 0 .208-.053.4-.16.574-.102.17-.238.306-.409.409-.17.102-.36.153-.568.153zm3.092-8.835h1.7v9.295c0 .584-.107 1.076-.319 1.478a2.075 2.075 0 01-.932.914c-.409.209-.915.313-1.517.313h-.17c-.057 0-.116-.002-.176-.006v-1.46h.272c.402 0 .692-.108.87-.324.181-.212.272-.52.272-.926v-9.284zm.841-1.347a1.08 1.08 0 01-.761-.295.96.96 0 01-.313-.716.95.95 0 01.313-.716c.212-.2.466-.301.761-.301.296 0 .548.1.756.301a.941.941 0 01.318.716.953.953 0 01-.318.716 1.06 1.06 0 01-.756.295zm9.363 3.478l-1.54.272a1.824 1.824 0 00-.306-.562 1.517 1.517 0 00-.557-.438c-.235-.113-.528-.17-.88-.17-.482 0-.883.108-1.205.324-.322.212-.483.487-.483.824 0 .291.108.526.324.704.216.178.564.324 1.045.438l1.386.318c.804.186 1.402.471 1.796.858.394.386.59.888.59 1.505 0 .523-.15.99-.454 1.398-.299.406-.717.724-1.255.955-.534.23-1.154.346-1.858.346-.978 0-1.775-.208-2.392-.625-.618-.42-.996-1.017-1.137-1.79l1.642-.25c.103.429.313.753.631.972.318.216.733.324 1.244.324.557 0 1.002-.115 1.336-.347.333-.234.5-.52.5-.858a.892.892 0 00-.307-.687c-.201-.186-.51-.326-.926-.42l-1.478-.324c-.814-.186-1.416-.481-1.806-.887-.387-.405-.58-.918-.58-1.54a2.2 2.2 0 01.432-1.352c.288-.386.685-.687 1.193-.903.508-.22 1.089-.33 1.744-.33.944 0 1.686.205 2.228.614.541.405.9.949 1.073 1.63z" fill="#1E222E"/><rect x="42" y="96.678" width="111" height="6" rx="3" fill="#397CE8"/><path d="M1.944 133.405v-1.42l5.029-7.943h1.12v2.091h-.711l-3.597 5.693v.091h6.892v1.488H1.944zm5.517 2.273v-2.704l.012-.648v-8.284h1.665v11.636H7.46zm8.779.159a4.672 4.672 0 01-1.534-.284 3.6 3.6 0 01-1.364-.909c-.409-.424-.737-.994-.983-1.71-.242-.716-.363-1.61-.363-2.682 0-1.015.1-1.917.3-2.704.205-.788.499-1.453.881-1.995.383-.545.845-.96 1.387-1.244.541-.284 1.15-.426 1.824-.426.693 0 1.308.136 1.846.409.538.273.974.649 1.307 1.131.337.481.551 1.028.642 1.642H18.45a2.242 2.242 0 00-.699-1.188c-.348-.307-.803-.46-1.363-.46-.853 0-1.517.371-1.995 1.113-.473.743-.712 1.775-.716 3.097h.086c.2-.329.447-.61.738-.841.296-.235.625-.415.989-.54a3.499 3.499 0 011.159-.193c.674 0 1.284.165 1.83.495.549.325.986.776 1.312 1.352.326.576.489 1.235.489 1.977 0 .743-.169 1.415-.506 2.017a3.707 3.707 0 01-1.41 1.432c-.605.348-1.314.519-2.124.511zm-.006-1.477c.447 0 .847-.11 1.2-.33.351-.219.63-.515.834-.886a2.53 2.53 0 00.307-1.244c0-.447-.1-.854-.301-1.222a2.277 2.277 0 00-.818-.875 2.179 2.179 0 00-1.182-.324 2.266 2.266 0 00-1.688.728 2.587 2.587 0 00-.51.784c-.122.291-.183.6-.183.926a2.469 2.469 0 001.136 2.108c.357.223.758.335 1.205.335zm11.71-.864v-.613c0-.44.09-.841.272-1.205.185-.367.454-.661.807-.88.356-.224.786-.336 1.29-.336.515 0 .947.11 1.295.33.348.22.612.513.79.881.181.367.272.77.272 1.21v.613c0 .44-.09.843-.272 1.211a2.184 2.184 0 01-.801.88c-.349.22-.777.33-1.285.33-.51 0-.943-.11-1.295-.33a2.184 2.184 0 01-.801-.88 2.694 2.694 0 01-.273-1.211zm1.323-.613v.613c0 .326.078.622.233.887.155.265.426.397.813.397.382 0 .65-.132.8-.397.152-.265.228-.561.228-.887v-.613c0-.326-.074-.621-.222-.887-.144-.265-.413-.397-.806-.397-.38 0-.648.132-.807.397-.16.266-.239.561-.239.887zm-7.176-6.046v-.613c0-.44.09-.843.273-1.211a2.17 2.17 0 01.806-.88c.356-.22.786-.33 1.29-.33.515 0 .947.11 1.296.33.348.219.611.513.79.88.178.368.267.771.267 1.211v.613c0 .44-.091.843-.273 1.211a2.144 2.144 0 01-.796.88c-.348.22-.776.33-1.284.33-.515 0-.949-.11-1.3-.33a2.198 2.198 0 01-.796-.88 2.694 2.694 0 01-.273-1.211zm1.33-.613v.613c0 .326.075.622.227.887.155.265.426.397.812.397.379 0 .644-.132.796-.397.155-.265.233-.561.233-.887v-.613a1.79 1.79 0 00-.222-.887c-.148-.265-.417-.397-.807-.397-.379 0-.648.132-.807.397a1.722 1.722 0 00-.232.887zm-.79 9.454l8-11.636h1.358l-8 11.636H22.63zm20.647 0v-11.636h4.148c.905 0 1.655.165 2.25.494.595.33 1.04.78 1.335 1.352.296.569.444 1.209.444 1.921 0 .716-.15 1.36-.45 1.932a3.246 3.246 0 01-1.34 1.352c-.595.33-1.343.494-2.245.494h-2.852v-1.488h2.693c.572 0 1.036-.099 1.392-.296.357-.201.618-.473.785-.818a2.67 2.67 0 00.25-1.176c0-.439-.084-.83-.25-1.171a1.796 1.796 0 00-.79-.801c-.356-.193-.826-.289-1.41-.289h-2.204v10.13h-1.756zm10.852 3.273a3.51 3.51 0 01-.693-.063 2.1 2.1 0 01-.466-.125l.41-1.392c.31.084.586.12.829.108a.993.993 0 00.642-.272c.19-.171.356-.449.5-.836l.21-.579-3.193-8.841h1.818l2.21 6.773h.091l2.21-6.773h1.824l-3.596 9.892a3.931 3.931 0 01-.637 1.153 2.462 2.462 0 01-.92.716c-.356.159-.769.239-1.239.239zm11.743-12v1.364h-4.767v-1.364h4.767zm-3.489-2.091h1.699v8.256c0 .329.05.577.148.744a.767.767 0 00.38.335c.16.057.332.085.517.085.137 0 .256-.009.358-.028l.24-.045.306 1.403a3.392 3.392 0 01-1.102.182 2.995 2.995 0 01-1.25-.239 2.136 2.136 0 01-.938-.773c-.238-.348-.358-.785-.358-1.312v-8.608zm6.934 5.636v5.182H67.62v-11.636h1.676v4.329h.108c.204-.469.517-.842.937-1.119.42-.276.97-.415 1.648-.415.598 0 1.121.123 1.568.37.45.246.8.613 1.046 1.102.25.485.375 1.091.375 1.818v5.551h-1.7v-5.346c0-.641-.164-1.137-.494-1.489-.33-.356-.788-.534-1.375-.534a2.25 2.25 0 00-1.08.256c-.314.17-.562.42-.743.75-.179.325-.268.719-.268 1.181zm11.283 5.358c-.819 0-1.532-.187-2.142-.562a3.795 3.795 0 01-1.42-1.574c-.338-.674-.507-1.462-.507-2.364 0-.905.17-1.697.506-2.375a3.784 3.784 0 011.42-1.579c.61-.375 1.325-.563 2.143-.563.818 0 1.532.188 2.142.563.61.375 1.083.901 1.42 1.579.337.678.506 1.47.506 2.375 0 .902-.169 1.69-.506 2.364a3.794 3.794 0 01-1.42 1.574c-.61.375-1.324.562-2.142.562zm.005-1.426c.53 0 .97-.14 1.319-.42a2.47 2.47 0 00.772-1.12c.17-.465.256-.979.256-1.539a4.43 4.43 0 00-.256-1.534 2.498 2.498 0 00-.773-1.131c-.348-.284-.787-.426-1.318-.426-.534 0-.977.142-1.33.426a2.538 2.538 0 00-.778 1.131 4.52 4.52 0 00-.25 1.534c0 .56.084 1.074.25 1.539.17.466.43.839.779 1.12.352.28.795.42 1.33.42zm7.338-3.932v5.182h-1.699v-8.727h1.63v1.42h.109c.2-.462.515-.833.943-1.113.432-.281.975-.421 1.63-.421.595 0 1.116.125 1.563.375.447.247.794.614 1.04 1.103.246.488.37 1.092.37 1.812v5.551h-1.7v-5.346c0-.633-.164-1.127-.494-1.483-.33-.36-.782-.54-1.358-.54-.394 0-.744.085-1.051.256-.303.17-.544.42-.722.75-.174.325-.261.719-.261 1.181z" fill="#1E222E"/><rect x="42" y="148.678" width="150" height="6" rx="3" fill="#397CE8"/><path d="M12.12 176.042v11.636h-1.762v-9.875h-.069l-2.784 1.818v-1.681l2.904-1.898h1.71zm7.082 0v11.636H17.44v-9.875h-.068l-2.784 1.818v-1.681l2.903-1.898h1.71zm8.741 9.454v-.613c0-.44.091-.841.273-1.205.185-.367.454-.661.807-.88.356-.224.786-.336 1.29-.336.515 0 .947.11 1.295.33.348.22.612.513.79.881.181.367.272.77.272 1.21v.613c0 .44-.09.843-.272 1.211a2.184 2.184 0 01-.801.88c-.349.22-.777.33-1.285.33-.51 0-.943-.11-1.295-.33a2.184 2.184 0 01-.801-.88 2.694 2.694 0 01-.273-1.211zm1.324-.613v.613c0 .326.078.622.233.887.155.265.426.397.813.397.382 0 .65-.132.8-.397.152-.265.228-.561.228-.887v-.613c0-.326-.074-.621-.222-.887-.144-.265-.413-.397-.806-.397-.38 0-.648.132-.807.397-.16.266-.239.561-.239.887zm-7.176-6.046v-.613c0-.44.09-.843.273-1.211a2.17 2.17 0 01.806-.88c.356-.22.786-.33 1.29-.33.515 0 .947.11 1.296.33.348.219.611.513.79.88.178.368.267.771.267 1.211v.613c0 .44-.091.843-.273 1.211a2.144 2.144 0 01-.796.88c-.348.22-.776.33-1.284.33-.515 0-.949-.11-1.3-.33a2.198 2.198 0 01-.796-.88 2.694 2.694 0 01-.273-1.211zm1.33-.613v.613c0 .326.075.622.227.887.155.265.426.397.812.397.379 0 .644-.132.796-.397.155-.265.233-.561.233-.887v-.613a1.79 1.79 0 00-.222-.887c-.148-.265-.417-.397-.807-.397-.379 0-.648.132-.807.397a1.722 1.722 0 00-.232.887zm-.79 9.454l8-11.636h1.358l-8 11.636H22.63zm25.17-11.636h1.75v8.25c0 .746-.148 1.384-.443 1.915-.292.53-.703.935-1.233 1.216-.53.276-1.151.414-1.864.414-.655 0-1.244-.119-1.767-.358a2.904 2.904 0 01-1.233-1.039c-.299-.459-.449-1.016-.449-1.671h1.745c0 .322.074.601.221.835.152.235.358.419.62.551.265.129.568.194.909.194.371 0 .685-.078.943-.233.261-.159.46-.392.597-.699.136-.307.204-.682.204-1.125v-8.25zm6.389 11.829a3.572 3.572 0 01-1.5-.306 2.533 2.533 0 01-1.063-.904c-.257-.394-.386-.877-.386-1.449 0-.492.095-.897.284-1.216.19-.318.445-.57.767-.755a4.004 4.004 0 011.08-.421c.398-.094.803-.166 1.216-.216l1.272-.147c.326-.042.563-.108.71-.199.148-.091.222-.239.222-.443v-.04c0-.496-.14-.881-.42-1.154-.277-.272-.69-.409-1.239-.409-.572 0-1.023.127-1.352.381-.326.25-.551.528-.676.835l-1.597-.363c.19-.531.466-.959.83-1.285a3.36 3.36 0 011.267-.715 4.929 4.929 0 011.505-.228c.349 0 .718.042 1.108.125.394.08.762.228 1.103.443.344.216.627.525.846.927.22.397.33.914.33 1.551v5.795h-1.66v-1.193h-.068c-.11.22-.274.436-.494.648-.22.212-.502.388-.846.528-.345.14-.758.21-1.24.21zm.37-1.363c.469 0 .87-.093 1.204-.279.337-.185.593-.428.767-.727.178-.303.267-.627.267-.972v-1.125c-.06.061-.178.118-.352.171a5.56 5.56 0 01-.586.131c-.22.034-.433.066-.642.096l-.522.068a4.2 4.2 0 00-.904.211c-.269.098-.485.24-.648.426-.159.182-.238.424-.238.727 0 .42.155.739.466.955.31.212.706.318 1.187.318zm13.033-7.557l-3.165 8.727H62.61l-3.17-8.727h1.823l2.21 6.716h.092l2.204-6.716h1.824zm3.566 8.92a3.572 3.572 0 01-1.5-.306 2.532 2.532 0 01-1.062-.904c-.258-.394-.386-.877-.386-1.449 0-.492.094-.897.284-1.216.189-.318.445-.57.767-.755a4.004 4.004 0 011.08-.421c.397-.094.802-.166 1.215-.216l1.273-.147c.326-.042.562-.108.71-.199.148-.091.222-.239.222-.443v-.04c0-.496-.14-.881-.42-1.154-.277-.272-.69-.409-1.24-.409-.572 0-1.022.127-1.352.381-.326.25-.55.528-.676.835l-1.596-.363c.189-.531.465-.959.829-1.285a3.36 3.36 0 011.267-.715c.477-.152.98-.228 1.506-.228.348 0 .718.042 1.108.125.394.08.761.228 1.102.443.345.216.627.525.847.927.22.397.33.914.33 1.551v5.795h-1.66v-1.193h-.068c-.11.22-.275.436-.495.648-.22.212-.501.388-.846.528s-.758.21-1.239.21zm.37-1.363c.47 0 .87-.093 1.204-.279.337-.185.593-.428.767-.727.178-.303.267-.627.267-.972v-1.125c-.06.061-.178.118-.352.171-.17.049-.366.093-.585.131-.22.034-.434.066-.642.096l-.523.068a4.2 4.2 0 00-.903.211c-.27.098-.485.24-.648.426-.16.182-.239.424-.239.727 0 .42.156.739.466.955.31.212.707.318 1.188.318zm14.226-11.012l-3.75 13.932h-1.517l3.75-13.932h1.517zm11.52 3.603a1.659 1.659 0 00-.75-1.25c-.439-.3-.992-.449-1.659-.449-.477 0-.89.076-1.238.227-.349.148-.62.352-.813.614a1.449 1.449 0 00-.284.88c0 .277.065.516.194.716.132.201.304.37.517.506.215.133.447.244.693.335.246.087.483.159.71.216l1.136.296c.371.09.752.214 1.142.369.39.155.752.36 1.086.614.333.253.602.568.806.943.209.375.313.824.313 1.346 0 .659-.17 1.245-.511 1.756-.338.511-.828.915-1.472 1.21-.64.296-1.415.443-2.324.443-.871 0-1.625-.138-2.261-.414-.637-.277-1.135-.669-1.495-1.177-.36-.511-.558-1.117-.596-1.818h1.761c.034.421.17.771.41 1.051.242.277.55.483.925.62.38.132.794.199 1.245.199.496 0 .937-.078 1.324-.233.39-.159.697-.379.92-.659.224-.285.335-.616.335-.995 0-.344-.098-.627-.295-.846a2.18 2.18 0 00-.79-.546 7.61 7.61 0 00-1.12-.38l-1.374-.375c-.932-.254-1.67-.627-2.216-1.12-.542-.492-.813-1.144-.813-1.954 0-.671.182-1.256.546-1.756.363-.5.856-.888 1.477-1.165.621-.28 1.322-.42 2.102-.42.788 0 1.483.138 2.085.415.607.276 1.084.657 1.432 1.142.349.481.53 1.034.546 1.659h-1.693zm7.171 8.755c-.845 0-1.572-.191-2.182-.574a3.798 3.798 0 01-1.398-1.596c-.326-.678-.489-1.455-.489-2.33 0-.886.167-1.668.5-2.346a3.84 3.84 0 011.41-1.597c.606-.382 1.32-.574 2.142-.574.663 0 1.253.123 1.772.37.519.242.938.583 1.256 1.022.322.44.513.953.574 1.54h-1.654a1.977 1.977 0 00-.625-1.057c-.321-.295-.753-.443-1.295-.443a2.11 2.11 0 00-1.244.375c-.353.246-.627.599-.824 1.057-.197.454-.296.992-.296 1.614 0 .636.097 1.185.29 1.647.193.462.466.82.818 1.074.356.254.775.381 1.256.381.322 0 .614-.059.875-.176.265-.121.487-.294.665-.517.182-.224.309-.493.38-.807h1.654a3.214 3.214 0 01-.551 1.511 3.178 3.178 0 01-1.233 1.046c-.512.253-1.112.38-1.801.38zm7.621.017a3.572 3.572 0 01-1.5-.306 2.529 2.529 0 01-1.062-.904c-.258-.394-.386-.877-.386-1.449 0-.492.094-.897.284-1.216.189-.318.445-.57.767-.755a4.01 4.01 0 011.079-.421c.398-.094.803-.166 1.216-.216l1.273-.147c.326-.042.562-.108.71-.199.148-.091.222-.239.222-.443v-.04c0-.496-.14-.881-.421-1.154-.276-.272-.689-.409-1.238-.409-.572 0-1.023.127-1.353.381-.325.25-.551.528-.676.835l-1.596-.363c.189-.531.466-.959.829-1.285.368-.329.79-.568 1.267-.715a4.93 4.93 0 011.506-.228c.348 0 .718.042 1.108.125.394.08.761.228 1.102.443.345.216.627.525.847.927.219.397.329.914.329 1.551v5.795h-1.659v-1.193h-.068c-.11.22-.275.436-.494.648-.22.212-.502.388-.847.528s-.757.21-1.239.21zm.37-1.363c.469 0 .871-.093 1.204-.279.337-.185.593-.428.767-.727.178-.303.267-.627.267-.972v-1.125c-.06.061-.178.118-.352.171-.17.049-.365.093-.585.131-.22.034-.434.066-.642.096l-.523.068a4.194 4.194 0 00-.903.211c-.269.098-.485.24-.648.426-.159.182-.239.424-.239.727 0 .42.156.739.466.955.311.212.707.318 1.188.318zm7.579-10.466v11.636h-1.699v-11.636h1.699zm4.505 11.829a3.572 3.572 0 01-1.5-.306 2.529 2.529 0 01-1.062-.904c-.258-.394-.387-.877-.387-1.449 0-.492.095-.897.284-1.216.19-.318.445-.57.767-.755a4.004 4.004 0 011.08-.421c.398-.094.803-.166 1.216-.216l1.273-.147c.325-.042.562-.108.71-.199.148-.091.221-.239.221-.443v-.04c0-.496-.14-.881-.42-1.154-.277-.272-.689-.409-1.239-.409-.572 0-1.022.127-1.352.381-.326.25-.551.528-.676.835l-1.597-.363c.19-.531.466-.959.83-1.285.367-.329.79-.568 1.267-.715a4.93 4.93 0 011.506-.228c.348 0 .717.042 1.108.125.394.08.761.228 1.102.443.345.216.627.525.846.927.22.397.33.914.33 1.551v5.795h-1.659v-1.193h-.068c-.11.22-.275.436-.495.648a2.611 2.611 0 01-.846.528c-.345.14-.758.21-1.239.21zm.37-1.363c.469 0 .871-.093 1.204-.279.337-.185.593-.428.767-.727.178-.303.267-.627.267-.972v-1.125c-.06.061-.178.118-.352.171a5.631 5.631 0 01-.585.131c-.22.034-.434.066-.642.096l-.523.068c-.33.042-.631.112-.904.211-.268.098-.484.24-.647.426-.159.182-.239.424-.239.727 0 .42.155.739.466.955.311.212.706.318 1.188.318zm14.226-11.012l-3.75 13.932h-1.517l3.75-13.932h1.517zm5.174 12.182v-11.636h1.756v5.557h.142l4.88-5.557h2.211l-4.694 5.238 4.711 6.398h-2.114l-3.761-5.199-1.375 1.58v3.619h-1.756zm13.204.176c-.818 0-1.532-.187-2.142-.562a3.792 3.792 0 01-1.42-1.574c-.338-.674-.506-1.462-.506-2.364 0-.905.168-1.697.506-2.375a3.781 3.781 0 011.42-1.579c.61-.375 1.324-.563 2.142-.563.818 0 1.532.188 2.142.563a3.79 3.79 0 011.421 1.579c.337.678.505 1.47.505 2.375 0 .902-.168 1.69-.505 2.364a3.8 3.8 0 01-1.421 1.574c-.61.375-1.324.562-2.142.562zm.006-1.426c.53 0 .969-.14 1.318-.42.348-.281.606-.654.773-1.12.17-.465.255-.979.255-1.539a4.44 4.44 0 00-.255-1.534 2.505 2.505 0 00-.773-1.131c-.349-.284-.788-.426-1.318-.426-.534 0-.978.142-1.33.426a2.537 2.537 0 00-.778 1.131c-.167.465-.25.977-.25 1.534 0 .56.083 1.074.25 1.539.17.466.43.839.778 1.12.352.28.796.42 1.33.42zm9.712-7.477v1.364h-4.767v-1.364h4.767zm-3.488-2.091h1.699v8.256c0 .329.049.577.147.744a.77.77 0 00.381.335c.159.057.331.085.517.085.136 0 .256-.009.358-.028l.239-.045.306 1.403a3.393 3.393 0 01-1.102.182 2.997 2.997 0 01-1.25-.239 2.134 2.134 0 01-.937-.773c-.239-.348-.358-.785-.358-1.312v-8.608zm6.934-.818v11.636h-1.699v-11.636h1.699zm1.966 11.636v-8.727h1.698v8.727h-1.698zm.857-10.074a1.08 1.08 0 01-.761-.295.961.961 0 01-.312-.716.95.95 0 01.312-.716c.212-.201.466-.301.761-.301.296 0 .548.1.756.301a.942.942 0 01.318.716.953.953 0 01-.318.716c-.208.197-.46.295-.756.295zm4.506 4.892v5.182h-1.699v-8.727h1.631v1.42h.108c.2-.462.515-.833.943-1.113.432-.281.975-.421 1.63-.421.595 0 1.116.125 1.563.375.447.247.793.614 1.04 1.103.246.488.369 1.092.369 1.812v5.551h-1.699v-5.346c0-.633-.165-1.127-.494-1.483-.33-.36-.782-.54-1.358-.54-.394 0-.744.085-1.051.256-.303.17-.544.42-.722.75-.174.325-.261.719-.261 1.181z" fill="#1E222E"/><rect x="42" y="200.678" width="39" height="6" rx="3" fill="#397CE8"/><path d="M11.636 237.405v-1.42l5.029-7.943h1.119v2.091h-.71l-3.597 5.693v.091h6.892v1.488h-8.733zm5.517 2.273v-2.704l.012-.648v-8.284h1.664v11.636h-1.676zm10.79-2.182v-.613c0-.44.091-.841.273-1.205.185-.367.454-.661.807-.88.356-.224.786-.336 1.29-.336.515 0 .947.11 1.295.33.348.22.612.513.79.881.181.367.272.77.272 1.21v.613c0 .44-.09.843-.272 1.211a2.184 2.184 0 01-.801.88c-.349.22-.777.33-1.285.33-.51 0-.943-.11-1.295-.33a2.184 2.184 0 01-.801-.88 2.694 2.694 0 01-.273-1.211zm1.324-.613v.613c0 .326.078.622.233.887.155.265.426.397.813.397.382 0 .65-.132.8-.397.152-.265.228-.561.228-.887v-.613c0-.326-.074-.621-.222-.887-.144-.265-.413-.397-.806-.397-.38 0-.648.132-.807.397-.16.266-.239.561-.239.887zm-7.176-6.046v-.613c0-.44.09-.843.273-1.211a2.17 2.17 0 01.806-.88c.356-.22.786-.33 1.29-.33.515 0 .947.11 1.296.33.348.219.611.513.79.88.178.368.267.771.267 1.211v.613c0 .44-.091.843-.273 1.211a2.144 2.144 0 01-.796.88c-.348.22-.776.33-1.284.33-.515 0-.949-.11-1.3-.33a2.198 2.198 0 01-.796-.88 2.694 2.694 0 01-.273-1.211zm1.33-.613v.613c0 .326.075.622.227.887.155.265.426.397.812.397.379 0 .644-.132.796-.397.155-.265.233-.561.233-.887v-.613a1.79 1.79 0 00-.222-.887c-.148-.265-.417-.397-.807-.397-.379 0-.648.132-.807.397a1.722 1.722 0 00-.232.887zm-.79 9.454l8-11.636h1.358l-8 11.636H22.63zm28.522-7.96a3.549 3.549 0 00-.443-.926 2.823 2.823 0 00-1.523-1.154 3.504 3.504 0 00-1.062-.153c-.655 0-1.246.169-1.773.506-.526.337-.943.831-1.25 1.483-.303.647-.454 1.441-.454 2.38 0 .944.153 1.741.46 2.392.307.652.727 1.146 1.261 1.483.534.337 1.142.506 1.824.506.633 0 1.184-.129 1.654-.386a2.699 2.699 0 001.096-1.091c.262-.474.392-1.031.392-1.671l.455.086h-3.33v-1.449h4.574v1.324c0 .977-.208 1.825-.625 2.545a4.254 4.254 0 01-1.716 1.659c-.727.39-1.56.585-2.5.585-1.053 0-1.977-.242-2.773-.727-.791-.485-1.409-1.172-1.852-2.062-.443-.894-.665-1.955-.665-3.182 0-.928.13-1.762.387-2.5.257-.739.62-1.366 1.085-1.881a4.726 4.726 0 011.653-1.187 5.168 5.168 0 012.086-.415c.628 0 1.214.093 1.755.278.546.186 1.03.449 1.455.79a4.47 4.47 0 011.63 2.767h-1.8zm7.33 8.136c-.819 0-1.533-.187-2.142-.562a3.795 3.795 0 01-1.42-1.574c-.338-.674-.507-1.462-.507-2.364 0-.905.169-1.697.506-2.375a3.784 3.784 0 011.42-1.579c.61-.375 1.324-.563 2.143-.563.818 0 1.532.188 2.142.563.61.375 1.083.901 1.42 1.579.337.678.506 1.47.506 2.375 0 .902-.169 1.69-.506 2.364a3.795 3.795 0 01-1.42 1.574c-.61.375-1.324.562-2.142.562zm.005-1.426c.53 0 .97-.14 1.318-.42a2.46 2.46 0 00.773-1.12c.17-.465.256-.979.256-1.539 0-.557-.085-1.069-.256-1.534a2.497 2.497 0 00-.773-1.131c-.348-.284-.787-.426-1.318-.426-.534 0-.977.142-1.33.426a2.537 2.537 0 00-.778 1.131 4.52 4.52 0 00-.25 1.534c0 .56.084 1.074.25 1.539.17.466.43.839.779 1.12.352.28.795.42 1.33.42z" fill="#1E222E"/><rect x="42" y="252.678" width="18" height="6" rx="3" fill="#397CE8"/><path d="M16.047 279.883c.519.004 1.03.098 1.534.284.504.185.958.488 1.364.909.409.42.734.989.977 1.704.246.713.371 1.599.375 2.66 0 1.019-.102 1.926-.307 2.721-.205.792-.498 1.46-.88 2.006-.38.545-.84.96-1.381 1.244-.542.284-1.152.426-1.83.426-.693 0-1.309-.136-1.847-.409a3.52 3.52 0 01-1.312-1.13 3.741 3.741 0 01-.63-1.671h1.732c.114.5.345.905.693 1.216.353.307.807.46 1.364.46.852 0 1.517-.371 1.994-1.113.478-.747.718-1.788.722-3.125h-.091a3.134 3.134 0 01-.739.84 3.314 3.314 0 01-.983.546 3.458 3.458 0 01-1.164.193c-.67 0-1.28-.165-1.83-.494a3.647 3.647 0 01-1.312-1.358c-.326-.576-.489-1.233-.489-1.972 0-.735.167-1.401.5-2a3.73 3.73 0 011.41-1.42c.605-.352 1.315-.525 2.13-.517zm.005 1.477c-.443 0-.842.11-1.198.33a2.327 2.327 0 00-.836.88 2.483 2.483 0 00-.307 1.228c0 .45.099.859.296 1.227.2.363.473.653.818.869a2.25 2.25 0 001.193.318c.334 0 .644-.064.932-.193.288-.129.54-.307.756-.534.216-.231.384-.492.506-.784a2.4 2.4 0 00.181-.921 2.42 2.42 0 00-.306-1.193 2.388 2.388 0 00-.83-.886 2.175 2.175 0 00-1.205-.341zm11.891 8.136v-.613c0-.44.091-.841.273-1.205.185-.367.454-.661.807-.88.356-.224.786-.336 1.29-.336.515 0 .947.11 1.295.33.348.22.612.513.79.881.181.367.272.77.272 1.21v.613c0 .44-.09.843-.272 1.211a2.184 2.184 0 01-.801.88c-.349.22-.777.33-1.285.33-.51 0-.943-.11-1.295-.33a2.184 2.184 0 01-.801-.88 2.694 2.694 0 01-.273-1.211zm1.324-.613v.613c0 .326.078.622.233.887.155.265.426.397.813.397.382 0 .65-.132.8-.397.152-.265.228-.561.228-.887v-.613c0-.326-.074-.621-.222-.887-.144-.265-.413-.397-.806-.397-.38 0-.648.132-.807.397-.16.266-.239.561-.239.887zm-7.176-6.046v-.613c0-.44.09-.843.273-1.211a2.17 2.17 0 01.806-.88c.356-.22.786-.33 1.29-.33.515 0 .947.11 1.296.33.348.219.611.513.79.88.178.368.267.771.267 1.211v.613c0 .44-.091.843-.273 1.211a2.144 2.144 0 01-.796.88c-.348.22-.776.33-1.284.33-.515 0-.949-.11-1.3-.33a2.198 2.198 0 01-.796-.88 2.694 2.694 0 01-.273-1.211zm1.33-.613v.613c0 .326.075.622.227.887.155.265.426.397.812.397.379 0 .644-.132.796-.397.155-.265.233-.561.233-.887v-.613a1.79 1.79 0 00-.222-.887c-.148-.265-.417-.397-.807-.397-.379 0-.648.132-.807.397a1.722 1.722 0 00-.232.887zm-.79 9.454l8-11.636h1.358l-8 11.636H22.63zm30.312-7.852H51.17a2.71 2.71 0 00-1.062-1.733 2.95 2.95 0 00-.903-.455 3.535 3.535 0 00-1.052-.153c-.67 0-1.27.169-1.8.506-.527.337-.944.831-1.25 1.483-.304.651-.455 1.447-.455 2.386 0 .947.151 1.746.454 2.398.307.651.726 1.144 1.256 1.477.53.333 1.127.5 1.79.5.367 0 .716-.049 1.045-.148a3 3 0 00.904-.449 2.725 2.725 0 001.074-1.71l1.772.006a4.742 4.742 0 01-.551 1.579 4.344 4.344 0 01-1.04 1.239c-.42.345-.901.612-1.443.801a5.322 5.322 0 01-1.773.284c-1.007 0-1.905-.238-2.693-.716-.788-.481-1.409-1.168-1.863-2.062-.451-.894-.677-1.96-.677-3.199 0-1.242.228-2.309.682-3.199.455-.894 1.076-1.579 1.864-2.057.788-.481 1.684-.721 2.687-.721a5.43 5.43 0 011.728.267c.538.174 1.02.432 1.449.773.427.337.782.75 1.062 1.238.28.485.47 1.04.568 1.665zm5.065 5.898v-7.682h1.528v7.682h-1.528zm-3.074-3.08v-1.523h7.682v1.523h-7.682zm13.41 3.08v-7.682h1.529v7.682h-1.529zm-3.073-3.08v-1.523h7.681v1.523h-7.681zm18.335-7.148l-3.75 13.932H78.34l3.75-13.932h1.517zm5.174 12.182v-11.636h4.148c.901 0 1.65.155 2.244.466.599.31 1.046.74 1.341 1.29.296.545.443 1.176.443 1.892 0 .712-.15 1.339-.448 1.88-.296.538-.743.957-1.341 1.256-.595.299-1.343.449-2.245.449H89.78v-1.512h2.983c.568 0 1.03-.081 1.387-.244.36-.163.623-.399.79-.71.166-.311.25-.684.25-1.119 0-.44-.086-.82-.256-1.142a1.65 1.65 0 00-.79-.739c-.356-.174-.824-.261-1.404-.261h-2.204v10.13H88.78zm5.745-5.25l2.875 5.25h-2l-2.819-5.25h1.944zm9.64 1.631v-5.108h1.704v8.727h-1.67v-1.511h-.091a2.73 2.73 0 01-.966 1.165c-.439.306-.987.46-1.642.46-.561 0-1.057-.123-1.489-.369-.428-.25-.765-.62-1.01-1.108-.243-.489-.365-1.093-.365-1.813v-5.551h1.699v5.347c0 .594.165 1.068.495 1.42.329.352.757.528 1.284.528.318 0 .634-.079.949-.238.318-.159.581-.4.789-.722.212-.322.317-.731.313-1.227zm10.207-2.977l-1.54.272a1.817 1.817 0 00-.307-.562 1.52 1.52 0 00-.557-.438c-.234-.113-.528-.17-.88-.17-.481 0-.883.108-1.205.324-.322.212-.483.487-.483.824 0 .291.108.526.324.704.216.178.564.324 1.046.438l1.386.318c.803.185 1.401.471 1.795.858.394.386.591.888.591 1.505 0 .523-.151.989-.454 1.398-.3.406-.718.724-1.256.955-.534.231-1.153.346-1.858.346-.977 0-1.775-.208-2.392-.625-.617-.42-.996-1.017-1.136-1.789l1.642-.25c.102.428.312.751.63.971.319.216.733.324 1.245.324.557 0 1.002-.115 1.335-.347.333-.234.5-.52.5-.858a.89.89 0 00-.307-.687c-.201-.186-.509-.326-.926-.42l-1.477-.324c-.815-.186-1.417-.481-1.807-.887-.386-.405-.58-.918-.58-1.539 0-.516.144-.966.432-1.353.288-.386.686-.687 1.193-.903.508-.22 1.089-.33 1.745-.33.943 0 1.685.205 2.227.614.542.405.9.949 1.074 1.631zm5.792-2.131v1.364h-4.767v-1.364h4.767zm-3.489-2.091h1.699v8.256c0 .329.05.577.148.744a.763.763 0 00.381.335c.159.057.331.085.517.085.136 0 .255-.009.358-.028l.238-.045.307 1.403a3.393 3.393 0 01-1.102.182 2.994 2.994 0 01-1.25-.239 2.137 2.137 0 01-.938-.773c-.238-.348-.358-.785-.358-1.312v-8.608z" fill="#1E222E"/><rect x="42" y="304.678" width="32" height="6" rx="3" fill="#397CE8"/><path d="M9.353 332.042v11.636h-1.76v-9.875h-.07l-2.783 1.818v-1.681l2.903-1.898h1.71zm6.72 11.829c-.898-.003-1.665-.24-2.302-.71-.636-.47-1.123-1.153-1.46-2.051-.337-.898-.506-1.979-.506-3.244 0-1.262.169-2.339.506-3.233.34-.894.83-1.576 1.466-2.046.64-.469 1.405-.704 2.295-.704.89 0 1.654.237 2.29.71.637.47 1.123 1.152 1.46 2.045.341.891.512 1.966.512 3.228 0 1.269-.169 2.352-.506 3.25-.337.894-.824 1.577-1.46 2.051-.637.47-1.402.704-2.296.704zm0-1.517c.787 0 1.403-.384 1.846-1.153.447-.769.67-1.881.67-3.335 0-.966-.102-1.782-.306-2.449-.201-.671-.491-1.178-.87-1.523a1.904 1.904 0 00-1.34-.523c-.785 0-1.4.387-1.847 1.159-.447.773-.673 1.885-.676 3.336 0 .969.1 1.789.3 2.46.205.667.495 1.172.87 1.517a1.94 1.94 0 001.352.511zm11.87-.858v-.613c0-.44.091-.841.273-1.205.185-.367.454-.661.807-.88.356-.224.786-.336 1.29-.336.515 0 .947.11 1.295.33.348.22.612.513.79.881.181.367.272.77.272 1.21v.613c0 .44-.09.843-.272 1.211a2.184 2.184 0 01-.801.88c-.349.22-.777.33-1.285.33-.51 0-.943-.11-1.295-.33a2.184 2.184 0 01-.801-.88 2.694 2.694 0 01-.273-1.211zm1.324-.613v.613c0 .326.078.622.233.887.155.265.426.397.813.397.382 0 .65-.132.8-.397.152-.265.228-.561.228-.887v-.613c0-.326-.074-.621-.222-.887-.144-.265-.413-.397-.806-.397-.38 0-.648.132-.807.397-.16.266-.239.561-.239.887zm-7.176-6.046v-.613c0-.44.09-.843.273-1.211a2.17 2.17 0 01.806-.88c.356-.22.786-.33 1.29-.33.515 0 .947.11 1.296.33.348.219.611.513.79.88.178.368.267.771.267 1.211v.613c0 .44-.091.843-.273 1.211a2.144 2.144 0 01-.796.88c-.348.22-.776.33-1.284.33-.515 0-.949-.11-1.3-.33a2.198 2.198 0 01-.796-.88 2.694 2.694 0 01-.273-1.211zm1.33-.613v.613c0 .326.075.622.227.887.155.265.426.397.812.397.379 0 .644-.132.796-.397.155-.265.233-.561.233-.887v-.613a1.79 1.79 0 00-.222-.887c-.148-.265-.417-.397-.807-.397-.379 0-.648.132-.807.397a1.722 1.722 0 00-.232.887zm-.79 9.454l8-11.636h1.358l-8 11.636H22.63zm26.994-8.579a1.659 1.659 0 00-.75-1.25c-.44-.3-.992-.449-1.66-.449-.476 0-.89.076-1.238.227a1.905 1.905 0 00-.812.614c-.19.257-.284.551-.284.88 0 .277.064.516.193.716.132.201.305.37.517.506.216.133.447.244.693.335.246.087.483.159.71.216l1.137.296c.37.09.752.214 1.142.369.39.155.752.36 1.085.614.333.253.602.568.807.943.208.375.312.824.312 1.346 0 .659-.17 1.245-.511 1.756-.337.511-.828.915-1.472 1.21-.64.296-1.414.443-2.324.443-.87 0-1.625-.138-2.26-.414-.637-.277-1.135-.669-1.495-1.177-.36-.511-.559-1.117-.597-1.818h1.762c.034.421.17.771.409 1.051.242.277.55.483.926.62.379.132.793.199 1.244.199.496 0 .938-.078 1.324-.233.39-.159.697-.379.92-.659.224-.285.336-.616.336-.995 0-.344-.099-.627-.296-.846a2.181 2.181 0 00-.79-.546 7.61 7.61 0 00-1.119-.38l-1.375-.375c-.932-.254-1.67-.627-2.216-1.12-.541-.492-.812-1.144-.812-1.954 0-.671.181-1.256.545-1.756.364-.5.856-.888 1.477-1.165.622-.28 1.322-.42 2.103-.42.788 0 1.483.138 2.085.415.606.276 1.083.657 1.432 1.142a2.88 2.88 0 01.545 1.659h-1.693zm7.17 8.755c-.818 0-1.532-.187-2.142-.562a3.795 3.795 0 01-1.42-1.574c-.338-.674-.506-1.462-.506-2.364 0-.905.168-1.697.506-2.375a3.784 3.784 0 011.42-1.579c.61-.375 1.324-.563 2.142-.563.818 0 1.532.188 2.142.563.61.375 1.083.901 1.42 1.579.338.678.506 1.47.506 2.375 0 .902-.168 1.69-.505 2.364a3.795 3.795 0 01-1.42 1.574c-.61.375-1.325.562-2.143.562zm.006-1.426c.53 0 .97-.14 1.318-.42.348-.281.606-.654.773-1.12.17-.465.255-.979.255-1.539a4.44 4.44 0 00-.255-1.534 2.497 2.497 0 00-.773-1.131c-.349-.284-.788-.426-1.318-.426-.534 0-.977.142-1.33.426a2.537 2.537 0 00-.778 1.131 4.52 4.52 0 00-.25 1.534c0 .56.083 1.074.25 1.539.17.466.43.839.778 1.12.353.28.796.42 1.33.42zm7.337-10.386v11.636H62.44v-11.636h1.7zm1.966 11.636v-8.727h1.699v8.727h-1.7zm.858-10.074a1.08 1.08 0 01-.761-.295.96.96 0 01-.313-.716.95.95 0 01.313-.716c.212-.201.465-.301.76-.301.296 0 .548.1.757.301a.942.942 0 01.318.716.953.953 0 01-.318.716 1.06 1.06 0 01-.756.295zm6.073 10.245a3.38 3.38 0 01-1.886-.54c-.55-.364-.981-.881-1.296-1.551-.31-.674-.465-1.483-.465-2.426 0-.944.157-1.75.471-2.421.318-.67.754-1.184 1.307-1.54a3.4 3.4 0 011.88-.534c.542 0 .978.091 1.307.273.334.178.591.386.773.625.186.239.33.449.432.631h.102v-4.324h1.7v11.636H75.7v-1.358h-.142c-.102.186-.25.398-.443.637-.19.238-.45.447-.784.625s-.765.267-1.296.267zm.375-1.449c.489 0 .902-.129 1.239-.387.34-.261.599-.623.773-1.085.178-.462.267-1 .267-1.613 0-.606-.087-1.137-.262-1.591-.174-.455-.43-.809-.767-1.063-.337-.254-.753-.381-1.25-.381-.511 0-.937.133-1.278.398-.341.265-.599.627-.773 1.085-.17.459-.255.976-.255 1.552 0 .583.087 1.108.26 1.573.175.466.433.836.774 1.108.344.269.769.404 1.272.404zm6.054 1.278v-8.727h1.699v8.727h-1.7zm.858-10.074a1.08 1.08 0 01-.761-.295.96.96 0 01-.313-.716.95.95 0 01.313-.716c.212-.201.465-.301.76-.301.296 0 .548.1.757.301a.942.942 0 01.318.716.953.953 0 01-.318.716 1.06 1.06 0 01-.756.295zm6.88 1.347v1.364h-4.767v-1.364h4.767zm-3.489-2.091h1.7v8.256c0 .329.049.577.147.744a.767.767 0 00.38.335c.16.057.332.085.518.085.136 0 .255-.009.358-.028l.238-.045.307 1.403a3.392 3.392 0 01-1.102.182 2.995 2.995 0 01-1.25-.239 2.136 2.136 0 01-.938-.773c-.238-.348-.358-.785-.358-1.312v-8.608zm6.122 14.091c-.253 0-.485-.021-.693-.063a2.1 2.1 0 01-.466-.125l.41-1.392c.31.084.586.12.829.108a.993.993 0 00.642-.272c.19-.171.356-.449.5-.836l.21-.579-3.193-8.841h1.818l2.21 6.773h.091l2.21-6.773h1.824l-3.596 9.892a3.933 3.933 0 01-.637 1.153 2.462 2.462 0 01-.92.716c-.356.159-.769.239-1.239.239z" fill="#1E222E"/><rect x="42" y="356.678" width="35" height="6" rx="3" fill="#397CE8"/><path d="M2.704 395.678v-1.273l3.938-4.079c.42-.443.767-.831 1.04-1.165a4.38 4.38 0 00.619-.96c.136-.303.204-.625.204-.966 0-.386-.09-.72-.272-1a1.779 1.779 0 00-.745-.653 2.358 2.358 0 00-1.062-.233c-.417 0-.78.085-1.091.255-.31.171-.55.411-.716.722-.167.311-.25.674-.25 1.091H2.693c0-.708.163-1.328.489-1.858.325-.53.772-.941 1.34-1.233.569-.296 1.215-.443 1.938-.443.731 0 1.375.146 1.932.437.56.288.998.682 1.312 1.182.315.496.472 1.057.472 1.682 0 .432-.082.854-.244 1.267-.16.413-.438.873-.836 1.381-.397.503-.95 1.115-1.659 1.835l-2.312 2.42v.086h5.238v1.505H2.704zm13.384.159c-.78 0-1.477-.134-2.091-.403-.61-.269-1.093-.642-1.449-1.119a2.972 2.972 0 01-.568-1.671h1.784c.023.345.138.644.347.898.212.25.488.443.83.579.34.137.719.205 1.136.205.458 0 .863-.08 1.215-.239.357-.159.635-.38.836-.664.2-.288.3-.62.3-.995 0-.39-.1-.733-.3-1.028-.197-.299-.487-.534-.87-.705-.378-.17-.837-.255-1.375-.255h-.982v-1.432h.982a2.62 2.62 0 001.137-.233c.33-.155.587-.371.773-.648.185-.28.278-.608.278-.983 0-.36-.082-.672-.244-.937a1.639 1.639 0 00-.682-.631c-.292-.152-.637-.227-1.034-.227-.38 0-.733.07-1.063.21-.326.136-.59.333-.795.591a1.52 1.52 0 00-.33.915h-1.699a2.876 2.876 0 01.557-1.66 3.6 3.6 0 011.41-1.119 4.585 4.585 0 011.942-.403c.747 0 1.39.146 1.932.437a3.19 3.19 0 011.262 1.154c.299.481.447 1.007.443 1.579.004.652-.178 1.205-.546 1.659-.363.455-.848.76-1.454.915v.091c.773.117 1.371.424 1.795.92.428.497.64 1.112.637 1.847a2.877 2.877 0 01-.535 1.722c-.356.507-.842.907-1.46 1.198-.617.288-1.324.432-2.119.432zm11.855-2.341v-.613c0-.44.091-.841.273-1.205.185-.367.454-.661.807-.88.356-.224.786-.336 1.29-.336.515 0 .947.11 1.295.33.348.22.612.513.79.881.181.367.272.77.272 1.21v.613c0 .44-.09.843-.272 1.211a2.184 2.184 0 01-.801.88c-.349.22-.777.33-1.285.33-.51 0-.943-.11-1.295-.33a2.184 2.184 0 01-.801-.88 2.694 2.694 0 01-.273-1.211zm1.324-.613v.613c0 .326.078.622.233.887.155.265.426.397.813.397.382 0 .65-.132.8-.397.152-.265.228-.561.228-.887v-.613c0-.326-.074-.621-.222-.887-.144-.265-.413-.397-.806-.397-.38 0-.648.132-.807.397-.16.266-.239.561-.239.887zm-7.176-6.046v-.613c0-.44.09-.843.273-1.211a2.17 2.17 0 01.806-.88c.356-.22.786-.33 1.29-.33.515 0 .947.11 1.296.33.348.219.611.513.79.88.178.368.267.771.267 1.211v.613c0 .44-.091.843-.273 1.211a2.144 2.144 0 01-.796.88c-.348.22-.776.33-1.284.33-.515 0-.949-.11-1.3-.33a2.198 2.198 0 01-.796-.88 2.694 2.694 0 01-.273-1.211zm1.33-.613v.613c0 .326.075.622.227.887.155.265.426.397.812.397.379 0 .644-.132.796-.397.155-.265.233-.561.233-.887v-.613a1.79 1.79 0 00-.222-.887c-.148-.265-.417-.397-.807-.397-.379 0-.648.132-.807.397a1.722 1.722 0 00-.232.887zm-.79 9.454l8-11.636h1.358l-8 11.636H22.63zm30.755-5.818c0 1.242-.227 2.311-.681 3.205-.455.89-1.078 1.575-1.87 2.056-.788.478-1.684.716-2.687.716-1.008 0-1.908-.238-2.7-.716-.787-.481-1.408-1.168-1.863-2.062-.454-.894-.682-1.96-.682-3.199 0-1.242.228-2.309.682-3.199.455-.894 1.076-1.579 1.864-2.057.791-.481 1.691-.721 2.699-.721 1.003 0 1.9.24 2.687.721.792.478 1.415 1.163 1.87 2.057.454.89.681 1.957.681 3.199zm-1.738 0c0-.947-.154-1.744-.46-2.392-.303-.652-.72-1.144-1.25-1.477a3.249 3.249 0 00-1.79-.506c-.67 0-1.27.169-1.796.506-.526.333-.943.825-1.25 1.477-.303.648-.454 1.445-.454 2.392 0 .947.151 1.746.454 2.398.307.647.724 1.14 1.25 1.477a3.29 3.29 0 001.796.5c.666 0 1.263-.167 1.79-.5.53-.337.947-.83 1.25-1.477.306-.652.46-1.451.46-2.398zm7.545-2.909v1.364h-4.767v-1.364h4.767zm-3.489-2.091h1.699v8.256c0 .329.05.577.148.744a.767.767 0 00.38.335c.16.057.332.085.518.085.136 0 .255-.009.357-.028l.24-.045.306 1.403a3.392 3.392 0 01-1.102.182 2.995 2.995 0 01-1.25-.239 2.136 2.136 0 01-.938-.773c-.238-.348-.358-.785-.358-1.312v-8.608zm6.934 5.636v5.182H60.94v-11.636h1.676v4.329h.108c.204-.469.517-.842.937-1.119.42-.276.97-.415 1.648-.415.598 0 1.121.123 1.568.37.45.246.8.613 1.046 1.102.25.485.374 1.091.374 1.818v5.551H66.6v-5.346c0-.641-.165-1.137-.495-1.489-.33-.356-.788-.534-1.375-.534a2.25 2.25 0 00-1.08.256c-.314.17-.562.42-.743.75-.179.325-.268.719-.268 1.181zm11.368 5.358c-.86 0-1.6-.183-2.222-.551a3.738 3.738 0 01-1.431-1.562c-.334-.675-.5-1.464-.5-2.37 0-.894.166-1.681.5-2.363a3.885 3.885 0 011.409-1.597c.606-.382 1.314-.574 2.125-.574.492 0 .97.082 1.431.245.463.163.877.418 1.245.767.367.348.657.801.869 1.358.212.553.318 1.225.318 2.017v.602h-6.937v-1.273h5.272a2.5 2.5 0 00-.272-1.187 2.06 2.06 0 00-.767-.824c-.326-.201-.709-.301-1.148-.301-.477 0-.894.117-1.25.352a2.364 2.364 0 00-.818.909c-.19.371-.284.775-.284 1.21v.995c0 .583.102 1.079.306 1.488.209.409.499.722.87.938.371.212.805.318 1.301.318.322 0 .615-.046.88-.136a1.826 1.826 0 001.13-1.108l1.61.289c-.13.474-.36.889-.694 1.245-.33.352-.744.627-1.244.824-.496.193-1.063.289-1.7.289zm5.31-.176v-8.727h1.641v1.386h.091c.16-.469.44-.839.841-1.108a2.412 2.412 0 011.375-.409 6.875 6.875 0 01.722.04v1.625a2.916 2.916 0 00-.364-.062 3.409 3.409 0 00-.523-.04c-.401 0-.76.085-1.074.255a1.904 1.904 0 00-1.011 1.711v5.329h-1.699z" fill="#1E222E"/><rect x="42" y="408.678" width="85" height="6" rx="3" fill="#397CE8"/></svg>